G04 #@! TF.GenerationSoftware,KiCad,Pcbnew,(5.1.9-0-10_14)*
G04 #@! TF.CreationDate,2021-05-08T08:27:26+09:00*
G04 #@! TF.ProjectId,RL78Display,524c3738-4469-4737-906c-61792e6b6963,V1.1*
G04 #@! TF.SameCoordinates,Original*
G04 #@! TF.FileFunction,Soldermask,Top*
G04 #@! TF.FilePolarity,Negative*
%FSLAX46Y46*%
G04 Gerber Fmt 4.6, Leading zero omitted, Abs format (unit mm)*
G04 Created by KiCad (PCBNEW (5.1.9-0-10_14)) date 2021-05-08 08:27:26*
%MOMM*%
%LPD*%
G01*
G04 APERTURE LIST*
%ADD10R,3.200000X1.400000*%
%ADD11C,1.500000*%
%ADD12R,1.800000X1.200000*%
%ADD13R,1.500000X0.700000*%
%ADD14C,0.100000*%
%ADD15C,1.400000*%
%ADD16R,0.900000X0.800000*%
%ADD17R,1.800000X2.200000*%
%ADD18R,0.150000X1.300000*%
%ADD19O,1.700000X1.700000*%
%ADD20R,1.700000X1.700000*%
%ADD21R,2.500000X3.000000*%
%ADD22R,0.400000X1.400000*%
G04 APERTURE END LIST*
G36*
G01*
X-12125000Y-7450000D02*
X-11675000Y-7450000D01*
G75*
G02*
X-11450000Y-7675000I0J-225000D01*
G01*
X-11450000Y-8225000D01*
G75*
G02*
X-11675000Y-8450000I-225000J0D01*
G01*
X-12125000Y-8450000D01*
G75*
G02*
X-12350000Y-8225000I0J225000D01*
G01*
X-12350000Y-7675000D01*
G75*
G02*
X-12125000Y-7450000I225000J0D01*
G01*
G37*
G36*
G01*
X-12125000Y-5750000D02*
X-11675000Y-5750000D01*
G75*
G02*
X-11450000Y-5975000I0J-225000D01*
G01*
X-11450000Y-6525000D01*
G75*
G02*
X-11675000Y-6750000I-225000J0D01*
G01*
X-12125000Y-6750000D01*
G75*
G02*
X-12350000Y-6525000I0J225000D01*
G01*
X-12350000Y-5975000D01*
G75*
G02*
X-12125000Y-5750000I225000J0D01*
G01*
G37*
G36*
G01*
X-10625000Y-7450000D02*
X-10175000Y-7450000D01*
G75*
G02*
X-9950000Y-7675000I0J-225000D01*
G01*
X-9950000Y-8225000D01*
G75*
G02*
X-10175000Y-8450000I-225000J0D01*
G01*
X-10625000Y-8450000D01*
G75*
G02*
X-10850000Y-8225000I0J225000D01*
G01*
X-10850000Y-7675000D01*
G75*
G02*
X-10625000Y-7450000I225000J0D01*
G01*
G37*
G36*
G01*
X-10625000Y-5750000D02*
X-10175000Y-5750000D01*
G75*
G02*
X-9950000Y-5975000I0J-225000D01*
G01*
X-9950000Y-6525000D01*
G75*
G02*
X-10175000Y-6750000I-225000J0D01*
G01*
X-10625000Y-6750000D01*
G75*
G02*
X-10850000Y-6525000I0J225000D01*
G01*
X-10850000Y-5975000D01*
G75*
G02*
X-10625000Y-5750000I225000J0D01*
G01*
G37*
G36*
G01*
X-9125000Y-7450000D02*
X-8675000Y-7450000D01*
G75*
G02*
X-8450000Y-7675000I0J-225000D01*
G01*
X-8450000Y-8225000D01*
G75*
G02*
X-8675000Y-8450000I-225000J0D01*
G01*
X-9125000Y-8450000D01*
G75*
G02*
X-9350000Y-8225000I0J225000D01*
G01*
X-9350000Y-7675000D01*
G75*
G02*
X-9125000Y-7450000I225000J0D01*
G01*
G37*
G36*
G01*
X-9125000Y-5750000D02*
X-8675000Y-5750000D01*
G75*
G02*
X-8450000Y-5975000I0J-225000D01*
G01*
X-8450000Y-6525000D01*
G75*
G02*
X-8675000Y-6750000I-225000J0D01*
G01*
X-9125000Y-6750000D01*
G75*
G02*
X-9350000Y-6525000I0J225000D01*
G01*
X-9350000Y-5975000D01*
G75*
G02*
X-9125000Y-5750000I225000J0D01*
G01*
G37*
G36*
G01*
X-7625000Y-7450000D02*
X-7175000Y-7450000D01*
G75*
G02*
X-6950000Y-7675000I0J-225000D01*
G01*
X-6950000Y-8225000D01*
G75*
G02*
X-7175000Y-8450000I-225000J0D01*
G01*
X-7625000Y-8450000D01*
G75*
G02*
X-7850000Y-8225000I0J225000D01*
G01*
X-7850000Y-7675000D01*
G75*
G02*
X-7625000Y-7450000I225000J0D01*
G01*
G37*
G36*
G01*
X-7625000Y-5750000D02*
X-7175000Y-5750000D01*
G75*
G02*
X-6950000Y-5975000I0J-225000D01*
G01*
X-6950000Y-6525000D01*
G75*
G02*
X-7175000Y-6750000I-225000J0D01*
G01*
X-7625000Y-6750000D01*
G75*
G02*
X-7850000Y-6525000I0J225000D01*
G01*
X-7850000Y-5975000D01*
G75*
G02*
X-7625000Y-5750000I225000J0D01*
G01*
G37*
G36*
G01*
X-6125000Y-7450000D02*
X-5675000Y-7450000D01*
G75*
G02*
X-5450000Y-7675000I0J-225000D01*
G01*
X-5450000Y-8225000D01*
G75*
G02*
X-5675000Y-8450000I-225000J0D01*
G01*
X-6125000Y-8450000D01*
G75*
G02*
X-6350000Y-8225000I0J225000D01*
G01*
X-6350000Y-7675000D01*
G75*
G02*
X-6125000Y-7450000I225000J0D01*
G01*
G37*
G36*
G01*
X-6125000Y-5750000D02*
X-5675000Y-5750000D01*
G75*
G02*
X-5450000Y-5975000I0J-225000D01*
G01*
X-5450000Y-6525000D01*
G75*
G02*
X-5675000Y-6750000I-225000J0D01*
G01*
X-6125000Y-6750000D01*
G75*
G02*
X-6350000Y-6525000I0J225000D01*
G01*
X-6350000Y-5975000D01*
G75*
G02*
X-6125000Y-5750000I225000J0D01*
G01*
G37*
D10*
X8400000Y8700000D03*
X8400000Y300000D03*
D11*
X11700000Y12200000D03*
X6700000Y12200000D03*
X-6700000Y12200000D03*
X-11700000Y12200000D03*
D12*
X-9000000Y-2900000D03*
X-9000000Y-300000D03*
D13*
X-350000Y5000000D03*
X-350000Y2000000D03*
X-4050000Y5000000D03*
X-4050000Y2000000D03*
D14*
G36*
X-1300000Y4000000D02*
G01*
X400000Y4000000D01*
X400000Y3000000D01*
X-1300000Y3000000D01*
X-1800000Y2500000D01*
X-2600000Y2500000D01*
X-2600000Y3000000D01*
X-4800000Y3000000D01*
X-4800000Y4000000D01*
X-2600000Y4000000D01*
X-2600000Y4500000D01*
X-1800000Y4500000D01*
X-1300000Y4000000D01*
G37*
D15*
X11500000Y-5000000D03*
X11500000Y-3000000D03*
X11500000Y-1000000D03*
G36*
G01*
X9375000Y-950000D02*
X9825000Y-950000D01*
G75*
G02*
X10050000Y-1175000I0J-225000D01*
G01*
X10050000Y-1725000D01*
G75*
G02*
X9825000Y-1950000I-225000J0D01*
G01*
X9375000Y-1950000D01*
G75*
G02*
X9150000Y-1725000I0J225000D01*
G01*
X9150000Y-1175000D01*
G75*
G02*
X9375000Y-950000I225000J0D01*
G01*
G37*
G36*
G01*
X9375000Y-2650000D02*
X9825000Y-2650000D01*
G75*
G02*
X10050000Y-2875000I0J-225000D01*
G01*
X10050000Y-3425000D01*
G75*
G02*
X9825000Y-3650000I-225000J0D01*
G01*
X9375000Y-3650000D01*
G75*
G02*
X9150000Y-3425000I0J225000D01*
G01*
X9150000Y-2875000D01*
G75*
G02*
X9375000Y-2650000I225000J0D01*
G01*
G37*
G36*
G01*
X8325000Y-3650000D02*
X7875000Y-3650000D01*
G75*
G02*
X7650000Y-3425000I0J225000D01*
G01*
X7650000Y-2875000D01*
G75*
G02*
X7875000Y-2650000I225000J0D01*
G01*
X8325000Y-2650000D01*
G75*
G02*
X8550000Y-2875000I0J-225000D01*
G01*
X8550000Y-3425000D01*
G75*
G02*
X8325000Y-3650000I-225000J0D01*
G01*
G37*
G36*
G01*
X8325000Y-1950000D02*
X7875000Y-1950000D01*
G75*
G02*
X7650000Y-1725000I0J225000D01*
G01*
X7650000Y-1175000D01*
G75*
G02*
X7875000Y-950000I225000J0D01*
G01*
X8325000Y-950000D01*
G75*
G02*
X8550000Y-1175000I0J-225000D01*
G01*
X8550000Y-1725000D01*
G75*
G02*
X8325000Y-1950000I-225000J0D01*
G01*
G37*
G36*
G01*
X6825000Y-3650000D02*
X6375000Y-3650000D01*
G75*
G02*
X6150000Y-3425000I0J225000D01*
G01*
X6150000Y-2875000D01*
G75*
G02*
X6375000Y-2650000I225000J0D01*
G01*
X6825000Y-2650000D01*
G75*
G02*
X7050000Y-2875000I0J-225000D01*
G01*
X7050000Y-3425000D01*
G75*
G02*
X6825000Y-3650000I-225000J0D01*
G01*
G37*
G36*
G01*
X6825000Y-1950000D02*
X6375000Y-1950000D01*
G75*
G02*
X6150000Y-1725000I0J225000D01*
G01*
X6150000Y-1175000D01*
G75*
G02*
X6375000Y-950000I225000J0D01*
G01*
X6825000Y-950000D01*
G75*
G02*
X7050000Y-1175000I0J-225000D01*
G01*
X7050000Y-1725000D01*
G75*
G02*
X6825000Y-1950000I-225000J0D01*
G01*
G37*
G36*
G01*
X3325000Y2350000D02*
X2875000Y2350000D01*
G75*
G02*
X2650000Y2575000I0J225000D01*
G01*
X2650000Y3125000D01*
G75*
G02*
X2875000Y3350000I225000J0D01*
G01*
X3325000Y3350000D01*
G75*
G02*
X3550000Y3125000I0J-225000D01*
G01*
X3550000Y2575000D01*
G75*
G02*
X3325000Y2350000I-225000J0D01*
G01*
G37*
G36*
G01*
X3325000Y4050000D02*
X2875000Y4050000D01*
G75*
G02*
X2650000Y4275000I0J225000D01*
G01*
X2650000Y4825000D01*
G75*
G02*
X2875000Y5050000I225000J0D01*
G01*
X3325000Y5050000D01*
G75*
G02*
X3550000Y4825000I0J-225000D01*
G01*
X3550000Y4275000D01*
G75*
G02*
X3325000Y4050000I-225000J0D01*
G01*
G37*
G36*
G01*
X-10175000Y7650000D02*
X-10625000Y7650000D01*
G75*
G02*
X-10850000Y7875000I0J225000D01*
G01*
X-10850000Y8425000D01*
G75*
G02*
X-10625000Y8650000I225000J0D01*
G01*
X-10175000Y8650000D01*
G75*
G02*
X-9950000Y8425000I0J-225000D01*
G01*
X-9950000Y7875000D01*
G75*
G02*
X-10175000Y7650000I-225000J0D01*
G01*
G37*
G36*
G01*
X-10175000Y9350000D02*
X-10625000Y9350000D01*
G75*
G02*
X-10850000Y9575000I0J225000D01*
G01*
X-10850000Y10125000D01*
G75*
G02*
X-10625000Y10350000I225000J0D01*
G01*
X-10175000Y10350000D01*
G75*
G02*
X-9950000Y10125000I0J-225000D01*
G01*
X-9950000Y9575000D01*
G75*
G02*
X-10175000Y9350000I-225000J0D01*
G01*
G37*
G36*
G01*
X-8675000Y2350000D02*
X-9125000Y2350000D01*
G75*
G02*
X-9350000Y2575000I0J225000D01*
G01*
X-9350000Y3125000D01*
G75*
G02*
X-9125000Y3350000I225000J0D01*
G01*
X-8675000Y3350000D01*
G75*
G02*
X-8450000Y3125000I0J-225000D01*
G01*
X-8450000Y2575000D01*
G75*
G02*
X-8675000Y2350000I-225000J0D01*
G01*
G37*
G36*
G01*
X-8675000Y4050000D02*
X-9125000Y4050000D01*
G75*
G02*
X-9350000Y4275000I0J225000D01*
G01*
X-9350000Y4825000D01*
G75*
G02*
X-9125000Y5050000I225000J0D01*
G01*
X-8675000Y5050000D01*
G75*
G02*
X-8450000Y4825000I0J-225000D01*
G01*
X-8450000Y4275000D01*
G75*
G02*
X-8675000Y4050000I-225000J0D01*
G01*
G37*
D16*
X8100000Y-6150000D03*
X8100000Y-8050000D03*
X10100000Y-7100000D03*
G36*
G01*
X-8675000Y7650000D02*
X-9125000Y7650000D01*
G75*
G02*
X-9350000Y7875000I0J225000D01*
G01*
X-9350000Y8425000D01*
G75*
G02*
X-9125000Y8650000I225000J0D01*
G01*
X-8675000Y8650000D01*
G75*
G02*
X-8450000Y8425000I0J-225000D01*
G01*
X-8450000Y7875000D01*
G75*
G02*
X-8675000Y7650000I-225000J0D01*
G01*
G37*
G36*
G01*
X-8675000Y9350000D02*
X-9125000Y9350000D01*
G75*
G02*
X-9350000Y9575000I0J225000D01*
G01*
X-9350000Y10125000D01*
G75*
G02*
X-9125000Y10350000I225000J0D01*
G01*
X-8675000Y10350000D01*
G75*
G02*
X-8450000Y10125000I0J-225000D01*
G01*
X-8450000Y9575000D01*
G75*
G02*
X-8675000Y9350000I-225000J0D01*
G01*
G37*
D17*
X4650000Y-3100000D03*
X-4650000Y-3100000D03*
D18*
X-2750000Y150000D03*
X-2250000Y150000D03*
X-1750000Y150000D03*
X-1250000Y150000D03*
X-750000Y150000D03*
X-250000Y150000D03*
X250000Y150000D03*
X750000Y150000D03*
X1250000Y150000D03*
X1750000Y150000D03*
X2250000Y150000D03*
X2750000Y150000D03*
D19*
X-8890000Y-10700000D03*
X-6350000Y-10700000D03*
X-3810000Y-10700000D03*
X-1270000Y-10700000D03*
X1270000Y-10700000D03*
X3810000Y-10700000D03*
X6350000Y-10700000D03*
D20*
X8890000Y-10700000D03*
D21*
X-4200000Y10400000D03*
X4200000Y10400000D03*
D22*
X-1600000Y7900000D03*
X-800000Y7900000D03*
X0Y7900000D03*
X800000Y7900000D03*
X1600000Y7900000D03*
G36*
G01*
X-7625000Y10350000D02*
X-7175000Y10350000D01*
G75*
G02*
X-6950000Y10125000I0J-225000D01*
G01*
X-6950000Y9575000D01*
G75*
G02*
X-7175000Y9350000I-225000J0D01*
G01*
X-7625000Y9350000D01*
G75*
G02*
X-7850000Y9575000I0J225000D01*
G01*
X-7850000Y10125000D01*
G75*
G02*
X-7625000Y10350000I225000J0D01*
G01*
G37*
G36*
G01*
X-7625000Y8650000D02*
X-7175000Y8650000D01*
G75*
G02*
X-6950000Y8425000I0J-225000D01*
G01*
X-6950000Y7875000D01*
G75*
G02*
X-7175000Y7650000I-225000J0D01*
G01*
X-7625000Y7650000D01*
G75*
G02*
X-7850000Y7875000I0J225000D01*
G01*
X-7850000Y8425000D01*
G75*
G02*
X-7625000Y8650000I225000J0D01*
G01*
G37*
G36*
G01*
X-11675000Y7650000D02*
X-12125000Y7650000D01*
G75*
G02*
X-12350000Y7875000I0J225000D01*
G01*
X-12350000Y8425000D01*
G75*
G02*
X-12125000Y8650000I225000J0D01*
G01*
X-11675000Y8650000D01*
G75*
G02*
X-11450000Y8425000I0J-225000D01*
G01*
X-11450000Y7875000D01*
G75*
G02*
X-11675000Y7650000I-225000J0D01*
G01*
G37*
G36*
G01*
X-11675000Y9350000D02*
X-12125000Y9350000D01*
G75*
G02*
X-12350000Y9575000I0J225000D01*
G01*
X-12350000Y10125000D01*
G75*
G02*
X-12125000Y10350000I225000J0D01*
G01*
X-11675000Y10350000D01*
G75*
G02*
X-11450000Y10125000I0J-225000D01*
G01*
X-11450000Y9575000D01*
G75*
G02*
X-11675000Y9350000I-225000J0D01*
G01*
G37*
G36*
G01*
X-10175000Y2350000D02*
X-10625000Y2350000D01*
G75*
G02*
X-10850000Y2575000I0J225000D01*
G01*
X-10850000Y3125000D01*
G75*
G02*
X-10625000Y3350000I225000J0D01*
G01*
X-10175000Y3350000D01*
G75*
G02*
X-9950000Y3125000I0J-225000D01*
G01*
X-9950000Y2575000D01*
G75*
G02*
X-10175000Y2350000I-225000J0D01*
G01*
G37*
G36*
G01*
X-10175000Y4050000D02*
X-10625000Y4050000D01*
G75*
G02*
X-10850000Y4275000I0J225000D01*
G01*
X-10850000Y4825000D01*
G75*
G02*
X-10625000Y5050000I225000J0D01*
G01*
X-10175000Y5050000D01*
G75*
G02*
X-9950000Y4825000I0J-225000D01*
G01*
X-9950000Y4275000D01*
G75*
G02*
X-10175000Y4050000I-225000J0D01*
G01*
G37*
G36*
G01*
X-11675000Y2350000D02*
X-12125000Y2350000D01*
G75*
G02*
X-12350000Y2575000I0J225000D01*
G01*
X-12350000Y3125000D01*
G75*
G02*
X-12125000Y3350000I225000J0D01*
G01*
X-11675000Y3350000D01*
G75*
G02*
X-11450000Y3125000I0J-225000D01*
G01*
X-11450000Y2575000D01*
G75*
G02*
X-11675000Y2350000I-225000J0D01*
G01*
G37*
G36*
G01*
X-11675000Y4050000D02*
X-12125000Y4050000D01*
G75*
G02*
X-12350000Y4275000I0J225000D01*
G01*
X-12350000Y4825000D01*
G75*
G02*
X-12125000Y5050000I225000J0D01*
G01*
X-11675000Y5050000D01*
G75*
G02*
X-11450000Y4825000I0J-225000D01*
G01*
X-11450000Y4275000D01*
G75*
G02*
X-11675000Y4050000I-225000J0D01*
G01*
G37*
G36*
G01*
X6825000Y-8450000D02*
X6375000Y-8450000D01*
G75*
G02*
X6150000Y-8225000I0J225000D01*
G01*
X6150000Y-7675000D01*
G75*
G02*
X6375000Y-7450000I225000J0D01*
G01*
X6825000Y-7450000D01*
G75*
G02*
X7050000Y-7675000I0J-225000D01*
G01*
X7050000Y-8225000D01*
G75*
G02*
X6825000Y-8450000I-225000J0D01*
G01*
G37*
G36*
G01*
X6825000Y-6750000D02*
X6375000Y-6750000D01*
G75*
G02*
X6150000Y-6525000I0J225000D01*
G01*
X6150000Y-5975000D01*
G75*
G02*
X6375000Y-5750000I225000J0D01*
G01*
X6825000Y-5750000D01*
G75*
G02*
X7050000Y-5975000I0J-225000D01*
G01*
X7050000Y-6525000D01*
G75*
G02*
X6825000Y-6750000I-225000J0D01*
G01*
G37*
G36*
G01*
X1825000Y2350000D02*
X1375000Y2350000D01*
G75*
G02*
X1150000Y2575000I0J225000D01*
G01*
X1150000Y3125000D01*
G75*
G02*
X1375000Y3350000I225000J0D01*
G01*
X1825000Y3350000D01*
G75*
G02*
X2050000Y3125000I0J-225000D01*
G01*
X2050000Y2575000D01*
G75*
G02*
X1825000Y2350000I-225000J0D01*
G01*
G37*
G36*
G01*
X1825000Y4050000D02*
X1375000Y4050000D01*
G75*
G02*
X1150000Y4275000I0J225000D01*
G01*
X1150000Y4825000D01*
G75*
G02*
X1375000Y5050000I225000J0D01*
G01*
X1825000Y5050000D01*
G75*
G02*
X2050000Y4825000I0J-225000D01*
G01*
X2050000Y4275000D01*
G75*
G02*
X1825000Y4050000I-225000J0D01*
G01*
G37*
G36*
G01*
X-6225000Y5050000D02*
X-5775000Y5050000D01*
G75*
G02*
X-5550000Y4825000I0J-225000D01*
G01*
X-5550000Y4275000D01*
G75*
G02*
X-5775000Y4050000I-225000J0D01*
G01*
X-6225000Y4050000D01*
G75*
G02*
X-6450000Y4275000I0J225000D01*
G01*
X-6450000Y4825000D01*
G75*
G02*
X-6225000Y5050000I225000J0D01*
G01*
G37*
G36*
G01*
X-6225000Y3350000D02*
X-5775000Y3350000D01*
G75*
G02*
X-5550000Y3125000I0J-225000D01*
G01*
X-5550000Y2575000D01*
G75*
G02*
X-5775000Y2350000I-225000J0D01*
G01*
X-6225000Y2350000D01*
G75*
G02*
X-6450000Y2575000I0J225000D01*
G01*
X-6450000Y3125000D01*
G75*
G02*
X-6225000Y3350000I225000J0D01*
G01*
G37*
G36*
G01*
X-10450000Y-3500000D02*
X-10750000Y-3500000D01*
G75*
G02*
X-10900000Y-3350000I0J150000D01*
G01*
X-10900000Y-3050000D01*
G75*
G02*
X-10750000Y-2900000I150000J0D01*
G01*
X-10450000Y-2900000D01*
G75*
G02*
X-10300000Y-3050000I0J-150000D01*
G01*
X-10300000Y-3350000D01*
G75*
G02*
X-10450000Y-3500000I-150000J0D01*
G01*
G37*
G36*
G01*
X-10450000Y-2500000D02*
X-10750000Y-2500000D01*
G75*
G02*
X-10900000Y-2350000I0J150000D01*
G01*
X-10900000Y-2050000D01*
G75*
G02*
X-10750000Y-1900000I150000J0D01*
G01*
X-10450000Y-1900000D01*
G75*
G02*
X-10300000Y-2050000I0J-150000D01*
G01*
X-10300000Y-2350000D01*
G75*
G02*
X-10450000Y-2500000I-150000J0D01*
G01*
G37*
G36*
G01*
X-10750000Y300000D02*
X-10450000Y300000D01*
G75*
G02*
X-10300000Y150000I0J-150000D01*
G01*
X-10300000Y-150000D01*
G75*
G02*
X-10450000Y-300000I-150000J0D01*
G01*
X-10750000Y-300000D01*
G75*
G02*
X-10900000Y-150000I0J150000D01*
G01*
X-10900000Y150000D01*
G75*
G02*
X-10750000Y300000I150000J0D01*
G01*
G37*
G36*
G01*
X-10750000Y-700000D02*
X-10450000Y-700000D01*
G75*
G02*
X-10300000Y-850000I0J-150000D01*
G01*
X-10300000Y-1150000D01*
G75*
G02*
X-10450000Y-1300000I-150000J0D01*
G01*
X-10750000Y-1300000D01*
G75*
G02*
X-10900000Y-1150000I0J150000D01*
G01*
X-10900000Y-850000D01*
G75*
G02*
X-10750000Y-700000I150000J0D01*
G01*
G37*
M02*
