G04 #@! TF.GenerationSoftware,KiCad,Pcbnew,(5.1.9-0-10_14)*
G04 #@! TF.CreationDate,2021-07-10T20:48:45+09:00*
G04 #@! TF.ProjectId,RL78Display,524c3738-4469-4737-906c-61792e6b6963,V2.1*
G04 #@! TF.SameCoordinates,Original*
G04 #@! TF.FileFunction,Copper,L2,Bot*
G04 #@! TF.FilePolarity,Positive*
%FSLAX46Y46*%
G04 Gerber Fmt 4.6, Leading zero omitted, Abs format (unit mm)*
G04 Created by KiCad (PCBNEW (5.1.9-0-10_14)) date 2021-07-10 20:48:45*
%MOMM*%
%LPD*%
G01*
G04 APERTURE LIST*
G04 #@! TA.AperFunction,ComponentPad*
%ADD10O,1.500000X1.500000*%
G04 #@! TD*
G04 #@! TA.AperFunction,ComponentPad*
%ADD11R,1.500000X1.500000*%
G04 #@! TD*
G04 #@! TA.AperFunction,SMDPad,CuDef*
%ADD12R,1.800000X1.900000*%
G04 #@! TD*
G04 #@! TA.AperFunction,SMDPad,CuDef*
%ADD13R,2.100000X1.600000*%
G04 #@! TD*
G04 #@! TA.AperFunction,SMDPad,CuDef*
%ADD14R,0.300000X1.750000*%
G04 #@! TD*
G04 #@! TA.AperFunction,SMDPad,CuDef*
%ADD15R,1.400000X0.300000*%
G04 #@! TD*
G04 #@! TA.AperFunction,SMDPad,CuDef*
%ADD16R,0.300000X1.400000*%
G04 #@! TD*
G04 #@! TA.AperFunction,ComponentPad*
%ADD17C,1.400000*%
G04 #@! TD*
G04 #@! TA.AperFunction,ViaPad*
%ADD18C,0.609600*%
G04 #@! TD*
G04 #@! TA.AperFunction,Conductor*
%ADD19C,0.203200*%
G04 #@! TD*
G04 #@! TA.AperFunction,Conductor*
%ADD20C,0.254000*%
G04 #@! TD*
G04 #@! TA.AperFunction,Conductor*
%ADD21C,0.100000*%
G04 #@! TD*
G04 APERTURE END LIST*
D10*
X-8890000Y-10050000D03*
X-6350000Y-10050000D03*
X-3810000Y-10050000D03*
X-1270000Y-10050000D03*
X1270000Y-10050000D03*
X3810000Y-10050000D03*
X6350000Y-10050000D03*
D11*
X8890000Y-10050000D03*
D12*
X3250000Y12600000D03*
X-3250000Y12600000D03*
D13*
X3100000Y10050000D03*
X-3100000Y10050000D03*
D14*
X1300000Y9725000D03*
X650000Y9725000D03*
X0Y9725000D03*
X-650000Y9725000D03*
X-1300000Y9725000D03*
D15*
X-6800000Y-4875000D03*
X-6800000Y-4225000D03*
X-6800000Y-3575000D03*
X-6800000Y-2925000D03*
X-6800000Y-2275000D03*
X-6800000Y-1625000D03*
X-6800000Y-975000D03*
X-6800000Y-325000D03*
X-6800000Y325000D03*
X-6800000Y975000D03*
X-6800000Y1625000D03*
X-6800000Y2275000D03*
X-6800000Y2925000D03*
X-6850000Y3575000D03*
X-6800000Y4225000D03*
X-6800000Y4875000D03*
D16*
X-4875000Y6800000D03*
X-4225000Y6800000D03*
X-3575000Y6800000D03*
X-2925000Y6800000D03*
X-2275000Y6800000D03*
X-1625000Y6800000D03*
X-975000Y6800000D03*
X-325000Y6800000D03*
X325000Y6800000D03*
X975000Y6800000D03*
X1625000Y6800000D03*
X2275000Y6800000D03*
X2925000Y6800000D03*
X3575000Y6800000D03*
X4225000Y6800000D03*
X4875000Y6800000D03*
D15*
X6800000Y4875000D03*
X6800000Y4225000D03*
X6800000Y3575000D03*
X6800000Y2925000D03*
X6800000Y2275000D03*
X6800000Y1625000D03*
X6800000Y975000D03*
X6800000Y325000D03*
X6800000Y-325000D03*
X6800000Y-975000D03*
X6800000Y-1625000D03*
X6800000Y-2275000D03*
X6800000Y-2925000D03*
X6800000Y-3575000D03*
X6800000Y-4225000D03*
X6800000Y-4875000D03*
D16*
X4875000Y-6800000D03*
X4225000Y-6800000D03*
X3575000Y-6800000D03*
X2925000Y-6800000D03*
X2275000Y-6800000D03*
X1625000Y-6800000D03*
X975000Y-6800000D03*
X325000Y-6800000D03*
X-325000Y-6800000D03*
X-975000Y-6800000D03*
X-1625000Y-6800000D03*
X-2275000Y-6800000D03*
X-2925000Y-6800000D03*
X-3575000Y-6800000D03*
X-4225000Y-6800000D03*
X-4875000Y-6800000D03*
D17*
X12000000Y-5000000D03*
X12000000Y-3000000D03*
X12000000Y-1000000D03*
D18*
X-9853800Y-1025300D03*
X-9618000Y-1838500D03*
X-5574200Y4790600D03*
X-5123800Y8022100D03*
X-1067100Y11111000D03*
X-5536700Y7285100D03*
X-6116300Y6662400D03*
X-10400000Y4769400D03*
X-3499200Y-336300D03*
X-2001400Y-2312700D03*
X-2082800Y-3486400D03*
X-2888600Y-2312500D03*
X-665000Y-1647900D03*
X-3110600Y-3584100D03*
X4000Y-1023100D03*
X5573700Y-5020600D03*
X6295800Y-6913400D03*
X5282600Y430700D03*
X-809100Y-8044800D03*
X8795900Y4875000D03*
X9669400Y4789800D03*
X-9792000Y347000D03*
X-1700000Y11800000D03*
X-8817800Y1038900D03*
X-500000Y-13163300D03*
X5461400Y-14199900D03*
X-5306900Y-11488700D03*
X2040100Y-11987000D03*
X5326200Y8481200D03*
X5326200Y2605700D03*
X6463900Y6948300D03*
X3155100Y-4037700D03*
X-6414100Y-8123500D03*
X-11678400Y4779000D03*
X-8900000Y5366200D03*
X-5096600Y-8784500D03*
X-8014500Y5027600D03*
X-8100000Y10700000D03*
X7000000Y13450000D03*
D19*
X-6800000Y-325000D02*
X-9153500Y-325000D01*
X-9153500Y-325000D02*
X-9853800Y-1025300D01*
X-6800000Y-975000D02*
X-8754500Y-975000D01*
X-8754500Y-975000D02*
X-9618000Y-1838500D01*
X-5794900Y4790600D02*
X-5794900Y4225000D01*
X-6800000Y4875000D02*
X-5879300Y4875000D01*
X-5879300Y4875000D02*
X-5794900Y4790600D01*
X-5794900Y4790600D02*
X-5574200Y4790600D01*
X-5794900Y4225000D02*
X-5794900Y-8439800D01*
X-5794900Y-8439800D02*
X-6350000Y-8994900D01*
X12000000Y-3000000D02*
X10326100Y-4673900D01*
X10326100Y-4673900D02*
X10326100Y-10588800D01*
X10326100Y-10588800D02*
X9537800Y-11377100D01*
X9537800Y-11377100D02*
X1772000Y-11377100D01*
X1772000Y-11377100D02*
X1606700Y-11542400D01*
X1606700Y-11542400D02*
X-3911800Y-11542400D01*
X-3911800Y-11542400D02*
X-5294900Y-10159300D01*
X-5294900Y-10159300D02*
X-5294900Y-10050000D01*
X-6350000Y-10050000D02*
X-5294900Y-10050000D01*
X-6800000Y4225000D02*
X-5794900Y4225000D01*
X-6350000Y-10050000D02*
X-6350000Y-8994900D01*
X-2275000Y7805100D02*
X-4906800Y7805100D01*
X-4906800Y7805100D02*
X-5123800Y8022100D01*
X-2275000Y6800000D02*
X-2275000Y7805100D01*
X-1300000Y9725000D02*
X-1300000Y10905100D01*
X-1300000Y10905100D02*
X-1273000Y10905100D01*
X-1273000Y10905100D02*
X-1067100Y11111000D01*
X-6800000Y-2275000D02*
X-8094300Y-2275000D01*
X-8094300Y-2275000D02*
X-8677800Y-2858500D01*
X-8677800Y-2858500D02*
X-10044200Y-2858500D01*
X-10044200Y-2858500D02*
X-11055300Y-1847400D01*
X-11055300Y-1847400D02*
X-11055300Y5049500D01*
X-11055300Y5049500D02*
X-8819700Y7285100D01*
X-8819700Y7285100D02*
X-5536700Y7285100D01*
X-10400000Y4769400D02*
X-8507000Y6662400D01*
X-8507000Y6662400D02*
X-6116300Y6662400D01*
X-6800000Y-1625000D02*
X-8215600Y-1625000D01*
X-8215600Y-1625000D02*
X-9042300Y-2451700D01*
X-9042300Y-2451700D02*
X-9871400Y-2451700D01*
X-9871400Y-2451700D02*
X-10483300Y-1839800D01*
X-10483300Y-1839800D02*
X-10483300Y4686100D01*
X-10483300Y4686100D02*
X-10400000Y4769400D01*
X-3810000Y-10050000D02*
X-2754900Y-10050000D01*
X975000Y-6800000D02*
X975000Y-8641600D01*
X975000Y-8641600D02*
X0Y-9616600D01*
X0Y-9616600D02*
X0Y-10312600D01*
X0Y-10312600D02*
X-810900Y-11123500D01*
X-810900Y-11123500D02*
X-1790700Y-11123500D01*
X-1790700Y-11123500D02*
X-2754900Y-10159300D01*
X-2754900Y-10159300D02*
X-2754900Y-10050000D01*
X-1270000Y-8994900D02*
X-864800Y-8994900D01*
X-864800Y-8994900D02*
X325000Y-7805100D01*
X325000Y-6800000D02*
X325000Y-7805100D01*
X-1270000Y-10050000D02*
X-1270000Y-8994900D01*
X7805100Y1625000D02*
X7805100Y-6266700D01*
X7805100Y-6266700D02*
X5269700Y-8802100D01*
X5269700Y-8802100D02*
X3463700Y-8802100D01*
X3463700Y-8802100D02*
X2325100Y-9940700D01*
X2325100Y-9940700D02*
X2325100Y-10050000D01*
X1270000Y-10050000D02*
X2325100Y-10050000D01*
X6800000Y1625000D02*
X7805100Y1625000D01*
X7805100Y2275000D02*
X8211800Y1868300D01*
X8211800Y1868300D02*
X8211800Y-6482900D01*
X8211800Y-6482900D02*
X4865100Y-9829600D01*
X4865100Y-9829600D02*
X4865100Y-10050000D01*
X3810000Y-10050000D02*
X4865100Y-10050000D01*
X6800000Y2275000D02*
X7805100Y2275000D01*
X6350000Y-10050000D02*
X6350000Y-8994900D01*
X6800000Y2925000D02*
X7805100Y2925000D01*
X7805100Y2925000D02*
X8618600Y2111500D01*
X8618600Y2111500D02*
X8618600Y-6726300D01*
X8618600Y-6726300D02*
X6350000Y-8994900D01*
X7805100Y3575000D02*
X9042400Y2337700D01*
X9042400Y2337700D02*
X9042400Y-8842500D01*
X9042400Y-8842500D02*
X8890000Y-8994900D01*
X8890000Y-10050000D02*
X8890000Y-8994900D01*
X6800000Y3575000D02*
X7805100Y3575000D01*
X6800000Y-325000D02*
X-3487900Y-325000D01*
X-3487900Y-325000D02*
X-3499200Y-336300D01*
X6800000Y-2275000D02*
X5794900Y-2275000D01*
X-2001400Y-2312700D02*
X5757200Y-2312700D01*
X5757200Y-2312700D02*
X5794900Y-2275000D01*
X6800000Y-3575000D02*
X5794900Y-3575000D01*
X5794900Y-3575000D02*
X5628800Y-3408900D01*
X5628800Y-3408900D02*
X-2005300Y-3408900D01*
X-2005300Y-3408900D02*
X-2082800Y-3486400D01*
X-665000Y-1647900D02*
X-2224000Y-1647900D01*
X-2224000Y-1647900D02*
X-2888600Y-2312500D01*
X5794900Y-1625000D02*
X5772000Y-1647900D01*
X5772000Y-1647900D02*
X-665000Y-1647900D01*
X6800000Y-1625000D02*
X5794900Y-1625000D01*
X4000Y-1023100D02*
X-2466800Y-1023100D01*
X-2466800Y-1023100D02*
X-3498800Y-2055100D01*
X-3498800Y-2055100D02*
X-3498800Y-3195900D01*
X-3498800Y-3195900D02*
X-3110600Y-3584100D01*
X5794900Y-975000D02*
X5746800Y-1023100D01*
X5746800Y-1023100D02*
X4000Y-1023100D01*
X6800000Y-975000D02*
X5794900Y-975000D01*
X5573700Y-5020600D02*
X5573700Y-6191300D01*
X5573700Y-6191300D02*
X6295800Y-6913400D01*
X6800000Y325000D02*
X5794900Y325000D01*
X5282600Y430700D02*
X5689200Y430700D01*
X5689200Y430700D02*
X5794900Y325000D01*
X-4875000Y-7805100D02*
X-4635300Y-8044800D01*
X-4635300Y-8044800D02*
X-809100Y-8044800D01*
X-4875000Y-6800000D02*
X-4875000Y-7805100D01*
X6800000Y4875000D02*
X8795900Y4875000D01*
X6800000Y4225000D02*
X9104600Y4225000D01*
X9104600Y4225000D02*
X9669400Y4789800D01*
X-9792000Y347000D02*
X-9792000Y938100D01*
X-9792000Y938100D02*
X-7805100Y2925000D01*
X-7826400Y3575000D02*
X-7826400Y2946300D01*
X-7826400Y2946300D02*
X-7805100Y2925000D01*
X-3250000Y12600000D02*
X-3250000Y12003300D01*
X3250000Y12600000D02*
X3250000Y11344900D01*
X3100000Y10050000D02*
X3100000Y11194900D01*
X3100000Y11194900D02*
X3250000Y11344900D01*
X-6850000Y3575000D02*
X-7826400Y3575000D01*
X-6800000Y2925000D02*
X-7805100Y2925000D01*
X-3100000Y10050000D02*
X-3100000Y11200000D01*
X-3250000Y11350000D02*
X-3100000Y11200000D01*
X-3250000Y12600000D02*
X-3250000Y11350000D01*
X1300000Y9725000D02*
X1300000Y12600000D01*
X3250000Y12600000D02*
X1300000Y12600000D01*
X-1700000Y12500000D02*
X-1600000Y12600000D01*
X-1700000Y11800000D02*
X-1700000Y12500000D01*
X-1600000Y12600000D02*
X-3250000Y12600000D01*
X1300000Y12600000D02*
X-1600000Y12600000D01*
X-7805100Y2275000D02*
X-8817800Y1262300D01*
X-8817800Y1262300D02*
X-8817800Y1038900D01*
X-6800000Y2275000D02*
X-7805100Y2275000D01*
X-500000Y-13163300D02*
X536600Y-14199900D01*
X536600Y-14199900D02*
X5461400Y-14199900D01*
X-5306900Y-11488700D02*
X-4808600Y-11987000D01*
X-4808600Y-11987000D02*
X2040100Y-11987000D01*
X5326200Y2605700D02*
X-1458200Y2605700D01*
X-1458200Y2605700D02*
X-4130200Y-66300D01*
X-4130200Y-66300D02*
X-4130200Y-3939700D01*
X-4130200Y-3939700D02*
X-2275000Y-5794900D01*
X0Y9725000D02*
X0Y8544900D01*
X-2275000Y-6800000D02*
X-2275000Y-5794900D01*
X5326200Y8481200D02*
X63700Y8481200D01*
X63700Y8481200D02*
X0Y8544900D01*
X-1625000Y-6800000D02*
X-1625000Y-5794900D01*
X-650000Y9725000D02*
X-650000Y8544900D01*
X6463900Y6948300D02*
X5607000Y7805200D01*
X5607000Y7805200D02*
X89700Y7805200D01*
X89700Y7805200D02*
X-650000Y8544900D01*
X-1625000Y-5794900D02*
X1397900Y-5794900D01*
X1397900Y-5794900D02*
X3155100Y-4037700D01*
X4875000Y6800000D02*
X4875000Y5794900D01*
X12000000Y-5000000D02*
X13032800Y-3967200D01*
X13032800Y-3967200D02*
X13032800Y2303300D01*
X13032800Y2303300D02*
X9541200Y5794900D01*
X9541200Y5794900D02*
X4875000Y5794900D01*
X-6414100Y-8123500D02*
X-11678400Y-2859200D01*
X-11678400Y-2859200D02*
X-11678400Y4779000D01*
X-5727500Y5947500D02*
X-8318700Y5947500D01*
X-8318700Y5947500D02*
X-8900000Y5366200D01*
X-4875000Y6800000D02*
X-4875000Y5896800D01*
X-4875000Y5896800D02*
X-4933590Y5838210D01*
X-5618210Y5838210D02*
X-5727500Y5947500D01*
X-4933590Y5838210D02*
X-5618210Y5838210D01*
X-4946900Y5431800D02*
X-4946900Y-384800D01*
X-4946900Y-384800D02*
X-5330200Y-768100D01*
X-5330200Y-768100D02*
X-5330200Y-8550900D01*
X-5330200Y-8550900D02*
X-5096600Y-8784500D01*
X-4946900Y5431800D02*
X-7610300Y5431800D01*
X-7610300Y5431800D02*
X-8014500Y5027600D01*
X-4368200Y5431800D02*
X-4946900Y5431800D01*
X-4225000Y5575000D02*
X-4368200Y5431800D01*
X-4225000Y6800000D02*
X-4225000Y5575000D01*
D20*
X-6127000Y8127000D02*
X-12873000Y8127000D01*
X-12873000Y14123000D01*
X-6127000Y14123000D01*
X-6127000Y8127000D01*
G04 #@! TA.AperFunction,Conductor*
D21*
G36*
X-6127000Y8127000D02*
G01*
X-12873000Y8127000D01*
X-12873000Y14123000D01*
X-6127000Y14123000D01*
X-6127000Y8127000D01*
G37*
G04 #@! TD.AperFunction*
D20*
X12873000Y8127000D02*
X6127000Y8127000D01*
X6127000Y14123000D01*
X12873000Y14123000D01*
X12873000Y8127000D01*
G04 #@! TA.AperFunction,Conductor*
D21*
G36*
X12873000Y8127000D02*
G01*
X6127000Y8127000D01*
X6127000Y14123000D01*
X12873000Y14123000D01*
X12873000Y8127000D01*
G37*
G04 #@! TD.AperFunction*
M02*
