G04 #@! TF.GenerationSoftware,KiCad,Pcbnew,(5.1.9-0-10_14)*
G04 #@! TF.CreationDate,2021-06-20T22:16:49+09:00*
G04 #@! TF.ProjectId,RL78Display,524c3738-4469-4737-906c-61792e6b6963,V2.0*
G04 #@! TF.SameCoordinates,Original*
G04 #@! TF.FileFunction,Copper,L2,Bot*
G04 #@! TF.FilePolarity,Positive*
%FSLAX46Y46*%
G04 Gerber Fmt 4.6, Leading zero omitted, Abs format (unit mm)*
G04 Created by KiCad (PCBNEW (5.1.9-0-10_14)) date 2021-06-20 22:16:49*
%MOMM*%
%LPD*%
G01*
G04 APERTURE LIST*
G04 #@! TA.AperFunction,ComponentPad*
%ADD10O,1.700000X1.700000*%
G04 #@! TD*
G04 #@! TA.AperFunction,ComponentPad*
%ADD11R,1.700000X1.700000*%
G04 #@! TD*
G04 #@! TA.AperFunction,SMDPad,CuDef*
%ADD12R,1.800000X1.900000*%
G04 #@! TD*
G04 #@! TA.AperFunction,SMDPad,CuDef*
%ADD13R,2.100000X1.600000*%
G04 #@! TD*
G04 #@! TA.AperFunction,SMDPad,CuDef*
%ADD14R,0.300000X1.750000*%
G04 #@! TD*
G04 #@! TA.AperFunction,SMDPad,CuDef*
%ADD15R,1.400000X0.300000*%
G04 #@! TD*
G04 #@! TA.AperFunction,SMDPad,CuDef*
%ADD16R,0.300000X1.400000*%
G04 #@! TD*
G04 #@! TA.AperFunction,ComponentPad*
%ADD17C,1.400000*%
G04 #@! TD*
G04 #@! TA.AperFunction,ViaPad*
%ADD18C,0.609600*%
G04 #@! TD*
G04 #@! TA.AperFunction,Conductor*
%ADD19C,0.203200*%
G04 #@! TD*
G04 #@! TA.AperFunction,Conductor*
%ADD20C,0.254000*%
G04 #@! TD*
G04 #@! TA.AperFunction,Conductor*
%ADD21C,0.100000*%
G04 #@! TD*
G04 APERTURE END LIST*
D10*
X-8890000Y-10050000D03*
X-6350000Y-10050000D03*
X-3810000Y-10050000D03*
X-1270000Y-10050000D03*
X1270000Y-10050000D03*
X3810000Y-10050000D03*
X6350000Y-10050000D03*
D11*
X8890000Y-10050000D03*
D12*
X3250000Y12600000D03*
X-3250000Y12600000D03*
D13*
X3100000Y10050000D03*
X-3100000Y10050000D03*
D14*
X1300000Y9725000D03*
X650000Y9725000D03*
X0Y9725000D03*
X-650000Y9725000D03*
X-1300000Y9725000D03*
D15*
X-6800000Y-4875000D03*
X-6800000Y-4225000D03*
X-6800000Y-3575000D03*
X-6800000Y-2925000D03*
X-6800000Y-2275000D03*
X-6800000Y-1625000D03*
X-6800000Y-975000D03*
X-6800000Y-325000D03*
X-6800000Y325000D03*
X-6800000Y975000D03*
X-6800000Y1625000D03*
X-6800000Y2275000D03*
X-6800000Y2925000D03*
X-6850000Y3575000D03*
X-6800000Y4225000D03*
X-6800000Y4875000D03*
D16*
X-4875000Y6800000D03*
X-4225000Y6800000D03*
X-3575000Y6800000D03*
X-2925000Y6800000D03*
X-2275000Y6800000D03*
X-1625000Y6800000D03*
X-975000Y6800000D03*
X-325000Y6800000D03*
X325000Y6800000D03*
X975000Y6800000D03*
X1625000Y6800000D03*
X2275000Y6800000D03*
X2925000Y6800000D03*
X3575000Y6800000D03*
X4225000Y6800000D03*
X4875000Y6800000D03*
D15*
X6800000Y4875000D03*
X6800000Y4225000D03*
X6800000Y3575000D03*
X6800000Y2925000D03*
X6800000Y2275000D03*
X6800000Y1625000D03*
X6800000Y975000D03*
X6800000Y325000D03*
X6800000Y-325000D03*
X6800000Y-975000D03*
X6800000Y-1625000D03*
X6800000Y-2275000D03*
X6800000Y-2925000D03*
X6800000Y-3575000D03*
X6800000Y-4225000D03*
X6800000Y-4875000D03*
D16*
X4875000Y-6800000D03*
X4225000Y-6800000D03*
X3575000Y-6800000D03*
X2925000Y-6800000D03*
X2275000Y-6800000D03*
X1625000Y-6800000D03*
X975000Y-6800000D03*
X325000Y-6800000D03*
X-325000Y-6800000D03*
X-975000Y-6800000D03*
X-1625000Y-6800000D03*
X-2275000Y-6800000D03*
X-2925000Y-6800000D03*
X-3575000Y-6800000D03*
X-4225000Y-6800000D03*
X-4875000Y-6800000D03*
D17*
X12000000Y-5000000D03*
X12000000Y-3000000D03*
X12000000Y-1000000D03*
D18*
X-8279300Y50700D03*
X-8110100Y-1073900D03*
X-7525500Y5591900D03*
X-2674600Y5210200D03*
X-4976900Y8386200D03*
X-2741300Y8439400D03*
X-606300Y11111400D03*
X-6816400Y6148400D03*
X-8338700Y5564900D03*
X-2174400Y1428800D03*
X-2211300Y-1596200D03*
X-1402000Y-2344300D03*
X-396600Y-1592800D03*
X292100Y-1118000D03*
X5300000Y150000D03*
X-2178300Y-8448200D03*
X5005800Y-10820700D03*
X9710300Y-4285200D03*
X11204200Y1217400D03*
X5491500Y5034200D03*
X-2679400Y-11384100D03*
X-1775000Y11340000D03*
X4433800Y-11448000D03*
X-8294000Y1891300D03*
X-7662500Y-11908200D03*
X-4287300Y-13088400D03*
X440000Y11119200D03*
X-1614000Y5534700D03*
X4781400Y8009700D03*
X2862500Y-3333300D03*
X-4204200Y-12039700D03*
X-4196600Y-14074200D03*
X-7150000Y11550000D03*
X7150000Y13450000D03*
D19*
X-7805100Y-325000D02*
X-8180800Y50700D01*
X-8180800Y50700D02*
X-8279300Y50700D01*
X-6800000Y-325000D02*
X-7805100Y-325000D01*
X-7805100Y-975000D02*
X-7904000Y-1073900D01*
X-7904000Y-1073900D02*
X-8110100Y-1073900D01*
X-6800000Y-975000D02*
X-7805100Y-975000D01*
X12000000Y-3000000D02*
X10951200Y-4048800D01*
X10951200Y-4048800D02*
X10951200Y-11340300D01*
X10951200Y-11340300D02*
X10231800Y-12059700D01*
X10231800Y-12059700D02*
X-3321600Y-12059700D01*
X-3321600Y-12059700D02*
X-3975500Y-11405800D01*
X-3975500Y-11405800D02*
X-4108400Y-11405800D01*
X-4108400Y-11405800D02*
X-5194900Y-10319300D01*
X-5194900Y-10319300D02*
X-5194900Y-10050000D01*
X-7805100Y4875000D02*
X-7805100Y5235900D01*
X-7805100Y5235900D02*
X-7525600Y5515400D01*
X-7525600Y5515400D02*
X-7525600Y5591900D01*
X-7525600Y5591900D02*
X-7525500Y5591900D01*
X-6800000Y4875000D02*
X-7805100Y4875000D01*
X-5381100Y4018100D02*
X-3866700Y4018100D01*
X-3866700Y4018100D02*
X-2674600Y5210200D01*
X-5794900Y4225000D02*
X-5588000Y4018100D01*
X-5588000Y4018100D02*
X-5381100Y4018100D01*
X-5381100Y4018100D02*
X-5381100Y-7926000D01*
X-5381100Y-7926000D02*
X-6350000Y-8894900D01*
X-6800000Y4225000D02*
X-5794900Y4225000D01*
X-6800000Y4225000D02*
X-7225800Y4225000D01*
X-6350000Y-10050000D02*
X-5194900Y-10050000D01*
X-6350000Y-10050000D02*
X-6350000Y-8894900D01*
X-7225800Y4225000D02*
X-7805100Y4225000D01*
X-7805100Y4875000D02*
X-7805100Y4225000D01*
X-2275000Y7805100D02*
X-4395800Y7805100D01*
X-4395800Y7805100D02*
X-4976900Y8386200D01*
X-2275000Y6800000D02*
X-2275000Y7805100D01*
X-1300000Y10905100D02*
X-812600Y10905100D01*
X-812600Y10905100D02*
X-606300Y11111400D01*
X-1300000Y9725000D02*
X-1300000Y10905100D01*
X-1300000Y8544900D02*
X-2635800Y8544900D01*
X-2635800Y8544900D02*
X-2741300Y8439400D01*
X-1300000Y9725000D02*
X-1300000Y8544900D01*
X-7805100Y-2275000D02*
X-8380200Y-2275000D01*
X-8380200Y-2275000D02*
X-9319300Y-1335900D01*
X-9319300Y-1335900D02*
X-9319300Y5458700D01*
X-9319300Y5458700D02*
X-8561700Y6216300D01*
X-8561700Y6216300D02*
X-6884300Y6216300D01*
X-6884300Y6216300D02*
X-6816400Y6148400D01*
X-6800000Y-2275000D02*
X-7805100Y-2275000D01*
X-6800000Y-1625000D02*
X-6876200Y-1701200D01*
X-6876200Y-1701200D02*
X-8361900Y-1701200D01*
X-8361900Y-1701200D02*
X-8906700Y-1156400D01*
X-8906700Y-1156400D02*
X-8906700Y4996900D01*
X-8906700Y4996900D02*
X-8338700Y5564900D01*
X975000Y-6800000D02*
X975000Y-8441600D01*
X975000Y-8441600D02*
X0Y-9416600D01*
X0Y-9416600D02*
X0Y-10443300D01*
X0Y-10443300D02*
X-767900Y-11211200D01*
X-767900Y-11211200D02*
X-1756100Y-11211200D01*
X-1756100Y-11211200D02*
X-2654900Y-10312400D01*
X-2654900Y-10312400D02*
X-2654900Y-10050000D01*
X-3810000Y-10050000D02*
X-2654900Y-10050000D01*
X325000Y-6800000D02*
X325000Y-7805100D01*
X-1270000Y-10050000D02*
X-1270000Y-8894900D01*
X325000Y-7805100D02*
X-180200Y-7805100D01*
X-180200Y-7805100D02*
X-1270000Y-8894900D01*
X1270000Y-10050000D02*
X2425100Y-10050000D01*
X6800000Y1625000D02*
X7805100Y1625000D01*
X7805100Y1625000D02*
X7805100Y-5190600D01*
X7805100Y-5190600D02*
X4367000Y-8628700D01*
X4367000Y-8628700D02*
X3577100Y-8628700D01*
X3577100Y-8628700D02*
X2425100Y-9780700D01*
X2425100Y-9780700D02*
X2425100Y-10050000D01*
X7805100Y2275000D02*
X8269500Y1810600D01*
X8269500Y1810600D02*
X8269500Y-5590500D01*
X8269500Y-5590500D02*
X3810000Y-10050000D01*
X6800000Y2275000D02*
X7805100Y2275000D01*
X6350000Y-10050000D02*
X6350000Y-8894900D01*
X6800000Y2925000D02*
X7805100Y2925000D01*
X7805100Y2925000D02*
X8676300Y2053800D01*
X8676300Y2053800D02*
X8676300Y-6568600D01*
X8676300Y-6568600D02*
X6350000Y-8894900D01*
X8890000Y-10050000D02*
X8890000Y-8894900D01*
X6800000Y3575000D02*
X7805100Y3575000D01*
X7805100Y3575000D02*
X9083100Y2297000D01*
X9083100Y2297000D02*
X9083100Y-8701800D01*
X9083100Y-8701800D02*
X8890000Y-8894900D01*
X5794900Y-325000D02*
X5645300Y-474600D01*
X5645300Y-474600D02*
X-271000Y-474600D01*
X-271000Y-474600D02*
X-2174400Y1428800D01*
X6800000Y-325000D02*
X5794900Y-325000D01*
X5794900Y-2275000D02*
X-576900Y-2275000D01*
X-576900Y-2275000D02*
X-1255700Y-1596200D01*
X-1255700Y-1596200D02*
X-2211300Y-1596200D01*
X6800000Y-2275000D02*
X5794900Y-2275000D01*
X-1402000Y-2344300D02*
X-1035200Y-2711100D01*
X-1035200Y-2711100D02*
X3212100Y-2711100D01*
X3212100Y-2711100D02*
X4076000Y-3575000D01*
X4076000Y-3575000D02*
X6800000Y-3575000D01*
X6800000Y-1625000D02*
X5794900Y-1625000D01*
X5794900Y-1625000D02*
X5658500Y-1761400D01*
X5658500Y-1761400D02*
X-228000Y-1761400D01*
X-228000Y-1761400D02*
X-396600Y-1592800D01*
X5794900Y-975000D02*
X5651900Y-1118000D01*
X5651900Y-1118000D02*
X292100Y-1118000D01*
X6800000Y-975000D02*
X5794900Y-975000D01*
X6800000Y325000D02*
X5794900Y325000D01*
X5300000Y150000D02*
X5619900Y150000D01*
X5619900Y150000D02*
X5794900Y325000D01*
X-4875000Y-7805100D02*
X-2821400Y-7805100D01*
X-2821400Y-7805100D02*
X-2178300Y-8448200D01*
X-4875000Y-6800000D02*
X-4875000Y-7805100D01*
X5005800Y-10820700D02*
X5390200Y-11205100D01*
X5390200Y-11205100D02*
X9934100Y-11205100D01*
X9934100Y-11205100D02*
X10095500Y-11043700D01*
X10095500Y-11043700D02*
X10095500Y-4670400D01*
X10095500Y-4670400D02*
X9710300Y-4285200D01*
X6800000Y4875000D02*
X7805100Y4875000D01*
X7805100Y4875000D02*
X7805100Y4616500D01*
X7805100Y4616500D02*
X11204200Y1217400D01*
X6800000Y4225000D02*
X5794900Y4225000D01*
X5794900Y4225000D02*
X5794900Y4730800D01*
X5794900Y4730800D02*
X5491500Y5034200D01*
X-6850000Y3575000D02*
X-5844900Y3575000D01*
X-5844900Y3575000D02*
X-5794900Y3525000D01*
X-5794900Y3525000D02*
X-5794900Y2925000D01*
X-6800000Y2925000D02*
X-5794900Y2925000D01*
X-8890000Y-10050000D02*
X-8890000Y-8894900D01*
X-8890000Y-8894900D02*
X-5794900Y-5799800D01*
X-5794900Y-5799800D02*
X-5794900Y2925000D01*
X4433800Y-11623400D02*
X-2440100Y-11623400D01*
X-2440100Y-11623400D02*
X-2679400Y-11384100D01*
X12000000Y-1000000D02*
X10523400Y-2476600D01*
X10523400Y-2476600D02*
X10523400Y-11190900D01*
X10523400Y-11190900D02*
X10090900Y-11623400D01*
X10090900Y-11623400D02*
X4433800Y-11623400D01*
X4433800Y-11623400D02*
X4433800Y-11448000D01*
X-1775000Y11340000D02*
X-1378200Y11736800D01*
X-1378200Y11736800D02*
X1181700Y11736800D01*
X-2730400Y11524700D02*
X-2730400Y11524600D01*
X-2730400Y11524600D02*
X-1959600Y11524600D01*
X-1959600Y11524600D02*
X-1775000Y11340000D01*
X3100000Y10050000D02*
X1744900Y10050000D01*
X1300000Y10315100D02*
X1479800Y10315100D01*
X1479800Y10315100D02*
X1744900Y10050000D01*
X1300000Y10315100D02*
X1300000Y10905100D01*
X1300000Y9725000D02*
X1300000Y10315100D01*
X1181700Y11736800D02*
X2044900Y12600000D01*
X1181700Y11736800D02*
X1181700Y11023400D01*
X1181700Y11023400D02*
X1300000Y10905100D01*
X3250000Y12600000D02*
X2044900Y12600000D01*
X-3250000Y12044200D02*
X-2730400Y11524700D01*
X-2730400Y11524700D02*
X-3100000Y11155100D01*
X-3100000Y10050000D02*
X-3100000Y11155100D01*
X-3250000Y12600000D02*
X-3250000Y12044200D01*
X-6800000Y2275000D02*
X-7910300Y2275000D01*
X-7910300Y2275000D02*
X-8294000Y1891300D01*
X-7662500Y-11908200D02*
X-6482300Y-13088400D01*
X-6482300Y-13088400D02*
X-4287300Y-13088400D01*
X-1614000Y5534700D02*
X-1614000Y5182700D01*
X-1614000Y5182700D02*
X-2825100Y3971600D01*
X-2825100Y3971600D02*
X-2825100Y-4813800D01*
X-2825100Y-4813800D02*
X-2275000Y-5363900D01*
X-2275000Y-5363900D02*
X-2275000Y-6800000D01*
X440000Y11119200D02*
X0Y10679200D01*
X0Y10679200D02*
X0Y9725000D01*
X-1625000Y-5794900D02*
X400900Y-5794900D01*
X400900Y-5794900D02*
X2862500Y-3333300D01*
X-1625000Y-6800000D02*
X-1625000Y-5794900D01*
X-650000Y9725000D02*
X-650000Y8544900D01*
X-650000Y8544900D02*
X4246200Y8544900D01*
X4246200Y8544900D02*
X4781400Y8009700D01*
X4875000Y6800000D02*
X4875000Y5794900D01*
X12000000Y-5000000D02*
X13030800Y-3969200D01*
X13030800Y-3969200D02*
X13030800Y254300D01*
X13030800Y254300D02*
X7490200Y5794900D01*
X7490200Y5794900D02*
X4875000Y5794900D01*
X-4875000Y6800000D02*
X-5267500Y7192500D01*
X-5267500Y7192500D02*
X-8736100Y7192500D01*
X-8736100Y7192500D02*
X-10469900Y5458700D01*
X-10469900Y5458700D02*
X-10469900Y-10732600D01*
X-10469900Y-10732600D02*
X-6518300Y-14684200D01*
X-6518300Y-14684200D02*
X-3936000Y-14684200D01*
X-3936000Y-14684200D02*
X-3586600Y-14334800D01*
X-3586600Y-14334800D02*
X-3586600Y-12657300D01*
X-3586600Y-12657300D02*
X-4204200Y-12039700D01*
X-4196600Y-14074200D02*
X-6512700Y-14074200D01*
X-6512700Y-14074200D02*
X-10059600Y-10527300D01*
X-10059600Y-10527300D02*
X-10059600Y5293700D01*
X-10059600Y5293700D02*
X-8572800Y6780500D01*
X-8572800Y6780500D02*
X-6137800Y6780500D01*
X-6137800Y6780500D02*
X-5152200Y5794900D01*
X-5152200Y5794900D02*
X-4225000Y5794900D01*
X-4225000Y6800000D02*
X-4225000Y5794900D01*
D20*
X-5627000Y9065177D02*
X-5706890Y8985287D01*
X-5809740Y8831362D01*
X-5880584Y8660329D01*
X-5916700Y8478762D01*
X-5916700Y8293638D01*
X-5888282Y8150771D01*
X-12740000Y8129089D01*
X-12740000Y14090000D01*
X-5627000Y14090000D01*
X-5627000Y9065177D01*
G04 #@! TA.AperFunction,Conductor*
D21*
G36*
X-5627000Y9065177D02*
G01*
X-5706890Y8985287D01*
X-5809740Y8831362D01*
X-5880584Y8660329D01*
X-5916700Y8478762D01*
X-5916700Y8293638D01*
X-5888282Y8150771D01*
X-12740000Y8129089D01*
X-12740000Y14090000D01*
X-5627000Y14090000D01*
X-5627000Y9065177D01*
G37*
G04 #@! TD.AperFunction*
D20*
X12740000Y8124911D02*
X5721113Y8102700D01*
X5685084Y8283829D01*
X5627000Y8424057D01*
X5627000Y14090000D01*
X12740000Y14090000D01*
X12740000Y8124911D01*
G04 #@! TA.AperFunction,Conductor*
D21*
G36*
X12740000Y8124911D02*
G01*
X5721113Y8102700D01*
X5685084Y8283829D01*
X5627000Y8424057D01*
X5627000Y14090000D01*
X12740000Y14090000D01*
X12740000Y8124911D01*
G37*
G04 #@! TD.AperFunction*
M02*
