G04 #@! TF.GenerationSoftware,KiCad,Pcbnew,(5.1.9-0-10_14)*
G04 #@! TF.CreationDate,2021-04-11T20:05:45+09:00*
G04 #@! TF.ProjectId,RL78Display,524c3738-4469-4737-906c-61792e6b6963,V1.0*
G04 #@! TF.SameCoordinates,Original*
G04 #@! TF.FileFunction,Copper,L1,Top*
G04 #@! TF.FilePolarity,Positive*
%FSLAX46Y46*%
G04 Gerber Fmt 4.6, Leading zero omitted, Abs format (unit mm)*
G04 Created by KiCad (PCBNEW (5.1.9-0-10_14)) date 2021-04-11 20:05:45*
%MOMM*%
%LPD*%
G01*
G04 APERTURE LIST*
G04 #@! TA.AperFunction,SMDPad,CuDef*
%ADD10R,3.200000X1.400000*%
G04 #@! TD*
G04 #@! TA.AperFunction,ComponentPad*
%ADD11C,1.500000*%
G04 #@! TD*
G04 #@! TA.AperFunction,SMDPad,CuDef*
%ADD12R,1.800000X1.200000*%
G04 #@! TD*
G04 #@! TA.AperFunction,SMDPad,CuDef*
%ADD13R,1.500000X0.700000*%
G04 #@! TD*
G04 #@! TA.AperFunction,SMDPad,CuDef*
%ADD14C,0.100000*%
G04 #@! TD*
G04 #@! TA.AperFunction,ComponentPad*
%ADD15C,1.400000*%
G04 #@! TD*
G04 #@! TA.AperFunction,SMDPad,CuDef*
%ADD16R,0.900000X0.800000*%
G04 #@! TD*
G04 #@! TA.AperFunction,SMDPad,CuDef*
%ADD17R,1.800000X2.200000*%
G04 #@! TD*
G04 #@! TA.AperFunction,SMDPad,CuDef*
%ADD18R,0.150000X1.300000*%
G04 #@! TD*
G04 #@! TA.AperFunction,ComponentPad*
%ADD19O,1.700000X1.700000*%
G04 #@! TD*
G04 #@! TA.AperFunction,ComponentPad*
%ADD20R,1.700000X1.700000*%
G04 #@! TD*
G04 #@! TA.AperFunction,SMDPad,CuDef*
%ADD21R,2.500000X3.000000*%
G04 #@! TD*
G04 #@! TA.AperFunction,SMDPad,CuDef*
%ADD22R,0.400000X1.400000*%
G04 #@! TD*
G04 #@! TA.AperFunction,ViaPad*
%ADD23C,0.609600*%
G04 #@! TD*
G04 #@! TA.AperFunction,Conductor*
%ADD24C,0.203200*%
G04 #@! TD*
G04 #@! TA.AperFunction,Conductor*
%ADD25C,0.254000*%
G04 #@! TD*
G04 #@! TA.AperFunction,Conductor*
%ADD26C,0.100000*%
G04 #@! TD*
G04 APERTURE END LIST*
D10*
X8400000Y8700000D03*
X8400000Y300000D03*
D11*
X11700000Y12200000D03*
X6700000Y12200000D03*
X-6700000Y12200000D03*
X-11700000Y12200000D03*
D12*
X-9000000Y-3500000D03*
X-9000000Y-900000D03*
D13*
X1050000Y5000000D03*
X1050000Y2000000D03*
X-2650000Y5000000D03*
X-2650000Y2000000D03*
G04 #@! TA.AperFunction,SMDPad,CuDef*
D14*
G36*
X100000Y4000000D02*
G01*
X1800000Y4000000D01*
X1800000Y3000000D01*
X100000Y3000000D01*
X-400000Y2500000D01*
X-1200000Y2500000D01*
X-1200000Y3000000D01*
X-3400000Y3000000D01*
X-3400000Y4000000D01*
X-1200000Y4000000D01*
X-1200000Y4500000D01*
X-400000Y4500000D01*
X100000Y4000000D01*
G37*
G04 #@! TD.AperFunction*
D15*
X11500000Y-5000000D03*
X11500000Y-3000000D03*
X11500000Y-1000000D03*
G04 #@! TA.AperFunction,SMDPad,CuDef*
G36*
G01*
X9375000Y-950000D02*
X9825000Y-950000D01*
G75*
G02*
X10050000Y-1175000I0J-225000D01*
G01*
X10050000Y-1725000D01*
G75*
G02*
X9825000Y-1950000I-225000J0D01*
G01*
X9375000Y-1950000D01*
G75*
G02*
X9150000Y-1725000I0J225000D01*
G01*
X9150000Y-1175000D01*
G75*
G02*
X9375000Y-950000I225000J0D01*
G01*
G37*
G04 #@! TD.AperFunction*
G04 #@! TA.AperFunction,SMDPad,CuDef*
G36*
G01*
X9375000Y-2650000D02*
X9825000Y-2650000D01*
G75*
G02*
X10050000Y-2875000I0J-225000D01*
G01*
X10050000Y-3425000D01*
G75*
G02*
X9825000Y-3650000I-225000J0D01*
G01*
X9375000Y-3650000D01*
G75*
G02*
X9150000Y-3425000I0J225000D01*
G01*
X9150000Y-2875000D01*
G75*
G02*
X9375000Y-2650000I225000J0D01*
G01*
G37*
G04 #@! TD.AperFunction*
G04 #@! TA.AperFunction,SMDPad,CuDef*
G36*
G01*
X8325000Y-3650000D02*
X7875000Y-3650000D01*
G75*
G02*
X7650000Y-3425000I0J225000D01*
G01*
X7650000Y-2875000D01*
G75*
G02*
X7875000Y-2650000I225000J0D01*
G01*
X8325000Y-2650000D01*
G75*
G02*
X8550000Y-2875000I0J-225000D01*
G01*
X8550000Y-3425000D01*
G75*
G02*
X8325000Y-3650000I-225000J0D01*
G01*
G37*
G04 #@! TD.AperFunction*
G04 #@! TA.AperFunction,SMDPad,CuDef*
G36*
G01*
X8325000Y-1950000D02*
X7875000Y-1950000D01*
G75*
G02*
X7650000Y-1725000I0J225000D01*
G01*
X7650000Y-1175000D01*
G75*
G02*
X7875000Y-950000I225000J0D01*
G01*
X8325000Y-950000D01*
G75*
G02*
X8550000Y-1175000I0J-225000D01*
G01*
X8550000Y-1725000D01*
G75*
G02*
X8325000Y-1950000I-225000J0D01*
G01*
G37*
G04 #@! TD.AperFunction*
G04 #@! TA.AperFunction,SMDPad,CuDef*
G36*
G01*
X6825000Y-3650000D02*
X6375000Y-3650000D01*
G75*
G02*
X6150000Y-3425000I0J225000D01*
G01*
X6150000Y-2875000D01*
G75*
G02*
X6375000Y-2650000I225000J0D01*
G01*
X6825000Y-2650000D01*
G75*
G02*
X7050000Y-2875000I0J-225000D01*
G01*
X7050000Y-3425000D01*
G75*
G02*
X6825000Y-3650000I-225000J0D01*
G01*
G37*
G04 #@! TD.AperFunction*
G04 #@! TA.AperFunction,SMDPad,CuDef*
G36*
G01*
X6825000Y-1950000D02*
X6375000Y-1950000D01*
G75*
G02*
X6150000Y-1725000I0J225000D01*
G01*
X6150000Y-1175000D01*
G75*
G02*
X6375000Y-950000I225000J0D01*
G01*
X6825000Y-950000D01*
G75*
G02*
X7050000Y-1175000I0J-225000D01*
G01*
X7050000Y-1725000D01*
G75*
G02*
X6825000Y-1950000I-225000J0D01*
G01*
G37*
G04 #@! TD.AperFunction*
G04 #@! TA.AperFunction,SMDPad,CuDef*
G36*
G01*
X6250000Y-7875000D02*
X6250000Y-8325000D01*
G75*
G02*
X6025000Y-8550000I-225000J0D01*
G01*
X5475000Y-8550000D01*
G75*
G02*
X5250000Y-8325000I0J225000D01*
G01*
X5250000Y-7875000D01*
G75*
G02*
X5475000Y-7650000I225000J0D01*
G01*
X6025000Y-7650000D01*
G75*
G02*
X6250000Y-7875000I0J-225000D01*
G01*
G37*
G04 #@! TD.AperFunction*
G04 #@! TA.AperFunction,SMDPad,CuDef*
G36*
G01*
X4550000Y-7875000D02*
X4550000Y-8325000D01*
G75*
G02*
X4325000Y-8550000I-225000J0D01*
G01*
X3775000Y-8550000D01*
G75*
G02*
X3550000Y-8325000I0J225000D01*
G01*
X3550000Y-7875000D01*
G75*
G02*
X3775000Y-7650000I225000J0D01*
G01*
X4325000Y-7650000D01*
G75*
G02*
X4550000Y-7875000I0J-225000D01*
G01*
G37*
G04 #@! TD.AperFunction*
G04 #@! TA.AperFunction,SMDPad,CuDef*
G36*
G01*
X-10175000Y7650000D02*
X-10625000Y7650000D01*
G75*
G02*
X-10850000Y7875000I0J225000D01*
G01*
X-10850000Y8425000D01*
G75*
G02*
X-10625000Y8650000I225000J0D01*
G01*
X-10175000Y8650000D01*
G75*
G02*
X-9950000Y8425000I0J-225000D01*
G01*
X-9950000Y7875000D01*
G75*
G02*
X-10175000Y7650000I-225000J0D01*
G01*
G37*
G04 #@! TD.AperFunction*
G04 #@! TA.AperFunction,SMDPad,CuDef*
G36*
G01*
X-10175000Y9350000D02*
X-10625000Y9350000D01*
G75*
G02*
X-10850000Y9575000I0J225000D01*
G01*
X-10850000Y10125000D01*
G75*
G02*
X-10625000Y10350000I225000J0D01*
G01*
X-10175000Y10350000D01*
G75*
G02*
X-9950000Y10125000I0J-225000D01*
G01*
X-9950000Y9575000D01*
G75*
G02*
X-10175000Y9350000I-225000J0D01*
G01*
G37*
G04 #@! TD.AperFunction*
G04 #@! TA.AperFunction,SMDPad,CuDef*
G36*
G01*
X-8675000Y2350000D02*
X-9125000Y2350000D01*
G75*
G02*
X-9350000Y2575000I0J225000D01*
G01*
X-9350000Y3125000D01*
G75*
G02*
X-9125000Y3350000I225000J0D01*
G01*
X-8675000Y3350000D01*
G75*
G02*
X-8450000Y3125000I0J-225000D01*
G01*
X-8450000Y2575000D01*
G75*
G02*
X-8675000Y2350000I-225000J0D01*
G01*
G37*
G04 #@! TD.AperFunction*
G04 #@! TA.AperFunction,SMDPad,CuDef*
G36*
G01*
X-8675000Y4050000D02*
X-9125000Y4050000D01*
G75*
G02*
X-9350000Y4275000I0J225000D01*
G01*
X-9350000Y4825000D01*
G75*
G02*
X-9125000Y5050000I225000J0D01*
G01*
X-8675000Y5050000D01*
G75*
G02*
X-8450000Y4825000I0J-225000D01*
G01*
X-8450000Y4275000D01*
G75*
G02*
X-8675000Y4050000I-225000J0D01*
G01*
G37*
G04 #@! TD.AperFunction*
D16*
X8100000Y-6550000D03*
X8100000Y-8450000D03*
X10100000Y-7500000D03*
G04 #@! TA.AperFunction,SMDPad,CuDef*
G36*
G01*
X-8675000Y7650000D02*
X-9125000Y7650000D01*
G75*
G02*
X-9350000Y7875000I0J225000D01*
G01*
X-9350000Y8425000D01*
G75*
G02*
X-9125000Y8650000I225000J0D01*
G01*
X-8675000Y8650000D01*
G75*
G02*
X-8450000Y8425000I0J-225000D01*
G01*
X-8450000Y7875000D01*
G75*
G02*
X-8675000Y7650000I-225000J0D01*
G01*
G37*
G04 #@! TD.AperFunction*
G04 #@! TA.AperFunction,SMDPad,CuDef*
G36*
G01*
X-8675000Y9350000D02*
X-9125000Y9350000D01*
G75*
G02*
X-9350000Y9575000I0J225000D01*
G01*
X-9350000Y10125000D01*
G75*
G02*
X-9125000Y10350000I225000J0D01*
G01*
X-8675000Y10350000D01*
G75*
G02*
X-8450000Y10125000I0J-225000D01*
G01*
X-8450000Y9575000D01*
G75*
G02*
X-8675000Y9350000I-225000J0D01*
G01*
G37*
G04 #@! TD.AperFunction*
D17*
X4650000Y-3100000D03*
X-4650000Y-3100000D03*
D18*
X-2750000Y150000D03*
X-2250000Y150000D03*
X-1750000Y150000D03*
X-1250000Y150000D03*
X-750000Y150000D03*
X-250000Y150000D03*
X250000Y150000D03*
X750000Y150000D03*
X1250000Y150000D03*
X1750000Y150000D03*
X2250000Y150000D03*
X2750000Y150000D03*
D19*
X-8890000Y-10700000D03*
X-6350000Y-10700000D03*
X-3810000Y-10700000D03*
X-1270000Y-10700000D03*
X1270000Y-10700000D03*
X3810000Y-10700000D03*
X6350000Y-10700000D03*
D20*
X8890000Y-10700000D03*
D21*
X-4200000Y10400000D03*
X4200000Y10400000D03*
D22*
X-1600000Y7900000D03*
X-800000Y7900000D03*
X0Y7900000D03*
X800000Y7900000D03*
X1600000Y7900000D03*
G04 #@! TA.AperFunction,SMDPad,CuDef*
G36*
G01*
X-7625000Y10350000D02*
X-7175000Y10350000D01*
G75*
G02*
X-6950000Y10125000I0J-225000D01*
G01*
X-6950000Y9575000D01*
G75*
G02*
X-7175000Y9350000I-225000J0D01*
G01*
X-7625000Y9350000D01*
G75*
G02*
X-7850000Y9575000I0J225000D01*
G01*
X-7850000Y10125000D01*
G75*
G02*
X-7625000Y10350000I225000J0D01*
G01*
G37*
G04 #@! TD.AperFunction*
G04 #@! TA.AperFunction,SMDPad,CuDef*
G36*
G01*
X-7625000Y8650000D02*
X-7175000Y8650000D01*
G75*
G02*
X-6950000Y8425000I0J-225000D01*
G01*
X-6950000Y7875000D01*
G75*
G02*
X-7175000Y7650000I-225000J0D01*
G01*
X-7625000Y7650000D01*
G75*
G02*
X-7850000Y7875000I0J225000D01*
G01*
X-7850000Y8425000D01*
G75*
G02*
X-7625000Y8650000I225000J0D01*
G01*
G37*
G04 #@! TD.AperFunction*
G04 #@! TA.AperFunction,SMDPad,CuDef*
G36*
G01*
X-11675000Y7650000D02*
X-12125000Y7650000D01*
G75*
G02*
X-12350000Y7875000I0J225000D01*
G01*
X-12350000Y8425000D01*
G75*
G02*
X-12125000Y8650000I225000J0D01*
G01*
X-11675000Y8650000D01*
G75*
G02*
X-11450000Y8425000I0J-225000D01*
G01*
X-11450000Y7875000D01*
G75*
G02*
X-11675000Y7650000I-225000J0D01*
G01*
G37*
G04 #@! TD.AperFunction*
G04 #@! TA.AperFunction,SMDPad,CuDef*
G36*
G01*
X-11675000Y9350000D02*
X-12125000Y9350000D01*
G75*
G02*
X-12350000Y9575000I0J225000D01*
G01*
X-12350000Y10125000D01*
G75*
G02*
X-12125000Y10350000I225000J0D01*
G01*
X-11675000Y10350000D01*
G75*
G02*
X-11450000Y10125000I0J-225000D01*
G01*
X-11450000Y9575000D01*
G75*
G02*
X-11675000Y9350000I-225000J0D01*
G01*
G37*
G04 #@! TD.AperFunction*
G04 #@! TA.AperFunction,SMDPad,CuDef*
G36*
G01*
X-10175000Y2350000D02*
X-10625000Y2350000D01*
G75*
G02*
X-10850000Y2575000I0J225000D01*
G01*
X-10850000Y3125000D01*
G75*
G02*
X-10625000Y3350000I225000J0D01*
G01*
X-10175000Y3350000D01*
G75*
G02*
X-9950000Y3125000I0J-225000D01*
G01*
X-9950000Y2575000D01*
G75*
G02*
X-10175000Y2350000I-225000J0D01*
G01*
G37*
G04 #@! TD.AperFunction*
G04 #@! TA.AperFunction,SMDPad,CuDef*
G36*
G01*
X-10175000Y4050000D02*
X-10625000Y4050000D01*
G75*
G02*
X-10850000Y4275000I0J225000D01*
G01*
X-10850000Y4825000D01*
G75*
G02*
X-10625000Y5050000I225000J0D01*
G01*
X-10175000Y5050000D01*
G75*
G02*
X-9950000Y4825000I0J-225000D01*
G01*
X-9950000Y4275000D01*
G75*
G02*
X-10175000Y4050000I-225000J0D01*
G01*
G37*
G04 #@! TD.AperFunction*
G04 #@! TA.AperFunction,SMDPad,CuDef*
G36*
G01*
X-11675000Y2350000D02*
X-12125000Y2350000D01*
G75*
G02*
X-12350000Y2575000I0J225000D01*
G01*
X-12350000Y3125000D01*
G75*
G02*
X-12125000Y3350000I225000J0D01*
G01*
X-11675000Y3350000D01*
G75*
G02*
X-11450000Y3125000I0J-225000D01*
G01*
X-11450000Y2575000D01*
G75*
G02*
X-11675000Y2350000I-225000J0D01*
G01*
G37*
G04 #@! TD.AperFunction*
G04 #@! TA.AperFunction,SMDPad,CuDef*
G36*
G01*
X-11675000Y4050000D02*
X-12125000Y4050000D01*
G75*
G02*
X-12350000Y4275000I0J225000D01*
G01*
X-12350000Y4825000D01*
G75*
G02*
X-12125000Y5050000I225000J0D01*
G01*
X-11675000Y5050000D01*
G75*
G02*
X-11450000Y4825000I0J-225000D01*
G01*
X-11450000Y4275000D01*
G75*
G02*
X-11675000Y4050000I-225000J0D01*
G01*
G37*
G04 #@! TD.AperFunction*
G04 #@! TA.AperFunction,SMDPad,CuDef*
G36*
G01*
X-8950000Y-8325000D02*
X-8950000Y-7875000D01*
G75*
G02*
X-8725000Y-7650000I225000J0D01*
G01*
X-8175000Y-7650000D01*
G75*
G02*
X-7950000Y-7875000I0J-225000D01*
G01*
X-7950000Y-8325000D01*
G75*
G02*
X-8175000Y-8550000I-225000J0D01*
G01*
X-8725000Y-8550000D01*
G75*
G02*
X-8950000Y-8325000I0J225000D01*
G01*
G37*
G04 #@! TD.AperFunction*
G04 #@! TA.AperFunction,SMDPad,CuDef*
G36*
G01*
X-7250000Y-8325000D02*
X-7250000Y-7875000D01*
G75*
G02*
X-7025000Y-7650000I225000J0D01*
G01*
X-6475000Y-7650000D01*
G75*
G02*
X-6250000Y-7875000I0J-225000D01*
G01*
X-6250000Y-8325000D01*
G75*
G02*
X-6475000Y-8550000I-225000J0D01*
G01*
X-7025000Y-8550000D01*
G75*
G02*
X-7250000Y-8325000I0J225000D01*
G01*
G37*
G04 #@! TD.AperFunction*
G04 #@! TA.AperFunction,SMDPad,CuDef*
G36*
G01*
X3225000Y2350000D02*
X2775000Y2350000D01*
G75*
G02*
X2550000Y2575000I0J225000D01*
G01*
X2550000Y3125000D01*
G75*
G02*
X2775000Y3350000I225000J0D01*
G01*
X3225000Y3350000D01*
G75*
G02*
X3450000Y3125000I0J-225000D01*
G01*
X3450000Y2575000D01*
G75*
G02*
X3225000Y2350000I-225000J0D01*
G01*
G37*
G04 #@! TD.AperFunction*
G04 #@! TA.AperFunction,SMDPad,CuDef*
G36*
G01*
X3225000Y4050000D02*
X2775000Y4050000D01*
G75*
G02*
X2550000Y4275000I0J225000D01*
G01*
X2550000Y4825000D01*
G75*
G02*
X2775000Y5050000I225000J0D01*
G01*
X3225000Y5050000D01*
G75*
G02*
X3450000Y4825000I0J-225000D01*
G01*
X3450000Y4275000D01*
G75*
G02*
X3225000Y4050000I-225000J0D01*
G01*
G37*
G04 #@! TD.AperFunction*
G04 #@! TA.AperFunction,SMDPad,CuDef*
G36*
G01*
X-4825000Y5050000D02*
X-4375000Y5050000D01*
G75*
G02*
X-4150000Y4825000I0J-225000D01*
G01*
X-4150000Y4275000D01*
G75*
G02*
X-4375000Y4050000I-225000J0D01*
G01*
X-4825000Y4050000D01*
G75*
G02*
X-5050000Y4275000I0J225000D01*
G01*
X-5050000Y4825000D01*
G75*
G02*
X-4825000Y5050000I225000J0D01*
G01*
G37*
G04 #@! TD.AperFunction*
G04 #@! TA.AperFunction,SMDPad,CuDef*
G36*
G01*
X-4825000Y3350000D02*
X-4375000Y3350000D01*
G75*
G02*
X-4150000Y3125000I0J-225000D01*
G01*
X-4150000Y2575000D01*
G75*
G02*
X-4375000Y2350000I-225000J0D01*
G01*
X-4825000Y2350000D01*
G75*
G02*
X-5050000Y2575000I0J225000D01*
G01*
X-5050000Y3125000D01*
G75*
G02*
X-4825000Y3350000I225000J0D01*
G01*
G37*
G04 #@! TD.AperFunction*
G04 #@! TA.AperFunction,SMDPad,CuDef*
G36*
G01*
X-10450000Y-4100000D02*
X-10750000Y-4100000D01*
G75*
G02*
X-10900000Y-3950000I0J150000D01*
G01*
X-10900000Y-3650000D01*
G75*
G02*
X-10750000Y-3500000I150000J0D01*
G01*
X-10450000Y-3500000D01*
G75*
G02*
X-10300000Y-3650000I0J-150000D01*
G01*
X-10300000Y-3950000D01*
G75*
G02*
X-10450000Y-4100000I-150000J0D01*
G01*
G37*
G04 #@! TD.AperFunction*
G04 #@! TA.AperFunction,SMDPad,CuDef*
G36*
G01*
X-10450000Y-3100000D02*
X-10750000Y-3100000D01*
G75*
G02*
X-10900000Y-2950000I0J150000D01*
G01*
X-10900000Y-2650000D01*
G75*
G02*
X-10750000Y-2500000I150000J0D01*
G01*
X-10450000Y-2500000D01*
G75*
G02*
X-10300000Y-2650000I0J-150000D01*
G01*
X-10300000Y-2950000D01*
G75*
G02*
X-10450000Y-3100000I-150000J0D01*
G01*
G37*
G04 #@! TD.AperFunction*
G04 #@! TA.AperFunction,SMDPad,CuDef*
G36*
G01*
X-10750000Y-300000D02*
X-10450000Y-300000D01*
G75*
G02*
X-10300000Y-450000I0J-150000D01*
G01*
X-10300000Y-750000D01*
G75*
G02*
X-10450000Y-900000I-150000J0D01*
G01*
X-10750000Y-900000D01*
G75*
G02*
X-10900000Y-750000I0J150000D01*
G01*
X-10900000Y-450000D01*
G75*
G02*
X-10750000Y-300000I150000J0D01*
G01*
G37*
G04 #@! TD.AperFunction*
G04 #@! TA.AperFunction,SMDPad,CuDef*
G36*
G01*
X-10750000Y-1300000D02*
X-10450000Y-1300000D01*
G75*
G02*
X-10300000Y-1450000I0J-150000D01*
G01*
X-10300000Y-1750000D01*
G75*
G02*
X-10450000Y-1900000I-150000J0D01*
G01*
X-10750000Y-1900000D01*
G75*
G02*
X-10900000Y-1750000I0J150000D01*
G01*
X-10900000Y-1450000D01*
G75*
G02*
X-10750000Y-1300000I150000J0D01*
G01*
G37*
G04 #@! TD.AperFunction*
D23*
X-9000000Y218800D03*
X-8780000Y-4780000D03*
X-11068800Y7268200D03*
X-422100Y10360300D03*
X-5328700Y5606600D03*
X-5636000Y3575000D03*
X681700Y-5584800D03*
X-1473600Y1314600D03*
X-1886600Y-1084800D03*
X103800Y-3039600D03*
X634800Y-1790200D03*
X181400Y-1013200D03*
X5216700Y237500D03*
X9025500Y-4795400D03*
X-628900Y9130200D03*
X-11175600Y3674400D03*
X-10400000Y5600000D03*
X-9388900Y1838900D03*
D24*
X-9000000Y5100D02*
X-9000000Y218800D01*
X-9000000Y-900000D02*
X-9000000Y5100D01*
X-9004200Y-900000D02*
X-9000000Y-900000D01*
X-9004200Y-900000D02*
X-9008500Y-900000D01*
X-9106000Y-900000D02*
X-9008500Y-900000D01*
X-9106000Y-900000D02*
X-10205100Y-900000D01*
X-10600000Y-600000D02*
X-10505100Y-600000D01*
X-10505100Y-600000D02*
X-10205100Y-900000D01*
X-9000000Y-3500000D02*
X-10205100Y-3500000D01*
X-10600000Y-3800000D02*
X-10505100Y-3800000D01*
X-10505100Y-3800000D02*
X-10205100Y-3500000D01*
X-9000000Y-4560000D02*
X-8780000Y-4780000D01*
X-9000000Y-3500000D02*
X-9000000Y-4560000D01*
X2105100Y10971800D02*
X2105100Y11486600D01*
X2105100Y11486600D02*
X3916500Y13298000D01*
X3916500Y13298000D02*
X7182000Y13298000D01*
X7182000Y13298000D02*
X12517000Y7963000D01*
X12517000Y7963000D02*
X12517000Y-1983000D01*
X12517000Y-1983000D02*
X11500000Y-3000000D01*
X2105100Y5000000D02*
X2105100Y10971800D01*
X-8774700Y8024700D02*
X-8774700Y8141200D01*
X-8774700Y8141200D02*
X-7955800Y8960100D01*
X-7955800Y8960100D02*
X-6594800Y8960100D01*
X-6594800Y8960100D02*
X-6229500Y8594800D01*
X-6229500Y8594800D02*
X-2787500Y8594800D01*
X-2787500Y8594800D02*
X-2613800Y8768500D01*
X-2613800Y8768500D02*
X-2613800Y9068400D01*
X-2613800Y9068400D02*
X-710400Y10971800D01*
X-710400Y10971800D02*
X2105100Y10971800D01*
X-8774700Y8024700D02*
X-8900000Y8150000D01*
X-4600000Y4550000D02*
X-5300000Y4550000D01*
X-5300000Y4550000D02*
X-8774700Y8024700D01*
X1050000Y5000000D02*
X2105100Y5000000D01*
X-2650000Y5000000D02*
X1050000Y5000000D01*
X-11900000Y8150000D02*
X-11068800Y7318800D01*
X-11068800Y7318800D02*
X-11068800Y7268200D01*
X-11900000Y9850000D02*
X-10400000Y9850000D01*
X-7400000Y9850000D02*
X-8900000Y9850000D01*
X-422100Y10360300D02*
X-518600Y10360300D01*
X-518600Y10360300D02*
X-2207100Y8671800D01*
X-2207100Y8671800D02*
X-2207100Y8599900D01*
X-2207100Y8599900D02*
X-2657000Y8150000D01*
X-2657000Y8150000D02*
X-7400000Y8150000D01*
X1600000Y8905100D02*
X144800Y10360300D01*
X144800Y10360300D02*
X-422100Y10360300D01*
X1600000Y7900000D02*
X1600000Y8905100D01*
X0Y7900000D02*
X0Y6894900D01*
X0Y6894900D02*
X-4040400Y6894900D01*
X-4040400Y6894900D02*
X-5328700Y5606600D01*
X-5636000Y3575000D02*
X-6611000Y4550000D01*
X-6611000Y4550000D02*
X-8900000Y4550000D01*
X800000Y6894900D02*
X323900Y6418800D01*
X323900Y6418800D02*
X-2771900Y6418800D01*
X-2771900Y6418800D02*
X-3705200Y5485500D01*
X-3705200Y5485500D02*
X-3705200Y4180100D01*
X-3705200Y4180100D02*
X-4178700Y3706600D01*
X-4178700Y3706600D02*
X-5504400Y3706600D01*
X-5504400Y3706600D02*
X-5636000Y3575000D01*
X800000Y7900000D02*
X800000Y6894900D01*
X-3810000Y-10700000D02*
X-3810000Y-9544900D01*
X-3810000Y-9544900D02*
X-3278400Y-9544900D01*
X-3278400Y-9544900D02*
X681700Y-5584800D01*
X-2250000Y1105100D02*
X-1683100Y1105100D01*
X-1683100Y1105100D02*
X-1473600Y1314600D01*
X-2250000Y150000D02*
X-2250000Y1105100D01*
X-1750000Y150000D02*
X-1750000Y-948200D01*
X-1750000Y-948200D02*
X-1886600Y-1084800D01*
X103800Y-3039600D02*
X-1250000Y-1685800D01*
X-1250000Y-1685800D02*
X-1250000Y-805100D01*
X-1250000Y150000D02*
X-1250000Y-805100D01*
X-750000Y150000D02*
X-750000Y-961500D01*
X-750000Y-961500D02*
X78700Y-1790200D01*
X78700Y-1790200D02*
X634800Y-1790200D01*
X-250000Y150000D02*
X-250000Y-805100D01*
X-250000Y-805100D02*
X-26700Y-805100D01*
X-26700Y-805100D02*
X181400Y-1013200D01*
X1750000Y150000D02*
X1750000Y-4100000D01*
X1750000Y-4100000D02*
X5750000Y-8100000D01*
X10100000Y-8205100D02*
X9149900Y-9155200D01*
X9149900Y-9155200D02*
X7510100Y-9155200D01*
X7510100Y-9155200D02*
X7276400Y-8921500D01*
X7276400Y-8921500D02*
X7276400Y-8364100D01*
X7276400Y-8364100D02*
X2250000Y-3337700D01*
X2250000Y-3337700D02*
X2250000Y-805100D01*
X2250000Y150000D02*
X2250000Y-805100D01*
X10100000Y-7500000D02*
X10100000Y-8205100D01*
X9600000Y-1450000D02*
X8400000Y-250000D01*
X8400000Y-250000D02*
X8400000Y300000D01*
X6600000Y-3150000D02*
X8100000Y-3150000D01*
X8100000Y-6550000D02*
X8100000Y-3150000D01*
X6600000Y-1450000D02*
X5216700Y-66700D01*
X5216700Y-66700D02*
X5216700Y237500D01*
X9600000Y-3150000D02*
X9025500Y-3724500D01*
X9025500Y-3724500D02*
X9025500Y-4795400D01*
X-4200000Y10400000D02*
X-5755100Y10400000D01*
X-11700000Y12200000D02*
X-10263800Y10763800D01*
X-10263800Y10763800D02*
X-6118900Y10763800D01*
X-6118900Y10763800D02*
X-5755100Y10400000D01*
X-10400000Y4550000D02*
X-11900000Y4550000D01*
X-4600000Y2850000D02*
X-7650300Y2850000D01*
X-7650300Y2850000D02*
X-8523400Y3723100D01*
X-8523400Y3723100D02*
X-9327100Y3723100D01*
X-9327100Y3723100D02*
X-10154000Y4550000D01*
X-10154000Y4550000D02*
X-10400000Y4550000D01*
X6700000Y10555100D02*
X5910200Y10555100D01*
X5910200Y10555100D02*
X5755100Y10400000D01*
X8400000Y9705100D02*
X7550000Y10555100D01*
X7550000Y10555100D02*
X6700000Y10555100D01*
X6700000Y10555100D02*
X6700000Y12200000D01*
X4200000Y10400000D02*
X5755100Y10400000D01*
X8400000Y8700000D02*
X8400000Y9705100D01*
X8400000Y8197500D02*
X8400000Y8700000D01*
X-1600000Y7900000D02*
X-1600000Y8448500D01*
X-1600000Y8448500D02*
X-918300Y9130200D01*
X-918300Y9130200D02*
X-628900Y9130200D01*
X-3907000Y2850000D02*
X-4600000Y2850000D01*
X-10600000Y-2800000D02*
X-10600000Y-1600000D01*
X8100000Y-8450000D02*
X8100000Y-7744900D01*
X10223100Y-2276900D02*
X8926900Y-2276900D01*
X8926900Y-2276900D02*
X8100000Y-1450000D01*
X11500000Y-1000000D02*
X10223100Y-2276900D01*
X8100000Y-7744900D02*
X8188100Y-7744900D01*
X8188100Y-7744900D02*
X10357800Y-5575200D01*
X10357800Y-5575200D02*
X10357800Y-2411600D01*
X10357800Y-2411600D02*
X10223100Y-2276900D01*
X6121200Y3336000D02*
X7118500Y4333300D01*
X-933500Y2657800D02*
X-933500Y2288600D01*
X-933500Y2288600D02*
X250000Y1105100D01*
X-800000Y3500000D02*
X-933500Y3366500D01*
X-933500Y3366500D02*
X-933500Y2657800D01*
X250000Y1105100D02*
X750000Y1105100D01*
X250000Y1003400D02*
X250000Y1105100D01*
X3000000Y4099900D02*
X3000000Y4550000D01*
X8400000Y8197500D02*
X8400000Y7694900D01*
X-2750000Y150000D02*
X-2750000Y1105100D01*
X250000Y150000D02*
X250000Y1003400D01*
X750000Y150000D02*
X750000Y1105100D01*
X-800000Y3500000D02*
X2400100Y3500000D01*
X2400100Y3500000D02*
X3000000Y4099900D01*
X7118500Y4333300D02*
X8400000Y5614800D01*
X8400000Y5614800D02*
X8400000Y7694900D01*
X-8890000Y-10700000D02*
X-8890000Y-9544900D01*
X-8890000Y-9544900D02*
X-8450000Y-9104900D01*
X-8450000Y-9104900D02*
X-8450000Y-8100000D01*
X-3907000Y2850000D02*
X-3850000Y2850000D01*
X-3200000Y3500000D02*
X-800000Y3500000D01*
X-3850000Y2850000D02*
X-3200000Y3500000D01*
X4907200Y4550000D02*
X6121200Y3336000D01*
X3000000Y4550000D02*
X4907200Y4550000D01*
X2750000Y1105100D02*
X2750000Y150000D01*
X2750000Y1105100D02*
X2750000Y1150000D01*
X2750000Y1105100D02*
X2750000Y1250000D01*
X2750000Y1250000D02*
X3100000Y1600000D01*
X4385200Y1600000D02*
X6121200Y3336000D01*
X3100000Y1600000D02*
X4385200Y1600000D01*
X-12000000Y-3200000D02*
X-11600000Y-2800000D01*
X-12000000Y-6200000D02*
X-12000000Y-3200000D01*
X-10100000Y-8100000D02*
X-12000000Y-6200000D01*
X-11600000Y-2800000D02*
X-10600000Y-2800000D01*
X-8450000Y-8100000D02*
X-10100000Y-8100000D01*
X11500000Y-1000000D02*
X11500000Y2514800D01*
X11500000Y2514800D02*
X8400000Y5614800D01*
X-4600000Y2850000D02*
X-4600000Y1600000D01*
X-4105100Y1105100D02*
X-2750000Y1105100D01*
X-4600000Y1600000D02*
X-4105100Y1105100D01*
X-6350000Y-10700000D02*
X-6350000Y-9544900D01*
X-6679300Y-8100000D02*
X-6750000Y-8100000D01*
X-2986600Y-4407300D02*
X-6679300Y-8100000D01*
X-6350000Y-9544900D02*
X-6679300Y-9215600D01*
X-6679300Y-9215600D02*
X-6679300Y-8100000D01*
X-2986600Y-4407300D02*
X-2986600Y-2327300D01*
X-2986600Y-2327300D02*
X-7662300Y2348400D01*
X-7662300Y2348400D02*
X-8398400Y2348400D01*
X-8398400Y2348400D02*
X-8900000Y2850000D01*
X541000Y-4407300D02*
X-2986600Y-4407300D01*
X4050000Y-8100000D02*
X4050000Y-7916300D01*
X4050000Y-7916300D02*
X541000Y-4407300D01*
X-11175600Y3656100D02*
X-9895800Y3656100D01*
X-9895800Y3656100D02*
X-9089700Y2850000D01*
X-9089700Y2850000D02*
X-8900000Y2850000D01*
X-11900000Y2850000D02*
X-11900000Y2931700D01*
X-11900000Y2931700D02*
X-11175600Y3656100D01*
X-11175600Y3656100D02*
X-11175600Y3674400D01*
X-10400000Y8150000D02*
X-10400000Y5600000D01*
X1250000Y150000D02*
X1250000Y-3698300D01*
X1250000Y-3698300D02*
X541000Y-4407300D01*
X3000000Y2850000D02*
X2955100Y2850000D01*
X2955100Y2850000D02*
X2105100Y2000000D01*
X1250000Y150000D02*
X1250000Y1105100D01*
X1050000Y2000000D02*
X2105100Y2000000D01*
X1250000Y1105100D02*
X1705000Y1105100D01*
X1705000Y1105100D02*
X2105100Y1505200D01*
X2105100Y1505200D02*
X2105100Y2000000D01*
X-10400000Y2850000D02*
X-9388900Y1838900D01*
D25*
X-11104497Y1857382D02*
X-10955283Y1777625D01*
X-10793377Y1728512D01*
X-10625000Y1711928D01*
X-10321855Y1711928D01*
X-10292584Y1564771D01*
X-10221740Y1393738D01*
X-10118890Y1239813D01*
X-9987987Y1108910D01*
X-9834062Y1006060D01*
X-9663029Y935216D01*
X-9621018Y926859D01*
X-9729990Y817887D01*
X-9832840Y663962D01*
X-9903684Y492929D01*
X-9935176Y334608D01*
X-10024482Y325812D01*
X-10144180Y289502D01*
X-10159342Y281398D01*
X-10296255Y322929D01*
X-10450000Y338072D01*
X-10750000Y338072D01*
X-10903745Y322929D01*
X-11051582Y278084D01*
X-11187829Y205258D01*
X-11307251Y107251D01*
X-11405258Y-12171D01*
X-11478084Y-148418D01*
X-11522929Y-296255D01*
X-11538072Y-450000D01*
X-11538072Y-750000D01*
X-11522929Y-903745D01*
X-11481398Y-1040658D01*
X-11489502Y-1055820D01*
X-11525812Y-1175518D01*
X-11538072Y-1300000D01*
X-11535000Y-1314250D01*
X-11376250Y-1473000D01*
X-11061093Y-1473000D01*
X-11051582Y-1478084D01*
X-10903745Y-1522929D01*
X-10750000Y-1538072D01*
X-10573941Y-1538072D01*
X-10532121Y-1560426D01*
X-10525812Y-1624482D01*
X-10489502Y-1744180D01*
X-10473000Y-1775053D01*
X-10473000Y-2624947D01*
X-10489502Y-2655820D01*
X-10525812Y-2775518D01*
X-10532121Y-2839574D01*
X-10573941Y-2861928D01*
X-10750000Y-2861928D01*
X-10903745Y-2877071D01*
X-11051582Y-2921916D01*
X-11061093Y-2927000D01*
X-11376250Y-2927000D01*
X-11535000Y-3085750D01*
X-11538072Y-3100000D01*
X-11525812Y-3224482D01*
X-11489502Y-3344180D01*
X-11481398Y-3359342D01*
X-11522929Y-3496255D01*
X-11538072Y-3650000D01*
X-11538072Y-3950000D01*
X-11522929Y-4103745D01*
X-11478084Y-4251582D01*
X-11405258Y-4387829D01*
X-11307251Y-4507251D01*
X-11187829Y-4605258D01*
X-11051582Y-4678084D01*
X-10903745Y-4722929D01*
X-10750000Y-4738072D01*
X-10450000Y-4738072D01*
X-10296255Y-4722929D01*
X-10159342Y-4681398D01*
X-10144180Y-4689502D01*
X-10024482Y-4725812D01*
X-9900000Y-4738072D01*
X-9719800Y-4738072D01*
X-9719800Y-4872562D01*
X-9683684Y-5054129D01*
X-9612840Y-5225162D01*
X-9509990Y-5379087D01*
X-9379087Y-5509990D01*
X-9225162Y-5612840D01*
X-9054129Y-5683684D01*
X-8872562Y-5719800D01*
X-8687438Y-5719800D01*
X-8505871Y-5683684D01*
X-8334838Y-5612840D01*
X-8180913Y-5509990D01*
X-8050010Y-5379087D01*
X-7947160Y-5225162D01*
X-7876316Y-5054129D01*
X-7840200Y-4872562D01*
X-7840200Y-4687438D01*
X-7841330Y-4681757D01*
X-7745506Y-4630537D01*
X-7648815Y-4551185D01*
X-7569463Y-4454494D01*
X-7510498Y-4344180D01*
X-7474188Y-4224482D01*
X-7461928Y-4100000D01*
X-7461928Y-2900000D01*
X-7474188Y-2775518D01*
X-7510498Y-2655820D01*
X-7569463Y-2545506D01*
X-7648815Y-2448815D01*
X-7745506Y-2369463D01*
X-7855820Y-2310498D01*
X-7873000Y-2305287D01*
X-7873000Y-2094713D01*
X-7855820Y-2089502D01*
X-7745506Y-2030537D01*
X-7648815Y-1951185D01*
X-7569463Y-1854494D01*
X-7510498Y-1744180D01*
X-7474188Y-1624482D01*
X-7461928Y-1500000D01*
X-7461928Y-300000D01*
X-7474188Y-175518D01*
X-7510498Y-55820D01*
X-7569463Y54494D01*
X-7648815Y151185D01*
X-7745506Y230537D01*
X-7855820Y289502D01*
X-7975518Y325812D01*
X-8064824Y334608D01*
X-8096316Y492929D01*
X-8167160Y663962D01*
X-8270010Y817887D01*
X-8400913Y948790D01*
X-8554838Y1051640D01*
X-8725871Y1122484D01*
X-8767882Y1130841D01*
X-8658910Y1239813D01*
X-8556060Y1393738D01*
X-8485216Y1564771D01*
X-8475068Y1615787D01*
X-8398400Y1608236D01*
X-8362214Y1611800D01*
X-7967409Y1611800D01*
X-4993681Y-1361928D01*
X-5550000Y-1361928D01*
X-5674482Y-1374188D01*
X-5794180Y-1410498D01*
X-5904494Y-1469463D01*
X-6001185Y-1548815D01*
X-6080537Y-1645506D01*
X-6139502Y-1755820D01*
X-6175812Y-1875518D01*
X-6188072Y-2000000D01*
X-6188072Y-4200000D01*
X-6175812Y-4324482D01*
X-6139502Y-4444180D01*
X-6080537Y-4554494D01*
X-6001185Y-4651185D01*
X-5904494Y-4730537D01*
X-5794180Y-4789502D01*
X-5674482Y-4825812D01*
X-5550000Y-4838072D01*
X-4459081Y-4838072D01*
X-6632937Y-7011928D01*
X-7025000Y-7011928D01*
X-7193377Y-7028512D01*
X-7355283Y-7077625D01*
X-7504497Y-7157382D01*
X-7526899Y-7175767D01*
X-7595506Y-7119463D01*
X-7705820Y-7060498D01*
X-7825518Y-7024188D01*
X-7950000Y-7011928D01*
X-8164250Y-7015000D01*
X-8323000Y-7173750D01*
X-8323000Y-7973000D01*
X-8303000Y-7973000D01*
X-8303000Y-8227000D01*
X-8323000Y-8227000D01*
X-8323000Y-9026250D01*
X-8164250Y-9185000D01*
X-7950000Y-9188072D01*
X-7825518Y-9175812D01*
X-7705820Y-9139502D01*
X-7595506Y-9080537D01*
X-7526899Y-9024233D01*
X-7504497Y-9042618D01*
X-7415900Y-9089974D01*
X-7415900Y-9179416D01*
X-7419464Y-9215600D01*
X-7415900Y-9251783D01*
X-7415900Y-9251785D01*
X-7405242Y-9359998D01*
X-7363122Y-9498848D01*
X-7323355Y-9573248D01*
X-7503475Y-9753368D01*
X-7625195Y-9935534D01*
X-7694822Y-9818645D01*
X-7889731Y-9602412D01*
X-8123080Y-9428359D01*
X-8385901Y-9303175D01*
X-8533110Y-9258524D01*
X-8763000Y-9379845D01*
X-8763000Y-10573000D01*
X-8743000Y-10573000D01*
X-8743000Y-10827000D01*
X-8763000Y-10827000D01*
X-8763000Y-12020155D01*
X-8533110Y-12141476D01*
X-8385901Y-12096825D01*
X-8123080Y-11971641D01*
X-7889731Y-11797588D01*
X-7694822Y-11581355D01*
X-7625195Y-11464466D01*
X-7503475Y-11646632D01*
X-7296632Y-11853475D01*
X-7053411Y-12015990D01*
X-6783158Y-12127932D01*
X-6496260Y-12185000D01*
X-6203740Y-12185000D01*
X-5916842Y-12127932D01*
X-5646589Y-12015990D01*
X-5403368Y-11853475D01*
X-5196525Y-11646632D01*
X-5080000Y-11472240D01*
X-4963475Y-11646632D01*
X-4756632Y-11853475D01*
X-4513411Y-12015990D01*
X-4243158Y-12127932D01*
X-3956260Y-12185000D01*
X-3663740Y-12185000D01*
X-3376842Y-12127932D01*
X-3106589Y-12015990D01*
X-2863368Y-11853475D01*
X-2656525Y-11646632D01*
X-2540000Y-11472240D01*
X-2423475Y-11646632D01*
X-2216632Y-11853475D01*
X-1973411Y-12015990D01*
X-1703158Y-12127932D01*
X-1416260Y-12185000D01*
X-1123740Y-12185000D01*
X-836842Y-12127932D01*
X-566589Y-12015990D01*
X-323368Y-11853475D01*
X-116525Y-11646632D01*
X0Y-11472240D01*
X116525Y-11646632D01*
X323368Y-11853475D01*
X566589Y-12015990D01*
X836842Y-12127932D01*
X1123740Y-12185000D01*
X1416260Y-12185000D01*
X1703158Y-12127932D01*
X1973411Y-12015990D01*
X2216632Y-11853475D01*
X2423475Y-11646632D01*
X2540000Y-11472240D01*
X2656525Y-11646632D01*
X2863368Y-11853475D01*
X3106589Y-12015990D01*
X3376842Y-12127932D01*
X3663740Y-12185000D01*
X3956260Y-12185000D01*
X4243158Y-12127932D01*
X4513411Y-12015990D01*
X4756632Y-11853475D01*
X4963475Y-11646632D01*
X5080000Y-11472240D01*
X5196525Y-11646632D01*
X5403368Y-11853475D01*
X5646589Y-12015990D01*
X5916842Y-12127932D01*
X6203740Y-12185000D01*
X6496260Y-12185000D01*
X6783158Y-12127932D01*
X7053411Y-12015990D01*
X7296632Y-11853475D01*
X7428487Y-11721620D01*
X7450498Y-11794180D01*
X7509463Y-11904494D01*
X7588815Y-12001185D01*
X7685506Y-12080537D01*
X7795820Y-12139502D01*
X7915518Y-12175812D01*
X8040000Y-12188072D01*
X9740000Y-12188072D01*
X9864482Y-12175812D01*
X9984180Y-12139502D01*
X10094494Y-12080537D01*
X10191185Y-12001185D01*
X10270537Y-11904494D01*
X10329502Y-11794180D01*
X10365812Y-11674482D01*
X10378072Y-11550000D01*
X10378072Y-9850000D01*
X10365812Y-9725518D01*
X10329502Y-9605820D01*
X10270537Y-9495506D01*
X10191185Y-9398815D01*
X10094494Y-9319463D01*
X10050736Y-9296073D01*
X10595269Y-8751541D01*
X10623375Y-8728475D01*
X10715424Y-8616313D01*
X10781082Y-8493475D01*
X10794180Y-8489502D01*
X10904494Y-8430537D01*
X11001185Y-8351185D01*
X11080537Y-8254494D01*
X11139502Y-8144180D01*
X11175812Y-8024482D01*
X11188072Y-7900000D01*
X11188072Y-7100000D01*
X11175812Y-6975518D01*
X11139502Y-6855820D01*
X11080537Y-6745506D01*
X11001185Y-6648815D01*
X10904494Y-6569463D01*
X10794180Y-6510498D01*
X10674482Y-6474188D01*
X10550000Y-6461928D01*
X9650000Y-6461928D01*
X9525518Y-6474188D01*
X9405820Y-6510498D01*
X9295506Y-6569463D01*
X9198815Y-6648815D01*
X9188072Y-6661905D01*
X9188072Y-6150000D01*
X9175812Y-6025518D01*
X9139502Y-5905820D01*
X9080537Y-5795506D01*
X9031045Y-5735200D01*
X9118062Y-5735200D01*
X9299629Y-5699084D01*
X9470662Y-5628240D01*
X9624587Y-5525390D01*
X9755490Y-5394487D01*
X9858340Y-5240562D01*
X9929184Y-5069529D01*
X9965300Y-4887962D01*
X9965300Y-4702838D01*
X9929184Y-4521271D01*
X9858340Y-4350238D01*
X9816802Y-4288072D01*
X9825000Y-4288072D01*
X9993377Y-4271488D01*
X10155283Y-4222375D01*
X10304497Y-4142618D01*
X10435284Y-4035284D01*
X10530855Y-3918830D01*
X10612025Y-4000000D01*
X10463038Y-4148987D01*
X10316939Y-4367641D01*
X10216304Y-4610595D01*
X10165000Y-4868514D01*
X10165000Y-5131486D01*
X10216304Y-5389405D01*
X10316939Y-5632359D01*
X10463038Y-5851013D01*
X10648987Y-6036962D01*
X10867641Y-6183061D01*
X11110595Y-6283696D01*
X11368514Y-6335000D01*
X11631486Y-6335000D01*
X11889405Y-6283696D01*
X12132359Y-6183061D01*
X12240001Y-6111138D01*
X12240001Y-14090000D01*
X-12240000Y-14090000D01*
X-12240000Y-11056891D01*
X-10331481Y-11056891D01*
X-10234157Y-11331252D01*
X-10085178Y-11581355D01*
X-9890269Y-11797588D01*
X-9656920Y-11971641D01*
X-9394099Y-12096825D01*
X-9246890Y-12141476D01*
X-9017000Y-12020155D01*
X-9017000Y-10827000D01*
X-10210814Y-10827000D01*
X-10331481Y-11056891D01*
X-12240000Y-11056891D01*
X-12240000Y-10343109D01*
X-10331481Y-10343109D01*
X-10210814Y-10573000D01*
X-9017000Y-10573000D01*
X-9017000Y-9379845D01*
X-9246890Y-9258524D01*
X-9394099Y-9303175D01*
X-9656920Y-9428359D01*
X-9890269Y-9602412D01*
X-10085178Y-9818645D01*
X-10234157Y-10068748D01*
X-10331481Y-10343109D01*
X-12240000Y-10343109D01*
X-12240000Y-8550000D01*
X-9588072Y-8550000D01*
X-9575812Y-8674482D01*
X-9539502Y-8794180D01*
X-9480537Y-8904494D01*
X-9401185Y-9001185D01*
X-9304494Y-9080537D01*
X-9194180Y-9139502D01*
X-9074482Y-9175812D01*
X-8950000Y-9188072D01*
X-8735750Y-9185000D01*
X-8577000Y-9026250D01*
X-8577000Y-8227000D01*
X-9426250Y-8227000D01*
X-9585000Y-8385750D01*
X-9588072Y-8550000D01*
X-12240000Y-8550000D01*
X-12240000Y-7650000D01*
X-9588072Y-7650000D01*
X-9585000Y-7814250D01*
X-9426250Y-7973000D01*
X-8577000Y-7973000D01*
X-8577000Y-7173750D01*
X-8735750Y-7015000D01*
X-8950000Y-7011928D01*
X-9074482Y-7024188D01*
X-9194180Y-7060498D01*
X-9304494Y-7119463D01*
X-9401185Y-7198815D01*
X-9480537Y-7295506D01*
X-9539502Y-7405820D01*
X-9575812Y-7525518D01*
X-9588072Y-7650000D01*
X-12240000Y-7650000D01*
X-12240000Y-1900000D01*
X-11538072Y-1900000D01*
X-11525812Y-2024482D01*
X-11489502Y-2144180D01*
X-11459665Y-2200000D01*
X-11489502Y-2255820D01*
X-11525812Y-2375518D01*
X-11538072Y-2500000D01*
X-11535000Y-2514250D01*
X-11376250Y-2673000D01*
X-10727000Y-2673000D01*
X-10727000Y-1727000D01*
X-11376250Y-1727000D01*
X-11535000Y-1885750D01*
X-11538072Y-1900000D01*
X-12240000Y-1900000D01*
X-12240000Y1723255D01*
X-12125000Y1711928D01*
X-11675000Y1711928D01*
X-11506623Y1728512D01*
X-11344717Y1777625D01*
X-11195503Y1857382D01*
X-11150000Y1894725D01*
X-11104497Y1857382D01*
G04 #@! TA.AperFunction,Conductor*
D26*
G36*
X-11104497Y1857382D02*
G01*
X-10955283Y1777625D01*
X-10793377Y1728512D01*
X-10625000Y1711928D01*
X-10321855Y1711928D01*
X-10292584Y1564771D01*
X-10221740Y1393738D01*
X-10118890Y1239813D01*
X-9987987Y1108910D01*
X-9834062Y1006060D01*
X-9663029Y935216D01*
X-9621018Y926859D01*
X-9729990Y817887D01*
X-9832840Y663962D01*
X-9903684Y492929D01*
X-9935176Y334608D01*
X-10024482Y325812D01*
X-10144180Y289502D01*
X-10159342Y281398D01*
X-10296255Y322929D01*
X-10450000Y338072D01*
X-10750000Y338072D01*
X-10903745Y322929D01*
X-11051582Y278084D01*
X-11187829Y205258D01*
X-11307251Y107251D01*
X-11405258Y-12171D01*
X-11478084Y-148418D01*
X-11522929Y-296255D01*
X-11538072Y-450000D01*
X-11538072Y-750000D01*
X-11522929Y-903745D01*
X-11481398Y-1040658D01*
X-11489502Y-1055820D01*
X-11525812Y-1175518D01*
X-11538072Y-1300000D01*
X-11535000Y-1314250D01*
X-11376250Y-1473000D01*
X-11061093Y-1473000D01*
X-11051582Y-1478084D01*
X-10903745Y-1522929D01*
X-10750000Y-1538072D01*
X-10573941Y-1538072D01*
X-10532121Y-1560426D01*
X-10525812Y-1624482D01*
X-10489502Y-1744180D01*
X-10473000Y-1775053D01*
X-10473000Y-2624947D01*
X-10489502Y-2655820D01*
X-10525812Y-2775518D01*
X-10532121Y-2839574D01*
X-10573941Y-2861928D01*
X-10750000Y-2861928D01*
X-10903745Y-2877071D01*
X-11051582Y-2921916D01*
X-11061093Y-2927000D01*
X-11376250Y-2927000D01*
X-11535000Y-3085750D01*
X-11538072Y-3100000D01*
X-11525812Y-3224482D01*
X-11489502Y-3344180D01*
X-11481398Y-3359342D01*
X-11522929Y-3496255D01*
X-11538072Y-3650000D01*
X-11538072Y-3950000D01*
X-11522929Y-4103745D01*
X-11478084Y-4251582D01*
X-11405258Y-4387829D01*
X-11307251Y-4507251D01*
X-11187829Y-4605258D01*
X-11051582Y-4678084D01*
X-10903745Y-4722929D01*
X-10750000Y-4738072D01*
X-10450000Y-4738072D01*
X-10296255Y-4722929D01*
X-10159342Y-4681398D01*
X-10144180Y-4689502D01*
X-10024482Y-4725812D01*
X-9900000Y-4738072D01*
X-9719800Y-4738072D01*
X-9719800Y-4872562D01*
X-9683684Y-5054129D01*
X-9612840Y-5225162D01*
X-9509990Y-5379087D01*
X-9379087Y-5509990D01*
X-9225162Y-5612840D01*
X-9054129Y-5683684D01*
X-8872562Y-5719800D01*
X-8687438Y-5719800D01*
X-8505871Y-5683684D01*
X-8334838Y-5612840D01*
X-8180913Y-5509990D01*
X-8050010Y-5379087D01*
X-7947160Y-5225162D01*
X-7876316Y-5054129D01*
X-7840200Y-4872562D01*
X-7840200Y-4687438D01*
X-7841330Y-4681757D01*
X-7745506Y-4630537D01*
X-7648815Y-4551185D01*
X-7569463Y-4454494D01*
X-7510498Y-4344180D01*
X-7474188Y-4224482D01*
X-7461928Y-4100000D01*
X-7461928Y-2900000D01*
X-7474188Y-2775518D01*
X-7510498Y-2655820D01*
X-7569463Y-2545506D01*
X-7648815Y-2448815D01*
X-7745506Y-2369463D01*
X-7855820Y-2310498D01*
X-7873000Y-2305287D01*
X-7873000Y-2094713D01*
X-7855820Y-2089502D01*
X-7745506Y-2030537D01*
X-7648815Y-1951185D01*
X-7569463Y-1854494D01*
X-7510498Y-1744180D01*
X-7474188Y-1624482D01*
X-7461928Y-1500000D01*
X-7461928Y-300000D01*
X-7474188Y-175518D01*
X-7510498Y-55820D01*
X-7569463Y54494D01*
X-7648815Y151185D01*
X-7745506Y230537D01*
X-7855820Y289502D01*
X-7975518Y325812D01*
X-8064824Y334608D01*
X-8096316Y492929D01*
X-8167160Y663962D01*
X-8270010Y817887D01*
X-8400913Y948790D01*
X-8554838Y1051640D01*
X-8725871Y1122484D01*
X-8767882Y1130841D01*
X-8658910Y1239813D01*
X-8556060Y1393738D01*
X-8485216Y1564771D01*
X-8475068Y1615787D01*
X-8398400Y1608236D01*
X-8362214Y1611800D01*
X-7967409Y1611800D01*
X-4993681Y-1361928D01*
X-5550000Y-1361928D01*
X-5674482Y-1374188D01*
X-5794180Y-1410498D01*
X-5904494Y-1469463D01*
X-6001185Y-1548815D01*
X-6080537Y-1645506D01*
X-6139502Y-1755820D01*
X-6175812Y-1875518D01*
X-6188072Y-2000000D01*
X-6188072Y-4200000D01*
X-6175812Y-4324482D01*
X-6139502Y-4444180D01*
X-6080537Y-4554494D01*
X-6001185Y-4651185D01*
X-5904494Y-4730537D01*
X-5794180Y-4789502D01*
X-5674482Y-4825812D01*
X-5550000Y-4838072D01*
X-4459081Y-4838072D01*
X-6632937Y-7011928D01*
X-7025000Y-7011928D01*
X-7193377Y-7028512D01*
X-7355283Y-7077625D01*
X-7504497Y-7157382D01*
X-7526899Y-7175767D01*
X-7595506Y-7119463D01*
X-7705820Y-7060498D01*
X-7825518Y-7024188D01*
X-7950000Y-7011928D01*
X-8164250Y-7015000D01*
X-8323000Y-7173750D01*
X-8323000Y-7973000D01*
X-8303000Y-7973000D01*
X-8303000Y-8227000D01*
X-8323000Y-8227000D01*
X-8323000Y-9026250D01*
X-8164250Y-9185000D01*
X-7950000Y-9188072D01*
X-7825518Y-9175812D01*
X-7705820Y-9139502D01*
X-7595506Y-9080537D01*
X-7526899Y-9024233D01*
X-7504497Y-9042618D01*
X-7415900Y-9089974D01*
X-7415900Y-9179416D01*
X-7419464Y-9215600D01*
X-7415900Y-9251783D01*
X-7415900Y-9251785D01*
X-7405242Y-9359998D01*
X-7363122Y-9498848D01*
X-7323355Y-9573248D01*
X-7503475Y-9753368D01*
X-7625195Y-9935534D01*
X-7694822Y-9818645D01*
X-7889731Y-9602412D01*
X-8123080Y-9428359D01*
X-8385901Y-9303175D01*
X-8533110Y-9258524D01*
X-8763000Y-9379845D01*
X-8763000Y-10573000D01*
X-8743000Y-10573000D01*
X-8743000Y-10827000D01*
X-8763000Y-10827000D01*
X-8763000Y-12020155D01*
X-8533110Y-12141476D01*
X-8385901Y-12096825D01*
X-8123080Y-11971641D01*
X-7889731Y-11797588D01*
X-7694822Y-11581355D01*
X-7625195Y-11464466D01*
X-7503475Y-11646632D01*
X-7296632Y-11853475D01*
X-7053411Y-12015990D01*
X-6783158Y-12127932D01*
X-6496260Y-12185000D01*
X-6203740Y-12185000D01*
X-5916842Y-12127932D01*
X-5646589Y-12015990D01*
X-5403368Y-11853475D01*
X-5196525Y-11646632D01*
X-5080000Y-11472240D01*
X-4963475Y-11646632D01*
X-4756632Y-11853475D01*
X-4513411Y-12015990D01*
X-4243158Y-12127932D01*
X-3956260Y-12185000D01*
X-3663740Y-12185000D01*
X-3376842Y-12127932D01*
X-3106589Y-12015990D01*
X-2863368Y-11853475D01*
X-2656525Y-11646632D01*
X-2540000Y-11472240D01*
X-2423475Y-11646632D01*
X-2216632Y-11853475D01*
X-1973411Y-12015990D01*
X-1703158Y-12127932D01*
X-1416260Y-12185000D01*
X-1123740Y-12185000D01*
X-836842Y-12127932D01*
X-566589Y-12015990D01*
X-323368Y-11853475D01*
X-116525Y-11646632D01*
X0Y-11472240D01*
X116525Y-11646632D01*
X323368Y-11853475D01*
X566589Y-12015990D01*
X836842Y-12127932D01*
X1123740Y-12185000D01*
X1416260Y-12185000D01*
X1703158Y-12127932D01*
X1973411Y-12015990D01*
X2216632Y-11853475D01*
X2423475Y-11646632D01*
X2540000Y-11472240D01*
X2656525Y-11646632D01*
X2863368Y-11853475D01*
X3106589Y-12015990D01*
X3376842Y-12127932D01*
X3663740Y-12185000D01*
X3956260Y-12185000D01*
X4243158Y-12127932D01*
X4513411Y-12015990D01*
X4756632Y-11853475D01*
X4963475Y-11646632D01*
X5080000Y-11472240D01*
X5196525Y-11646632D01*
X5403368Y-11853475D01*
X5646589Y-12015990D01*
X5916842Y-12127932D01*
X6203740Y-12185000D01*
X6496260Y-12185000D01*
X6783158Y-12127932D01*
X7053411Y-12015990D01*
X7296632Y-11853475D01*
X7428487Y-11721620D01*
X7450498Y-11794180D01*
X7509463Y-11904494D01*
X7588815Y-12001185D01*
X7685506Y-12080537D01*
X7795820Y-12139502D01*
X7915518Y-12175812D01*
X8040000Y-12188072D01*
X9740000Y-12188072D01*
X9864482Y-12175812D01*
X9984180Y-12139502D01*
X10094494Y-12080537D01*
X10191185Y-12001185D01*
X10270537Y-11904494D01*
X10329502Y-11794180D01*
X10365812Y-11674482D01*
X10378072Y-11550000D01*
X10378072Y-9850000D01*
X10365812Y-9725518D01*
X10329502Y-9605820D01*
X10270537Y-9495506D01*
X10191185Y-9398815D01*
X10094494Y-9319463D01*
X10050736Y-9296073D01*
X10595269Y-8751541D01*
X10623375Y-8728475D01*
X10715424Y-8616313D01*
X10781082Y-8493475D01*
X10794180Y-8489502D01*
X10904494Y-8430537D01*
X11001185Y-8351185D01*
X11080537Y-8254494D01*
X11139502Y-8144180D01*
X11175812Y-8024482D01*
X11188072Y-7900000D01*
X11188072Y-7100000D01*
X11175812Y-6975518D01*
X11139502Y-6855820D01*
X11080537Y-6745506D01*
X11001185Y-6648815D01*
X10904494Y-6569463D01*
X10794180Y-6510498D01*
X10674482Y-6474188D01*
X10550000Y-6461928D01*
X9650000Y-6461928D01*
X9525518Y-6474188D01*
X9405820Y-6510498D01*
X9295506Y-6569463D01*
X9198815Y-6648815D01*
X9188072Y-6661905D01*
X9188072Y-6150000D01*
X9175812Y-6025518D01*
X9139502Y-5905820D01*
X9080537Y-5795506D01*
X9031045Y-5735200D01*
X9118062Y-5735200D01*
X9299629Y-5699084D01*
X9470662Y-5628240D01*
X9624587Y-5525390D01*
X9755490Y-5394487D01*
X9858340Y-5240562D01*
X9929184Y-5069529D01*
X9965300Y-4887962D01*
X9965300Y-4702838D01*
X9929184Y-4521271D01*
X9858340Y-4350238D01*
X9816802Y-4288072D01*
X9825000Y-4288072D01*
X9993377Y-4271488D01*
X10155283Y-4222375D01*
X10304497Y-4142618D01*
X10435284Y-4035284D01*
X10530855Y-3918830D01*
X10612025Y-4000000D01*
X10463038Y-4148987D01*
X10316939Y-4367641D01*
X10216304Y-4610595D01*
X10165000Y-4868514D01*
X10165000Y-5131486D01*
X10216304Y-5389405D01*
X10316939Y-5632359D01*
X10463038Y-5851013D01*
X10648987Y-6036962D01*
X10867641Y-6183061D01*
X11110595Y-6283696D01*
X11368514Y-6335000D01*
X11631486Y-6335000D01*
X11889405Y-6283696D01*
X12132359Y-6183061D01*
X12240001Y-6111138D01*
X12240001Y-14090000D01*
X-12240000Y-14090000D01*
X-12240000Y-11056891D01*
X-10331481Y-11056891D01*
X-10234157Y-11331252D01*
X-10085178Y-11581355D01*
X-9890269Y-11797588D01*
X-9656920Y-11971641D01*
X-9394099Y-12096825D01*
X-9246890Y-12141476D01*
X-9017000Y-12020155D01*
X-9017000Y-10827000D01*
X-10210814Y-10827000D01*
X-10331481Y-11056891D01*
X-12240000Y-11056891D01*
X-12240000Y-10343109D01*
X-10331481Y-10343109D01*
X-10210814Y-10573000D01*
X-9017000Y-10573000D01*
X-9017000Y-9379845D01*
X-9246890Y-9258524D01*
X-9394099Y-9303175D01*
X-9656920Y-9428359D01*
X-9890269Y-9602412D01*
X-10085178Y-9818645D01*
X-10234157Y-10068748D01*
X-10331481Y-10343109D01*
X-12240000Y-10343109D01*
X-12240000Y-8550000D01*
X-9588072Y-8550000D01*
X-9575812Y-8674482D01*
X-9539502Y-8794180D01*
X-9480537Y-8904494D01*
X-9401185Y-9001185D01*
X-9304494Y-9080537D01*
X-9194180Y-9139502D01*
X-9074482Y-9175812D01*
X-8950000Y-9188072D01*
X-8735750Y-9185000D01*
X-8577000Y-9026250D01*
X-8577000Y-8227000D01*
X-9426250Y-8227000D01*
X-9585000Y-8385750D01*
X-9588072Y-8550000D01*
X-12240000Y-8550000D01*
X-12240000Y-7650000D01*
X-9588072Y-7650000D01*
X-9585000Y-7814250D01*
X-9426250Y-7973000D01*
X-8577000Y-7973000D01*
X-8577000Y-7173750D01*
X-8735750Y-7015000D01*
X-8950000Y-7011928D01*
X-9074482Y-7024188D01*
X-9194180Y-7060498D01*
X-9304494Y-7119463D01*
X-9401185Y-7198815D01*
X-9480537Y-7295506D01*
X-9539502Y-7405820D01*
X-9575812Y-7525518D01*
X-9588072Y-7650000D01*
X-12240000Y-7650000D01*
X-12240000Y-1900000D01*
X-11538072Y-1900000D01*
X-11525812Y-2024482D01*
X-11489502Y-2144180D01*
X-11459665Y-2200000D01*
X-11489502Y-2255820D01*
X-11525812Y-2375518D01*
X-11538072Y-2500000D01*
X-11535000Y-2514250D01*
X-11376250Y-2673000D01*
X-10727000Y-2673000D01*
X-10727000Y-1727000D01*
X-11376250Y-1727000D01*
X-11535000Y-1885750D01*
X-11538072Y-1900000D01*
X-12240000Y-1900000D01*
X-12240000Y1723255D01*
X-12125000Y1711928D01*
X-11675000Y1711928D01*
X-11506623Y1728512D01*
X-11344717Y1777625D01*
X-11195503Y1857382D01*
X-11150000Y1894725D01*
X-11104497Y1857382D01*
G37*
G04 #@! TD.AperFunction*
D25*
X8227000Y-8323000D02*
X8247000Y-8323000D01*
X8247000Y-8418600D01*
X8013000Y-8418600D01*
X8013000Y-8400275D01*
X8016563Y-8364099D01*
X8013000Y-8327923D01*
X8013000Y-8327914D01*
X8010546Y-8303000D01*
X8227000Y-8303000D01*
X8227000Y-8323000D01*
G04 #@! TA.AperFunction,Conductor*
D26*
G36*
X8227000Y-8323000D02*
G01*
X8247000Y-8323000D01*
X8247000Y-8418600D01*
X8013000Y-8418600D01*
X8013000Y-8400275D01*
X8016563Y-8364099D01*
X8013000Y-8327923D01*
X8013000Y-8327914D01*
X8010546Y-8303000D01*
X8227000Y-8303000D01*
X8227000Y-8323000D01*
G37*
G04 #@! TD.AperFunction*
D25*
X5356809Y12537775D02*
X4485750Y12535000D01*
X4327000Y12376250D01*
X4327000Y10527000D01*
X5926250Y10527000D01*
X6085000Y10685750D01*
X6085690Y10958361D01*
X6235116Y10888240D01*
X6499960Y10822750D01*
X6772492Y10810188D01*
X7042238Y10851035D01*
X7298832Y10943723D01*
X7411863Y11004140D01*
X7477388Y11243007D01*
X6700000Y12020395D01*
X6685858Y12006253D01*
X6506253Y12185858D01*
X6520395Y12200000D01*
X6506253Y12214143D01*
X6685858Y12393748D01*
X6700000Y12379605D01*
X6714143Y12393748D01*
X6893748Y12214143D01*
X6879605Y12200000D01*
X7656993Y11422612D01*
X7895860Y11488137D01*
X7913201Y11525090D01*
X9401618Y10036673D01*
X8685750Y10035000D01*
X8527000Y9876250D01*
X8527000Y8827000D01*
X10476250Y8827000D01*
X10543771Y8894521D01*
X11780400Y7657891D01*
X11780401Y305734D01*
X11688260Y328183D01*
X11425527Y339390D01*
X11165656Y299125D01*
X10918634Y208935D01*
X10817797Y155037D01*
X10758337Y-78729D01*
X10641683Y37925D01*
X10638072Y34314D01*
X10638072Y1000000D01*
X10625812Y1124482D01*
X10589502Y1244180D01*
X10530537Y1354494D01*
X10451185Y1451185D01*
X10354494Y1530537D01*
X10244180Y1589502D01*
X10124482Y1625812D01*
X10000000Y1638072D01*
X6800000Y1638072D01*
X6675518Y1625812D01*
X6555820Y1589502D01*
X6445506Y1530537D01*
X6348815Y1451185D01*
X6269463Y1354494D01*
X6210498Y1244180D01*
X6174188Y1124482D01*
X6161928Y1000000D01*
X6161928Y29781D01*
X6138295Y53414D01*
X6156500Y144938D01*
X6156500Y330062D01*
X6120384Y511629D01*
X6049540Y682662D01*
X5946690Y836587D01*
X5815787Y967490D01*
X5661862Y1070340D01*
X5490829Y1141184D01*
X5309262Y1177300D01*
X5124138Y1177300D01*
X4942571Y1141184D01*
X4771538Y1070340D01*
X4617613Y967490D01*
X4486710Y836587D01*
X4383860Y682662D01*
X4313016Y511629D01*
X4276900Y330062D01*
X4276900Y144938D01*
X4313016Y-36629D01*
X4383860Y-207662D01*
X4486710Y-361587D01*
X4599256Y-474133D01*
X4601276Y-477912D01*
X4649758Y-536987D01*
X4693325Y-590074D01*
X4721432Y-613141D01*
X5470218Y-1361928D01*
X3750000Y-1361928D01*
X3625518Y-1374188D01*
X3505820Y-1410498D01*
X3395506Y-1469463D01*
X3298815Y-1548815D01*
X3219463Y-1645506D01*
X3160498Y-1755820D01*
X3124188Y-1875518D01*
X3111928Y-2000000D01*
X3111928Y-3157919D01*
X2986600Y-3032591D01*
X2986600Y-1116270D01*
X3094442Y-1078392D01*
X3202103Y-1014713D01*
X3295273Y-931253D01*
X3370370Y-831221D01*
X3424509Y-718460D01*
X3455609Y-597304D01*
X3462475Y-472409D01*
X3460000Y-135750D01*
X3427000Y-102750D01*
X3427000Y402750D01*
X3460000Y435750D01*
X3462475Y772409D01*
X3455609Y897304D01*
X3424509Y1018460D01*
X3370370Y1131221D01*
X3295273Y1231253D01*
X3202103Y1314713D01*
X3094442Y1378392D01*
X2976426Y1419844D01*
X2908750Y1435000D01*
X2877002Y1403252D01*
X2877002Y1435000D01*
X2838350Y1435000D01*
X2841700Y1469014D01*
X2841700Y1469015D01*
X2845264Y1505200D01*
X2841700Y1541386D01*
X2841700Y1694891D01*
X2858737Y1711928D01*
X3225000Y1711928D01*
X3393377Y1728512D01*
X3555283Y1777625D01*
X3704497Y1857382D01*
X3835284Y1964716D01*
X3942618Y2095503D01*
X4022375Y2244717D01*
X4071488Y2406623D01*
X4088072Y2575000D01*
X4088072Y3125000D01*
X4071488Y3293377D01*
X4022375Y3455283D01*
X3942618Y3604497D01*
X3924233Y3626899D01*
X3980537Y3695506D01*
X4039502Y3805820D01*
X4075812Y3925518D01*
X4088072Y4050000D01*
X4085000Y4264250D01*
X3926250Y4423000D01*
X3127000Y4423000D01*
X3127000Y4403000D01*
X2873000Y4403000D01*
X2873000Y4423000D01*
X2853000Y4423000D01*
X2853000Y4677000D01*
X2873000Y4677000D01*
X2873000Y5526250D01*
X3127000Y5526250D01*
X3127000Y4677000D01*
X3926250Y4677000D01*
X4085000Y4835750D01*
X4088072Y5050000D01*
X4075812Y5174482D01*
X4039502Y5294180D01*
X3980537Y5404494D01*
X3901185Y5501185D01*
X3804494Y5580537D01*
X3694180Y5639502D01*
X3574482Y5675812D01*
X3450000Y5688072D01*
X3285750Y5685000D01*
X3127000Y5526250D01*
X2873000Y5526250D01*
X2841700Y5557550D01*
X2841700Y8000000D01*
X6161928Y8000000D01*
X6174188Y7875518D01*
X6210498Y7755820D01*
X6269463Y7645506D01*
X6348815Y7548815D01*
X6445506Y7469463D01*
X6555820Y7410498D01*
X6675518Y7374188D01*
X6800000Y7361928D01*
X8114250Y7365000D01*
X8273000Y7523750D01*
X8273000Y8573000D01*
X8527000Y8573000D01*
X8527000Y7523750D01*
X8685750Y7365000D01*
X10000000Y7361928D01*
X10124482Y7374188D01*
X10244180Y7410498D01*
X10354494Y7469463D01*
X10451185Y7548815D01*
X10530537Y7645506D01*
X10589502Y7755820D01*
X10625812Y7875518D01*
X10638072Y8000000D01*
X10635000Y8414250D01*
X10476250Y8573000D01*
X8527000Y8573000D01*
X8273000Y8573000D01*
X6323750Y8573000D01*
X6165000Y8414250D01*
X6161928Y8000000D01*
X2841700Y8000000D01*
X2841700Y8272594D01*
X2950000Y8261928D01*
X3914250Y8265000D01*
X4073000Y8423750D01*
X4073000Y10273000D01*
X4327000Y10273000D01*
X4327000Y8423750D01*
X4485750Y8265000D01*
X5450000Y8261928D01*
X5574482Y8274188D01*
X5694180Y8310498D01*
X5804494Y8369463D01*
X5901185Y8448815D01*
X5980537Y8545506D01*
X6039502Y8655820D01*
X6075812Y8775518D01*
X6088072Y8900000D01*
X6086808Y9400000D01*
X6161928Y9400000D01*
X6165000Y8985750D01*
X6323750Y8827000D01*
X8273000Y8827000D01*
X8273000Y9876250D01*
X8114250Y10035000D01*
X6800000Y10038072D01*
X6675518Y10025812D01*
X6555820Y9989502D01*
X6445506Y9930537D01*
X6348815Y9851185D01*
X6269463Y9754494D01*
X6210498Y9644180D01*
X6174188Y9524482D01*
X6161928Y9400000D01*
X6086808Y9400000D01*
X6085000Y10114250D01*
X5926250Y10273000D01*
X4327000Y10273000D01*
X4073000Y10273000D01*
X4053000Y10273000D01*
X4053000Y10527000D01*
X4073000Y10527000D01*
X4073000Y12376250D01*
X4054730Y12394521D01*
X4221609Y12561400D01*
X5362651Y12561400D01*
X5356809Y12537775D01*
G04 #@! TA.AperFunction,Conductor*
D26*
G36*
X5356809Y12537775D02*
G01*
X4485750Y12535000D01*
X4327000Y12376250D01*
X4327000Y10527000D01*
X5926250Y10527000D01*
X6085000Y10685750D01*
X6085690Y10958361D01*
X6235116Y10888240D01*
X6499960Y10822750D01*
X6772492Y10810188D01*
X7042238Y10851035D01*
X7298832Y10943723D01*
X7411863Y11004140D01*
X7477388Y11243007D01*
X6700000Y12020395D01*
X6685858Y12006253D01*
X6506253Y12185858D01*
X6520395Y12200000D01*
X6506253Y12214143D01*
X6685858Y12393748D01*
X6700000Y12379605D01*
X6714143Y12393748D01*
X6893748Y12214143D01*
X6879605Y12200000D01*
X7656993Y11422612D01*
X7895860Y11488137D01*
X7913201Y11525090D01*
X9401618Y10036673D01*
X8685750Y10035000D01*
X8527000Y9876250D01*
X8527000Y8827000D01*
X10476250Y8827000D01*
X10543771Y8894521D01*
X11780400Y7657891D01*
X11780401Y305734D01*
X11688260Y328183D01*
X11425527Y339390D01*
X11165656Y299125D01*
X10918634Y208935D01*
X10817797Y155037D01*
X10758337Y-78729D01*
X10641683Y37925D01*
X10638072Y34314D01*
X10638072Y1000000D01*
X10625812Y1124482D01*
X10589502Y1244180D01*
X10530537Y1354494D01*
X10451185Y1451185D01*
X10354494Y1530537D01*
X10244180Y1589502D01*
X10124482Y1625812D01*
X10000000Y1638072D01*
X6800000Y1638072D01*
X6675518Y1625812D01*
X6555820Y1589502D01*
X6445506Y1530537D01*
X6348815Y1451185D01*
X6269463Y1354494D01*
X6210498Y1244180D01*
X6174188Y1124482D01*
X6161928Y1000000D01*
X6161928Y29781D01*
X6138295Y53414D01*
X6156500Y144938D01*
X6156500Y330062D01*
X6120384Y511629D01*
X6049540Y682662D01*
X5946690Y836587D01*
X5815787Y967490D01*
X5661862Y1070340D01*
X5490829Y1141184D01*
X5309262Y1177300D01*
X5124138Y1177300D01*
X4942571Y1141184D01*
X4771538Y1070340D01*
X4617613Y967490D01*
X4486710Y836587D01*
X4383860Y682662D01*
X4313016Y511629D01*
X4276900Y330062D01*
X4276900Y144938D01*
X4313016Y-36629D01*
X4383860Y-207662D01*
X4486710Y-361587D01*
X4599256Y-474133D01*
X4601276Y-477912D01*
X4649758Y-536987D01*
X4693325Y-590074D01*
X4721432Y-613141D01*
X5470218Y-1361928D01*
X3750000Y-1361928D01*
X3625518Y-1374188D01*
X3505820Y-1410498D01*
X3395506Y-1469463D01*
X3298815Y-1548815D01*
X3219463Y-1645506D01*
X3160498Y-1755820D01*
X3124188Y-1875518D01*
X3111928Y-2000000D01*
X3111928Y-3157919D01*
X2986600Y-3032591D01*
X2986600Y-1116270D01*
X3094442Y-1078392D01*
X3202103Y-1014713D01*
X3295273Y-931253D01*
X3370370Y-831221D01*
X3424509Y-718460D01*
X3455609Y-597304D01*
X3462475Y-472409D01*
X3460000Y-135750D01*
X3427000Y-102750D01*
X3427000Y402750D01*
X3460000Y435750D01*
X3462475Y772409D01*
X3455609Y897304D01*
X3424509Y1018460D01*
X3370370Y1131221D01*
X3295273Y1231253D01*
X3202103Y1314713D01*
X3094442Y1378392D01*
X2976426Y1419844D01*
X2908750Y1435000D01*
X2877002Y1403252D01*
X2877002Y1435000D01*
X2838350Y1435000D01*
X2841700Y1469014D01*
X2841700Y1469015D01*
X2845264Y1505200D01*
X2841700Y1541386D01*
X2841700Y1694891D01*
X2858737Y1711928D01*
X3225000Y1711928D01*
X3393377Y1728512D01*
X3555283Y1777625D01*
X3704497Y1857382D01*
X3835284Y1964716D01*
X3942618Y2095503D01*
X4022375Y2244717D01*
X4071488Y2406623D01*
X4088072Y2575000D01*
X4088072Y3125000D01*
X4071488Y3293377D01*
X4022375Y3455283D01*
X3942618Y3604497D01*
X3924233Y3626899D01*
X3980537Y3695506D01*
X4039502Y3805820D01*
X4075812Y3925518D01*
X4088072Y4050000D01*
X4085000Y4264250D01*
X3926250Y4423000D01*
X3127000Y4423000D01*
X3127000Y4403000D01*
X2873000Y4403000D01*
X2873000Y4423000D01*
X2853000Y4423000D01*
X2853000Y4677000D01*
X2873000Y4677000D01*
X2873000Y5526250D01*
X3127000Y5526250D01*
X3127000Y4677000D01*
X3926250Y4677000D01*
X4085000Y4835750D01*
X4088072Y5050000D01*
X4075812Y5174482D01*
X4039502Y5294180D01*
X3980537Y5404494D01*
X3901185Y5501185D01*
X3804494Y5580537D01*
X3694180Y5639502D01*
X3574482Y5675812D01*
X3450000Y5688072D01*
X3285750Y5685000D01*
X3127000Y5526250D01*
X2873000Y5526250D01*
X2841700Y5557550D01*
X2841700Y8000000D01*
X6161928Y8000000D01*
X6174188Y7875518D01*
X6210498Y7755820D01*
X6269463Y7645506D01*
X6348815Y7548815D01*
X6445506Y7469463D01*
X6555820Y7410498D01*
X6675518Y7374188D01*
X6800000Y7361928D01*
X8114250Y7365000D01*
X8273000Y7523750D01*
X8273000Y8573000D01*
X8527000Y8573000D01*
X8527000Y7523750D01*
X8685750Y7365000D01*
X10000000Y7361928D01*
X10124482Y7374188D01*
X10244180Y7410498D01*
X10354494Y7469463D01*
X10451185Y7548815D01*
X10530537Y7645506D01*
X10589502Y7755820D01*
X10625812Y7875518D01*
X10638072Y8000000D01*
X10635000Y8414250D01*
X10476250Y8573000D01*
X8527000Y8573000D01*
X8273000Y8573000D01*
X6323750Y8573000D01*
X6165000Y8414250D01*
X6161928Y8000000D01*
X2841700Y8000000D01*
X2841700Y8272594D01*
X2950000Y8261928D01*
X3914250Y8265000D01*
X4073000Y8423750D01*
X4073000Y10273000D01*
X4327000Y10273000D01*
X4327000Y8423750D01*
X4485750Y8265000D01*
X5450000Y8261928D01*
X5574482Y8274188D01*
X5694180Y8310498D01*
X5804494Y8369463D01*
X5901185Y8448815D01*
X5980537Y8545506D01*
X6039502Y8655820D01*
X6075812Y8775518D01*
X6088072Y8900000D01*
X6086808Y9400000D01*
X6161928Y9400000D01*
X6165000Y8985750D01*
X6323750Y8827000D01*
X8273000Y8827000D01*
X8273000Y9876250D01*
X8114250Y10035000D01*
X6800000Y10038072D01*
X6675518Y10025812D01*
X6555820Y9989502D01*
X6445506Y9930537D01*
X6348815Y9851185D01*
X6269463Y9754494D01*
X6210498Y9644180D01*
X6174188Y9524482D01*
X6161928Y9400000D01*
X6086808Y9400000D01*
X6085000Y10114250D01*
X5926250Y10273000D01*
X4327000Y10273000D01*
X4073000Y10273000D01*
X4053000Y10273000D01*
X4053000Y10527000D01*
X4073000Y10527000D01*
X4073000Y12376250D01*
X4054730Y12394521D01*
X4221609Y12561400D01*
X5362651Y12561400D01*
X5356809Y12537775D01*
G37*
G04 #@! TD.AperFunction*
D25*
X-6573479Y3470769D02*
X-6539684Y3300871D01*
X-6468840Y3129838D01*
X-6365990Y2975913D01*
X-6235087Y2845010D01*
X-6081162Y2742160D01*
X-5910129Y2671316D01*
X-5728562Y2635200D01*
X-5614050Y2635200D01*
X-5685000Y2564250D01*
X-5688072Y2350000D01*
X-5675812Y2225518D01*
X-5639502Y2105820D01*
X-5580537Y1995506D01*
X-5501185Y1898815D01*
X-5404494Y1819463D01*
X-5294180Y1760498D01*
X-5174482Y1724188D01*
X-5050000Y1711928D01*
X-4885750Y1715000D01*
X-4727000Y1873750D01*
X-4727000Y2723000D01*
X-4747000Y2723000D01*
X-4747000Y2970000D01*
X-4453000Y2970000D01*
X-4453000Y2723000D01*
X-4473000Y2723000D01*
X-4473000Y1873750D01*
X-4314250Y1715000D01*
X-4150000Y1711928D01*
X-4038072Y1722952D01*
X-4038072Y1650000D01*
X-4025812Y1525518D01*
X-3989502Y1405820D01*
X-3930537Y1295506D01*
X-3851185Y1198815D01*
X-3754494Y1119463D01*
X-3644180Y1060498D01*
X-3524482Y1024188D01*
X-3425540Y1014443D01*
X-3455609Y897304D01*
X-3462475Y772409D01*
X-3460000Y435750D01*
X-3427000Y402750D01*
X-3427000Y-102750D01*
X-3460000Y-135750D01*
X-3462475Y-472409D01*
X-3455609Y-597304D01*
X-3424509Y-718460D01*
X-3370370Y-831221D01*
X-3295273Y-931253D01*
X-3202103Y-1014713D01*
X-3094442Y-1078392D01*
X-2976426Y-1119844D01*
X-2908750Y-1135000D01*
X-2877002Y-1103252D01*
X-2877002Y-1135000D01*
X-2826400Y-1135000D01*
X-2826400Y-1177362D01*
X-2790284Y-1358929D01*
X-2719440Y-1529962D01*
X-2673550Y-1598641D01*
X-7115854Y2843663D01*
X-7138925Y2871775D01*
X-7251087Y2963824D01*
X-7379051Y3032222D01*
X-7517901Y3074342D01*
X-7626114Y3085000D01*
X-7626117Y3085000D01*
X-7662300Y3088564D01*
X-7698483Y3085000D01*
X-7811928Y3085000D01*
X-7811928Y3125000D01*
X-7828512Y3293377D01*
X-7877625Y3455283D01*
X-7957382Y3604497D01*
X-8035759Y3700000D01*
X-7957382Y3795503D01*
X-7947816Y3813400D01*
X-6916109Y3813400D01*
X-6573479Y3470769D01*
G04 #@! TA.AperFunction,Conductor*
D26*
G36*
X-6573479Y3470769D02*
G01*
X-6539684Y3300871D01*
X-6468840Y3129838D01*
X-6365990Y2975913D01*
X-6235087Y2845010D01*
X-6081162Y2742160D01*
X-5910129Y2671316D01*
X-5728562Y2635200D01*
X-5614050Y2635200D01*
X-5685000Y2564250D01*
X-5688072Y2350000D01*
X-5675812Y2225518D01*
X-5639502Y2105820D01*
X-5580537Y1995506D01*
X-5501185Y1898815D01*
X-5404494Y1819463D01*
X-5294180Y1760498D01*
X-5174482Y1724188D01*
X-5050000Y1711928D01*
X-4885750Y1715000D01*
X-4727000Y1873750D01*
X-4727000Y2723000D01*
X-4747000Y2723000D01*
X-4747000Y2970000D01*
X-4453000Y2970000D01*
X-4453000Y2723000D01*
X-4473000Y2723000D01*
X-4473000Y1873750D01*
X-4314250Y1715000D01*
X-4150000Y1711928D01*
X-4038072Y1722952D01*
X-4038072Y1650000D01*
X-4025812Y1525518D01*
X-3989502Y1405820D01*
X-3930537Y1295506D01*
X-3851185Y1198815D01*
X-3754494Y1119463D01*
X-3644180Y1060498D01*
X-3524482Y1024188D01*
X-3425540Y1014443D01*
X-3455609Y897304D01*
X-3462475Y772409D01*
X-3460000Y435750D01*
X-3427000Y402750D01*
X-3427000Y-102750D01*
X-3460000Y-135750D01*
X-3462475Y-472409D01*
X-3455609Y-597304D01*
X-3424509Y-718460D01*
X-3370370Y-831221D01*
X-3295273Y-931253D01*
X-3202103Y-1014713D01*
X-3094442Y-1078392D01*
X-2976426Y-1119844D01*
X-2908750Y-1135000D01*
X-2877002Y-1103252D01*
X-2877002Y-1135000D01*
X-2826400Y-1135000D01*
X-2826400Y-1177362D01*
X-2790284Y-1358929D01*
X-2719440Y-1529962D01*
X-2673550Y-1598641D01*
X-7115854Y2843663D01*
X-7138925Y2871775D01*
X-7251087Y2963824D01*
X-7379051Y3032222D01*
X-7517901Y3074342D01*
X-7626114Y3085000D01*
X-7626117Y3085000D01*
X-7662300Y3088564D01*
X-7698483Y3085000D01*
X-7811928Y3085000D01*
X-7811928Y3125000D01*
X-7828512Y3293377D01*
X-7877625Y3455283D01*
X-7957382Y3604497D01*
X-8035759Y3700000D01*
X-7957382Y3795503D01*
X-7947816Y3813400D01*
X-6916109Y3813400D01*
X-6573479Y3470769D01*
G37*
G04 #@! TD.AperFunction*
D25*
X8227000Y-1323000D02*
X8247000Y-1323000D01*
X8247000Y-1577000D01*
X8227000Y-1577000D01*
X8227000Y-1597000D01*
X7973000Y-1597000D01*
X7973000Y-1577000D01*
X7953000Y-1577000D01*
X7953000Y-1323000D01*
X7973000Y-1323000D01*
X7973000Y-1303000D01*
X8227000Y-1303000D01*
X8227000Y-1323000D01*
G04 #@! TA.AperFunction,Conductor*
D26*
G36*
X8227000Y-1323000D02*
G01*
X8247000Y-1323000D01*
X8247000Y-1577000D01*
X8227000Y-1577000D01*
X8227000Y-1597000D01*
X7973000Y-1597000D01*
X7973000Y-1577000D01*
X7953000Y-1577000D01*
X7953000Y-1323000D01*
X7973000Y-1323000D01*
X7973000Y-1303000D01*
X8227000Y-1303000D01*
X8227000Y-1323000D01*
G37*
G04 #@! TD.AperFunction*
D25*
X11693748Y-985858D02*
X11679605Y-1000000D01*
X11693748Y-1014143D01*
X11514143Y-1193748D01*
X11500000Y-1179605D01*
X11485858Y-1193748D01*
X11306253Y-1014143D01*
X11320395Y-1000000D01*
X11306253Y-985858D01*
X11485858Y-806253D01*
X11500000Y-820395D01*
X11514143Y-806253D01*
X11693748Y-985858D01*
G04 #@! TA.AperFunction,Conductor*
D26*
G36*
X11693748Y-985858D02*
G01*
X11679605Y-1000000D01*
X11693748Y-1014143D01*
X11514143Y-1193748D01*
X11500000Y-1179605D01*
X11485858Y-1193748D01*
X11306253Y-1014143D01*
X11320395Y-1000000D01*
X11306253Y-985858D01*
X11485858Y-806253D01*
X11500000Y-820395D01*
X11514143Y-806253D01*
X11693748Y-985858D01*
G37*
G04 #@! TD.AperFunction*
D25*
X-151185Y4198815D02*
X-54494Y4119463D01*
X55820Y4060498D01*
X175518Y4024188D01*
X300000Y4011928D01*
X1800000Y4011928D01*
X1914566Y4023211D01*
X1924188Y3925518D01*
X1960498Y3805820D01*
X2019463Y3695506D01*
X2075767Y3626899D01*
X2057382Y3604497D01*
X1977625Y3455283D01*
X1928512Y3293377D01*
X1911928Y3125000D01*
X1911928Y2977048D01*
X1800000Y2988072D01*
X300000Y2988072D01*
X175518Y2975812D01*
X55820Y2939502D01*
X-54494Y2880537D01*
X-151185Y2801185D01*
X-230537Y2704494D01*
X-289502Y2594180D01*
X-325812Y2474482D01*
X-338072Y2350000D01*
X-338072Y1650000D01*
X-325812Y1525518D01*
X-299286Y1438072D01*
X-325000Y1438072D01*
X-449482Y1425812D01*
X-500000Y1410488D01*
X-536674Y1421613D01*
X-569916Y1588729D01*
X-640760Y1759762D01*
X-743610Y1913687D01*
X-874513Y2044590D01*
X-1028438Y2147440D01*
X-1199471Y2218284D01*
X-1261928Y2230707D01*
X-1261928Y2350000D01*
X-1274188Y2474482D01*
X-1310498Y2594180D01*
X-1369463Y2704494D01*
X-1448815Y2801185D01*
X-1545506Y2880537D01*
X-1655820Y2939502D01*
X-1775518Y2975812D01*
X-1900000Y2988072D01*
X-3400000Y2988072D01*
X-3515000Y2976746D01*
X-3515000Y2977002D01*
X-3673748Y2977002D01*
X-3515000Y3135750D01*
X-3512195Y3331396D01*
X-3209937Y3633654D01*
X-3181825Y3656725D01*
X-3089776Y3768887D01*
X-3021378Y3896851D01*
X-2986470Y4011928D01*
X-1900000Y4011928D01*
X-1775518Y4024188D01*
X-1655820Y4060498D01*
X-1545506Y4119463D01*
X-1448815Y4198815D01*
X-1395812Y4263400D01*
X-204188Y4263400D01*
X-151185Y4198815D01*
G04 #@! TA.AperFunction,Conductor*
D26*
G36*
X-151185Y4198815D02*
G01*
X-54494Y4119463D01*
X55820Y4060498D01*
X175518Y4024188D01*
X300000Y4011928D01*
X1800000Y4011928D01*
X1914566Y4023211D01*
X1924188Y3925518D01*
X1960498Y3805820D01*
X2019463Y3695506D01*
X2075767Y3626899D01*
X2057382Y3604497D01*
X1977625Y3455283D01*
X1928512Y3293377D01*
X1911928Y3125000D01*
X1911928Y2977048D01*
X1800000Y2988072D01*
X300000Y2988072D01*
X175518Y2975812D01*
X55820Y2939502D01*
X-54494Y2880537D01*
X-151185Y2801185D01*
X-230537Y2704494D01*
X-289502Y2594180D01*
X-325812Y2474482D01*
X-338072Y2350000D01*
X-338072Y1650000D01*
X-325812Y1525518D01*
X-299286Y1438072D01*
X-325000Y1438072D01*
X-449482Y1425812D01*
X-500000Y1410488D01*
X-536674Y1421613D01*
X-569916Y1588729D01*
X-640760Y1759762D01*
X-743610Y1913687D01*
X-874513Y2044590D01*
X-1028438Y2147440D01*
X-1199471Y2218284D01*
X-1261928Y2230707D01*
X-1261928Y2350000D01*
X-1274188Y2474482D01*
X-1310498Y2594180D01*
X-1369463Y2704494D01*
X-1448815Y2801185D01*
X-1545506Y2880537D01*
X-1655820Y2939502D01*
X-1775518Y2975812D01*
X-1900000Y2988072D01*
X-3400000Y2988072D01*
X-3515000Y2976746D01*
X-3515000Y2977002D01*
X-3673748Y2977002D01*
X-3515000Y3135750D01*
X-3512195Y3331396D01*
X-3209937Y3633654D01*
X-3181825Y3656725D01*
X-3089776Y3768887D01*
X-3021378Y3896851D01*
X-2986470Y4011928D01*
X-1900000Y4011928D01*
X-1775518Y4024188D01*
X-1655820Y4060498D01*
X-1545506Y4119463D01*
X-1448815Y4198815D01*
X-1395812Y4263400D01*
X-204188Y4263400D01*
X-151185Y4198815D01*
G37*
G04 #@! TD.AperFunction*
D25*
X-12125000Y7011928D02*
X-11976036Y7011928D01*
X-11972484Y6994071D01*
X-11901640Y6823038D01*
X-11798790Y6669113D01*
X-11667887Y6538210D01*
X-11513962Y6435360D01*
X-11342929Y6364516D01*
X-11161362Y6328400D01*
X-11136599Y6328400D01*
X-11136599Y6189196D01*
X-11232840Y6045162D01*
X-11303684Y5874129D01*
X-11339800Y5692562D01*
X-11339800Y5677219D01*
X-11450000Y5688072D01*
X-11614250Y5685000D01*
X-11773000Y5526250D01*
X-11773000Y4677000D01*
X-11485000Y4677000D01*
X-11485000Y4563474D01*
X-11620762Y4507240D01*
X-11746835Y4423000D01*
X-11773000Y4423000D01*
X-11773000Y4405517D01*
X-11774687Y4404390D01*
X-11776077Y4403000D01*
X-12027000Y4403000D01*
X-12027000Y4423000D01*
X-12047000Y4423000D01*
X-12047000Y4677000D01*
X-12027000Y4677000D01*
X-12027000Y5526250D01*
X-12185750Y5685000D01*
X-12240000Y5686015D01*
X-12240000Y7023255D01*
X-12125000Y7011928D01*
G04 #@! TA.AperFunction,Conductor*
D26*
G36*
X-12125000Y7011928D02*
G01*
X-11976036Y7011928D01*
X-11972484Y6994071D01*
X-11901640Y6823038D01*
X-11798790Y6669113D01*
X-11667887Y6538210D01*
X-11513962Y6435360D01*
X-11342929Y6364516D01*
X-11161362Y6328400D01*
X-11136599Y6328400D01*
X-11136599Y6189196D01*
X-11232840Y6045162D01*
X-11303684Y5874129D01*
X-11339800Y5692562D01*
X-11339800Y5677219D01*
X-11450000Y5688072D01*
X-11614250Y5685000D01*
X-11773000Y5526250D01*
X-11773000Y4677000D01*
X-11485000Y4677000D01*
X-11485000Y4563474D01*
X-11620762Y4507240D01*
X-11746835Y4423000D01*
X-11773000Y4423000D01*
X-11773000Y4405517D01*
X-11774687Y4404390D01*
X-11776077Y4403000D01*
X-12027000Y4403000D01*
X-12027000Y4423000D01*
X-12047000Y4423000D01*
X-12047000Y4677000D01*
X-12027000Y4677000D01*
X-12027000Y5526250D01*
X-12185750Y5685000D01*
X-12240000Y5686015D01*
X-12240000Y7023255D01*
X-12125000Y7011928D01*
G37*
G04 #@! TD.AperFunction*
D25*
X-10253000Y4423000D02*
X-10273000Y4423000D01*
X-10273000Y4403000D01*
X-10527000Y4403000D01*
X-10527000Y4423000D01*
X-10547000Y4423000D01*
X-10547000Y4671028D01*
X-10492562Y4660200D01*
X-10307438Y4660200D01*
X-10253000Y4671028D01*
X-10253000Y4423000D01*
G04 #@! TA.AperFunction,Conductor*
D26*
G36*
X-10253000Y4423000D02*
G01*
X-10273000Y4423000D01*
X-10273000Y4403000D01*
X-10527000Y4403000D01*
X-10527000Y4423000D01*
X-10547000Y4423000D01*
X-10547000Y4671028D01*
X-10492562Y4660200D01*
X-10307438Y4660200D01*
X-10253000Y4671028D01*
X-10253000Y4423000D01*
G37*
G04 #@! TD.AperFunction*
D25*
X228085Y9235306D02*
X200000Y9238072D01*
X-200000Y9238072D01*
X-324482Y9225812D01*
X-400000Y9202904D01*
X-475518Y9225812D01*
X-599197Y9237993D01*
X-416690Y9420500D01*
X-329538Y9420500D01*
X-147971Y9456616D01*
X-38549Y9501940D01*
X228085Y9235306D01*
G04 #@! TA.AperFunction,Conductor*
D26*
G36*
X228085Y9235306D02*
G01*
X200000Y9238072D01*
X-200000Y9238072D01*
X-324482Y9225812D01*
X-400000Y9202904D01*
X-475518Y9225812D01*
X-599197Y9237993D01*
X-416690Y9420500D01*
X-329538Y9420500D01*
X-147971Y9456616D01*
X-38549Y9501940D01*
X228085Y9235306D01*
G37*
G04 #@! TD.AperFunction*
D25*
X12240000Y13475437D02*
X12103989Y13531775D01*
X11836411Y13585000D01*
X11563589Y13585000D01*
X11296011Y13531775D01*
X11043957Y13427371D01*
X10817114Y13275799D01*
X10624201Y13082886D01*
X10472629Y12856043D01*
X10368225Y12603989D01*
X10315000Y12336411D01*
X10315000Y12063589D01*
X10368225Y11796011D01*
X10472629Y11543957D01*
X10624201Y11317114D01*
X10817114Y11124201D01*
X11043957Y10972629D01*
X11296011Y10868225D01*
X11563589Y10815000D01*
X11836411Y10815000D01*
X12103989Y10868225D01*
X12240000Y10924563D01*
X12240000Y9281709D01*
X7728446Y13793263D01*
X7705375Y13821375D01*
X7593213Y13913424D01*
X7465249Y13981822D01*
X7326399Y14023942D01*
X7218186Y14034600D01*
X7218183Y14034600D01*
X7182000Y14038164D01*
X7145817Y14034600D01*
X3952675Y14034600D01*
X3916499Y14038163D01*
X3880323Y14034600D01*
X3880314Y14034600D01*
X3772101Y14023942D01*
X3633251Y13981822D01*
X3505287Y13913424D01*
X3393125Y13821375D01*
X3370054Y13793263D01*
X1609832Y12033041D01*
X1581726Y12009975D01*
X1489676Y11897813D01*
X1421278Y11769849D01*
X1402638Y11708400D01*
X-674225Y11708400D01*
X-710401Y11711963D01*
X-746577Y11708400D01*
X-746586Y11708400D01*
X-854799Y11697742D01*
X-993649Y11655622D01*
X-1121613Y11587224D01*
X-1233775Y11495175D01*
X-1256841Y11467069D01*
X-2315000Y10408910D01*
X-2315000Y10527002D01*
X-2473748Y10527002D01*
X-2315000Y10685750D01*
X-2311928Y11900000D01*
X-2324188Y12024482D01*
X-2360498Y12144180D01*
X-2419463Y12254494D01*
X-2498815Y12351185D01*
X-2595506Y12430537D01*
X-2705820Y12489502D01*
X-2825518Y12525812D01*
X-2950000Y12538072D01*
X-3914250Y12535000D01*
X-4073000Y12376250D01*
X-4073000Y10527000D01*
X-4053000Y10527000D01*
X-4053000Y10273000D01*
X-4073000Y10273000D01*
X-4073000Y10253000D01*
X-4327000Y10253000D01*
X-4327000Y10273000D01*
X-5926250Y10273000D01*
X-6085000Y10114250D01*
X-6086564Y9495900D01*
X-6183587Y9575524D01*
X-6311551Y9643922D01*
X-6311928Y9644036D01*
X-6311928Y10125000D01*
X-6328512Y10293377D01*
X-6377625Y10455283D01*
X-6457382Y10604497D01*
X-6564716Y10735284D01*
X-6661850Y10815000D01*
X-6563589Y10815000D01*
X-6296011Y10868225D01*
X-6085682Y10955346D01*
X-6085000Y10685750D01*
X-5926250Y10527000D01*
X-4327000Y10527000D01*
X-4327000Y12376250D01*
X-4485750Y12535000D01*
X-5355053Y12537770D01*
X-5368225Y12603989D01*
X-5472629Y12856043D01*
X-5624201Y13082886D01*
X-5817114Y13275799D01*
X-6043957Y13427371D01*
X-6296011Y13531775D01*
X-6563589Y13585000D01*
X-6836411Y13585000D01*
X-7103989Y13531775D01*
X-7356043Y13427371D01*
X-7582886Y13275799D01*
X-7775799Y13082886D01*
X-7927371Y12856043D01*
X-8031775Y12603989D01*
X-8085000Y12336411D01*
X-8085000Y12063589D01*
X-8031775Y11796011D01*
X-7927371Y11543957D01*
X-7775799Y11317114D01*
X-7582886Y11124201D01*
X-7379155Y10988072D01*
X-7625000Y10988072D01*
X-7793377Y10971488D01*
X-7955283Y10922375D01*
X-8104497Y10842618D01*
X-8150000Y10805275D01*
X-8195503Y10842618D01*
X-8344717Y10922375D01*
X-8506623Y10971488D01*
X-8675000Y10988072D01*
X-9125000Y10988072D01*
X-9293377Y10971488D01*
X-9455283Y10922375D01*
X-9604497Y10842618D01*
X-9650000Y10805275D01*
X-9695503Y10842618D01*
X-9844717Y10922375D01*
X-10006623Y10971488D01*
X-10175000Y10988072D01*
X-10625000Y10988072D01*
X-10793377Y10971488D01*
X-10955283Y10922375D01*
X-11104497Y10842618D01*
X-11150000Y10805275D01*
X-11195503Y10842618D01*
X-11270334Y10882616D01*
X-11101168Y10943723D01*
X-10988137Y11004140D01*
X-10922612Y11243007D01*
X-11700000Y12020395D01*
X-11714143Y12006253D01*
X-11893748Y12185858D01*
X-11879605Y12200000D01*
X-11520395Y12200000D01*
X-10743007Y11422612D01*
X-10504140Y11488137D01*
X-10388240Y11735116D01*
X-10322750Y11999960D01*
X-10310188Y12272492D01*
X-10351035Y12542238D01*
X-10443723Y12798832D01*
X-10504140Y12911863D01*
X-10743007Y12977388D01*
X-11520395Y12200000D01*
X-11879605Y12200000D01*
X-11893748Y12214143D01*
X-11714143Y12393748D01*
X-11700000Y12379605D01*
X-10922612Y13156993D01*
X-10988137Y13395860D01*
X-11235116Y13511760D01*
X-11499960Y13577250D01*
X-11772492Y13589812D01*
X-12042238Y13548965D01*
X-12240000Y13477529D01*
X-12240000Y14090000D01*
X12240000Y14090000D01*
X12240000Y13475437D01*
G04 #@! TA.AperFunction,Conductor*
D26*
G36*
X12240000Y13475437D02*
G01*
X12103989Y13531775D01*
X11836411Y13585000D01*
X11563589Y13585000D01*
X11296011Y13531775D01*
X11043957Y13427371D01*
X10817114Y13275799D01*
X10624201Y13082886D01*
X10472629Y12856043D01*
X10368225Y12603989D01*
X10315000Y12336411D01*
X10315000Y12063589D01*
X10368225Y11796011D01*
X10472629Y11543957D01*
X10624201Y11317114D01*
X10817114Y11124201D01*
X11043957Y10972629D01*
X11296011Y10868225D01*
X11563589Y10815000D01*
X11836411Y10815000D01*
X12103989Y10868225D01*
X12240000Y10924563D01*
X12240000Y9281709D01*
X7728446Y13793263D01*
X7705375Y13821375D01*
X7593213Y13913424D01*
X7465249Y13981822D01*
X7326399Y14023942D01*
X7218186Y14034600D01*
X7218183Y14034600D01*
X7182000Y14038164D01*
X7145817Y14034600D01*
X3952675Y14034600D01*
X3916499Y14038163D01*
X3880323Y14034600D01*
X3880314Y14034600D01*
X3772101Y14023942D01*
X3633251Y13981822D01*
X3505287Y13913424D01*
X3393125Y13821375D01*
X3370054Y13793263D01*
X1609832Y12033041D01*
X1581726Y12009975D01*
X1489676Y11897813D01*
X1421278Y11769849D01*
X1402638Y11708400D01*
X-674225Y11708400D01*
X-710401Y11711963D01*
X-746577Y11708400D01*
X-746586Y11708400D01*
X-854799Y11697742D01*
X-993649Y11655622D01*
X-1121613Y11587224D01*
X-1233775Y11495175D01*
X-1256841Y11467069D01*
X-2315000Y10408910D01*
X-2315000Y10527002D01*
X-2473748Y10527002D01*
X-2315000Y10685750D01*
X-2311928Y11900000D01*
X-2324188Y12024482D01*
X-2360498Y12144180D01*
X-2419463Y12254494D01*
X-2498815Y12351185D01*
X-2595506Y12430537D01*
X-2705820Y12489502D01*
X-2825518Y12525812D01*
X-2950000Y12538072D01*
X-3914250Y12535000D01*
X-4073000Y12376250D01*
X-4073000Y10527000D01*
X-4053000Y10527000D01*
X-4053000Y10273000D01*
X-4073000Y10273000D01*
X-4073000Y10253000D01*
X-4327000Y10253000D01*
X-4327000Y10273000D01*
X-5926250Y10273000D01*
X-6085000Y10114250D01*
X-6086564Y9495900D01*
X-6183587Y9575524D01*
X-6311551Y9643922D01*
X-6311928Y9644036D01*
X-6311928Y10125000D01*
X-6328512Y10293377D01*
X-6377625Y10455283D01*
X-6457382Y10604497D01*
X-6564716Y10735284D01*
X-6661850Y10815000D01*
X-6563589Y10815000D01*
X-6296011Y10868225D01*
X-6085682Y10955346D01*
X-6085000Y10685750D01*
X-5926250Y10527000D01*
X-4327000Y10527000D01*
X-4327000Y12376250D01*
X-4485750Y12535000D01*
X-5355053Y12537770D01*
X-5368225Y12603989D01*
X-5472629Y12856043D01*
X-5624201Y13082886D01*
X-5817114Y13275799D01*
X-6043957Y13427371D01*
X-6296011Y13531775D01*
X-6563589Y13585000D01*
X-6836411Y13585000D01*
X-7103989Y13531775D01*
X-7356043Y13427371D01*
X-7582886Y13275799D01*
X-7775799Y13082886D01*
X-7927371Y12856043D01*
X-8031775Y12603989D01*
X-8085000Y12336411D01*
X-8085000Y12063589D01*
X-8031775Y11796011D01*
X-7927371Y11543957D01*
X-7775799Y11317114D01*
X-7582886Y11124201D01*
X-7379155Y10988072D01*
X-7625000Y10988072D01*
X-7793377Y10971488D01*
X-7955283Y10922375D01*
X-8104497Y10842618D01*
X-8150000Y10805275D01*
X-8195503Y10842618D01*
X-8344717Y10922375D01*
X-8506623Y10971488D01*
X-8675000Y10988072D01*
X-9125000Y10988072D01*
X-9293377Y10971488D01*
X-9455283Y10922375D01*
X-9604497Y10842618D01*
X-9650000Y10805275D01*
X-9695503Y10842618D01*
X-9844717Y10922375D01*
X-10006623Y10971488D01*
X-10175000Y10988072D01*
X-10625000Y10988072D01*
X-10793377Y10971488D01*
X-10955283Y10922375D01*
X-11104497Y10842618D01*
X-11150000Y10805275D01*
X-11195503Y10842618D01*
X-11270334Y10882616D01*
X-11101168Y10943723D01*
X-10988137Y11004140D01*
X-10922612Y11243007D01*
X-11700000Y12020395D01*
X-11714143Y12006253D01*
X-11893748Y12185858D01*
X-11879605Y12200000D01*
X-11520395Y12200000D01*
X-10743007Y11422612D01*
X-10504140Y11488137D01*
X-10388240Y11735116D01*
X-10322750Y11999960D01*
X-10310188Y12272492D01*
X-10351035Y12542238D01*
X-10443723Y12798832D01*
X-10504140Y12911863D01*
X-10743007Y12977388D01*
X-11520395Y12200000D01*
X-11879605Y12200000D01*
X-11893748Y12214143D01*
X-11714143Y12393748D01*
X-11700000Y12379605D01*
X-10922612Y13156993D01*
X-10988137Y13395860D01*
X-11235116Y13511760D01*
X-11499960Y13577250D01*
X-11772492Y13589812D01*
X-12042238Y13548965D01*
X-12240000Y13477529D01*
X-12240000Y14090000D01*
X12240000Y14090000D01*
X12240000Y13475437D01*
G37*
G04 #@! TD.AperFunction*
M02*
