G04 #@! TF.GenerationSoftware,KiCad,Pcbnew,(5.1.9-0-10_14)*
G04 #@! TF.CreationDate,2021-07-10T20:48:45+09:00*
G04 #@! TF.ProjectId,RL78Display,524c3738-4469-4737-906c-61792e6b6963,V2.1*
G04 #@! TF.SameCoordinates,Original*
G04 #@! TF.FileFunction,Soldermask,Top*
G04 #@! TF.FilePolarity,Negative*
%FSLAX46Y46*%
G04 Gerber Fmt 4.6, Leading zero omitted, Abs format (unit mm)*
G04 Created by KiCad (PCBNEW (5.1.9-0-10_14)) date 2021-07-10 20:48:45*
%MOMM*%
%LPD*%
G01*
G04 APERTURE LIST*
%ADD10O,1.500000X1.500000*%
%ADD11R,1.500000X1.500000*%
%ADD12R,0.650000X1.000000*%
%ADD13R,0.350000X1.000000*%
%ADD14R,1.060000X0.500000*%
%ADD15R,2.000000X3.000000*%
%ADD16R,0.400000X1.400000*%
%ADD17R,1.000000X2.000000*%
%ADD18R,3.200000X1.400000*%
%ADD19R,1.200000X1.800000*%
%ADD20R,1.500000X0.700000*%
%ADD21C,0.100000*%
%ADD22C,1.400000*%
%ADD23R,0.900000X0.800000*%
%ADD24R,1.800000X2.200000*%
%ADD25R,0.150000X1.300000*%
G04 APERTURE END LIST*
D10*
X-8890000Y-10050000D03*
X-6350000Y-10050000D03*
X-3810000Y-10050000D03*
X-1270000Y-10050000D03*
X1270000Y-10050000D03*
X3810000Y-10050000D03*
X6350000Y-10050000D03*
D11*
X8890000Y-10050000D03*
D12*
X1050000Y-14250000D03*
D13*
X200000Y-14250000D03*
X-500000Y-14250000D03*
X-1200000Y-14250000D03*
D12*
X-2050000Y-14250000D03*
X-2050000Y-12150000D03*
D13*
X-1200000Y-12150000D03*
X-500000Y-12150000D03*
X200000Y-12150000D03*
D12*
X1050000Y-12150000D03*
G36*
G01*
X-7175000Y1550000D02*
X-7625000Y1550000D01*
G75*
G02*
X-7850000Y1775000I0J225000D01*
G01*
X-7850000Y2325000D01*
G75*
G02*
X-7625000Y2550000I225000J0D01*
G01*
X-7175000Y2550000D01*
G75*
G02*
X-6950000Y2325000I0J-225000D01*
G01*
X-6950000Y1775000D01*
G75*
G02*
X-7175000Y1550000I-225000J0D01*
G01*
G37*
G36*
G01*
X-7175000Y3250000D02*
X-7625000Y3250000D01*
G75*
G02*
X-7850000Y3475000I0J225000D01*
G01*
X-7850000Y4025000D01*
G75*
G02*
X-7625000Y4250000I225000J0D01*
G01*
X-7175000Y4250000D01*
G75*
G02*
X-6950000Y4025000I0J-225000D01*
G01*
X-6950000Y3475000D01*
G75*
G02*
X-7175000Y3250000I-225000J0D01*
G01*
G37*
G36*
G01*
X-8675000Y1550000D02*
X-9125000Y1550000D01*
G75*
G02*
X-9350000Y1775000I0J225000D01*
G01*
X-9350000Y2325000D01*
G75*
G02*
X-9125000Y2550000I225000J0D01*
G01*
X-8675000Y2550000D01*
G75*
G02*
X-8450000Y2325000I0J-225000D01*
G01*
X-8450000Y1775000D01*
G75*
G02*
X-8675000Y1550000I-225000J0D01*
G01*
G37*
G36*
G01*
X-8675000Y3250000D02*
X-9125000Y3250000D01*
G75*
G02*
X-9350000Y3475000I0J225000D01*
G01*
X-9350000Y4025000D01*
G75*
G02*
X-9125000Y4250000I225000J0D01*
G01*
X-8675000Y4250000D01*
G75*
G02*
X-8450000Y4025000I0J-225000D01*
G01*
X-8450000Y3475000D01*
G75*
G02*
X-8675000Y3250000I-225000J0D01*
G01*
G37*
D14*
X-7500000Y-12450000D03*
X-7500000Y-14350000D03*
X-9700000Y-14350000D03*
X-9700000Y-13400000D03*
X-9700000Y-12450000D03*
X5900000Y12500000D03*
X5900000Y11550000D03*
X5900000Y13450000D03*
X8100000Y13450000D03*
X8100000Y12500000D03*
X8100000Y11550000D03*
X-8100000Y13450000D03*
X-8100000Y12500000D03*
X-8100000Y11550000D03*
X-5900000Y11550000D03*
X-5900000Y13450000D03*
X-5900000Y12500000D03*
D15*
X-4000000Y10400000D03*
X4000000Y10400000D03*
D16*
X-1600000Y7900000D03*
X-800000Y7900000D03*
X0Y7900000D03*
X800000Y7900000D03*
X1600000Y7900000D03*
G36*
G01*
X12000000Y11975000D02*
X12000000Y11525000D01*
G75*
G02*
X11775000Y11300000I-225000J0D01*
G01*
X11225000Y11300000D01*
G75*
G02*
X11000000Y11525000I0J225000D01*
G01*
X11000000Y11975000D01*
G75*
G02*
X11225000Y12200000I225000J0D01*
G01*
X11775000Y12200000D01*
G75*
G02*
X12000000Y11975000I0J-225000D01*
G01*
G37*
G36*
G01*
X10300000Y11975000D02*
X10300000Y11525000D01*
G75*
G02*
X10075000Y11300000I-225000J0D01*
G01*
X9525000Y11300000D01*
G75*
G02*
X9300000Y11525000I0J225000D01*
G01*
X9300000Y11975000D01*
G75*
G02*
X9525000Y12200000I225000J0D01*
G01*
X10075000Y12200000D01*
G75*
G02*
X10300000Y11975000I0J-225000D01*
G01*
G37*
G36*
G01*
X-12000000Y11525000D02*
X-12000000Y11975000D01*
G75*
G02*
X-11775000Y12200000I225000J0D01*
G01*
X-11225000Y12200000D01*
G75*
G02*
X-11000000Y11975000I0J-225000D01*
G01*
X-11000000Y11525000D01*
G75*
G02*
X-11225000Y11300000I-225000J0D01*
G01*
X-11775000Y11300000D01*
G75*
G02*
X-12000000Y11525000I0J225000D01*
G01*
G37*
G36*
G01*
X-10300000Y11525000D02*
X-10300000Y11975000D01*
G75*
G02*
X-10075000Y12200000I225000J0D01*
G01*
X-9525000Y12200000D01*
G75*
G02*
X-9300000Y11975000I0J-225000D01*
G01*
X-9300000Y11525000D01*
G75*
G02*
X-9525000Y11300000I-225000J0D01*
G01*
X-10075000Y11300000D01*
G75*
G02*
X-10300000Y11525000I0J225000D01*
G01*
G37*
G36*
G01*
X4725000Y-14700000D02*
X4275000Y-14700000D01*
G75*
G02*
X4050000Y-14475000I0J225000D01*
G01*
X4050000Y-13925000D01*
G75*
G02*
X4275000Y-13700000I225000J0D01*
G01*
X4725000Y-13700000D01*
G75*
G02*
X4950000Y-13925000I0J-225000D01*
G01*
X4950000Y-14475000D01*
G75*
G02*
X4725000Y-14700000I-225000J0D01*
G01*
G37*
G36*
G01*
X4725000Y-13000000D02*
X4275000Y-13000000D01*
G75*
G02*
X4050000Y-12775000I0J225000D01*
G01*
X4050000Y-12225000D01*
G75*
G02*
X4275000Y-12000000I225000J0D01*
G01*
X4725000Y-12000000D01*
G75*
G02*
X4950000Y-12225000I0J-225000D01*
G01*
X4950000Y-12775000D01*
G75*
G02*
X4725000Y-13000000I-225000J0D01*
G01*
G37*
G36*
G01*
X12000000Y13475000D02*
X12000000Y13025000D01*
G75*
G02*
X11775000Y12800000I-225000J0D01*
G01*
X11225000Y12800000D01*
G75*
G02*
X11000000Y13025000I0J225000D01*
G01*
X11000000Y13475000D01*
G75*
G02*
X11225000Y13700000I225000J0D01*
G01*
X11775000Y13700000D01*
G75*
G02*
X12000000Y13475000I0J-225000D01*
G01*
G37*
G36*
G01*
X10300000Y13475000D02*
X10300000Y13025000D01*
G75*
G02*
X10075000Y12800000I-225000J0D01*
G01*
X9525000Y12800000D01*
G75*
G02*
X9300000Y13025000I0J225000D01*
G01*
X9300000Y13475000D01*
G75*
G02*
X9525000Y13700000I225000J0D01*
G01*
X10075000Y13700000D01*
G75*
G02*
X10300000Y13475000I0J-225000D01*
G01*
G37*
G36*
G01*
X-12000000Y13025000D02*
X-12000000Y13475000D01*
G75*
G02*
X-11775000Y13700000I225000J0D01*
G01*
X-11225000Y13700000D01*
G75*
G02*
X-11000000Y13475000I0J-225000D01*
G01*
X-11000000Y13025000D01*
G75*
G02*
X-11225000Y12800000I-225000J0D01*
G01*
X-11775000Y12800000D01*
G75*
G02*
X-12000000Y13025000I0J225000D01*
G01*
G37*
G36*
G01*
X-10300000Y13025000D02*
X-10300000Y13475000D01*
G75*
G02*
X-10075000Y13700000I225000J0D01*
G01*
X-9525000Y13700000D01*
G75*
G02*
X-9300000Y13475000I0J-225000D01*
G01*
X-9300000Y13025000D01*
G75*
G02*
X-9525000Y12800000I-225000J0D01*
G01*
X-10075000Y12800000D01*
G75*
G02*
X-10300000Y13025000I0J225000D01*
G01*
G37*
G36*
G01*
X-5525000Y-12000000D02*
X-5075000Y-12000000D01*
G75*
G02*
X-4850000Y-12225000I0J-225000D01*
G01*
X-4850000Y-12775000D01*
G75*
G02*
X-5075000Y-13000000I-225000J0D01*
G01*
X-5525000Y-13000000D01*
G75*
G02*
X-5750000Y-12775000I0J225000D01*
G01*
X-5750000Y-12225000D01*
G75*
G02*
X-5525000Y-12000000I225000J0D01*
G01*
G37*
G36*
G01*
X-5525000Y-13700000D02*
X-5075000Y-13700000D01*
G75*
G02*
X-4850000Y-13925000I0J-225000D01*
G01*
X-4850000Y-14475000D01*
G75*
G02*
X-5075000Y-14700000I-225000J0D01*
G01*
X-5525000Y-14700000D01*
G75*
G02*
X-5750000Y-14475000I0J225000D01*
G01*
X-5750000Y-13925000D01*
G75*
G02*
X-5525000Y-13700000I225000J0D01*
G01*
G37*
G36*
G01*
X-12125000Y-12000000D02*
X-11675000Y-12000000D01*
G75*
G02*
X-11450000Y-12225000I0J-225000D01*
G01*
X-11450000Y-12775000D01*
G75*
G02*
X-11675000Y-13000000I-225000J0D01*
G01*
X-12125000Y-13000000D01*
G75*
G02*
X-12350000Y-12775000I0J225000D01*
G01*
X-12350000Y-12225000D01*
G75*
G02*
X-12125000Y-12000000I225000J0D01*
G01*
G37*
G36*
G01*
X-12125000Y-13700000D02*
X-11675000Y-13700000D01*
G75*
G02*
X-11450000Y-13925000I0J-225000D01*
G01*
X-11450000Y-14475000D01*
G75*
G02*
X-11675000Y-14700000I-225000J0D01*
G01*
X-12125000Y-14700000D01*
G75*
G02*
X-12350000Y-14475000I0J225000D01*
G01*
X-12350000Y-13925000D01*
G75*
G02*
X-12125000Y-13700000I225000J0D01*
G01*
G37*
G36*
G01*
X3225000Y-14700000D02*
X2775000Y-14700000D01*
G75*
G02*
X2550000Y-14475000I0J225000D01*
G01*
X2550000Y-13925000D01*
G75*
G02*
X2775000Y-13700000I225000J0D01*
G01*
X3225000Y-13700000D01*
G75*
G02*
X3450000Y-13925000I0J-225000D01*
G01*
X3450000Y-14475000D01*
G75*
G02*
X3225000Y-14700000I-225000J0D01*
G01*
G37*
G36*
G01*
X3225000Y-13000000D02*
X2775000Y-13000000D01*
G75*
G02*
X2550000Y-12775000I0J225000D01*
G01*
X2550000Y-12225000D01*
G75*
G02*
X2775000Y-12000000I225000J0D01*
G01*
X3225000Y-12000000D01*
G75*
G02*
X3450000Y-12225000I0J-225000D01*
G01*
X3450000Y-12775000D01*
G75*
G02*
X3225000Y-13000000I-225000J0D01*
G01*
G37*
D17*
X9800000Y-6500000D03*
X8300000Y-6500000D03*
G36*
G01*
X-12125000Y-6500000D02*
X-11675000Y-6500000D01*
G75*
G02*
X-11450000Y-6725000I0J-225000D01*
G01*
X-11450000Y-7275000D01*
G75*
G02*
X-11675000Y-7500000I-225000J0D01*
G01*
X-12125000Y-7500000D01*
G75*
G02*
X-12350000Y-7275000I0J225000D01*
G01*
X-12350000Y-6725000D01*
G75*
G02*
X-12125000Y-6500000I225000J0D01*
G01*
G37*
G36*
G01*
X-12125000Y-4800000D02*
X-11675000Y-4800000D01*
G75*
G02*
X-11450000Y-5025000I0J-225000D01*
G01*
X-11450000Y-5575000D01*
G75*
G02*
X-11675000Y-5800000I-225000J0D01*
G01*
X-12125000Y-5800000D01*
G75*
G02*
X-12350000Y-5575000I0J225000D01*
G01*
X-12350000Y-5025000D01*
G75*
G02*
X-12125000Y-4800000I225000J0D01*
G01*
G37*
G36*
G01*
X-10625000Y-6500000D02*
X-10175000Y-6500000D01*
G75*
G02*
X-9950000Y-6725000I0J-225000D01*
G01*
X-9950000Y-7275000D01*
G75*
G02*
X-10175000Y-7500000I-225000J0D01*
G01*
X-10625000Y-7500000D01*
G75*
G02*
X-10850000Y-7275000I0J225000D01*
G01*
X-10850000Y-6725000D01*
G75*
G02*
X-10625000Y-6500000I225000J0D01*
G01*
G37*
G36*
G01*
X-10625000Y-4800000D02*
X-10175000Y-4800000D01*
G75*
G02*
X-9950000Y-5025000I0J-225000D01*
G01*
X-9950000Y-5575000D01*
G75*
G02*
X-10175000Y-5800000I-225000J0D01*
G01*
X-10625000Y-5800000D01*
G75*
G02*
X-10850000Y-5575000I0J225000D01*
G01*
X-10850000Y-5025000D01*
G75*
G02*
X-10625000Y-4800000I225000J0D01*
G01*
G37*
G36*
G01*
X-9125000Y-6500000D02*
X-8675000Y-6500000D01*
G75*
G02*
X-8450000Y-6725000I0J-225000D01*
G01*
X-8450000Y-7275000D01*
G75*
G02*
X-8675000Y-7500000I-225000J0D01*
G01*
X-9125000Y-7500000D01*
G75*
G02*
X-9350000Y-7275000I0J225000D01*
G01*
X-9350000Y-6725000D01*
G75*
G02*
X-9125000Y-6500000I225000J0D01*
G01*
G37*
G36*
G01*
X-9125000Y-4800000D02*
X-8675000Y-4800000D01*
G75*
G02*
X-8450000Y-5025000I0J-225000D01*
G01*
X-8450000Y-5575000D01*
G75*
G02*
X-8675000Y-5800000I-225000J0D01*
G01*
X-9125000Y-5800000D01*
G75*
G02*
X-9350000Y-5575000I0J225000D01*
G01*
X-9350000Y-5025000D01*
G75*
G02*
X-9125000Y-4800000I225000J0D01*
G01*
G37*
G36*
G01*
X-7625000Y-6500000D02*
X-7175000Y-6500000D01*
G75*
G02*
X-6950000Y-6725000I0J-225000D01*
G01*
X-6950000Y-7275000D01*
G75*
G02*
X-7175000Y-7500000I-225000J0D01*
G01*
X-7625000Y-7500000D01*
G75*
G02*
X-7850000Y-7275000I0J225000D01*
G01*
X-7850000Y-6725000D01*
G75*
G02*
X-7625000Y-6500000I225000J0D01*
G01*
G37*
G36*
G01*
X-7625000Y-4800000D02*
X-7175000Y-4800000D01*
G75*
G02*
X-6950000Y-5025000I0J-225000D01*
G01*
X-6950000Y-5575000D01*
G75*
G02*
X-7175000Y-5800000I-225000J0D01*
G01*
X-7625000Y-5800000D01*
G75*
G02*
X-7850000Y-5575000I0J225000D01*
G01*
X-7850000Y-5025000D01*
G75*
G02*
X-7625000Y-4800000I225000J0D01*
G01*
G37*
G36*
G01*
X-6125000Y-6500000D02*
X-5675000Y-6500000D01*
G75*
G02*
X-5450000Y-6725000I0J-225000D01*
G01*
X-5450000Y-7275000D01*
G75*
G02*
X-5675000Y-7500000I-225000J0D01*
G01*
X-6125000Y-7500000D01*
G75*
G02*
X-6350000Y-7275000I0J225000D01*
G01*
X-6350000Y-6725000D01*
G75*
G02*
X-6125000Y-6500000I225000J0D01*
G01*
G37*
G36*
G01*
X-6125000Y-4800000D02*
X-5675000Y-4800000D01*
G75*
G02*
X-5450000Y-5025000I0J-225000D01*
G01*
X-5450000Y-5575000D01*
G75*
G02*
X-5675000Y-5800000I-225000J0D01*
G01*
X-6125000Y-5800000D01*
G75*
G02*
X-6350000Y-5575000I0J225000D01*
G01*
X-6350000Y-5025000D01*
G75*
G02*
X-6125000Y-4800000I225000J0D01*
G01*
G37*
D18*
X8400000Y8700000D03*
X8400000Y300000D03*
D19*
X-8500000Y-1300000D03*
X-11100000Y-1300000D03*
D20*
X-350000Y5000000D03*
X-350000Y2000000D03*
X-4050000Y5000000D03*
X-4050000Y2000000D03*
D21*
G36*
X-1300000Y4000000D02*
G01*
X400000Y4000000D01*
X400000Y3000000D01*
X-1300000Y3000000D01*
X-1800000Y2500000D01*
X-2600000Y2500000D01*
X-2600000Y3000000D01*
X-4800000Y3000000D01*
X-4800000Y4000000D01*
X-2600000Y4000000D01*
X-2600000Y4500000D01*
X-1800000Y4500000D01*
X-1300000Y4000000D01*
G37*
D22*
X12000000Y-5000000D03*
X12000000Y-3000000D03*
X12000000Y-1000000D03*
G36*
G01*
X9375000Y-950000D02*
X9825000Y-950000D01*
G75*
G02*
X10050000Y-1175000I0J-225000D01*
G01*
X10050000Y-1725000D01*
G75*
G02*
X9825000Y-1950000I-225000J0D01*
G01*
X9375000Y-1950000D01*
G75*
G02*
X9150000Y-1725000I0J225000D01*
G01*
X9150000Y-1175000D01*
G75*
G02*
X9375000Y-950000I225000J0D01*
G01*
G37*
G36*
G01*
X9375000Y-2650000D02*
X9825000Y-2650000D01*
G75*
G02*
X10050000Y-2875000I0J-225000D01*
G01*
X10050000Y-3425000D01*
G75*
G02*
X9825000Y-3650000I-225000J0D01*
G01*
X9375000Y-3650000D01*
G75*
G02*
X9150000Y-3425000I0J225000D01*
G01*
X9150000Y-2875000D01*
G75*
G02*
X9375000Y-2650000I225000J0D01*
G01*
G37*
G36*
G01*
X8325000Y-3650000D02*
X7875000Y-3650000D01*
G75*
G02*
X7650000Y-3425000I0J225000D01*
G01*
X7650000Y-2875000D01*
G75*
G02*
X7875000Y-2650000I225000J0D01*
G01*
X8325000Y-2650000D01*
G75*
G02*
X8550000Y-2875000I0J-225000D01*
G01*
X8550000Y-3425000D01*
G75*
G02*
X8325000Y-3650000I-225000J0D01*
G01*
G37*
G36*
G01*
X8325000Y-1950000D02*
X7875000Y-1950000D01*
G75*
G02*
X7650000Y-1725000I0J225000D01*
G01*
X7650000Y-1175000D01*
G75*
G02*
X7875000Y-950000I225000J0D01*
G01*
X8325000Y-950000D01*
G75*
G02*
X8550000Y-1175000I0J-225000D01*
G01*
X8550000Y-1725000D01*
G75*
G02*
X8325000Y-1950000I-225000J0D01*
G01*
G37*
G36*
G01*
X6825000Y-3650000D02*
X6375000Y-3650000D01*
G75*
G02*
X6150000Y-3425000I0J225000D01*
G01*
X6150000Y-2875000D01*
G75*
G02*
X6375000Y-2650000I225000J0D01*
G01*
X6825000Y-2650000D01*
G75*
G02*
X7050000Y-2875000I0J-225000D01*
G01*
X7050000Y-3425000D01*
G75*
G02*
X6825000Y-3650000I-225000J0D01*
G01*
G37*
G36*
G01*
X6825000Y-1950000D02*
X6375000Y-1950000D01*
G75*
G02*
X6150000Y-1725000I0J225000D01*
G01*
X6150000Y-1175000D01*
G75*
G02*
X6375000Y-950000I225000J0D01*
G01*
X6825000Y-950000D01*
G75*
G02*
X7050000Y-1175000I0J-225000D01*
G01*
X7050000Y-1725000D01*
G75*
G02*
X6825000Y-1950000I-225000J0D01*
G01*
G37*
G36*
G01*
X3325000Y2350000D02*
X2875000Y2350000D01*
G75*
G02*
X2650000Y2575000I0J225000D01*
G01*
X2650000Y3125000D01*
G75*
G02*
X2875000Y3350000I225000J0D01*
G01*
X3325000Y3350000D01*
G75*
G02*
X3550000Y3125000I0J-225000D01*
G01*
X3550000Y2575000D01*
G75*
G02*
X3325000Y2350000I-225000J0D01*
G01*
G37*
G36*
G01*
X3325000Y4050000D02*
X2875000Y4050000D01*
G75*
G02*
X2650000Y4275000I0J225000D01*
G01*
X2650000Y4825000D01*
G75*
G02*
X2875000Y5050000I225000J0D01*
G01*
X3325000Y5050000D01*
G75*
G02*
X3550000Y4825000I0J-225000D01*
G01*
X3550000Y4275000D01*
G75*
G02*
X3325000Y4050000I-225000J0D01*
G01*
G37*
G36*
G01*
X-10175000Y6400000D02*
X-10625000Y6400000D01*
G75*
G02*
X-10850000Y6625000I0J225000D01*
G01*
X-10850000Y7175000D01*
G75*
G02*
X-10625000Y7400000I225000J0D01*
G01*
X-10175000Y7400000D01*
G75*
G02*
X-9950000Y7175000I0J-225000D01*
G01*
X-9950000Y6625000D01*
G75*
G02*
X-10175000Y6400000I-225000J0D01*
G01*
G37*
G36*
G01*
X-10175000Y8100000D02*
X-10625000Y8100000D01*
G75*
G02*
X-10850000Y8325000I0J225000D01*
G01*
X-10850000Y8875000D01*
G75*
G02*
X-10625000Y9100000I225000J0D01*
G01*
X-10175000Y9100000D01*
G75*
G02*
X-9950000Y8875000I0J-225000D01*
G01*
X-9950000Y8325000D01*
G75*
G02*
X-10175000Y8100000I-225000J0D01*
G01*
G37*
G36*
G01*
X-10175000Y1550000D02*
X-10625000Y1550000D01*
G75*
G02*
X-10850000Y1775000I0J225000D01*
G01*
X-10850000Y2325000D01*
G75*
G02*
X-10625000Y2550000I225000J0D01*
G01*
X-10175000Y2550000D01*
G75*
G02*
X-9950000Y2325000I0J-225000D01*
G01*
X-9950000Y1775000D01*
G75*
G02*
X-10175000Y1550000I-225000J0D01*
G01*
G37*
G36*
G01*
X-10175000Y3250000D02*
X-10625000Y3250000D01*
G75*
G02*
X-10850000Y3475000I0J225000D01*
G01*
X-10850000Y4025000D01*
G75*
G02*
X-10625000Y4250000I225000J0D01*
G01*
X-10175000Y4250000D01*
G75*
G02*
X-9950000Y4025000I0J-225000D01*
G01*
X-9950000Y3475000D01*
G75*
G02*
X-10175000Y3250000I-225000J0D01*
G01*
G37*
D23*
X6800000Y-7900000D03*
X6800000Y-6000000D03*
X4800000Y-6950000D03*
G36*
G01*
X-8675000Y6400000D02*
X-9125000Y6400000D01*
G75*
G02*
X-9350000Y6625000I0J225000D01*
G01*
X-9350000Y7175000D01*
G75*
G02*
X-9125000Y7400000I225000J0D01*
G01*
X-8675000Y7400000D01*
G75*
G02*
X-8450000Y7175000I0J-225000D01*
G01*
X-8450000Y6625000D01*
G75*
G02*
X-8675000Y6400000I-225000J0D01*
G01*
G37*
G36*
G01*
X-8675000Y8100000D02*
X-9125000Y8100000D01*
G75*
G02*
X-9350000Y8325000I0J225000D01*
G01*
X-9350000Y8875000D01*
G75*
G02*
X-9125000Y9100000I225000J0D01*
G01*
X-8675000Y9100000D01*
G75*
G02*
X-8450000Y8875000I0J-225000D01*
G01*
X-8450000Y8325000D01*
G75*
G02*
X-8675000Y8100000I-225000J0D01*
G01*
G37*
D24*
X4650000Y-3100000D03*
X-4650000Y-3100000D03*
D25*
X-2750000Y150000D03*
X-2250000Y150000D03*
X-1750000Y150000D03*
X-1250000Y150000D03*
X-750000Y150000D03*
X-250000Y150000D03*
X250000Y150000D03*
X750000Y150000D03*
X1250000Y150000D03*
X1750000Y150000D03*
X2250000Y150000D03*
X2750000Y150000D03*
G36*
G01*
X-7625000Y9100000D02*
X-7175000Y9100000D01*
G75*
G02*
X-6950000Y8875000I0J-225000D01*
G01*
X-6950000Y8325000D01*
G75*
G02*
X-7175000Y8100000I-225000J0D01*
G01*
X-7625000Y8100000D01*
G75*
G02*
X-7850000Y8325000I0J225000D01*
G01*
X-7850000Y8875000D01*
G75*
G02*
X-7625000Y9100000I225000J0D01*
G01*
G37*
G36*
G01*
X-7625000Y7400000D02*
X-7175000Y7400000D01*
G75*
G02*
X-6950000Y7175000I0J-225000D01*
G01*
X-6950000Y6625000D01*
G75*
G02*
X-7175000Y6400000I-225000J0D01*
G01*
X-7625000Y6400000D01*
G75*
G02*
X-7850000Y6625000I0J225000D01*
G01*
X-7850000Y7175000D01*
G75*
G02*
X-7625000Y7400000I225000J0D01*
G01*
G37*
G36*
G01*
X-11675000Y6400000D02*
X-12125000Y6400000D01*
G75*
G02*
X-12350000Y6625000I0J225000D01*
G01*
X-12350000Y7175000D01*
G75*
G02*
X-12125000Y7400000I225000J0D01*
G01*
X-11675000Y7400000D01*
G75*
G02*
X-11450000Y7175000I0J-225000D01*
G01*
X-11450000Y6625000D01*
G75*
G02*
X-11675000Y6400000I-225000J0D01*
G01*
G37*
G36*
G01*
X-11675000Y8100000D02*
X-12125000Y8100000D01*
G75*
G02*
X-12350000Y8325000I0J225000D01*
G01*
X-12350000Y8875000D01*
G75*
G02*
X-12125000Y9100000I225000J0D01*
G01*
X-11675000Y9100000D01*
G75*
G02*
X-11450000Y8875000I0J-225000D01*
G01*
X-11450000Y8325000D01*
G75*
G02*
X-11675000Y8100000I-225000J0D01*
G01*
G37*
G36*
G01*
X-11675000Y1550000D02*
X-12125000Y1550000D01*
G75*
G02*
X-12350000Y1775000I0J225000D01*
G01*
X-12350000Y2325000D01*
G75*
G02*
X-12125000Y2550000I225000J0D01*
G01*
X-11675000Y2550000D01*
G75*
G02*
X-11450000Y2325000I0J-225000D01*
G01*
X-11450000Y1775000D01*
G75*
G02*
X-11675000Y1550000I-225000J0D01*
G01*
G37*
G36*
G01*
X-11675000Y3250000D02*
X-12125000Y3250000D01*
G75*
G02*
X-12350000Y3475000I0J225000D01*
G01*
X-12350000Y4025000D01*
G75*
G02*
X-12125000Y4250000I225000J0D01*
G01*
X-11675000Y4250000D01*
G75*
G02*
X-11450000Y4025000I0J-225000D01*
G01*
X-11450000Y3475000D01*
G75*
G02*
X-11675000Y3250000I-225000J0D01*
G01*
G37*
G36*
G01*
X-3575000Y-14700000D02*
X-4025000Y-14700000D01*
G75*
G02*
X-4250000Y-14475000I0J225000D01*
G01*
X-4250000Y-13925000D01*
G75*
G02*
X-4025000Y-13700000I225000J0D01*
G01*
X-3575000Y-13700000D01*
G75*
G02*
X-3350000Y-13925000I0J-225000D01*
G01*
X-3350000Y-14475000D01*
G75*
G02*
X-3575000Y-14700000I-225000J0D01*
G01*
G37*
G36*
G01*
X-3575000Y-13000000D02*
X-4025000Y-13000000D01*
G75*
G02*
X-4250000Y-12775000I0J225000D01*
G01*
X-4250000Y-12225000D01*
G75*
G02*
X-4025000Y-12000000I225000J0D01*
G01*
X-3575000Y-12000000D01*
G75*
G02*
X-3350000Y-12225000I0J-225000D01*
G01*
X-3350000Y-12775000D01*
G75*
G02*
X-3575000Y-13000000I-225000J0D01*
G01*
G37*
G36*
G01*
X1825000Y2350000D02*
X1375000Y2350000D01*
G75*
G02*
X1150000Y2575000I0J225000D01*
G01*
X1150000Y3125000D01*
G75*
G02*
X1375000Y3350000I225000J0D01*
G01*
X1825000Y3350000D01*
G75*
G02*
X2050000Y3125000I0J-225000D01*
G01*
X2050000Y2575000D01*
G75*
G02*
X1825000Y2350000I-225000J0D01*
G01*
G37*
G36*
G01*
X1825000Y4050000D02*
X1375000Y4050000D01*
G75*
G02*
X1150000Y4275000I0J225000D01*
G01*
X1150000Y4825000D01*
G75*
G02*
X1375000Y5050000I225000J0D01*
G01*
X1825000Y5050000D01*
G75*
G02*
X2050000Y4825000I0J-225000D01*
G01*
X2050000Y4275000D01*
G75*
G02*
X1825000Y4050000I-225000J0D01*
G01*
G37*
G36*
G01*
X-6125000Y4250000D02*
X-5675000Y4250000D01*
G75*
G02*
X-5450000Y4025000I0J-225000D01*
G01*
X-5450000Y3475000D01*
G75*
G02*
X-5675000Y3250000I-225000J0D01*
G01*
X-6125000Y3250000D01*
G75*
G02*
X-6350000Y3475000I0J225000D01*
G01*
X-6350000Y4025000D01*
G75*
G02*
X-6125000Y4250000I225000J0D01*
G01*
G37*
G36*
G01*
X-6125000Y2550000D02*
X-5675000Y2550000D01*
G75*
G02*
X-5450000Y2325000I0J-225000D01*
G01*
X-5450000Y1775000D01*
G75*
G02*
X-5675000Y1550000I-225000J0D01*
G01*
X-6125000Y1550000D01*
G75*
G02*
X-6350000Y1775000I0J225000D01*
G01*
X-6350000Y2325000D01*
G75*
G02*
X-6125000Y2550000I225000J0D01*
G01*
G37*
G36*
G01*
X-7900000Y-2750000D02*
X-7900000Y-3050000D01*
G75*
G02*
X-8050000Y-3200000I-150000J0D01*
G01*
X-8350000Y-3200000D01*
G75*
G02*
X-8500000Y-3050000I0J150000D01*
G01*
X-8500000Y-2750000D01*
G75*
G02*
X-8350000Y-2600000I150000J0D01*
G01*
X-8050000Y-2600000D01*
G75*
G02*
X-7900000Y-2750000I0J-150000D01*
G01*
G37*
G36*
G01*
X-8900000Y-2750000D02*
X-8900000Y-3050000D01*
G75*
G02*
X-9050000Y-3200000I-150000J0D01*
G01*
X-9350000Y-3200000D01*
G75*
G02*
X-9500000Y-3050000I0J150000D01*
G01*
X-9500000Y-2750000D01*
G75*
G02*
X-9350000Y-2600000I150000J0D01*
G01*
X-9050000Y-2600000D01*
G75*
G02*
X-8900000Y-2750000I0J-150000D01*
G01*
G37*
G36*
G01*
X-11700000Y-3050000D02*
X-11700000Y-2750000D01*
G75*
G02*
X-11550000Y-2600000I150000J0D01*
G01*
X-11250000Y-2600000D01*
G75*
G02*
X-11100000Y-2750000I0J-150000D01*
G01*
X-11100000Y-3050000D01*
G75*
G02*
X-11250000Y-3200000I-150000J0D01*
G01*
X-11550000Y-3200000D01*
G75*
G02*
X-11700000Y-3050000I0J150000D01*
G01*
G37*
G36*
G01*
X-10700000Y-3050000D02*
X-10700000Y-2750000D01*
G75*
G02*
X-10550000Y-2600000I150000J0D01*
G01*
X-10250000Y-2600000D01*
G75*
G02*
X-10100000Y-2750000I0J-150000D01*
G01*
X-10100000Y-3050000D01*
G75*
G02*
X-10250000Y-3200000I-150000J0D01*
G01*
X-10550000Y-3200000D01*
G75*
G02*
X-10700000Y-3050000I0J150000D01*
G01*
G37*
M02*
