G04 #@! TF.GenerationSoftware,KiCad,Pcbnew,(5.1.9-0-10_14)*
G04 #@! TF.CreationDate,2021-04-11T20:05:45+09:00*
G04 #@! TF.ProjectId,RL78Display,524c3738-4469-4737-906c-61792e6b6963,V1.0*
G04 #@! TF.SameCoordinates,Original*
G04 #@! TF.FileFunction,Legend,Top*
G04 #@! TF.FilePolarity,Positive*
%FSLAX46Y46*%
G04 Gerber Fmt 4.6, Leading zero omitted, Abs format (unit mm)*
G04 Created by KiCad (PCBNEW (5.1.9-0-10_14)) date 2021-04-11 20:05:45*
%MOMM*%
%LPD*%
G01*
G04 APERTURE LIST*
%ADD10C,0.120000*%
%ADD11C,0.150000*%
G04 APERTURE END LIST*
D10*
X12600000Y300000D02*
X10400000Y300000D01*
X12600000Y8700000D02*
X12600000Y300000D01*
X10400000Y8700000D02*
X12600000Y8700000D01*
X4200000Y8700000D02*
X6500000Y8700000D01*
X4200000Y300000D02*
X4200000Y8700000D01*
X6500000Y300000D02*
X4200000Y300000D01*
X5700000Y11200000D02*
X5700000Y14400000D01*
X12700000Y11200000D02*
X5700000Y11200000D01*
X12700000Y14300000D02*
X12700000Y11200000D01*
X-12700000Y11200000D02*
X-12700000Y14400000D01*
X-5700000Y11200000D02*
X-12700000Y11200000D01*
X-5700000Y14300000D02*
X-5700000Y11200000D01*
X-7900000Y-100000D02*
X-7900000Y-4300000D01*
X-7900000Y-4300000D02*
X-10100000Y-4300000D01*
X-10100000Y-4300000D02*
X-10100000Y-100000D01*
X-10100000Y-100000D02*
X-7900000Y-100000D01*
X-2100000Y5600000D02*
X-2100000Y5800000D01*
X-2100000Y5800000D02*
X500000Y5800000D01*
X500000Y5800000D02*
X500000Y5600000D01*
X-2100000Y1400000D02*
X-2100000Y1200000D01*
X-2100000Y1200000D02*
X500000Y1200000D01*
X500000Y1200000D02*
X500000Y1400000D01*
X8850000Y-650000D02*
X8850000Y-3950000D01*
X10350000Y-650000D02*
X10350000Y-3950000D01*
X10350000Y-3950000D02*
X8850000Y-3950000D01*
X10350000Y-650000D02*
X8850000Y-650000D01*
X8850000Y-3950000D02*
X8850000Y-650000D01*
X7350000Y-3950000D02*
X7350000Y-650000D01*
X7350000Y-650000D02*
X8850000Y-650000D01*
X7350000Y-3950000D02*
X8850000Y-3950000D01*
X7350000Y-3950000D02*
X7350000Y-650000D01*
X5850000Y-3950000D02*
X5850000Y-650000D01*
X5850000Y-650000D02*
X7350000Y-650000D01*
X5850000Y-3950000D02*
X7350000Y-3950000D01*
X6550000Y-7350000D02*
X3250000Y-7350000D01*
X6550000Y-8850000D02*
X3250000Y-8850000D01*
X3250000Y-8850000D02*
X3250000Y-7350000D01*
X6550000Y-8850000D02*
X6550000Y-7350000D01*
X-9650000Y7350000D02*
X-9650000Y10650000D01*
X-11150000Y7350000D02*
X-11150000Y10650000D01*
X-11150000Y10650000D02*
X-9650000Y10650000D01*
X-11150000Y7350000D02*
X-9650000Y7350000D01*
X-8150000Y2050000D02*
X-8150000Y5350000D01*
X-9650000Y2050000D02*
X-9650000Y5350000D01*
X-9650000Y5350000D02*
X-8150000Y5350000D01*
X-9650000Y2050000D02*
X-8150000Y2050000D01*
X9860000Y-9080000D02*
X8400000Y-9080000D01*
X9860000Y-5920000D02*
X8400000Y-5920000D01*
X9860000Y-5920000D02*
X9860000Y-6850000D01*
X9860000Y-9080000D02*
X9860000Y-8150000D01*
X-8150000Y7350000D02*
X-8150000Y10650000D01*
X-9650000Y7350000D02*
X-9650000Y10650000D01*
X-9650000Y10650000D02*
X-8150000Y10650000D01*
X-9650000Y7350000D02*
X-8150000Y7350000D01*
X4650000Y-6200000D02*
X4650000Y-4460000D01*
X-4650000Y-6200000D02*
X4650000Y-6200000D01*
X-4650000Y-4460000D02*
X-4650000Y-6200000D01*
X4650000Y-400000D02*
X4650000Y-1740000D01*
X3160000Y-400000D02*
X4650000Y-400000D01*
X-4650000Y-400000D02*
X-4650000Y-1740000D01*
X-3160000Y-400000D02*
X-4650000Y-400000D01*
X-10220000Y-9370000D02*
X-10220000Y-12030000D01*
X7620000Y-9370000D02*
X-10220000Y-9370000D01*
X7620000Y-12030000D02*
X-10220000Y-12030000D01*
X7620000Y-9370000D02*
X7620000Y-12030000D01*
X8890000Y-9370000D02*
X10220000Y-9370000D01*
X10220000Y-9370000D02*
X10220000Y-10700000D01*
X-8150000Y10650000D02*
X-8150000Y7350000D01*
X-6650000Y10650000D02*
X-6650000Y7350000D01*
X-6650000Y7350000D02*
X-8150000Y7350000D01*
X-6650000Y10650000D02*
X-8150000Y10650000D01*
X-11150000Y7350000D02*
X-11150000Y10650000D01*
X-12650000Y7350000D02*
X-12650000Y10650000D01*
X-12650000Y10650000D02*
X-11150000Y10650000D01*
X-12650000Y7350000D02*
X-11150000Y7350000D01*
X-9650000Y2050000D02*
X-9650000Y5350000D01*
X-11150000Y2050000D02*
X-11150000Y5350000D01*
X-11150000Y5350000D02*
X-9650000Y5350000D01*
X-11150000Y2050000D02*
X-9650000Y2050000D01*
X-11150000Y2050000D02*
X-11150000Y5350000D01*
X-12650000Y2050000D02*
X-12650000Y5350000D01*
X-12650000Y5350000D02*
X-11150000Y5350000D01*
X-12650000Y2050000D02*
X-11150000Y2050000D01*
X-9250000Y-8850000D02*
X-5950000Y-8850000D01*
X-9250000Y-7350000D02*
X-5950000Y-7350000D01*
X-5950000Y-7350000D02*
X-5950000Y-8850000D01*
X-9250000Y-7350000D02*
X-9250000Y-8850000D01*
X3750000Y2050000D02*
X3750000Y5350000D01*
X2250000Y2050000D02*
X2250000Y5350000D01*
X2250000Y5350000D02*
X3750000Y5350000D01*
X2250000Y2050000D02*
X3750000Y2050000D01*
X-5350000Y5350000D02*
X-5350000Y2050000D01*
X-3850000Y5350000D02*
X-3850000Y2050000D01*
X-3850000Y2050000D02*
X-5350000Y2050000D01*
X-3850000Y5350000D02*
X-5350000Y5350000D01*
X-10100000Y-2300000D02*
X-11100000Y-2300000D01*
X-10100000Y-4300000D02*
X-11100000Y-4300000D01*
X-10100000Y-4300000D02*
X-10100000Y-2300000D01*
X-11100000Y-4300000D02*
X-11100000Y-2300000D01*
X-11100000Y-2100000D02*
X-10100000Y-2100000D01*
X-11100000Y-100000D02*
X-10100000Y-100000D01*
X-11100000Y-100000D02*
X-11100000Y-2100000D01*
X-10100000Y-100000D02*
X-10100000Y-2100000D01*
D11*
X7757142Y9747619D02*
X7280952Y9747619D01*
X7280952Y10747619D01*
X8042857Y9795238D02*
X8185714Y9747619D01*
X8423809Y9747619D01*
X8519047Y9795238D01*
X8566666Y9842857D01*
X8614285Y9938095D01*
X8614285Y10033333D01*
X8566666Y10128571D01*
X8519047Y10176190D01*
X8423809Y10223809D01*
X8233333Y10271428D01*
X8138095Y10319047D01*
X8090476Y10366666D01*
X8042857Y10461904D01*
X8042857Y10557142D01*
X8090476Y10652380D01*
X8138095Y10700000D01*
X8233333Y10747619D01*
X8471428Y10747619D01*
X8614285Y10700000D01*
X9566666Y9747619D02*
X8995238Y9747619D01*
X9280952Y9747619D02*
X9280952Y10747619D01*
X9185714Y10604761D01*
X9090476Y10509523D01*
X8995238Y10461904D01*
X7866666Y12195238D02*
X8009523Y12147619D01*
X8247619Y12147619D01*
X8342857Y12195238D01*
X8390476Y12242857D01*
X8438095Y12338095D01*
X8438095Y12433333D01*
X8390476Y12528571D01*
X8342857Y12576190D01*
X8247619Y12623809D01*
X8057142Y12671428D01*
X7961904Y12719047D01*
X7914285Y12766666D01*
X7866666Y12861904D01*
X7866666Y12957142D01*
X7914285Y13052380D01*
X7961904Y13100000D01*
X8057142Y13147619D01*
X8295238Y13147619D01*
X8438095Y13100000D01*
X8771428Y13147619D02*
X9009523Y12147619D01*
X9200000Y12861904D01*
X9390476Y12147619D01*
X9628571Y13147619D01*
X9961904Y13052380D02*
X10009523Y13100000D01*
X10104761Y13147619D01*
X10342857Y13147619D01*
X10438095Y13100000D01*
X10485714Y13052380D01*
X10533333Y12957142D01*
X10533333Y12861904D01*
X10485714Y12719047D01*
X9914285Y12147619D01*
X10533333Y12147619D01*
X-10433333Y12195238D02*
X-10290476Y12147619D01*
X-10052380Y12147619D01*
X-9957142Y12195238D01*
X-9909523Y12242857D01*
X-9861904Y12338095D01*
X-9861904Y12433333D01*
X-9909523Y12528571D01*
X-9957142Y12576190D01*
X-10052380Y12623809D01*
X-10242857Y12671428D01*
X-10338095Y12719047D01*
X-10385714Y12766666D01*
X-10433333Y12861904D01*
X-10433333Y12957142D01*
X-10385714Y13052380D01*
X-10338095Y13100000D01*
X-10242857Y13147619D01*
X-10004761Y13147619D01*
X-9861904Y13100000D01*
X-9528571Y13147619D02*
X-9290476Y12147619D01*
X-9100000Y12861904D01*
X-8909523Y12147619D01*
X-8671428Y13147619D01*
X-7766666Y12147619D02*
X-8338095Y12147619D01*
X-8052380Y12147619D02*
X-8052380Y13147619D01*
X-8147619Y13004761D01*
X-8242857Y12909523D01*
X-8338095Y12861904D01*
X-7023809Y-2676190D02*
X-6547619Y-2676190D01*
X-7547619Y-3009523D02*
X-7023809Y-2676190D01*
X-7547619Y-2342857D01*
X-6547619Y-1485714D02*
X-6547619Y-2057142D01*
X-6547619Y-1771428D02*
X-7547619Y-1771428D01*
X-7404761Y-1866666D01*
X-7309523Y-1961904D01*
X-7261904Y-2057142D01*
X-3447619Y5738095D02*
X-2638095Y5738095D01*
X-2542857Y5785714D01*
X-2495238Y5833333D01*
X-2447619Y5928571D01*
X-2447619Y6119047D01*
X-2495238Y6214285D01*
X-2542857Y6261904D01*
X-2638095Y6309523D01*
X-3447619Y6309523D01*
X-2447619Y7309523D02*
X-2447619Y6738095D01*
X-2447619Y7023809D02*
X-3447619Y7023809D01*
X-3304761Y6928571D01*
X-3209523Y6833333D01*
X-3161904Y6738095D01*
X10052380Y-5166666D02*
X9576190Y-5500000D01*
X10052380Y-5738095D02*
X9052380Y-5738095D01*
X9052380Y-5357142D01*
X9100000Y-5261904D01*
X9147619Y-5214285D01*
X9242857Y-5166666D01*
X9385714Y-5166666D01*
X9480952Y-5214285D01*
X9528571Y-5261904D01*
X9576190Y-5357142D01*
X9576190Y-5738095D01*
X9052380Y-4309523D02*
X9052380Y-4500000D01*
X9100000Y-4595238D01*
X9147619Y-4642857D01*
X9290476Y-4738095D01*
X9480952Y-4785714D01*
X9861904Y-4785714D01*
X9957142Y-4738095D01*
X10004761Y-4690476D01*
X10052380Y-4595238D01*
X10052380Y-4404761D01*
X10004761Y-4309523D01*
X9957142Y-4261904D01*
X9861904Y-4214285D01*
X9623809Y-4214285D01*
X9528571Y-4261904D01*
X9480952Y-4309523D01*
X9433333Y-4404761D01*
X9433333Y-4595238D01*
X9480952Y-4690476D01*
X9528571Y-4738095D01*
X9623809Y-4785714D01*
X8552380Y-5166666D02*
X8076190Y-5500000D01*
X8552380Y-5738095D02*
X7552380Y-5738095D01*
X7552380Y-5357142D01*
X7600000Y-5261904D01*
X7647619Y-5214285D01*
X7742857Y-5166666D01*
X7885714Y-5166666D01*
X7980952Y-5214285D01*
X8028571Y-5261904D01*
X8076190Y-5357142D01*
X8076190Y-5738095D01*
X7552380Y-4261904D02*
X7552380Y-4738095D01*
X8028571Y-4785714D01*
X7980952Y-4738095D01*
X7933333Y-4642857D01*
X7933333Y-4404761D01*
X7980952Y-4309523D01*
X8028571Y-4261904D01*
X8123809Y-4214285D01*
X8361904Y-4214285D01*
X8457142Y-4261904D01*
X8504761Y-4309523D01*
X8552380Y-4404761D01*
X8552380Y-4642857D01*
X8504761Y-4738095D01*
X8457142Y-4785714D01*
X7052380Y-5166666D02*
X6576190Y-5500000D01*
X7052380Y-5738095D02*
X6052380Y-5738095D01*
X6052380Y-5357142D01*
X6100000Y-5261904D01*
X6147619Y-5214285D01*
X6242857Y-5166666D01*
X6385714Y-5166666D01*
X6480952Y-5214285D01*
X6528571Y-5261904D01*
X6576190Y-5357142D01*
X6576190Y-5738095D01*
X6385714Y-4309523D02*
X7052380Y-4309523D01*
X6004761Y-4547619D02*
X6719047Y-4785714D01*
X6719047Y-4166666D01*
X2133333Y-8552380D02*
X1800000Y-8076190D01*
X1561904Y-8552380D02*
X1561904Y-7552380D01*
X1942857Y-7552380D01*
X2038095Y-7600000D01*
X2085714Y-7647619D01*
X2133333Y-7742857D01*
X2133333Y-7885714D01*
X2085714Y-7980952D01*
X2038095Y-8028571D01*
X1942857Y-8076190D01*
X1561904Y-8076190D01*
X2466666Y-7552380D02*
X3085714Y-7552380D01*
X2752380Y-7933333D01*
X2895238Y-7933333D01*
X2990476Y-7980952D01*
X3038095Y-8028571D01*
X3085714Y-8123809D01*
X3085714Y-8361904D01*
X3038095Y-8457142D01*
X2990476Y-8504761D01*
X2895238Y-8552380D01*
X2609523Y-8552380D01*
X2514285Y-8504761D01*
X2466666Y-8457142D01*
X-9947619Y6233333D02*
X-10423809Y5900000D01*
X-9947619Y5661904D02*
X-10947619Y5661904D01*
X-10947619Y6042857D01*
X-10900000Y6138095D01*
X-10852380Y6185714D01*
X-10757142Y6233333D01*
X-10614285Y6233333D01*
X-10519047Y6185714D01*
X-10471428Y6138095D01*
X-10423809Y6042857D01*
X-10423809Y5661904D01*
X-10852380Y6614285D02*
X-10900000Y6661904D01*
X-10947619Y6757142D01*
X-10947619Y6995238D01*
X-10900000Y7090476D01*
X-10852380Y7138095D01*
X-10757142Y7185714D01*
X-10661904Y7185714D01*
X-10519047Y7138095D01*
X-9947619Y6566666D01*
X-9947619Y7185714D01*
X-8447619Y833333D02*
X-8923809Y500000D01*
X-8447619Y261904D02*
X-9447619Y261904D01*
X-9447619Y642857D01*
X-9400000Y738095D01*
X-9352380Y785714D01*
X-9257142Y833333D01*
X-9114285Y833333D01*
X-9019047Y785714D01*
X-8971428Y738095D01*
X-8923809Y642857D01*
X-8923809Y261904D01*
X-8447619Y1785714D02*
X-8447619Y1214285D01*
X-8447619Y1500000D02*
X-9447619Y1500000D01*
X-9304761Y1404761D01*
X-9209523Y1309523D01*
X-9161904Y1214285D01*
X11947619Y-7595238D02*
X11900000Y-7690476D01*
X11804761Y-7785714D01*
X11661904Y-7928571D01*
X11614285Y-8023809D01*
X11614285Y-8119047D01*
X11852380Y-8071428D02*
X11804761Y-8166666D01*
X11709523Y-8261904D01*
X11519047Y-8309523D01*
X11185714Y-8309523D01*
X10995238Y-8261904D01*
X10900000Y-8166666D01*
X10852380Y-8071428D01*
X10852380Y-7880952D01*
X10900000Y-7785714D01*
X10995238Y-7690476D01*
X11185714Y-7642857D01*
X11519047Y-7642857D01*
X11709523Y-7690476D01*
X11804761Y-7785714D01*
X11852380Y-7880952D01*
X11852380Y-8071428D01*
X11852380Y-6690476D02*
X11852380Y-7261904D01*
X11852380Y-6976190D02*
X10852380Y-6976190D01*
X10995238Y-7071428D01*
X11090476Y-7166666D01*
X11138095Y-7261904D01*
X-8547619Y6333333D02*
X-8547619Y5857142D01*
X-9547619Y5857142D01*
X-8547619Y7190476D02*
X-8547619Y6619047D01*
X-8547619Y6904761D02*
X-9547619Y6904761D01*
X-9404761Y6809523D01*
X-9309523Y6714285D01*
X-9261904Y6619047D01*
X-333333Y-6452380D02*
X-333333Y-7166666D01*
X-380952Y-7309523D01*
X-476190Y-7404761D01*
X-619047Y-7452380D01*
X-714285Y-7452380D01*
X47619Y-6452380D02*
X666666Y-6452380D01*
X333333Y-6833333D01*
X476190Y-6833333D01*
X571428Y-6880952D01*
X619047Y-6928571D01*
X666666Y-7023809D01*
X666666Y-7261904D01*
X619047Y-7357142D01*
X571428Y-7404761D01*
X476190Y-7452380D01*
X190476Y-7452380D01*
X95238Y-7404761D01*
X47619Y-7357142D01*
X-333333Y-8152380D02*
X-333333Y-8866666D01*
X-380952Y-9009523D01*
X-476190Y-9104761D01*
X-619047Y-9152380D01*
X-714285Y-9152380D01*
X95238Y-8247619D02*
X142857Y-8200000D01*
X238095Y-8152380D01*
X476190Y-8152380D01*
X571428Y-8200000D01*
X619047Y-8247619D01*
X666666Y-8342857D01*
X666666Y-8438095D01*
X619047Y-8580952D01*
X47619Y-9152380D01*
X666666Y-9152380D01*
X-5033333Y8547619D02*
X-5033333Y7833333D01*
X-5080952Y7690476D01*
X-5176190Y7595238D01*
X-5319047Y7547619D01*
X-5414285Y7547619D01*
X-4033333Y7547619D02*
X-4604761Y7547619D01*
X-4319047Y7547619D02*
X-4319047Y8547619D01*
X-4414285Y8404761D01*
X-4509523Y8309523D01*
X-4604761Y8261904D01*
X-7471428Y6166666D02*
X-7471428Y5833333D01*
X-6947619Y5833333D02*
X-7947619Y5833333D01*
X-7947619Y6309523D01*
X-6947619Y7214285D02*
X-6947619Y6642857D01*
X-6947619Y6928571D02*
X-7947619Y6928571D01*
X-7804761Y6833333D01*
X-7709523Y6738095D01*
X-7661904Y6642857D01*
X-11447619Y5661904D02*
X-12447619Y5661904D01*
X-12447619Y5900000D01*
X-12400000Y6042857D01*
X-12304761Y6138095D01*
X-12209523Y6185714D01*
X-12019047Y6233333D01*
X-11876190Y6233333D01*
X-11685714Y6185714D01*
X-11590476Y6138095D01*
X-11495238Y6042857D01*
X-11447619Y5900000D01*
X-11447619Y5661904D01*
X-11447619Y7185714D02*
X-11447619Y6614285D01*
X-11447619Y6900000D02*
X-12447619Y6900000D01*
X-12304761Y6804761D01*
X-12209523Y6709523D01*
X-12161904Y6614285D01*
X-10042857Y833333D02*
X-9995238Y785714D01*
X-9947619Y642857D01*
X-9947619Y547619D01*
X-9995238Y404761D01*
X-10090476Y309523D01*
X-10185714Y261904D01*
X-10376190Y214285D01*
X-10519047Y214285D01*
X-10709523Y261904D01*
X-10804761Y309523D01*
X-10900000Y404761D01*
X-10947619Y547619D01*
X-10947619Y642857D01*
X-10900000Y785714D01*
X-10852380Y833333D01*
X-10947619Y1166666D02*
X-10947619Y1833333D01*
X-9947619Y1404761D01*
X-11542857Y833333D02*
X-11495238Y785714D01*
X-11447619Y642857D01*
X-11447619Y547619D01*
X-11495238Y404761D01*
X-11590476Y309523D01*
X-11685714Y261904D01*
X-11876190Y214285D01*
X-12019047Y214285D01*
X-12209523Y261904D01*
X-12304761Y309523D01*
X-12400000Y404761D01*
X-12447619Y547619D01*
X-12447619Y642857D01*
X-12400000Y785714D01*
X-12352380Y833333D01*
X-12447619Y1690476D02*
X-12447619Y1500000D01*
X-12400000Y1404761D01*
X-12352380Y1357142D01*
X-12209523Y1261904D01*
X-12019047Y1214285D01*
X-11638095Y1214285D01*
X-11542857Y1261904D01*
X-11495238Y1309523D01*
X-11447619Y1404761D01*
X-11447619Y1595238D01*
X-11495238Y1690476D01*
X-11542857Y1738095D01*
X-11638095Y1785714D01*
X-11876190Y1785714D01*
X-11971428Y1738095D01*
X-12019047Y1690476D01*
X-12066666Y1595238D01*
X-12066666Y1404761D01*
X-12019047Y1309523D01*
X-11971428Y1261904D01*
X-11876190Y1214285D01*
X-7766666Y-6679142D02*
X-7814285Y-6726761D01*
X-7957142Y-6774380D01*
X-8052380Y-6774380D01*
X-8195238Y-6726761D01*
X-8290476Y-6631523D01*
X-8338095Y-6536285D01*
X-8385714Y-6345809D01*
X-8385714Y-6202952D01*
X-8338095Y-6012476D01*
X-8290476Y-5917238D01*
X-8195238Y-5822000D01*
X-8052380Y-5774380D01*
X-7957142Y-5774380D01*
X-7814285Y-5822000D01*
X-7766666Y-5869619D01*
X-6861904Y-5774380D02*
X-7338095Y-5774380D01*
X-7385714Y-6250571D01*
X-7338095Y-6202952D01*
X-7242857Y-6155333D01*
X-7004761Y-6155333D01*
X-6909523Y-6202952D01*
X-6861904Y-6250571D01*
X-6814285Y-6345809D01*
X-6814285Y-6583904D01*
X-6861904Y-6679142D01*
X-6909523Y-6726761D01*
X-7004761Y-6774380D01*
X-7242857Y-6774380D01*
X-7338095Y-6726761D01*
X-7385714Y-6679142D01*
X3357142Y6233333D02*
X3404761Y6185714D01*
X3452380Y6042857D01*
X3452380Y5947619D01*
X3404761Y5804761D01*
X3309523Y5709523D01*
X3214285Y5661904D01*
X3023809Y5614285D01*
X2880952Y5614285D01*
X2690476Y5661904D01*
X2595238Y5709523D01*
X2500000Y5804761D01*
X2452380Y5947619D01*
X2452380Y6042857D01*
X2500000Y6185714D01*
X2547619Y6233333D01*
X2785714Y7090476D02*
X3452380Y7090476D01*
X2404761Y6852380D02*
X3119047Y6614285D01*
X3119047Y7233333D01*
X-4242857Y6233333D02*
X-4195238Y6185714D01*
X-4147619Y6042857D01*
X-4147619Y5947619D01*
X-4195238Y5804761D01*
X-4290476Y5709523D01*
X-4385714Y5661904D01*
X-4576190Y5614285D01*
X-4719047Y5614285D01*
X-4909523Y5661904D01*
X-5004761Y5709523D01*
X-5100000Y5804761D01*
X-5147619Y5947619D01*
X-5147619Y6042857D01*
X-5100000Y6185714D01*
X-5052380Y6233333D01*
X-5147619Y6566666D02*
X-5147619Y7185714D01*
X-4766666Y6852380D01*
X-4766666Y6995238D01*
X-4719047Y7090476D01*
X-4671428Y7138095D01*
X-4576190Y7185714D01*
X-4338095Y7185714D01*
X-4242857Y7138095D01*
X-4195238Y7090476D01*
X-4147619Y6995238D01*
X-4147619Y6709523D01*
X-4195238Y6614285D01*
X-4242857Y6566666D01*
X-11542857Y-3466666D02*
X-11495238Y-3514285D01*
X-11447619Y-3657142D01*
X-11447619Y-3752380D01*
X-11495238Y-3895238D01*
X-11590476Y-3990476D01*
X-11685714Y-4038095D01*
X-11876190Y-4085714D01*
X-12019047Y-4085714D01*
X-12209523Y-4038095D01*
X-12304761Y-3990476D01*
X-12400000Y-3895238D01*
X-12447619Y-3752380D01*
X-12447619Y-3657142D01*
X-12400000Y-3514285D01*
X-12352380Y-3466666D01*
X-12352380Y-3085714D02*
X-12400000Y-3038095D01*
X-12447619Y-2942857D01*
X-12447619Y-2704761D01*
X-12400000Y-2609523D01*
X-12352380Y-2561904D01*
X-12257142Y-2514285D01*
X-12161904Y-2514285D01*
X-12019047Y-2561904D01*
X-11447619Y-3133333D01*
X-11447619Y-2514285D01*
X-11542857Y-1266666D02*
X-11495238Y-1314285D01*
X-11447619Y-1457142D01*
X-11447619Y-1552380D01*
X-11495238Y-1695238D01*
X-11590476Y-1790476D01*
X-11685714Y-1838095D01*
X-11876190Y-1885714D01*
X-12019047Y-1885714D01*
X-12209523Y-1838095D01*
X-12304761Y-1790476D01*
X-12400000Y-1695238D01*
X-12447619Y-1552380D01*
X-12447619Y-1457142D01*
X-12400000Y-1314285D01*
X-12352380Y-1266666D01*
X-11447619Y-314285D02*
X-11447619Y-885714D01*
X-11447619Y-600000D02*
X-12447619Y-600000D01*
X-12304761Y-695238D01*
X-12209523Y-790476D01*
X-12161904Y-885714D01*
M02*
