M48
; DRILL file {KiCad (5.1.9-0-10_14)} date Sunday, June 20, 2021 at 10:16:54 PM
; FORMAT={-:-/ absolute / metric / decimal}
; #@! TF.CreationDate,2021-06-20T22:16:54+09:00
; #@! TF.GenerationSoftware,Kicad,Pcbnew,(5.1.9-0-10_14)
FMAT,2
METRIC
T1C0.305
T2C0.800
T3C1.000
%
G90
G05
T1
X-8.339Y5.565
X-8.294Y1.891
X-8.279Y0.051
X-8.11Y-1.074
X-7.662Y-11.908
X-7.526Y5.592
X-7.15Y11.55
X-6.816Y6.148
X-4.977Y8.386
X-4.287Y-13.088
X-4.204Y-12.04
X-4.197Y-14.074
X-2.741Y8.439
X-2.679Y-11.384
X-2.675Y5.21
X-2.211Y-1.596
X-2.178Y-8.448
X-2.174Y1.429
X-1.775Y11.34
X-1.614Y5.535
X-1.402Y-2.344
X-0.606Y11.111
X-0.397Y-1.593
X0.292Y-1.118
X0.44Y11.119
X2.862Y-3.333
X4.434Y-11.448
X4.781Y8.01
X5.006Y-10.821
X5.3Y0.15
X5.491Y5.034
X7.15Y13.45
X9.71Y-4.285
X11.204Y1.217
T2
X12.0Y-1.0
X12.0Y-3.0
X12.0Y-5.0
T3
X-8.89Y-10.05
X-6.35Y-10.05
X-3.81Y-10.05
X-1.27Y-10.05
X1.27Y-10.05
X3.81Y-10.05
X6.35Y-10.05
X8.89Y-10.05
T0
M30
