M48
; DRILL file {KiCad (5.1.9-0-10_14)} date Saturday, May 08, 2021 at 08:27:30 AM
; FORMAT={-:-/ absolute / metric / decimal}
; #@! TF.CreationDate,2021-05-08T08:27:30+09:00
; #@! TF.GenerationSoftware,Kicad,Pcbnew,(5.1.9-0-10_14)
FMAT,2
METRIC
T1C0.305
T2C0.800
T3C1.000
%
G90
G05
T1
X-11.9Y-1.7
X-9.683Y1.007
X-9.63Y2.018
X-8.709Y5.779
X-8.374Y0.815
X-6.643Y8.956
X-5.921Y6.67
X-5.564Y-0.352
X-3.151Y-1.175
X-2.336Y-2.694
X-1.837Y-1.255
X-0.617Y-1.579
X-0.4Y11.3
X0.006Y-1.029
X0.4Y-4.5
X5.0Y-5.1
X5.217Y4.181
X5.281Y0.237
X9.132Y-4.7
T2
X-11.7Y12.2
X-6.7Y12.2
X6.7Y12.2
X11.5Y-1.0
X11.5Y-3.0
X11.5Y-5.0
X11.7Y12.2
T3
X-8.89Y-10.7
X-6.35Y-10.7
X-3.81Y-10.7
X-1.27Y-10.7
X1.27Y-10.7
X3.81Y-10.7
X6.35Y-10.7
X8.89Y-10.7
T0
M30
