G04 #@! TF.GenerationSoftware,KiCad,Pcbnew,(5.1.9-0-10_14)*
G04 #@! TF.CreationDate,2021-05-08T08:27:26+09:00*
G04 #@! TF.ProjectId,RL78Display,524c3738-4469-4737-906c-61792e6b6963,V1.1*
G04 #@! TF.SameCoordinates,Original*
G04 #@! TF.FileFunction,Copper,L2,Bot*
G04 #@! TF.FilePolarity,Positive*
%FSLAX46Y46*%
G04 Gerber Fmt 4.6, Leading zero omitted, Abs format (unit mm)*
G04 Created by KiCad (PCBNEW (5.1.9-0-10_14)) date 2021-05-08 08:27:26*
%MOMM*%
%LPD*%
G01*
G04 APERTURE LIST*
G04 #@! TA.AperFunction,ComponentPad*
%ADD10C,1.500000*%
G04 #@! TD*
G04 #@! TA.AperFunction,SMDPad,CuDef*
%ADD11R,1.400000X0.300000*%
G04 #@! TD*
G04 #@! TA.AperFunction,SMDPad,CuDef*
%ADD12R,0.300000X1.400000*%
G04 #@! TD*
G04 #@! TA.AperFunction,ComponentPad*
%ADD13C,1.400000*%
G04 #@! TD*
G04 #@! TA.AperFunction,ComponentPad*
%ADD14O,1.700000X1.700000*%
G04 #@! TD*
G04 #@! TA.AperFunction,ComponentPad*
%ADD15R,1.700000X1.700000*%
G04 #@! TD*
G04 #@! TA.AperFunction,SMDPad,CuDef*
%ADD16R,1.800000X1.900000*%
G04 #@! TD*
G04 #@! TA.AperFunction,SMDPad,CuDef*
%ADD17R,2.100000X1.600000*%
G04 #@! TD*
G04 #@! TA.AperFunction,SMDPad,CuDef*
%ADD18R,0.300000X1.750000*%
G04 #@! TD*
G04 #@! TA.AperFunction,ViaPad*
%ADD19C,0.609600*%
G04 #@! TD*
G04 #@! TA.AperFunction,Conductor*
%ADD20C,0.203200*%
G04 #@! TD*
G04 #@! TA.AperFunction,Conductor*
%ADD21C,0.254000*%
G04 #@! TD*
G04 #@! TA.AperFunction,Conductor*
%ADD22C,0.100000*%
G04 #@! TD*
G04 APERTURE END LIST*
D10*
X11700000Y12200000D03*
X6700000Y12200000D03*
X-6700000Y12200000D03*
X-11700000Y12200000D03*
D11*
X-6800000Y-4875000D03*
X-6800000Y-4225000D03*
X-6800000Y-3575000D03*
X-6800000Y-2925000D03*
X-6800000Y-2275000D03*
X-6800000Y-1625000D03*
X-6800000Y-975000D03*
X-6800000Y-325000D03*
X-6800000Y325000D03*
X-6800000Y975000D03*
X-6800000Y1625000D03*
X-6800000Y2275000D03*
X-6800000Y2925000D03*
X-6850000Y3575000D03*
X-6800000Y4225000D03*
X-6800000Y4875000D03*
D12*
X-4875000Y6800000D03*
X-4225000Y6800000D03*
X-3575000Y6800000D03*
X-2925000Y6800000D03*
X-2275000Y6800000D03*
X-1625000Y6800000D03*
X-975000Y6800000D03*
X-325000Y6800000D03*
X325000Y6800000D03*
X975000Y6800000D03*
X1625000Y6800000D03*
X2275000Y6800000D03*
X2925000Y6800000D03*
X3575000Y6800000D03*
X4225000Y6800000D03*
X4875000Y6800000D03*
D11*
X6800000Y4875000D03*
X6800000Y4225000D03*
X6800000Y3575000D03*
X6800000Y2925000D03*
X6800000Y2275000D03*
X6800000Y1625000D03*
X6800000Y975000D03*
X6800000Y325000D03*
X6800000Y-325000D03*
X6800000Y-975000D03*
X6800000Y-1625000D03*
X6800000Y-2275000D03*
X6800000Y-2925000D03*
X6800000Y-3575000D03*
X6800000Y-4225000D03*
X6800000Y-4875000D03*
D12*
X4875000Y-6800000D03*
X4225000Y-6800000D03*
X3575000Y-6800000D03*
X2925000Y-6800000D03*
X2275000Y-6800000D03*
X1625000Y-6800000D03*
X975000Y-6800000D03*
X325000Y-6800000D03*
X-325000Y-6800000D03*
X-975000Y-6800000D03*
X-1625000Y-6800000D03*
X-2275000Y-6800000D03*
X-2925000Y-6800000D03*
X-3575000Y-6800000D03*
X-4225000Y-6800000D03*
X-4875000Y-6800000D03*
D13*
X11500000Y-5000000D03*
X11500000Y-3000000D03*
X11500000Y-1000000D03*
D14*
X-8890000Y-10700000D03*
X-6350000Y-10700000D03*
X-3810000Y-10700000D03*
X-1270000Y-10700000D03*
X1270000Y-10700000D03*
X3810000Y-10700000D03*
X6350000Y-10700000D03*
D15*
X8890000Y-10700000D03*
D16*
X4000000Y12750000D03*
X-4000000Y12750000D03*
D17*
X3100000Y10200000D03*
X-3100000Y10200000D03*
D18*
X1300000Y9900000D03*
X-1300000Y9875000D03*
D19*
X-8374100Y815200D03*
X-5564500Y-351700D03*
X-8708900Y5778800D03*
X-9683200Y1006600D03*
X-6643100Y8956100D03*
X-400000Y11300000D03*
X5216700Y4180800D03*
X-5920800Y6669800D03*
X-3150700Y-1174900D03*
X-1837100Y-1254600D03*
X-2335700Y-2693600D03*
X-617200Y-1579300D03*
X6400Y-1028900D03*
X5281400Y237500D03*
X9131700Y-4699800D03*
X-11900000Y-1700000D03*
X5000000Y-5100000D03*
X400000Y-4500000D03*
X-9629500Y2018000D03*
D20*
X-8374100Y815200D02*
X-8374100Y244000D01*
X-8374100Y244000D02*
X-7805100Y-325000D01*
X-6800000Y-325000D02*
X-7805100Y-325000D01*
X-5794900Y-975000D02*
X-5794900Y-582100D01*
X-5794900Y-582100D02*
X-5564500Y-351700D01*
X-6800000Y-975000D02*
X-5794900Y-975000D01*
X-7805100Y4875000D02*
X-8708900Y5778800D01*
X-7728400Y4875000D02*
X-7805100Y4875000D01*
X-7805100Y4875000D02*
X-7805100Y4225000D01*
X-6350000Y-9544900D02*
X-9683200Y-6211700D01*
X-9683200Y-6211700D02*
X-9683200Y1006600D01*
X-6350000Y-10700000D02*
X-6350000Y-9544900D01*
X-6800000Y4875000D02*
X-7728400Y4875000D01*
X-7805100Y4225000D02*
X-8294300Y4225000D01*
X-8294300Y4225000D02*
X-10271700Y2247600D01*
X-10271700Y2247600D02*
X-10271700Y1595100D01*
X-10271700Y1595100D02*
X-9683200Y1006600D01*
X-6800000Y4225000D02*
X-7805100Y4225000D01*
X-2275000Y7805100D02*
X-5492100Y7805100D01*
X-5492100Y7805100D02*
X-6643100Y8956100D01*
X-2275000Y6800000D02*
X-2275000Y7805100D01*
X-2275000Y6800000D02*
X-2275000Y5794900D01*
X-2275000Y5794900D02*
X-1810300Y5330200D01*
X-1810300Y5330200D02*
X7626400Y5330200D01*
X7626400Y5330200D02*
X9741700Y3214900D01*
X9741700Y3214900D02*
X9741700Y-3241700D01*
X9741700Y-3241700D02*
X11500000Y-5000000D01*
X-1300000Y9875000D02*
X-1300000Y11000000D01*
X-1300000Y11000000D02*
X-1000000Y11300000D01*
X-1000000Y11300000D02*
X-400000Y11300000D01*
X-6800000Y-2275000D02*
X-5794900Y-2275000D01*
X-5794900Y-2275000D02*
X660900Y4180800D01*
X660900Y4180800D02*
X5216700Y4180800D01*
X-6800000Y-1625000D02*
X-5794900Y-1625000D01*
X-5794900Y-1625000D02*
X-4906900Y-737000D01*
X-4906900Y-737000D02*
X-4906900Y4879500D01*
X-4906900Y4879500D02*
X-5920700Y5893300D01*
X-5920700Y5893300D02*
X-5920700Y6669800D01*
X-5920700Y6669800D02*
X-5920800Y6669800D01*
X975000Y-5794900D02*
X568300Y-5388200D01*
X568300Y-5388200D02*
X-5368300Y-5388200D01*
X-5368300Y-5388200D02*
X-5781700Y-5801600D01*
X-5781700Y-5801600D02*
X-5781700Y-8164800D01*
X-5781700Y-8164800D02*
X-4233100Y-9713400D01*
X-4233100Y-9713400D02*
X-3810000Y-9713400D01*
X-3810000Y-10700000D02*
X-3810000Y-9713400D01*
X975000Y-6800000D02*
X975000Y-5794900D01*
X325000Y-5794900D02*
X-5199800Y-5794900D01*
X-5199800Y-5794900D02*
X-5358500Y-5953600D01*
X-5358500Y-5953600D02*
X-5358500Y-7956900D01*
X-5358500Y-7956900D02*
X-4879500Y-8435900D01*
X-4879500Y-8435900D02*
X-4400400Y-8435900D01*
X-4400400Y-8435900D02*
X-2425100Y-10411200D01*
X-2425100Y-10411200D02*
X-2425100Y-10700000D01*
X325000Y-6800000D02*
X325000Y-5794900D01*
X-1270000Y-10700000D02*
X-2425100Y-10700000D01*
X-1625000Y-7805100D02*
X8819800Y-7805100D01*
X8819800Y-7805100D02*
X10493700Y-9479000D01*
X10493700Y-9479000D02*
X10493700Y-11925600D01*
X10493700Y-11925600D02*
X9703000Y-12716300D01*
X9703000Y-12716300D02*
X4152600Y-12716300D01*
X4152600Y-12716300D02*
X2425100Y-10988800D01*
X2425100Y-10988800D02*
X2425100Y-10700000D01*
X1270000Y-10700000D02*
X2425100Y-10700000D01*
X-1625000Y-6800000D02*
X-1625000Y-7805100D01*
X-2275000Y-7805100D02*
X-1868300Y-8211800D01*
X-1868300Y-8211800D02*
X8601600Y-8211800D01*
X8601600Y-8211800D02*
X10053800Y-9664000D01*
X10053800Y-9664000D02*
X10053800Y-11719200D01*
X10053800Y-11719200D02*
X9488800Y-12284200D01*
X9488800Y-12284200D02*
X5394200Y-12284200D01*
X5394200Y-12284200D02*
X3810000Y-10700000D01*
X-2275000Y-6800000D02*
X-2275000Y-7805100D01*
X-2925000Y-7805100D02*
X-2111600Y-8618500D01*
X-2111600Y-8618500D02*
X4268500Y-8618500D01*
X4268500Y-8618500D02*
X6350000Y-10700000D01*
X-2925000Y-6800000D02*
X-2925000Y-7805100D01*
X-3575000Y-7805100D02*
X-2354900Y-9025200D01*
X-2354900Y-9025200D02*
X3773700Y-9025200D01*
X3773700Y-9025200D02*
X5080000Y-10331500D01*
X5080000Y-10331500D02*
X5080000Y-11116400D01*
X5080000Y-11116400D02*
X5836300Y-11872700D01*
X5836300Y-11872700D02*
X6851000Y-11872700D01*
X6851000Y-11872700D02*
X7734900Y-10988800D01*
X7734900Y-10988800D02*
X7734900Y-10700000D01*
X-3575000Y-6800000D02*
X-3575000Y-7805100D01*
X8890000Y-10700000D02*
X7734900Y-10700000D01*
X5794900Y-325000D02*
X5700900Y-419000D01*
X5700900Y-419000D02*
X-2394800Y-419000D01*
X-2394800Y-419000D02*
X-3150700Y-1174900D01*
X6800000Y-325000D02*
X5794900Y-325000D01*
X5794900Y-2275000D02*
X-816700Y-2275000D01*
X-816700Y-2275000D02*
X-1837100Y-1254600D01*
X6800000Y-2275000D02*
X5794900Y-2275000D01*
X6800000Y-3575000D02*
X-1454300Y-3575000D01*
X-1454300Y-3575000D02*
X-2335700Y-2693600D01*
X5794900Y-1625000D02*
X5781000Y-1638900D01*
X5781000Y-1638900D02*
X-557600Y-1638900D01*
X-557600Y-1638900D02*
X-617200Y-1579300D01*
X6800000Y-1625000D02*
X5794900Y-1625000D01*
X5794900Y-975000D02*
X5741000Y-1028900D01*
X5741000Y-1028900D02*
X6400Y-1028900D01*
X6800000Y-975000D02*
X5794900Y-975000D01*
X6800000Y325000D02*
X5794900Y325000D01*
X5281400Y237500D02*
X5707400Y237500D01*
X5707400Y237500D02*
X5794900Y325000D01*
X-4875000Y-6800000D02*
X-4875000Y-7805100D01*
X9131700Y-4699800D02*
X10901100Y-6469200D01*
X10901100Y-6469200D02*
X10901100Y-12093500D01*
X10901100Y-12093500D02*
X9839100Y-13155500D01*
X9839100Y-13155500D02*
X2039200Y-13155500D01*
X2039200Y-13155500D02*
X0Y-11116300D01*
X0Y-11116300D02*
X0Y-10302900D01*
X0Y-10302900D02*
X-795800Y-9507100D01*
X-795800Y-9507100D02*
X-2748000Y-9507100D01*
X-2748000Y-9507100D02*
X-4450000Y-7805100D01*
X-4450000Y-7805100D02*
X-4875000Y-7805100D01*
X4225000Y6800000D02*
X4225000Y7805100D01*
X4225000Y7805100D02*
X3818200Y8211900D01*
X3818200Y8211900D02*
X-3423800Y8211900D01*
X-3423800Y8211900D02*
X-6700000Y11488100D01*
X-6700000Y11488100D02*
X-6700000Y12200000D01*
X3575000Y6800000D02*
X3575000Y5794900D01*
X3575000Y5794900D02*
X5294900Y5794900D01*
X5294900Y5794900D02*
X11700000Y12200000D01*
X-8075000Y12200000D02*
X-8075000Y7287600D01*
X-5794900Y3575000D02*
X-5794900Y5168900D01*
X-5794900Y5168900D02*
X-7913600Y7287600D01*
X-7913600Y7287600D02*
X-8075000Y7287600D01*
X-8890000Y-10700000D02*
X-8890000Y-9544900D01*
X-5794900Y3575000D02*
X-5794900Y2925000D01*
X-5844900Y3575000D02*
X-5794900Y3575000D01*
X1300000Y9900000D02*
X1300000Y10195100D01*
X6700000Y12200000D02*
X6622500Y12122500D01*
X-6800000Y2925000D02*
X-5794900Y2925000D01*
X-6850000Y3575000D02*
X-5844900Y3575000D01*
X-4000000Y12750000D02*
X-5250000Y12750000D01*
X-5250000Y12750000D02*
X-5500000Y13000000D01*
X-5500000Y13000000D02*
X-5500000Y13500000D01*
X-5500000Y13500000D02*
X-6000000Y14000000D01*
X-6000000Y14000000D02*
X-7500000Y14000000D01*
X-8075000Y13425000D02*
X-8075000Y12200000D01*
X-7500000Y14000000D02*
X-8075000Y13425000D01*
X1300000Y12700000D02*
X1350000Y12750000D01*
X1300000Y9900000D02*
X1300000Y12700000D01*
X1350000Y12750000D02*
X-4000000Y12750000D01*
X4000000Y12750000D02*
X1350000Y12750000D01*
X-4000000Y12750000D02*
X-4000000Y11400000D01*
X-3100000Y10200000D02*
X-3100000Y11400000D01*
X-3100000Y11400000D02*
X-4000000Y11400000D01*
X3100000Y10200000D02*
X3100000Y11400000D01*
X4000000Y12750000D02*
X4000000Y11400000D01*
X4000000Y11400000D02*
X3100000Y11400000D01*
X4000000Y12750000D02*
X5250000Y12750000D01*
X5250000Y12750000D02*
X5600000Y13100000D01*
X5800000Y13100000D02*
X6700000Y12200000D01*
X5600000Y13100000D02*
X5800000Y13100000D01*
X-8075000Y7287600D02*
X-10012400Y7287600D01*
X-10012400Y7287600D02*
X-11700000Y5600000D01*
X-11700000Y-6734900D02*
X-10417450Y-8017450D01*
X-11700000Y5600000D02*
X-11700000Y-6734900D01*
X-10417450Y-8017450D02*
X-8890000Y-9544900D01*
X-10703900Y-7731000D02*
X-10417450Y-8017450D01*
X4400000Y-4500000D02*
X400000Y-4500000D01*
X5000000Y-5100000D02*
X4400000Y-4500000D01*
X-7805100Y2275000D02*
X-9372500Y2275000D01*
X-9372500Y2275000D02*
X-9629500Y2018000D01*
X-6800000Y2275000D02*
X-7805100Y2275000D01*
D21*
X-5430537Y14054494D02*
X-5489502Y13944180D01*
X-5525812Y13824482D01*
X-5538072Y13700000D01*
X-5535000Y13035750D01*
X-5376252Y12877002D01*
X-5486633Y12877002D01*
X-5624201Y13082886D01*
X-5817114Y13275799D01*
X-6043957Y13427371D01*
X-6296011Y13531775D01*
X-6563589Y13585000D01*
X-6836411Y13585000D01*
X-7103989Y13531775D01*
X-7356043Y13427371D01*
X-7582886Y13275799D01*
X-7775799Y13082886D01*
X-7927371Y12856043D01*
X-8031775Y12603989D01*
X-8085000Y12336411D01*
X-8085000Y12063589D01*
X-8031775Y11796011D01*
X-7927371Y11543957D01*
X-7775799Y11317114D01*
X-7582886Y11124201D01*
X-7356043Y10972629D01*
X-7134452Y10880843D01*
X-4795309Y8541700D01*
X-5186990Y8541700D01*
X-5705621Y9060330D01*
X-5739416Y9230229D01*
X-5810260Y9401262D01*
X-5913110Y9555187D01*
X-6044013Y9686090D01*
X-6197938Y9788940D01*
X-6368971Y9859784D01*
X-6550538Y9895900D01*
X-6735662Y9895900D01*
X-6917229Y9859784D01*
X-7088262Y9788940D01*
X-7242187Y9686090D01*
X-7373090Y9555187D01*
X-7475940Y9401262D01*
X-7546784Y9230229D01*
X-7582900Y9048662D01*
X-7582900Y8863538D01*
X-7546784Y8681971D01*
X-7475940Y8510938D01*
X-7373090Y8357013D01*
X-7242187Y8226110D01*
X-7088262Y8123260D01*
X-6917229Y8052416D01*
X-6747330Y8018621D01*
X-6270777Y7542067D01*
X-6365962Y7502640D01*
X-6519887Y7399790D01*
X-6650790Y7268887D01*
X-6753640Y7114962D01*
X-6824484Y6943929D01*
X-6860600Y6762362D01*
X-6860600Y6577238D01*
X-6824484Y6395671D01*
X-6753640Y6224638D01*
X-6657300Y6080456D01*
X-6657300Y5929483D01*
X-6660864Y5893300D01*
X-6657300Y5857117D01*
X-6657300Y5857115D01*
X-6646642Y5748902D01*
X-6620606Y5663072D01*
X-7500000Y5663072D01*
X-7546848Y5658458D01*
X-7771421Y5883030D01*
X-7805216Y6052929D01*
X-7876060Y6223962D01*
X-7978910Y6377887D01*
X-8109813Y6508790D01*
X-8263738Y6611640D01*
X-8434771Y6682484D01*
X-8616338Y6718600D01*
X-8801462Y6718600D01*
X-8983029Y6682484D01*
X-9154062Y6611640D01*
X-9307987Y6508790D01*
X-9438890Y6377887D01*
X-9541740Y6223962D01*
X-9612584Y6052929D01*
X-9648700Y5871362D01*
X-9648700Y5686238D01*
X-9612584Y5504671D01*
X-9541740Y5333638D01*
X-9438890Y5179713D01*
X-9307987Y5048810D01*
X-9154062Y4945960D01*
X-8983029Y4875116D01*
X-8813130Y4841321D01*
X-8764129Y4792319D01*
X-8817675Y4748375D01*
X-8840741Y4720269D01*
X-10766968Y2794041D01*
X-10795075Y2770974D01*
X-10887124Y2658812D01*
X-10955522Y2530848D01*
X-10997642Y2391998D01*
X-11006580Y2301247D01*
X-11011864Y2247600D01*
X-11008300Y2211417D01*
X-11008300Y1631283D01*
X-11011864Y1595100D01*
X-11008300Y1558917D01*
X-11008300Y1558914D01*
X-10997642Y1450701D01*
X-10955522Y1311851D01*
X-10909854Y1226413D01*
X-10887803Y1185160D01*
X-10887123Y1183887D01*
X-10795074Y1071725D01*
X-10766968Y1048659D01*
X-10620679Y902370D01*
X-10586884Y732471D01*
X-10516040Y561438D01*
X-10419799Y417404D01*
X-10419800Y-6175517D01*
X-10423364Y-6211700D01*
X-10419800Y-6247883D01*
X-10419800Y-6247885D01*
X-10409142Y-6356098D01*
X-10367022Y-6494948D01*
X-10298624Y-6622912D01*
X-10206575Y-6735074D01*
X-10178468Y-6758141D01*
X-7343358Y-9593251D01*
X-7503475Y-9753368D01*
X-7625195Y-9935534D01*
X-7694822Y-9818645D01*
X-7889731Y-9602412D01*
X-8123080Y-9428359D01*
X-8385901Y-9303175D01*
X-8533110Y-9258524D01*
X-8763000Y-9379845D01*
X-8763000Y-10573000D01*
X-8743000Y-10573000D01*
X-8743000Y-10827000D01*
X-8763000Y-10827000D01*
X-8763000Y-12020155D01*
X-8533110Y-12141476D01*
X-8385901Y-12096825D01*
X-8123080Y-11971641D01*
X-7889731Y-11797588D01*
X-7694822Y-11581355D01*
X-7625195Y-11464466D01*
X-7503475Y-11646632D01*
X-7296632Y-11853475D01*
X-7053411Y-12015990D01*
X-6783158Y-12127932D01*
X-6496260Y-12185000D01*
X-6203740Y-12185000D01*
X-5916842Y-12127932D01*
X-5646589Y-12015990D01*
X-5403368Y-11853475D01*
X-5196525Y-11646632D01*
X-5080000Y-11472240D01*
X-4963475Y-11646632D01*
X-4756632Y-11853475D01*
X-4513411Y-12015990D01*
X-4243158Y-12127932D01*
X-3956260Y-12185000D01*
X-3663740Y-12185000D01*
X-3376842Y-12127932D01*
X-3106589Y-12015990D01*
X-2863368Y-11853475D01*
X-2656525Y-11646632D01*
X-2540000Y-11472240D01*
X-2423475Y-11646632D01*
X-2216632Y-11853475D01*
X-1973411Y-12015990D01*
X-1703158Y-12127932D01*
X-1416260Y-12185000D01*
X-1123740Y-12185000D01*
X-836842Y-12127932D01*
X-566589Y-12015990D01*
X-323368Y-11853475D01*
X-313951Y-11844058D01*
X1492759Y-13650769D01*
X1515825Y-13678875D01*
X1627987Y-13770924D01*
X1755951Y-13839322D01*
X1894801Y-13881442D01*
X2003014Y-13892100D01*
X2003023Y-13892100D01*
X2039199Y-13895663D01*
X2075375Y-13892100D01*
X9802917Y-13892100D01*
X9839100Y-13895664D01*
X9875283Y-13892100D01*
X9875286Y-13892100D01*
X9983499Y-13881442D01*
X10122349Y-13839322D01*
X10250313Y-13770924D01*
X10362475Y-13678875D01*
X10385545Y-13650764D01*
X11396369Y-12639941D01*
X11424475Y-12616875D01*
X11461384Y-12571902D01*
X11516524Y-12504713D01*
X11525391Y-12488124D01*
X11584922Y-12376749D01*
X11627042Y-12237899D01*
X11637700Y-12129686D01*
X11641264Y-12093500D01*
X11637700Y-12057314D01*
X11637700Y-6505375D01*
X11641263Y-6469199D01*
X11637700Y-6433023D01*
X11637700Y-6433014D01*
X11628047Y-6335000D01*
X11631486Y-6335000D01*
X11889405Y-6283696D01*
X12132359Y-6183061D01*
X12240001Y-6111138D01*
X12240001Y-14090000D01*
X-12240000Y-14090000D01*
X-12240000Y-11056891D01*
X-10331481Y-11056891D01*
X-10234157Y-11331252D01*
X-10085178Y-11581355D01*
X-9890269Y-11797588D01*
X-9656920Y-11971641D01*
X-9394099Y-12096825D01*
X-9246890Y-12141476D01*
X-9017000Y-12020155D01*
X-9017000Y-10827000D01*
X-10210814Y-10827000D01*
X-10331481Y-11056891D01*
X-12240000Y-11056891D01*
X-12240000Y-10343109D01*
X-10331481Y-10343109D01*
X-10210814Y-10573000D01*
X-9017000Y-10573000D01*
X-9017000Y-9379845D01*
X-9246890Y-9258524D01*
X-9394099Y-9303175D01*
X-9656920Y-9428359D01*
X-9890269Y-9602412D01*
X-10085178Y-9818645D01*
X-10234157Y-10068748D01*
X-10331481Y-10343109D01*
X-12240000Y-10343109D01*
X-12240000Y10923490D01*
X-12164884Y10888240D01*
X-11900040Y10822750D01*
X-11627508Y10810188D01*
X-11357762Y10851035D01*
X-11101168Y10943723D01*
X-10988137Y11004140D01*
X-10922612Y11243007D01*
X-11700000Y12020395D01*
X-11714143Y12006253D01*
X-11893748Y12185858D01*
X-11879605Y12200000D01*
X-11520395Y12200000D01*
X-10743007Y11422612D01*
X-10504140Y11488137D01*
X-10388240Y11735116D01*
X-10322750Y11999960D01*
X-10310188Y12272492D01*
X-10351035Y12542238D01*
X-10443723Y12798832D01*
X-10504140Y12911863D01*
X-10743007Y12977388D01*
X-11520395Y12200000D01*
X-11879605Y12200000D01*
X-11893748Y12214143D01*
X-11714143Y12393748D01*
X-11700000Y12379605D01*
X-10922612Y13156993D01*
X-10988137Y13395860D01*
X-11235116Y13511760D01*
X-11499960Y13577250D01*
X-11772492Y13589812D01*
X-12042238Y13548965D01*
X-12240000Y13477529D01*
X-12240000Y14090000D01*
X-5401398Y14090000D01*
X-5430537Y14054494D01*
G04 #@! TA.AperFunction,Conductor*
D22*
G36*
X-5430537Y14054494D02*
G01*
X-5489502Y13944180D01*
X-5525812Y13824482D01*
X-5538072Y13700000D01*
X-5535000Y13035750D01*
X-5376252Y12877002D01*
X-5486633Y12877002D01*
X-5624201Y13082886D01*
X-5817114Y13275799D01*
X-6043957Y13427371D01*
X-6296011Y13531775D01*
X-6563589Y13585000D01*
X-6836411Y13585000D01*
X-7103989Y13531775D01*
X-7356043Y13427371D01*
X-7582886Y13275799D01*
X-7775799Y13082886D01*
X-7927371Y12856043D01*
X-8031775Y12603989D01*
X-8085000Y12336411D01*
X-8085000Y12063589D01*
X-8031775Y11796011D01*
X-7927371Y11543957D01*
X-7775799Y11317114D01*
X-7582886Y11124201D01*
X-7356043Y10972629D01*
X-7134452Y10880843D01*
X-4795309Y8541700D01*
X-5186990Y8541700D01*
X-5705621Y9060330D01*
X-5739416Y9230229D01*
X-5810260Y9401262D01*
X-5913110Y9555187D01*
X-6044013Y9686090D01*
X-6197938Y9788940D01*
X-6368971Y9859784D01*
X-6550538Y9895900D01*
X-6735662Y9895900D01*
X-6917229Y9859784D01*
X-7088262Y9788940D01*
X-7242187Y9686090D01*
X-7373090Y9555187D01*
X-7475940Y9401262D01*
X-7546784Y9230229D01*
X-7582900Y9048662D01*
X-7582900Y8863538D01*
X-7546784Y8681971D01*
X-7475940Y8510938D01*
X-7373090Y8357013D01*
X-7242187Y8226110D01*
X-7088262Y8123260D01*
X-6917229Y8052416D01*
X-6747330Y8018621D01*
X-6270777Y7542067D01*
X-6365962Y7502640D01*
X-6519887Y7399790D01*
X-6650790Y7268887D01*
X-6753640Y7114962D01*
X-6824484Y6943929D01*
X-6860600Y6762362D01*
X-6860600Y6577238D01*
X-6824484Y6395671D01*
X-6753640Y6224638D01*
X-6657300Y6080456D01*
X-6657300Y5929483D01*
X-6660864Y5893300D01*
X-6657300Y5857117D01*
X-6657300Y5857115D01*
X-6646642Y5748902D01*
X-6620606Y5663072D01*
X-7500000Y5663072D01*
X-7546848Y5658458D01*
X-7771421Y5883030D01*
X-7805216Y6052929D01*
X-7876060Y6223962D01*
X-7978910Y6377887D01*
X-8109813Y6508790D01*
X-8263738Y6611640D01*
X-8434771Y6682484D01*
X-8616338Y6718600D01*
X-8801462Y6718600D01*
X-8983029Y6682484D01*
X-9154062Y6611640D01*
X-9307987Y6508790D01*
X-9438890Y6377887D01*
X-9541740Y6223962D01*
X-9612584Y6052929D01*
X-9648700Y5871362D01*
X-9648700Y5686238D01*
X-9612584Y5504671D01*
X-9541740Y5333638D01*
X-9438890Y5179713D01*
X-9307987Y5048810D01*
X-9154062Y4945960D01*
X-8983029Y4875116D01*
X-8813130Y4841321D01*
X-8764129Y4792319D01*
X-8817675Y4748375D01*
X-8840741Y4720269D01*
X-10766968Y2794041D01*
X-10795075Y2770974D01*
X-10887124Y2658812D01*
X-10955522Y2530848D01*
X-10997642Y2391998D01*
X-11006580Y2301247D01*
X-11011864Y2247600D01*
X-11008300Y2211417D01*
X-11008300Y1631283D01*
X-11011864Y1595100D01*
X-11008300Y1558917D01*
X-11008300Y1558914D01*
X-10997642Y1450701D01*
X-10955522Y1311851D01*
X-10909854Y1226413D01*
X-10887803Y1185160D01*
X-10887123Y1183887D01*
X-10795074Y1071725D01*
X-10766968Y1048659D01*
X-10620679Y902370D01*
X-10586884Y732471D01*
X-10516040Y561438D01*
X-10419799Y417404D01*
X-10419800Y-6175517D01*
X-10423364Y-6211700D01*
X-10419800Y-6247883D01*
X-10419800Y-6247885D01*
X-10409142Y-6356098D01*
X-10367022Y-6494948D01*
X-10298624Y-6622912D01*
X-10206575Y-6735074D01*
X-10178468Y-6758141D01*
X-7343358Y-9593251D01*
X-7503475Y-9753368D01*
X-7625195Y-9935534D01*
X-7694822Y-9818645D01*
X-7889731Y-9602412D01*
X-8123080Y-9428359D01*
X-8385901Y-9303175D01*
X-8533110Y-9258524D01*
X-8763000Y-9379845D01*
X-8763000Y-10573000D01*
X-8743000Y-10573000D01*
X-8743000Y-10827000D01*
X-8763000Y-10827000D01*
X-8763000Y-12020155D01*
X-8533110Y-12141476D01*
X-8385901Y-12096825D01*
X-8123080Y-11971641D01*
X-7889731Y-11797588D01*
X-7694822Y-11581355D01*
X-7625195Y-11464466D01*
X-7503475Y-11646632D01*
X-7296632Y-11853475D01*
X-7053411Y-12015990D01*
X-6783158Y-12127932D01*
X-6496260Y-12185000D01*
X-6203740Y-12185000D01*
X-5916842Y-12127932D01*
X-5646589Y-12015990D01*
X-5403368Y-11853475D01*
X-5196525Y-11646632D01*
X-5080000Y-11472240D01*
X-4963475Y-11646632D01*
X-4756632Y-11853475D01*
X-4513411Y-12015990D01*
X-4243158Y-12127932D01*
X-3956260Y-12185000D01*
X-3663740Y-12185000D01*
X-3376842Y-12127932D01*
X-3106589Y-12015990D01*
X-2863368Y-11853475D01*
X-2656525Y-11646632D01*
X-2540000Y-11472240D01*
X-2423475Y-11646632D01*
X-2216632Y-11853475D01*
X-1973411Y-12015990D01*
X-1703158Y-12127932D01*
X-1416260Y-12185000D01*
X-1123740Y-12185000D01*
X-836842Y-12127932D01*
X-566589Y-12015990D01*
X-323368Y-11853475D01*
X-313951Y-11844058D01*
X1492759Y-13650769D01*
X1515825Y-13678875D01*
X1627987Y-13770924D01*
X1755951Y-13839322D01*
X1894801Y-13881442D01*
X2003014Y-13892100D01*
X2003023Y-13892100D01*
X2039199Y-13895663D01*
X2075375Y-13892100D01*
X9802917Y-13892100D01*
X9839100Y-13895664D01*
X9875283Y-13892100D01*
X9875286Y-13892100D01*
X9983499Y-13881442D01*
X10122349Y-13839322D01*
X10250313Y-13770924D01*
X10362475Y-13678875D01*
X10385545Y-13650764D01*
X11396369Y-12639941D01*
X11424475Y-12616875D01*
X11461384Y-12571902D01*
X11516524Y-12504713D01*
X11525391Y-12488124D01*
X11584922Y-12376749D01*
X11627042Y-12237899D01*
X11637700Y-12129686D01*
X11641264Y-12093500D01*
X11637700Y-12057314D01*
X11637700Y-6505375D01*
X11641263Y-6469199D01*
X11637700Y-6433023D01*
X11637700Y-6433014D01*
X11628047Y-6335000D01*
X11631486Y-6335000D01*
X11889405Y-6283696D01*
X12132359Y-6183061D01*
X12240001Y-6111138D01*
X12240001Y-14090000D01*
X-12240000Y-14090000D01*
X-12240000Y-11056891D01*
X-10331481Y-11056891D01*
X-10234157Y-11331252D01*
X-10085178Y-11581355D01*
X-9890269Y-11797588D01*
X-9656920Y-11971641D01*
X-9394099Y-12096825D01*
X-9246890Y-12141476D01*
X-9017000Y-12020155D01*
X-9017000Y-10827000D01*
X-10210814Y-10827000D01*
X-10331481Y-11056891D01*
X-12240000Y-11056891D01*
X-12240000Y-10343109D01*
X-10331481Y-10343109D01*
X-10210814Y-10573000D01*
X-9017000Y-10573000D01*
X-9017000Y-9379845D01*
X-9246890Y-9258524D01*
X-9394099Y-9303175D01*
X-9656920Y-9428359D01*
X-9890269Y-9602412D01*
X-10085178Y-9818645D01*
X-10234157Y-10068748D01*
X-10331481Y-10343109D01*
X-12240000Y-10343109D01*
X-12240000Y10923490D01*
X-12164884Y10888240D01*
X-11900040Y10822750D01*
X-11627508Y10810188D01*
X-11357762Y10851035D01*
X-11101168Y10943723D01*
X-10988137Y11004140D01*
X-10922612Y11243007D01*
X-11700000Y12020395D01*
X-11714143Y12006253D01*
X-11893748Y12185858D01*
X-11879605Y12200000D01*
X-11520395Y12200000D01*
X-10743007Y11422612D01*
X-10504140Y11488137D01*
X-10388240Y11735116D01*
X-10322750Y11999960D01*
X-10310188Y12272492D01*
X-10351035Y12542238D01*
X-10443723Y12798832D01*
X-10504140Y12911863D01*
X-10743007Y12977388D01*
X-11520395Y12200000D01*
X-11879605Y12200000D01*
X-11893748Y12214143D01*
X-11714143Y12393748D01*
X-11700000Y12379605D01*
X-10922612Y13156993D01*
X-10988137Y13395860D01*
X-11235116Y13511760D01*
X-11499960Y13577250D01*
X-11772492Y13589812D01*
X-12042238Y13548965D01*
X-12240000Y13477529D01*
X-12240000Y14090000D01*
X-5401398Y14090000D01*
X-5430537Y14054494D01*
G37*
G04 #@! TD.AperFunction*
D21*
X9005100Y2909790D02*
X9005101Y-3205507D01*
X9001536Y-3241700D01*
X9015759Y-3386098D01*
X9057878Y-3524947D01*
X9126276Y-3652912D01*
X9180841Y-3719399D01*
X9214161Y-3760000D01*
X9039138Y-3760000D01*
X8857571Y-3796116D01*
X8686538Y-3866960D01*
X8532613Y-3969810D01*
X8401710Y-4100713D01*
X8298860Y-4254638D01*
X8228016Y-4425671D01*
X8191900Y-4607238D01*
X8191900Y-4792362D01*
X8228016Y-4973929D01*
X8298860Y-5144962D01*
X8401710Y-5298887D01*
X8532613Y-5429790D01*
X8686538Y-5532640D01*
X8857571Y-5603484D01*
X9027470Y-5637279D01*
X10164500Y-6774309D01*
X10164500Y-8108091D01*
X9366245Y-7309836D01*
X9343175Y-7281725D01*
X9231013Y-7189676D01*
X9103049Y-7121278D01*
X8964199Y-7079158D01*
X8855986Y-7068500D01*
X8855983Y-7068500D01*
X8819800Y-7064936D01*
X8783617Y-7068500D01*
X5663072Y-7068500D01*
X5663072Y-6100000D01*
X5650812Y-5975518D01*
X5614502Y-5855820D01*
X5555537Y-5745506D01*
X5476185Y-5648815D01*
X5379494Y-5569463D01*
X5269180Y-5510498D01*
X5149482Y-5474188D01*
X5025000Y-5461928D01*
X4725000Y-5461928D01*
X4600518Y-5474188D01*
X4550000Y-5489512D01*
X4499482Y-5474188D01*
X4375000Y-5461928D01*
X4075000Y-5461928D01*
X3950518Y-5474188D01*
X3900000Y-5489512D01*
X3849482Y-5474188D01*
X3725000Y-5461928D01*
X3425000Y-5461928D01*
X3300518Y-5474188D01*
X3250000Y-5489512D01*
X3199482Y-5474188D01*
X3075000Y-5461928D01*
X2775000Y-5461928D01*
X2650518Y-5474188D01*
X2600000Y-5489512D01*
X2549482Y-5474188D01*
X2425000Y-5461928D01*
X2125000Y-5461928D01*
X2000518Y-5474188D01*
X1950000Y-5489512D01*
X1899482Y-5474188D01*
X1775000Y-5461928D01*
X1632245Y-5461928D01*
X1590424Y-5383687D01*
X1498375Y-5271525D01*
X1470263Y-5248454D01*
X1114746Y-4892937D01*
X1091675Y-4864825D01*
X979513Y-4772776D01*
X851549Y-4704378D01*
X712699Y-4662258D01*
X604486Y-4651600D01*
X604483Y-4651600D01*
X568300Y-4648036D01*
X532117Y-4651600D01*
X-5332114Y-4651600D01*
X-5368300Y-4648036D01*
X-5404486Y-4651600D01*
X-5468536Y-4657908D01*
X-5474188Y-4600518D01*
X-5489512Y-4550000D01*
X-5474188Y-4499482D01*
X-5461928Y-4375000D01*
X-5461928Y-4075000D01*
X-5474188Y-3950518D01*
X-5489512Y-3900000D01*
X-5474188Y-3849482D01*
X-5461928Y-3725000D01*
X-5461928Y-3425000D01*
X-5474188Y-3300518D01*
X-5489512Y-3250000D01*
X-5474188Y-3199482D01*
X-5461928Y-3075000D01*
X-5461928Y-2932245D01*
X-5383687Y-2890424D01*
X-5271525Y-2798375D01*
X-5248454Y-2770263D01*
X-4017139Y-1538948D01*
X-3983540Y-1620062D01*
X-3880690Y-1773987D01*
X-3749787Y-1904890D01*
X-3595862Y-2007740D01*
X-3424829Y-2078584D01*
X-3243262Y-2114700D01*
X-3079179Y-2114700D01*
X-3168540Y-2248438D01*
X-3239384Y-2419471D01*
X-3275500Y-2601038D01*
X-3275500Y-2786162D01*
X-3239384Y-2967729D01*
X-3168540Y-3138762D01*
X-3065690Y-3292687D01*
X-2934787Y-3423590D01*
X-2780862Y-3526440D01*
X-2609829Y-3597284D01*
X-2439930Y-3631079D01*
X-2000741Y-4070269D01*
X-1977675Y-4098375D01*
X-1865513Y-4190424D01*
X-1737549Y-4258822D01*
X-1655551Y-4283696D01*
X-1598699Y-4300942D01*
X-1454300Y-4315164D01*
X-1418114Y-4311600D01*
X5461928Y-4311600D01*
X5461928Y-4375000D01*
X5474188Y-4499482D01*
X5489512Y-4550000D01*
X5474188Y-4600518D01*
X5461928Y-4725000D01*
X5461928Y-5025000D01*
X5474188Y-5149482D01*
X5510498Y-5269180D01*
X5569463Y-5379494D01*
X5648815Y-5476185D01*
X5745506Y-5555537D01*
X5855820Y-5614502D01*
X5975518Y-5650812D01*
X6100000Y-5663072D01*
X7500000Y-5663072D01*
X7624482Y-5650812D01*
X7744180Y-5614502D01*
X7854494Y-5555537D01*
X7951185Y-5476185D01*
X8030537Y-5379494D01*
X8089502Y-5269180D01*
X8125812Y-5149482D01*
X8138072Y-5025000D01*
X8138072Y-4725000D01*
X8125812Y-4600518D01*
X8110488Y-4550000D01*
X8125812Y-4499482D01*
X8138072Y-4375000D01*
X8138072Y-4075000D01*
X8125812Y-3950518D01*
X8110488Y-3900000D01*
X8125812Y-3849482D01*
X8138072Y-3725000D01*
X8138072Y-3425000D01*
X8125812Y-3300518D01*
X8110488Y-3250000D01*
X8125812Y-3199482D01*
X8138072Y-3075000D01*
X8138072Y-2775000D01*
X8125812Y-2650518D01*
X8110488Y-2600000D01*
X8125812Y-2549482D01*
X8138072Y-2425000D01*
X8138072Y-2125000D01*
X8125812Y-2000518D01*
X8110488Y-1950000D01*
X8125812Y-1899482D01*
X8138072Y-1775000D01*
X8138072Y-1475000D01*
X8125812Y-1350518D01*
X8110488Y-1300000D01*
X8125812Y-1249482D01*
X8138072Y-1125000D01*
X8138072Y-825000D01*
X8125812Y-700518D01*
X8110488Y-650000D01*
X8125812Y-599482D01*
X8138072Y-475000D01*
X8138072Y-175000D01*
X8125812Y-50518D01*
X8110488Y0D01*
X8125812Y50518D01*
X8138072Y175000D01*
X8138072Y475000D01*
X8125812Y599482D01*
X8110488Y650000D01*
X8125812Y700518D01*
X8138072Y825000D01*
X8138072Y1125000D01*
X8125812Y1249482D01*
X8110488Y1300000D01*
X8125812Y1350518D01*
X8138072Y1475000D01*
X8138072Y1775000D01*
X8125812Y1899482D01*
X8110488Y1950000D01*
X8125812Y2000518D01*
X8138072Y2125000D01*
X8138072Y2425000D01*
X8125812Y2549482D01*
X8110488Y2600000D01*
X8125812Y2650518D01*
X8138072Y2775000D01*
X8138072Y3075000D01*
X8125812Y3199482D01*
X8110488Y3250000D01*
X8125812Y3300518D01*
X8138072Y3425000D01*
X8138072Y3725000D01*
X8132411Y3782480D01*
X9005100Y2909790D01*
G04 #@! TA.AperFunction,Conductor*
D22*
G36*
X9005100Y2909790D02*
G01*
X9005101Y-3205507D01*
X9001536Y-3241700D01*
X9015759Y-3386098D01*
X9057878Y-3524947D01*
X9126276Y-3652912D01*
X9180841Y-3719399D01*
X9214161Y-3760000D01*
X9039138Y-3760000D01*
X8857571Y-3796116D01*
X8686538Y-3866960D01*
X8532613Y-3969810D01*
X8401710Y-4100713D01*
X8298860Y-4254638D01*
X8228016Y-4425671D01*
X8191900Y-4607238D01*
X8191900Y-4792362D01*
X8228016Y-4973929D01*
X8298860Y-5144962D01*
X8401710Y-5298887D01*
X8532613Y-5429790D01*
X8686538Y-5532640D01*
X8857571Y-5603484D01*
X9027470Y-5637279D01*
X10164500Y-6774309D01*
X10164500Y-8108091D01*
X9366245Y-7309836D01*
X9343175Y-7281725D01*
X9231013Y-7189676D01*
X9103049Y-7121278D01*
X8964199Y-7079158D01*
X8855986Y-7068500D01*
X8855983Y-7068500D01*
X8819800Y-7064936D01*
X8783617Y-7068500D01*
X5663072Y-7068500D01*
X5663072Y-6100000D01*
X5650812Y-5975518D01*
X5614502Y-5855820D01*
X5555537Y-5745506D01*
X5476185Y-5648815D01*
X5379494Y-5569463D01*
X5269180Y-5510498D01*
X5149482Y-5474188D01*
X5025000Y-5461928D01*
X4725000Y-5461928D01*
X4600518Y-5474188D01*
X4550000Y-5489512D01*
X4499482Y-5474188D01*
X4375000Y-5461928D01*
X4075000Y-5461928D01*
X3950518Y-5474188D01*
X3900000Y-5489512D01*
X3849482Y-5474188D01*
X3725000Y-5461928D01*
X3425000Y-5461928D01*
X3300518Y-5474188D01*
X3250000Y-5489512D01*
X3199482Y-5474188D01*
X3075000Y-5461928D01*
X2775000Y-5461928D01*
X2650518Y-5474188D01*
X2600000Y-5489512D01*
X2549482Y-5474188D01*
X2425000Y-5461928D01*
X2125000Y-5461928D01*
X2000518Y-5474188D01*
X1950000Y-5489512D01*
X1899482Y-5474188D01*
X1775000Y-5461928D01*
X1632245Y-5461928D01*
X1590424Y-5383687D01*
X1498375Y-5271525D01*
X1470263Y-5248454D01*
X1114746Y-4892937D01*
X1091675Y-4864825D01*
X979513Y-4772776D01*
X851549Y-4704378D01*
X712699Y-4662258D01*
X604486Y-4651600D01*
X604483Y-4651600D01*
X568300Y-4648036D01*
X532117Y-4651600D01*
X-5332114Y-4651600D01*
X-5368300Y-4648036D01*
X-5404486Y-4651600D01*
X-5468536Y-4657908D01*
X-5474188Y-4600518D01*
X-5489512Y-4550000D01*
X-5474188Y-4499482D01*
X-5461928Y-4375000D01*
X-5461928Y-4075000D01*
X-5474188Y-3950518D01*
X-5489512Y-3900000D01*
X-5474188Y-3849482D01*
X-5461928Y-3725000D01*
X-5461928Y-3425000D01*
X-5474188Y-3300518D01*
X-5489512Y-3250000D01*
X-5474188Y-3199482D01*
X-5461928Y-3075000D01*
X-5461928Y-2932245D01*
X-5383687Y-2890424D01*
X-5271525Y-2798375D01*
X-5248454Y-2770263D01*
X-4017139Y-1538948D01*
X-3983540Y-1620062D01*
X-3880690Y-1773987D01*
X-3749787Y-1904890D01*
X-3595862Y-2007740D01*
X-3424829Y-2078584D01*
X-3243262Y-2114700D01*
X-3079179Y-2114700D01*
X-3168540Y-2248438D01*
X-3239384Y-2419471D01*
X-3275500Y-2601038D01*
X-3275500Y-2786162D01*
X-3239384Y-2967729D01*
X-3168540Y-3138762D01*
X-3065690Y-3292687D01*
X-2934787Y-3423590D01*
X-2780862Y-3526440D01*
X-2609829Y-3597284D01*
X-2439930Y-3631079D01*
X-2000741Y-4070269D01*
X-1977675Y-4098375D01*
X-1865513Y-4190424D01*
X-1737549Y-4258822D01*
X-1655551Y-4283696D01*
X-1598699Y-4300942D01*
X-1454300Y-4315164D01*
X-1418114Y-4311600D01*
X5461928Y-4311600D01*
X5461928Y-4375000D01*
X5474188Y-4499482D01*
X5489512Y-4550000D01*
X5474188Y-4600518D01*
X5461928Y-4725000D01*
X5461928Y-5025000D01*
X5474188Y-5149482D01*
X5510498Y-5269180D01*
X5569463Y-5379494D01*
X5648815Y-5476185D01*
X5745506Y-5555537D01*
X5855820Y-5614502D01*
X5975518Y-5650812D01*
X6100000Y-5663072D01*
X7500000Y-5663072D01*
X7624482Y-5650812D01*
X7744180Y-5614502D01*
X7854494Y-5555537D01*
X7951185Y-5476185D01*
X8030537Y-5379494D01*
X8089502Y-5269180D01*
X8125812Y-5149482D01*
X8138072Y-5025000D01*
X8138072Y-4725000D01*
X8125812Y-4600518D01*
X8110488Y-4550000D01*
X8125812Y-4499482D01*
X8138072Y-4375000D01*
X8138072Y-4075000D01*
X8125812Y-3950518D01*
X8110488Y-3900000D01*
X8125812Y-3849482D01*
X8138072Y-3725000D01*
X8138072Y-3425000D01*
X8125812Y-3300518D01*
X8110488Y-3250000D01*
X8125812Y-3199482D01*
X8138072Y-3075000D01*
X8138072Y-2775000D01*
X8125812Y-2650518D01*
X8110488Y-2600000D01*
X8125812Y-2549482D01*
X8138072Y-2425000D01*
X8138072Y-2125000D01*
X8125812Y-2000518D01*
X8110488Y-1950000D01*
X8125812Y-1899482D01*
X8138072Y-1775000D01*
X8138072Y-1475000D01*
X8125812Y-1350518D01*
X8110488Y-1300000D01*
X8125812Y-1249482D01*
X8138072Y-1125000D01*
X8138072Y-825000D01*
X8125812Y-700518D01*
X8110488Y-650000D01*
X8125812Y-599482D01*
X8138072Y-475000D01*
X8138072Y-175000D01*
X8125812Y-50518D01*
X8110488Y0D01*
X8125812Y50518D01*
X8138072Y175000D01*
X8138072Y475000D01*
X8125812Y599482D01*
X8110488Y650000D01*
X8125812Y700518D01*
X8138072Y825000D01*
X8138072Y1125000D01*
X8125812Y1249482D01*
X8110488Y1300000D01*
X8125812Y1350518D01*
X8138072Y1475000D01*
X8138072Y1775000D01*
X8125812Y1899482D01*
X8110488Y1950000D01*
X8125812Y2000518D01*
X8138072Y2125000D01*
X8138072Y2425000D01*
X8125812Y2549482D01*
X8110488Y2600000D01*
X8125812Y2650518D01*
X8138072Y2775000D01*
X8138072Y3075000D01*
X8125812Y3199482D01*
X8110488Y3250000D01*
X8125812Y3300518D01*
X8138072Y3425000D01*
X8138072Y3725000D01*
X8132411Y3782480D01*
X9005100Y2909790D01*
G37*
G04 #@! TD.AperFunction*
D21*
X12240001Y-72191D02*
X12182203Y155037D01*
X11943758Y265934D01*
X11688260Y328183D01*
X11425527Y339390D01*
X11165656Y299125D01*
X10918634Y208935D01*
X10817797Y155037D01*
X10758336Y-78731D01*
X11500000Y-820395D01*
X11514143Y-806253D01*
X11693748Y-985858D01*
X11679605Y-1000000D01*
X11693748Y-1014143D01*
X11514143Y-1193748D01*
X11500000Y-1179605D01*
X10852648Y-1826957D01*
X10648987Y-1963038D01*
X10478300Y-2133725D01*
X10478300Y-1716118D01*
X10578731Y-1741664D01*
X11320395Y-1000000D01*
X10578731Y-258336D01*
X10478300Y-283882D01*
X10478300Y3178714D01*
X10481864Y3214900D01*
X10467642Y3359299D01*
X10429560Y3484836D01*
X10425522Y3498149D01*
X10357124Y3626113D01*
X10308360Y3685532D01*
X10288142Y3710168D01*
X10288137Y3710173D01*
X10265074Y3738275D01*
X10236973Y3761337D01*
X8172845Y5825464D01*
X8149775Y5853575D01*
X8037613Y5945624D01*
X7909649Y6014022D01*
X7770799Y6056142D01*
X7662586Y6066800D01*
X7662583Y6066800D01*
X7626400Y6070364D01*
X7590217Y6066800D01*
X6608509Y6066800D01*
X11391034Y10849324D01*
X11563589Y10815000D01*
X11836411Y10815000D01*
X12103989Y10868225D01*
X12240000Y10924563D01*
X12240001Y-72191D01*
G04 #@! TA.AperFunction,Conductor*
D22*
G36*
X12240001Y-72191D02*
G01*
X12182203Y155037D01*
X11943758Y265934D01*
X11688260Y328183D01*
X11425527Y339390D01*
X11165656Y299125D01*
X10918634Y208935D01*
X10817797Y155037D01*
X10758336Y-78731D01*
X11500000Y-820395D01*
X11514143Y-806253D01*
X11693748Y-985858D01*
X11679605Y-1000000D01*
X11693748Y-1014143D01*
X11514143Y-1193748D01*
X11500000Y-1179605D01*
X10852648Y-1826957D01*
X10648987Y-1963038D01*
X10478300Y-2133725D01*
X10478300Y-1716118D01*
X10578731Y-1741664D01*
X11320395Y-1000000D01*
X10578731Y-258336D01*
X10478300Y-283882D01*
X10478300Y3178714D01*
X10481864Y3214900D01*
X10467642Y3359299D01*
X10429560Y3484836D01*
X10425522Y3498149D01*
X10357124Y3626113D01*
X10308360Y3685532D01*
X10288142Y3710168D01*
X10288137Y3710173D01*
X10265074Y3738275D01*
X10236973Y3761337D01*
X8172845Y5825464D01*
X8149775Y5853575D01*
X8037613Y5945624D01*
X7909649Y6014022D01*
X7770799Y6056142D01*
X7662586Y6066800D01*
X7662583Y6066800D01*
X7626400Y6070364D01*
X7590217Y6066800D01*
X6608509Y6066800D01*
X11391034Y10849324D01*
X11563589Y10815000D01*
X11836411Y10815000D01*
X12103989Y10868225D01*
X12240000Y10924563D01*
X12240001Y-72191D01*
G37*
G04 #@! TD.AperFunction*
D21*
X12240000Y13475437D02*
X12103989Y13531775D01*
X11836411Y13585000D01*
X11563589Y13585000D01*
X11296011Y13531775D01*
X11043957Y13427371D01*
X10817114Y13275799D01*
X10624201Y13082886D01*
X10472629Y12856043D01*
X10368225Y12603989D01*
X10315000Y12336411D01*
X10315000Y12063589D01*
X10349324Y11891034D01*
X5663072Y7204781D01*
X5663072Y7500000D01*
X5650812Y7624482D01*
X5614502Y7744180D01*
X5555537Y7854494D01*
X5476185Y7951185D01*
X5379494Y8030537D01*
X5269180Y8089502D01*
X5149482Y8125812D01*
X5025000Y8138072D01*
X4882245Y8138072D01*
X4840424Y8216313D01*
X4748375Y8328475D01*
X4720263Y8351546D01*
X4364646Y8707163D01*
X4341575Y8735275D01*
X4288849Y8778546D01*
X4394180Y8810498D01*
X4504494Y8869463D01*
X4601185Y8948815D01*
X4680537Y9045506D01*
X4739502Y9155820D01*
X4775812Y9275518D01*
X4788072Y9400000D01*
X4785000Y9914250D01*
X4626250Y10073000D01*
X3227000Y10073000D01*
X3227000Y10053000D01*
X2973000Y10053000D01*
X2973000Y10073000D01*
X2953000Y10073000D01*
X2953000Y10327000D01*
X2973000Y10327000D01*
X2973000Y10347000D01*
X3227000Y10347000D01*
X3227000Y10327000D01*
X4626250Y10327000D01*
X4785000Y10485750D01*
X4788072Y11000000D01*
X4775812Y11124482D01*
X4764247Y11162607D01*
X4900000Y11161928D01*
X5024482Y11174188D01*
X5144180Y11210498D01*
X5204999Y11243007D01*
X5922612Y11243007D01*
X5988137Y11004140D01*
X6235116Y10888240D01*
X6499960Y10822750D01*
X6772492Y10810188D01*
X7042238Y10851035D01*
X7298832Y10943723D01*
X7411863Y11004140D01*
X7477388Y11243007D01*
X6700000Y12020395D01*
X5922612Y11243007D01*
X5204999Y11243007D01*
X5254494Y11269463D01*
X5351185Y11348815D01*
X5430537Y11445506D01*
X5478732Y11535671D01*
X5504140Y11488137D01*
X5743007Y11422612D01*
X6520395Y12200000D01*
X6879605Y12200000D01*
X7656993Y11422612D01*
X7895860Y11488137D01*
X8011760Y11735116D01*
X8077250Y11999960D01*
X8089812Y12272492D01*
X8048965Y12542238D01*
X7956277Y12798832D01*
X7895860Y12911863D01*
X7656993Y12977388D01*
X6879605Y12200000D01*
X6520395Y12200000D01*
X5743007Y12977388D01*
X5504140Y12911863D01*
X5487781Y12877002D01*
X5376252Y12877002D01*
X5535000Y13035750D01*
X5535560Y13156993D01*
X5922612Y13156993D01*
X6700000Y12379605D01*
X7477388Y13156993D01*
X7411863Y13395860D01*
X7164884Y13511760D01*
X6900040Y13577250D01*
X6627508Y13589812D01*
X6357762Y13548965D01*
X6101168Y13456277D01*
X5988137Y13395860D01*
X5922612Y13156993D01*
X5535560Y13156993D01*
X5538072Y13700000D01*
X5525812Y13824482D01*
X5489502Y13944180D01*
X5430537Y14054494D01*
X5401398Y14090000D01*
X12240000Y14090000D01*
X12240000Y13475437D01*
G04 #@! TA.AperFunction,Conductor*
D22*
G36*
X12240000Y13475437D02*
G01*
X12103989Y13531775D01*
X11836411Y13585000D01*
X11563589Y13585000D01*
X11296011Y13531775D01*
X11043957Y13427371D01*
X10817114Y13275799D01*
X10624201Y13082886D01*
X10472629Y12856043D01*
X10368225Y12603989D01*
X10315000Y12336411D01*
X10315000Y12063589D01*
X10349324Y11891034D01*
X5663072Y7204781D01*
X5663072Y7500000D01*
X5650812Y7624482D01*
X5614502Y7744180D01*
X5555537Y7854494D01*
X5476185Y7951185D01*
X5379494Y8030537D01*
X5269180Y8089502D01*
X5149482Y8125812D01*
X5025000Y8138072D01*
X4882245Y8138072D01*
X4840424Y8216313D01*
X4748375Y8328475D01*
X4720263Y8351546D01*
X4364646Y8707163D01*
X4341575Y8735275D01*
X4288849Y8778546D01*
X4394180Y8810498D01*
X4504494Y8869463D01*
X4601185Y8948815D01*
X4680537Y9045506D01*
X4739502Y9155820D01*
X4775812Y9275518D01*
X4788072Y9400000D01*
X4785000Y9914250D01*
X4626250Y10073000D01*
X3227000Y10073000D01*
X3227000Y10053000D01*
X2973000Y10053000D01*
X2973000Y10073000D01*
X2953000Y10073000D01*
X2953000Y10327000D01*
X2973000Y10327000D01*
X2973000Y10347000D01*
X3227000Y10347000D01*
X3227000Y10327000D01*
X4626250Y10327000D01*
X4785000Y10485750D01*
X4788072Y11000000D01*
X4775812Y11124482D01*
X4764247Y11162607D01*
X4900000Y11161928D01*
X5024482Y11174188D01*
X5144180Y11210498D01*
X5204999Y11243007D01*
X5922612Y11243007D01*
X5988137Y11004140D01*
X6235116Y10888240D01*
X6499960Y10822750D01*
X6772492Y10810188D01*
X7042238Y10851035D01*
X7298832Y10943723D01*
X7411863Y11004140D01*
X7477388Y11243007D01*
X6700000Y12020395D01*
X5922612Y11243007D01*
X5204999Y11243007D01*
X5254494Y11269463D01*
X5351185Y11348815D01*
X5430537Y11445506D01*
X5478732Y11535671D01*
X5504140Y11488137D01*
X5743007Y11422612D01*
X6520395Y12200000D01*
X6879605Y12200000D01*
X7656993Y11422612D01*
X7895860Y11488137D01*
X8011760Y11735116D01*
X8077250Y11999960D01*
X8089812Y12272492D01*
X8048965Y12542238D01*
X7956277Y12798832D01*
X7895860Y12911863D01*
X7656993Y12977388D01*
X6879605Y12200000D01*
X6520395Y12200000D01*
X5743007Y12977388D01*
X5504140Y12911863D01*
X5487781Y12877002D01*
X5376252Y12877002D01*
X5535000Y13035750D01*
X5535560Y13156993D01*
X5922612Y13156993D01*
X6700000Y12379605D01*
X7477388Y13156993D01*
X7411863Y13395860D01*
X7164884Y13511760D01*
X6900040Y13577250D01*
X6627508Y13589812D01*
X6357762Y13548965D01*
X6101168Y13456277D01*
X5988137Y13395860D01*
X5922612Y13156993D01*
X5535560Y13156993D01*
X5538072Y13700000D01*
X5525812Y13824482D01*
X5489502Y13944180D01*
X5430537Y14054494D01*
X5401398Y14090000D01*
X12240000Y14090000D01*
X12240000Y13475437D01*
G37*
G04 #@! TD.AperFunction*
D21*
X2569463Y14054494D02*
X2510498Y13944180D01*
X2474188Y13824482D01*
X2461928Y13700000D01*
X2465000Y13035750D01*
X2623750Y12877000D01*
X3873000Y12877000D01*
X3873000Y12897000D01*
X4127000Y12897000D01*
X4127000Y12877000D01*
X4147000Y12877000D01*
X4147000Y12623000D01*
X4127000Y12623000D01*
X4127000Y12603000D01*
X3873000Y12603000D01*
X3873000Y12623000D01*
X2623750Y12623000D01*
X2465000Y12464250D01*
X2461928Y11800000D01*
X2474188Y11675518D01*
X2486079Y11636319D01*
X2050000Y11638072D01*
X1925518Y11625812D01*
X1805820Y11589502D01*
X1695506Y11530537D01*
X1598815Y11451185D01*
X1558243Y11401748D01*
X1481750Y11410000D01*
X1323000Y11251250D01*
X1323000Y10327000D01*
X1277000Y10327000D01*
X1277000Y11251250D01*
X1118250Y11410000D01*
X1017199Y11399099D01*
X897995Y11361199D01*
X788476Y11300772D01*
X692849Y11220139D01*
X614791Y11122400D01*
X557300Y11011311D01*
X522587Y10891140D01*
X511985Y10766507D01*
X515000Y10185750D01*
X573000Y10127750D01*
X573000Y9672250D01*
X515000Y9614250D01*
X511985Y9033493D01*
X519215Y8948500D01*
X-517000Y8948500D01*
X-511928Y9000000D01*
X-511928Y10364052D01*
X-492562Y10360200D01*
X-307438Y10360200D01*
X-125871Y10396316D01*
X45162Y10467160D01*
X199087Y10570010D01*
X329990Y10700913D01*
X432840Y10854838D01*
X503684Y11025871D01*
X539800Y11207438D01*
X539800Y11392562D01*
X503684Y11574129D01*
X432840Y11745162D01*
X329990Y11899087D01*
X199087Y12029990D01*
X45162Y12132840D01*
X-125871Y12203684D01*
X-307438Y12239800D01*
X-492562Y12239800D01*
X-674129Y12203684D01*
X-845162Y12132840D01*
X-985935Y12038778D01*
X-1000001Y12040163D01*
X-1036177Y12036600D01*
X-1036186Y12036600D01*
X-1144399Y12025942D01*
X-1283249Y11983822D01*
X-1411213Y11915424D01*
X-1523375Y11823375D01*
X-1546446Y11795263D01*
X-1770882Y11570827D01*
X-1805820Y11589502D01*
X-1925518Y11625812D01*
X-2050000Y11638072D01*
X-2486079Y11636319D01*
X-2474188Y11675518D01*
X-2461928Y11800000D01*
X-2465000Y12464250D01*
X-2623750Y12623000D01*
X-3873000Y12623000D01*
X-3873000Y12603000D01*
X-4127000Y12603000D01*
X-4127000Y12623000D01*
X-4147000Y12623000D01*
X-4147000Y12877000D01*
X-4127000Y12877000D01*
X-4127000Y12897000D01*
X-3873000Y12897000D01*
X-3873000Y12877000D01*
X-2623750Y12877000D01*
X-2465000Y13035750D01*
X-2461928Y13700000D01*
X-2474188Y13824482D01*
X-2510498Y13944180D01*
X-2569463Y14054494D01*
X-2598602Y14090000D01*
X2598602Y14090000D01*
X2569463Y14054494D01*
G04 #@! TA.AperFunction,Conductor*
D22*
G36*
X2569463Y14054494D02*
G01*
X2510498Y13944180D01*
X2474188Y13824482D01*
X2461928Y13700000D01*
X2465000Y13035750D01*
X2623750Y12877000D01*
X3873000Y12877000D01*
X3873000Y12897000D01*
X4127000Y12897000D01*
X4127000Y12877000D01*
X4147000Y12877000D01*
X4147000Y12623000D01*
X4127000Y12623000D01*
X4127000Y12603000D01*
X3873000Y12603000D01*
X3873000Y12623000D01*
X2623750Y12623000D01*
X2465000Y12464250D01*
X2461928Y11800000D01*
X2474188Y11675518D01*
X2486079Y11636319D01*
X2050000Y11638072D01*
X1925518Y11625812D01*
X1805820Y11589502D01*
X1695506Y11530537D01*
X1598815Y11451185D01*
X1558243Y11401748D01*
X1481750Y11410000D01*
X1323000Y11251250D01*
X1323000Y10327000D01*
X1277000Y10327000D01*
X1277000Y11251250D01*
X1118250Y11410000D01*
X1017199Y11399099D01*
X897995Y11361199D01*
X788476Y11300772D01*
X692849Y11220139D01*
X614791Y11122400D01*
X557300Y11011311D01*
X522587Y10891140D01*
X511985Y10766507D01*
X515000Y10185750D01*
X573000Y10127750D01*
X573000Y9672250D01*
X515000Y9614250D01*
X511985Y9033493D01*
X519215Y8948500D01*
X-517000Y8948500D01*
X-511928Y9000000D01*
X-511928Y10364052D01*
X-492562Y10360200D01*
X-307438Y10360200D01*
X-125871Y10396316D01*
X45162Y10467160D01*
X199087Y10570010D01*
X329990Y10700913D01*
X432840Y10854838D01*
X503684Y11025871D01*
X539800Y11207438D01*
X539800Y11392562D01*
X503684Y11574129D01*
X432840Y11745162D01*
X329990Y11899087D01*
X199087Y12029990D01*
X45162Y12132840D01*
X-125871Y12203684D01*
X-307438Y12239800D01*
X-492562Y12239800D01*
X-674129Y12203684D01*
X-845162Y12132840D01*
X-985935Y12038778D01*
X-1000001Y12040163D01*
X-1036177Y12036600D01*
X-1036186Y12036600D01*
X-1144399Y12025942D01*
X-1283249Y11983822D01*
X-1411213Y11915424D01*
X-1523375Y11823375D01*
X-1546446Y11795263D01*
X-1770882Y11570827D01*
X-1805820Y11589502D01*
X-1925518Y11625812D01*
X-2050000Y11638072D01*
X-2486079Y11636319D01*
X-2474188Y11675518D01*
X-2461928Y11800000D01*
X-2465000Y12464250D01*
X-2623750Y12623000D01*
X-3873000Y12623000D01*
X-3873000Y12603000D01*
X-4127000Y12603000D01*
X-4127000Y12623000D01*
X-4147000Y12623000D01*
X-4147000Y12877000D01*
X-4127000Y12877000D01*
X-4127000Y12897000D01*
X-3873000Y12897000D01*
X-3873000Y12877000D01*
X-2623750Y12877000D01*
X-2465000Y13035750D01*
X-2461928Y13700000D01*
X-2474188Y13824482D01*
X-2510498Y13944180D01*
X-2569463Y14054494D01*
X-2598602Y14090000D01*
X2598602Y14090000D01*
X2569463Y14054494D01*
G37*
G04 #@! TD.AperFunction*
D21*
X-2973000Y10327000D02*
X-2953000Y10327000D01*
X-2953000Y10073000D01*
X-2973000Y10073000D01*
X-2973000Y10053000D01*
X-3227000Y10053000D01*
X-3227000Y10073000D01*
X-3247000Y10073000D01*
X-3247000Y10327000D01*
X-3227000Y10327000D01*
X-3227000Y10347000D01*
X-2973000Y10347000D01*
X-2973000Y10327000D01*
G04 #@! TA.AperFunction,Conductor*
D22*
G36*
X-2973000Y10327000D02*
G01*
X-2953000Y10327000D01*
X-2953000Y10073000D01*
X-2973000Y10073000D01*
X-2973000Y10053000D01*
X-3227000Y10053000D01*
X-3227000Y10073000D01*
X-3247000Y10073000D01*
X-3247000Y10327000D01*
X-3227000Y10327000D01*
X-3227000Y10347000D01*
X-2973000Y10347000D01*
X-2973000Y10327000D01*
G37*
G04 #@! TD.AperFunction*
M02*
