G04 #@! TF.GenerationSoftware,KiCad,Pcbnew,(5.1.9-0-10_14)*
G04 #@! TF.CreationDate,2021-07-10T20:48:45+09:00*
G04 #@! TF.ProjectId,RL78Display,524c3738-4469-4737-906c-61792e6b6963,V2.1*
G04 #@! TF.SameCoordinates,Original*
G04 #@! TF.FileFunction,Soldermask,Bot*
G04 #@! TF.FilePolarity,Negative*
%FSLAX46Y46*%
G04 Gerber Fmt 4.6, Leading zero omitted, Abs format (unit mm)*
G04 Created by KiCad (PCBNEW (5.1.9-0-10_14)) date 2021-07-10 20:48:45*
%MOMM*%
%LPD*%
G01*
G04 APERTURE LIST*
%ADD10O,1.500000X1.500000*%
%ADD11R,1.500000X1.500000*%
%ADD12R,1.800000X1.900000*%
%ADD13R,2.100000X1.600000*%
%ADD14R,0.300000X1.750000*%
%ADD15R,1.400000X0.300000*%
%ADD16R,0.300000X1.400000*%
%ADD17C,1.400000*%
G04 APERTURE END LIST*
D10*
X-8890000Y-10050000D03*
X-6350000Y-10050000D03*
X-3810000Y-10050000D03*
X-1270000Y-10050000D03*
X1270000Y-10050000D03*
X3810000Y-10050000D03*
X6350000Y-10050000D03*
D11*
X8890000Y-10050000D03*
D12*
X3250000Y12600000D03*
X-3250000Y12600000D03*
D13*
X3100000Y10050000D03*
X-3100000Y10050000D03*
D14*
X1300000Y9725000D03*
X650000Y9725000D03*
X0Y9725000D03*
X-650000Y9725000D03*
X-1300000Y9725000D03*
D15*
X-6800000Y-4875000D03*
X-6800000Y-4225000D03*
X-6800000Y-3575000D03*
X-6800000Y-2925000D03*
X-6800000Y-2275000D03*
X-6800000Y-1625000D03*
X-6800000Y-975000D03*
X-6800000Y-325000D03*
X-6800000Y325000D03*
X-6800000Y975000D03*
X-6800000Y1625000D03*
X-6800000Y2275000D03*
X-6800000Y2925000D03*
X-6850000Y3575000D03*
X-6800000Y4225000D03*
X-6800000Y4875000D03*
D16*
X-4875000Y6800000D03*
X-4225000Y6800000D03*
X-3575000Y6800000D03*
X-2925000Y6800000D03*
X-2275000Y6800000D03*
X-1625000Y6800000D03*
X-975000Y6800000D03*
X-325000Y6800000D03*
X325000Y6800000D03*
X975000Y6800000D03*
X1625000Y6800000D03*
X2275000Y6800000D03*
X2925000Y6800000D03*
X3575000Y6800000D03*
X4225000Y6800000D03*
X4875000Y6800000D03*
D15*
X6800000Y4875000D03*
X6800000Y4225000D03*
X6800000Y3575000D03*
X6800000Y2925000D03*
X6800000Y2275000D03*
X6800000Y1625000D03*
X6800000Y975000D03*
X6800000Y325000D03*
X6800000Y-325000D03*
X6800000Y-975000D03*
X6800000Y-1625000D03*
X6800000Y-2275000D03*
X6800000Y-2925000D03*
X6800000Y-3575000D03*
X6800000Y-4225000D03*
X6800000Y-4875000D03*
D16*
X4875000Y-6800000D03*
X4225000Y-6800000D03*
X3575000Y-6800000D03*
X2925000Y-6800000D03*
X2275000Y-6800000D03*
X1625000Y-6800000D03*
X975000Y-6800000D03*
X325000Y-6800000D03*
X-325000Y-6800000D03*
X-975000Y-6800000D03*
X-1625000Y-6800000D03*
X-2275000Y-6800000D03*
X-2925000Y-6800000D03*
X-3575000Y-6800000D03*
X-4225000Y-6800000D03*
X-4875000Y-6800000D03*
D17*
X12000000Y-5000000D03*
X12000000Y-3000000D03*
X12000000Y-1000000D03*
M02*
