M48
; DRILL file {KiCad (5.1.9-0-10_14)} date Sunday, April 11, 2021 at 08:06:00 PM
; FORMAT={-:-/ absolute / metric / decimal}
; #@! TF.CreationDate,2021-04-11T20:06:00+09:00
; #@! TF.GenerationSoftware,Kicad,Pcbnew,(5.1.9-0-10_14)
FMAT,2
METRIC
T1C0.305
T2C0.800
T3C1.000
%
G90
G05
T1
X-11.176Y3.674
X-11.069Y7.268
X-10.4Y5.6
X-9.389Y1.839
X-9.0Y0.219
X-8.78Y-4.78
X-5.636Y3.575
X-5.329Y5.607
X-1.887Y-1.085
X-1.474Y1.315
X-0.629Y9.13
X-0.422Y10.36
X0.104Y-3.04
X0.181Y-1.013
X0.635Y-1.79
X0.682Y-5.585
X5.217Y0.237
X9.025Y-4.795
T2
X-11.7Y12.2
X-6.7Y12.2
X6.7Y12.2
X11.5Y-1.0
X11.5Y-3.0
X11.5Y-5.0
X11.7Y12.2
T3
X-8.89Y-10.7
X-6.35Y-10.7
X-3.81Y-10.7
X-1.27Y-10.7
X1.27Y-10.7
X3.81Y-10.7
X6.35Y-10.7
X8.89Y-10.7
T0
M30
