G04 #@! TF.GenerationSoftware,KiCad,Pcbnew,(5.1.9-0-10_14)*
G04 #@! TF.CreationDate,2021-07-10T20:48:45+09:00*
G04 #@! TF.ProjectId,RL78Display,524c3738-4469-4737-906c-61792e6b6963,V2.1*
G04 #@! TF.SameCoordinates,Original*
G04 #@! TF.FileFunction,Legend,Top*
G04 #@! TF.FilePolarity,Positive*
%FSLAX46Y46*%
G04 Gerber Fmt 4.6, Leading zero omitted, Abs format (unit mm)*
G04 Created by KiCad (PCBNEW (5.1.9-0-10_14)) date 2021-07-10 20:48:45*
%MOMM*%
%LPD*%
G01*
G04 APERTURE LIST*
%ADD10C,0.120000*%
%ADD11C,0.200000*%
%ADD12C,0.100000*%
G04 APERTURE END LIST*
D10*
X3800000Y7900000D02*
X2100000Y7900000D01*
X3800000Y8600000D02*
X3800000Y7900000D01*
X-3800000Y7900000D02*
X-2100000Y7900000D01*
X-3800000Y8600000D02*
X-3800000Y7900000D01*
X3800000Y12200000D02*
X3800000Y14400000D01*
X-3800000Y12200000D02*
X-3800000Y14400000D01*
D11*
X1150000Y-11200000D02*
G75*
G03*
X1150000Y-11200000I-100000J0D01*
G01*
D10*
X1150000Y-12850000D02*
X1150000Y-13550000D01*
X-2150000Y-12850000D02*
X-2150000Y-13550000D01*
X-8150000Y1250000D02*
X-6650000Y1250000D01*
X-8150000Y4550000D02*
X-6650000Y4550000D01*
X-8150000Y1250000D02*
X-8150000Y4550000D01*
X-6650000Y1250000D02*
X-6650000Y4550000D01*
X-9650000Y1250000D02*
X-8150000Y1250000D01*
X-9650000Y4550000D02*
X-8150000Y4550000D01*
X-9650000Y1250000D02*
X-9650000Y4550000D01*
X-8150000Y1250000D02*
X-8150000Y4550000D01*
X-7650000Y-14900000D02*
X-7650000Y-14800000D01*
X-9550000Y-14900000D02*
X-7650000Y-14900000D01*
X-9550000Y-14800000D02*
X-9550000Y-14900000D01*
X-9550000Y-11900000D02*
X-9550000Y-12000000D01*
X-7650000Y-11900000D02*
X-9550000Y-11900000D01*
X-7650000Y-12000000D02*
X-7650000Y-11900000D01*
X-7650000Y-12900000D02*
X-7650000Y-13900000D01*
D11*
X-10500000Y-12450000D02*
G75*
G03*
X-10500000Y-12450000I-100000J0D01*
G01*
X9100000Y11550000D02*
G75*
G03*
X9100000Y11550000I-100000J0D01*
G01*
D10*
X6050000Y11100000D02*
X6050000Y11000000D01*
X6050000Y11000000D02*
X7950000Y11000000D01*
X7950000Y11000000D02*
X7950000Y11100000D01*
X7950000Y13900000D02*
X7950000Y14000000D01*
X7950000Y14000000D02*
X6050000Y14000000D01*
X6050000Y14000000D02*
X6050000Y13900000D01*
X-6050000Y11000000D02*
X-6050000Y11100000D01*
X-7950000Y11000000D02*
X-6050000Y11000000D01*
X-7950000Y11100000D02*
X-7950000Y11000000D01*
X-7950000Y14000000D02*
X-7950000Y13900000D01*
X-6050000Y14000000D02*
X-7950000Y14000000D01*
X-6050000Y13900000D02*
X-6050000Y14000000D01*
D11*
X-8900000Y13450000D02*
G75*
G03*
X-8900000Y13450000I-100000J0D01*
G01*
D10*
X12300000Y11000000D02*
X12300000Y12500000D01*
X9000000Y11000000D02*
X9000000Y12500000D01*
X12300000Y11000000D02*
X9000000Y11000000D01*
X12300000Y12500000D02*
X9000000Y12500000D01*
X-12300000Y12500000D02*
X-12300000Y11000000D01*
X-9000000Y12500000D02*
X-9000000Y11000000D01*
X-12300000Y12500000D02*
X-9000000Y12500000D01*
X-12300000Y11000000D02*
X-9000000Y11000000D01*
X3750000Y-15000000D02*
X5250000Y-15000000D01*
X3750000Y-11700000D02*
X5250000Y-11700000D01*
X3750000Y-15000000D02*
X3750000Y-11700000D01*
X5250000Y-15000000D02*
X5250000Y-11700000D01*
X12300000Y12500000D02*
X12300000Y14000000D01*
X9000000Y12500000D02*
X9000000Y14000000D01*
X12300000Y12500000D02*
X9000000Y12500000D01*
X12300000Y14000000D02*
X9000000Y14000000D01*
X-12300000Y14000000D02*
X-12300000Y12500000D01*
X-9000000Y14000000D02*
X-9000000Y12500000D01*
X-12300000Y14000000D02*
X-9000000Y14000000D01*
X-12300000Y12500000D02*
X-9000000Y12500000D01*
X-4550000Y-11700000D02*
X-6050000Y-11700000D01*
X-4550000Y-15000000D02*
X-6050000Y-15000000D01*
X-4550000Y-11700000D02*
X-4550000Y-15000000D01*
X-6050000Y-11700000D02*
X-6050000Y-15000000D01*
X-11150000Y-11700000D02*
X-12650000Y-11700000D01*
X-11150000Y-15000000D02*
X-12650000Y-15000000D01*
X-11150000Y-11700000D02*
X-11150000Y-15000000D01*
X-12650000Y-11700000D02*
X-12650000Y-15000000D01*
X2250000Y-15000000D02*
X3750000Y-15000000D01*
X2250000Y-11700000D02*
X3750000Y-11700000D01*
X2250000Y-15000000D02*
X2250000Y-11700000D01*
X3750000Y-15000000D02*
X3750000Y-11700000D01*
X7950000Y-7700000D02*
X7950000Y-8250000D01*
X8650000Y-7700000D02*
X8650000Y-8100000D01*
X9450000Y-7700000D02*
X9450000Y-8100000D01*
X10150000Y-7700000D02*
X10150000Y-8250000D01*
X12450000Y-11500000D02*
G75*
G03*
X12450000Y-11500000I-3400000J0D01*
G01*
X-12650000Y-4500000D02*
X-12650000Y-7800000D01*
X-11150000Y-4500000D02*
X-11150000Y-7800000D01*
X-11150000Y-7800000D02*
X-12650000Y-7800000D01*
X-11150000Y-4500000D02*
X-12650000Y-4500000D01*
X-11150000Y-4500000D02*
X-11150000Y-7800000D01*
X-9650000Y-4500000D02*
X-9650000Y-7800000D01*
X-9650000Y-7800000D02*
X-11150000Y-7800000D01*
X-9650000Y-4500000D02*
X-11150000Y-4500000D01*
X-9650000Y-4500000D02*
X-9650000Y-7800000D01*
X-8150000Y-4500000D02*
X-8150000Y-7800000D01*
X-8150000Y-7800000D02*
X-9650000Y-7800000D01*
X-8150000Y-4500000D02*
X-9650000Y-4500000D01*
X-8150000Y-4500000D02*
X-8150000Y-7800000D01*
X-6650000Y-4500000D02*
X-6650000Y-7800000D01*
X-6650000Y-7800000D02*
X-8150000Y-7800000D01*
X-6650000Y-4500000D02*
X-8150000Y-4500000D01*
X-6650000Y-4500000D02*
X-6650000Y-7800000D01*
X-5150000Y-4500000D02*
X-5150000Y-7800000D01*
X-5150000Y-7800000D02*
X-6650000Y-7800000D01*
X-5150000Y-4500000D02*
X-6650000Y-4500000D01*
X12600000Y300000D02*
X10400000Y300000D01*
X12600000Y8700000D02*
X12600000Y300000D01*
X10400000Y8700000D02*
X12600000Y8700000D01*
X4200000Y8700000D02*
X6500000Y8700000D01*
X4200000Y300000D02*
X4200000Y8700000D01*
X6500000Y300000D02*
X4200000Y300000D01*
X-11900000Y-200000D02*
X-7700000Y-200000D01*
X-7700000Y-200000D02*
X-7700000Y-2400000D01*
X-7700000Y-2400000D02*
X-11900000Y-2400000D01*
X-11900000Y-2400000D02*
X-11900000Y-200000D01*
X-3500000Y5600000D02*
X-3500000Y5800000D01*
X-3500000Y5800000D02*
X-900000Y5800000D01*
X-900000Y5800000D02*
X-900000Y5600000D01*
X-3500000Y1400000D02*
X-3500000Y1200000D01*
X-3500000Y1200000D02*
X-900000Y1200000D01*
X-900000Y1200000D02*
X-900000Y1400000D01*
X8850000Y-650000D02*
X8850000Y-3950000D01*
X10350000Y-650000D02*
X10350000Y-3950000D01*
X10350000Y-3950000D02*
X8850000Y-3950000D01*
X10350000Y-650000D02*
X8850000Y-650000D01*
X8850000Y-3950000D02*
X8850000Y-650000D01*
X7350000Y-3950000D02*
X7350000Y-650000D01*
X7350000Y-650000D02*
X8850000Y-650000D01*
X7350000Y-3950000D02*
X8850000Y-3950000D01*
X7350000Y-3950000D02*
X7350000Y-650000D01*
X5850000Y-3950000D02*
X5850000Y-650000D01*
X5850000Y-650000D02*
X7350000Y-650000D01*
X5850000Y-3950000D02*
X7350000Y-3950000D01*
X3850000Y2050000D02*
X3850000Y5350000D01*
X2350000Y2050000D02*
X2350000Y5350000D01*
X2350000Y5350000D02*
X3850000Y5350000D01*
X2350000Y2050000D02*
X3850000Y2050000D01*
X-9650000Y6100000D02*
X-9650000Y9400000D01*
X-11150000Y6100000D02*
X-11150000Y9400000D01*
X-11150000Y9400000D02*
X-9650000Y9400000D01*
X-11150000Y6100000D02*
X-9650000Y6100000D01*
X-9650000Y1250000D02*
X-9650000Y4550000D01*
X-11150000Y1250000D02*
X-11150000Y4550000D01*
X-11150000Y4550000D02*
X-9650000Y4550000D01*
X-11150000Y1250000D02*
X-9650000Y1250000D01*
X5040000Y-5370000D02*
X6500000Y-5370000D01*
X5040000Y-8530000D02*
X6500000Y-8530000D01*
X5040000Y-8530000D02*
X5040000Y-7600000D01*
X5040000Y-5370000D02*
X5040000Y-6300000D01*
X-8150000Y6100000D02*
X-8150000Y9400000D01*
X-9650000Y6100000D02*
X-9650000Y9400000D01*
X-9650000Y9400000D02*
X-8150000Y9400000D01*
X-9650000Y6100000D02*
X-8150000Y6100000D01*
X4650000Y-6200000D02*
X4650000Y-4460000D01*
X-4650000Y-6200000D02*
X4650000Y-6200000D01*
X-4650000Y-4460000D02*
X-4650000Y-6200000D01*
X4650000Y-400000D02*
X4650000Y-1740000D01*
X3160000Y-400000D02*
X4650000Y-400000D01*
X-4650000Y-400000D02*
X-4650000Y-1740000D01*
X-3160000Y-400000D02*
X-4650000Y-400000D01*
X-8150000Y9400000D02*
X-8150000Y6100000D01*
X-6650000Y9400000D02*
X-6650000Y6100000D01*
X-6650000Y6100000D02*
X-8150000Y6100000D01*
X-6650000Y9400000D02*
X-8150000Y9400000D01*
X-11150000Y6100000D02*
X-11150000Y9400000D01*
X-12650000Y6100000D02*
X-12650000Y9400000D01*
X-12650000Y9400000D02*
X-11150000Y9400000D01*
X-12650000Y6100000D02*
X-11150000Y6100000D01*
X-11150000Y1250000D02*
X-11150000Y4550000D01*
X-12650000Y1250000D02*
X-12650000Y4550000D01*
X-12650000Y4550000D02*
X-11150000Y4550000D01*
X-12650000Y1250000D02*
X-11150000Y1250000D01*
X-3050000Y-15000000D02*
X-3050000Y-11700000D01*
X-4550000Y-15000000D02*
X-4550000Y-11700000D01*
X-4550000Y-11700000D02*
X-3050000Y-11700000D01*
X-4550000Y-15000000D02*
X-3050000Y-15000000D01*
X2350000Y2050000D02*
X2350000Y5350000D01*
X850000Y2050000D02*
X850000Y5350000D01*
X850000Y5350000D02*
X2350000Y5350000D01*
X850000Y2050000D02*
X2350000Y2050000D01*
X-6650000Y4550000D02*
X-6650000Y1250000D01*
X-5150000Y4550000D02*
X-5150000Y1250000D01*
X-5150000Y1250000D02*
X-6650000Y1250000D01*
X-5150000Y4550000D02*
X-6650000Y4550000D01*
X-9700000Y-2400000D02*
X-9700000Y-3400000D01*
X-7700000Y-2400000D02*
X-7700000Y-3400000D01*
X-7700000Y-2400000D02*
X-9700000Y-2400000D01*
X-7700000Y-3400000D02*
X-9700000Y-3400000D01*
X-9900000Y-3400000D02*
X-9900000Y-2400000D01*
X-11900000Y-3400000D02*
X-11900000Y-2400000D01*
X-11900000Y-3400000D02*
X-9900000Y-3400000D01*
X-11900000Y-2400000D02*
X-9900000Y-2400000D01*
D12*
X-200000Y-8571428D02*
X-200000Y-9000000D01*
X-228571Y-9085714D01*
X-285714Y-9142857D01*
X-371428Y-9171428D01*
X-428571Y-9171428D01*
X57142Y-8628571D02*
X85714Y-8600000D01*
X142857Y-8571428D01*
X285714Y-8571428D01*
X342857Y-8600000D01*
X371428Y-8628571D01*
X399999Y-8685714D01*
X399999Y-8742857D01*
X371428Y-8828571D01*
X28571Y-9171428D01*
X399999Y-9171428D01*
X-2607142Y-10771428D02*
X-2607142Y-11257142D01*
X-2578571Y-11314285D01*
X-2550000Y-11342857D01*
X-2492857Y-11371428D01*
X-2378571Y-11371428D01*
X-2321428Y-11342857D01*
X-2292857Y-11314285D01*
X-2264285Y-11257142D01*
X-2264285Y-10771428D01*
X-1692857Y-10771428D02*
X-1978571Y-10771428D01*
X-2007142Y-11057142D01*
X-1978571Y-11028571D01*
X-1921428Y-11000000D01*
X-1778571Y-11000000D01*
X-1721428Y-11028571D01*
X-1692857Y-11057142D01*
X-1664285Y-11114285D01*
X-1664285Y-11257142D01*
X-1692857Y-11314285D01*
X-1721428Y-11342857D01*
X-1778571Y-11371428D01*
X-1921428Y-11371428D01*
X-1978571Y-11342857D01*
X-2007142Y-11314285D01*
X-7785714Y428571D02*
X-7985714Y714285D01*
X-8128571Y428571D02*
X-8128571Y1028571D01*
X-7900000Y1028571D01*
X-7842857Y1000000D01*
X-7814285Y971428D01*
X-7785714Y914285D01*
X-7785714Y828571D01*
X-7814285Y771428D01*
X-7842857Y742857D01*
X-7900000Y714285D01*
X-8128571Y714285D01*
X-7214285Y428571D02*
X-7557142Y428571D01*
X-7385714Y428571D02*
X-7385714Y1028571D01*
X-7442857Y942857D01*
X-7500000Y885714D01*
X-7557142Y857142D01*
X-6700000Y1028571D02*
X-6814285Y1028571D01*
X-6871428Y1000000D01*
X-6900000Y971428D01*
X-6957142Y885714D01*
X-6985714Y771428D01*
X-6985714Y542857D01*
X-6957142Y485714D01*
X-6928571Y457142D01*
X-6871428Y428571D01*
X-6757142Y428571D01*
X-6700000Y457142D01*
X-6671428Y485714D01*
X-6642857Y542857D01*
X-6642857Y685714D01*
X-6671428Y742857D01*
X-6700000Y771428D01*
X-6757142Y800000D01*
X-6871428Y800000D01*
X-6928571Y771428D01*
X-6957142Y742857D01*
X-6985714Y685714D01*
X-9285714Y428571D02*
X-9485714Y714285D01*
X-9628571Y428571D02*
X-9628571Y1028571D01*
X-9400000Y1028571D01*
X-9342857Y1000000D01*
X-9314285Y971428D01*
X-9285714Y914285D01*
X-9285714Y828571D01*
X-9314285Y771428D01*
X-9342857Y742857D01*
X-9400000Y714285D01*
X-9628571Y714285D01*
X-8714285Y428571D02*
X-9057142Y428571D01*
X-8885714Y428571D02*
X-8885714Y1028571D01*
X-8942857Y942857D01*
X-9000000Y885714D01*
X-9057142Y857142D01*
X-8171428Y1028571D02*
X-8457142Y1028571D01*
X-8485714Y742857D01*
X-8457142Y771428D01*
X-8400000Y800000D01*
X-8257142Y800000D01*
X-8200000Y771428D01*
X-8171428Y742857D01*
X-8142857Y685714D01*
X-8142857Y542857D01*
X-8171428Y485714D01*
X-8200000Y457142D01*
X-8257142Y428571D01*
X-8400000Y428571D01*
X-8457142Y457142D01*
X-8485714Y485714D01*
X-9057142Y-11071428D02*
X-9057142Y-11557142D01*
X-9028571Y-11614285D01*
X-9000000Y-11642857D01*
X-8942857Y-11671428D01*
X-8828571Y-11671428D01*
X-8771428Y-11642857D01*
X-8742857Y-11614285D01*
X-8714285Y-11557142D01*
X-8714285Y-11071428D01*
X-8171428Y-11071428D02*
X-8285714Y-11071428D01*
X-8342857Y-11100000D01*
X-8371428Y-11128571D01*
X-8428571Y-11214285D01*
X-8457142Y-11328571D01*
X-8457142Y-11557142D01*
X-8428571Y-11614285D01*
X-8400000Y-11642857D01*
X-8342857Y-11671428D01*
X-8228571Y-11671428D01*
X-8171428Y-11642857D01*
X-8142857Y-11614285D01*
X-8114285Y-11557142D01*
X-8114285Y-11414285D01*
X-8142857Y-11357142D01*
X-8171428Y-11328571D01*
X-8228571Y-11300000D01*
X-8342857Y-11300000D01*
X-8400000Y-11328571D01*
X-8428571Y-11357142D01*
X-8457142Y-11414285D01*
X6542857Y10728571D02*
X6542857Y10242857D01*
X6571428Y10185714D01*
X6600000Y10157142D01*
X6657142Y10128571D01*
X6771428Y10128571D01*
X6828571Y10157142D01*
X6857142Y10185714D01*
X6885714Y10242857D01*
X6885714Y10728571D01*
X7428571Y10528571D02*
X7428571Y10128571D01*
X7285714Y10757142D02*
X7142857Y10328571D01*
X7514285Y10328571D01*
X-7457142Y10828571D02*
X-7457142Y10342857D01*
X-7428571Y10285714D01*
X-7400000Y10257142D01*
X-7342857Y10228571D01*
X-7228571Y10228571D01*
X-7171428Y10257142D01*
X-7142857Y10285714D01*
X-7114285Y10342857D01*
X-7114285Y10828571D01*
X-6885714Y10828571D02*
X-6514285Y10828571D01*
X-6714285Y10600000D01*
X-6628571Y10600000D01*
X-6571428Y10571428D01*
X-6542857Y10542857D01*
X-6514285Y10485714D01*
X-6514285Y10342857D01*
X-6542857Y10285714D01*
X-6571428Y10257142D01*
X-6628571Y10228571D01*
X-6800000Y10228571D01*
X-6857142Y10257142D01*
X-6885714Y10285714D01*
X-4650000Y8528571D02*
X-4650000Y8100000D01*
X-4678571Y8014285D01*
X-4735714Y7957142D01*
X-4821428Y7928571D01*
X-4878571Y7928571D01*
X-4050000Y7928571D02*
X-4392857Y7928571D01*
X-4221428Y7928571D02*
X-4221428Y8528571D01*
X-4278571Y8442857D01*
X-4335714Y8385714D01*
X-4392857Y8357142D01*
X13071428Y11364285D02*
X12785714Y11164285D01*
X13071428Y11021428D02*
X12471428Y11021428D01*
X12471428Y11250000D01*
X12500000Y11307142D01*
X12528571Y11335714D01*
X12585714Y11364285D01*
X12671428Y11364285D01*
X12728571Y11335714D01*
X12757142Y11307142D01*
X12785714Y11250000D01*
X12785714Y11021428D01*
X13071428Y11935714D02*
X13071428Y11592857D01*
X13071428Y11764285D02*
X12471428Y11764285D01*
X12557142Y11707142D01*
X12614285Y11650000D01*
X12642857Y11592857D01*
X12671428Y12450000D02*
X13071428Y12450000D01*
X12442857Y12307142D02*
X12871428Y12164285D01*
X12871428Y12535714D01*
X-12478571Y11314285D02*
X-12764285Y11114285D01*
X-12478571Y10971428D02*
X-13078571Y10971428D01*
X-13078571Y11200000D01*
X-13050000Y11257142D01*
X-13021428Y11285714D01*
X-12964285Y11314285D01*
X-12878571Y11314285D01*
X-12821428Y11285714D01*
X-12792857Y11257142D01*
X-12764285Y11200000D01*
X-12764285Y10971428D01*
X-12478571Y11885714D02*
X-12478571Y11542857D01*
X-12478571Y11714285D02*
X-13078571Y11714285D01*
X-12992857Y11657142D01*
X-12935714Y11600000D01*
X-12907142Y11542857D01*
X-13078571Y12085714D02*
X-13078571Y12457142D01*
X-12850000Y12257142D01*
X-12850000Y12342857D01*
X-12821428Y12400000D01*
X-12792857Y12428571D01*
X-12735714Y12457142D01*
X-12592857Y12457142D01*
X-12535714Y12428571D01*
X-12507142Y12400000D01*
X-12478571Y12342857D01*
X-12478571Y12171428D01*
X-12507142Y12114285D01*
X-12535714Y12085714D01*
X4114285Y-11571428D02*
X3914285Y-11285714D01*
X3771428Y-11571428D02*
X3771428Y-10971428D01*
X4000000Y-10971428D01*
X4057142Y-11000000D01*
X4085714Y-11028571D01*
X4114285Y-11085714D01*
X4114285Y-11171428D01*
X4085714Y-11228571D01*
X4057142Y-11257142D01*
X4000000Y-11285714D01*
X3771428Y-11285714D01*
X4685714Y-11571428D02*
X4342857Y-11571428D01*
X4514285Y-11571428D02*
X4514285Y-10971428D01*
X4457142Y-11057142D01*
X4400000Y-11114285D01*
X4342857Y-11142857D01*
X4914285Y-11028571D02*
X4942857Y-11000000D01*
X5000000Y-10971428D01*
X5142857Y-10971428D01*
X5200000Y-11000000D01*
X5228571Y-11028571D01*
X5257142Y-11085714D01*
X5257142Y-11142857D01*
X5228571Y-11228571D01*
X4885714Y-11571428D01*
X5257142Y-11571428D01*
X13071428Y12857142D02*
X12471428Y12857142D01*
X12471428Y13000000D01*
X12500000Y13085714D01*
X12557142Y13142857D01*
X12614285Y13171428D01*
X12728571Y13200000D01*
X12814285Y13200000D01*
X12928571Y13171428D01*
X12985714Y13142857D01*
X13042857Y13085714D01*
X13071428Y13000000D01*
X13071428Y12857142D01*
X12471428Y13400000D02*
X12471428Y13771428D01*
X12700000Y13571428D01*
X12700000Y13657142D01*
X12728571Y13714285D01*
X12757142Y13742857D01*
X12814285Y13771428D01*
X12957142Y13771428D01*
X13014285Y13742857D01*
X13042857Y13714285D01*
X13071428Y13657142D01*
X13071428Y13485714D01*
X13042857Y13428571D01*
X13014285Y13400000D01*
X-12478571Y12807142D02*
X-13078571Y12807142D01*
X-13078571Y12950000D01*
X-13050000Y13035714D01*
X-12992857Y13092857D01*
X-12935714Y13121428D01*
X-12821428Y13150000D01*
X-12735714Y13150000D01*
X-12621428Y13121428D01*
X-12564285Y13092857D01*
X-12507142Y13035714D01*
X-12478571Y12950000D01*
X-12478571Y12807142D01*
X-13021428Y13378571D02*
X-13050000Y13407142D01*
X-13078571Y13464285D01*
X-13078571Y13607142D01*
X-13050000Y13664285D01*
X-13021428Y13692857D01*
X-12964285Y13721428D01*
X-12907142Y13721428D01*
X-12821428Y13692857D01*
X-12478571Y13350000D01*
X-12478571Y13721428D01*
X-5685714Y-11514285D02*
X-5714285Y-11542857D01*
X-5799999Y-11571428D01*
X-5857142Y-11571428D01*
X-5942857Y-11542857D01*
X-5999999Y-11485714D01*
X-6028571Y-11428571D01*
X-6057142Y-11314285D01*
X-6057142Y-11228571D01*
X-6028571Y-11114285D01*
X-5999999Y-11057142D01*
X-5942857Y-11000000D01*
X-5857142Y-10971428D01*
X-5799999Y-10971428D01*
X-5714285Y-11000000D01*
X-5685714Y-11028571D01*
X-5114285Y-11571428D02*
X-5457142Y-11571428D01*
X-5285714Y-11571428D02*
X-5285714Y-10971428D01*
X-5342857Y-11057142D01*
X-5400000Y-11114285D01*
X-5457142Y-11142857D01*
X-4885714Y-11028571D02*
X-4857142Y-11000000D01*
X-4800000Y-10971428D01*
X-4657142Y-10971428D01*
X-4600000Y-11000000D01*
X-4571428Y-11028571D01*
X-4542857Y-11085714D01*
X-4542857Y-11142857D01*
X-4571428Y-11228571D01*
X-4914285Y-11571428D01*
X-4542857Y-11571428D01*
X-12285714Y-11514285D02*
X-12314285Y-11542857D01*
X-12400000Y-11571428D01*
X-12457142Y-11571428D01*
X-12542857Y-11542857D01*
X-12600000Y-11485714D01*
X-12628571Y-11428571D01*
X-12657142Y-11314285D01*
X-12657142Y-11228571D01*
X-12628571Y-11114285D01*
X-12600000Y-11057142D01*
X-12542857Y-11000000D01*
X-12457142Y-10971428D01*
X-12400000Y-10971428D01*
X-12314285Y-11000000D01*
X-12285714Y-11028571D01*
X-11714285Y-11571428D02*
X-12057142Y-11571428D01*
X-11885714Y-11571428D02*
X-11885714Y-10971428D01*
X-11942857Y-11057142D01*
X-12000000Y-11114285D01*
X-12057142Y-11142857D01*
X-11142857Y-11571428D02*
X-11485714Y-11571428D01*
X-11314285Y-11571428D02*
X-11314285Y-10971428D01*
X-11371428Y-11057142D01*
X-11428571Y-11114285D01*
X-11485714Y-11142857D01*
X2900000Y-11514285D02*
X2871428Y-11542857D01*
X2785714Y-11571428D01*
X2728571Y-11571428D01*
X2642857Y-11542857D01*
X2585714Y-11485714D01*
X2557142Y-11428571D01*
X2528571Y-11314285D01*
X2528571Y-11228571D01*
X2557142Y-11114285D01*
X2585714Y-11057142D01*
X2642857Y-11000000D01*
X2728571Y-10971428D01*
X2785714Y-10971428D01*
X2871428Y-11000000D01*
X2900000Y-11028571D01*
X3185714Y-11571428D02*
X3300000Y-11571428D01*
X3357142Y-11542857D01*
X3385714Y-11514285D01*
X3442857Y-11428571D01*
X3471428Y-11314285D01*
X3471428Y-11085714D01*
X3442857Y-11028571D01*
X3414285Y-11000000D01*
X3357142Y-10971428D01*
X3242857Y-10971428D01*
X3185714Y-11000000D01*
X3157142Y-11028571D01*
X3128571Y-11085714D01*
X3128571Y-11228571D01*
X3157142Y-11285714D01*
X3185714Y-11314285D01*
X3242857Y-11342857D01*
X3357142Y-11342857D01*
X3414285Y-11314285D01*
X3442857Y-11285714D01*
X3471428Y-11228571D01*
X11050000Y-7964285D02*
X11021428Y-7992857D01*
X10935714Y-8021428D01*
X10878571Y-8021428D01*
X10792857Y-7992857D01*
X10735714Y-7935714D01*
X10707142Y-7878571D01*
X10678571Y-7764285D01*
X10678571Y-7678571D01*
X10707142Y-7564285D01*
X10735714Y-7507142D01*
X10792857Y-7450000D01*
X10878571Y-7421428D01*
X10935714Y-7421428D01*
X11021428Y-7450000D01*
X11050000Y-7478571D01*
X11392857Y-7678571D02*
X11335714Y-7650000D01*
X11307142Y-7621428D01*
X11278571Y-7564285D01*
X11278571Y-7535714D01*
X11307142Y-7478571D01*
X11335714Y-7450000D01*
X11392857Y-7421428D01*
X11507142Y-7421428D01*
X11564285Y-7450000D01*
X11592857Y-7478571D01*
X11621428Y-7535714D01*
X11621428Y-7564285D01*
X11592857Y-7621428D01*
X11564285Y-7650000D01*
X11507142Y-7678571D01*
X11392857Y-7678571D01*
X11335714Y-7707142D01*
X11307142Y-7735714D01*
X11278571Y-7792857D01*
X11278571Y-7907142D01*
X11307142Y-7964285D01*
X11335714Y-7992857D01*
X11392857Y-8021428D01*
X11507142Y-8021428D01*
X11564285Y-7992857D01*
X11592857Y-7964285D01*
X11621428Y-7907142D01*
X11621428Y-7792857D01*
X11592857Y-7735714D01*
X11564285Y-7707142D01*
X11507142Y-7678571D01*
X6895238Y-6907142D02*
X7504761Y-6907142D01*
X7200000Y-7211904D02*
X7200000Y-6602380D01*
X-12285714Y-8571428D02*
X-12485714Y-8285714D01*
X-12628571Y-8571428D02*
X-12628571Y-7971428D01*
X-12400000Y-7971428D01*
X-12342857Y-8000000D01*
X-12314285Y-8028571D01*
X-12285714Y-8085714D01*
X-12285714Y-8171428D01*
X-12314285Y-8228571D01*
X-12342857Y-8257142D01*
X-12400000Y-8285714D01*
X-12628571Y-8285714D01*
X-11714285Y-8571428D02*
X-12057142Y-8571428D01*
X-11885714Y-8571428D02*
X-11885714Y-7971428D01*
X-11942857Y-8057142D01*
X-12000000Y-8114285D01*
X-12057142Y-8142857D01*
X-11142857Y-8571428D02*
X-11485714Y-8571428D01*
X-11314285Y-8571428D02*
X-11314285Y-7971428D01*
X-11371428Y-8057142D01*
X-11428571Y-8114285D01*
X-11485714Y-8142857D01*
X-10785714Y-8571428D02*
X-10985714Y-8285714D01*
X-11128571Y-8571428D02*
X-11128571Y-7971428D01*
X-10900000Y-7971428D01*
X-10842857Y-8000000D01*
X-10814285Y-8028571D01*
X-10785714Y-8085714D01*
X-10785714Y-8171428D01*
X-10814285Y-8228571D01*
X-10842857Y-8257142D01*
X-10900000Y-8285714D01*
X-11128571Y-8285714D01*
X-10214285Y-8571428D02*
X-10557142Y-8571428D01*
X-10385714Y-8571428D02*
X-10385714Y-7971428D01*
X-10442857Y-8057142D01*
X-10500000Y-8114285D01*
X-10557142Y-8142857D01*
X-9842857Y-7971428D02*
X-9785714Y-7971428D01*
X-9728571Y-8000000D01*
X-9700000Y-8028571D01*
X-9671428Y-8085714D01*
X-9642857Y-8200000D01*
X-9642857Y-8342857D01*
X-9671428Y-8457142D01*
X-9700000Y-8514285D01*
X-9728571Y-8542857D01*
X-9785714Y-8571428D01*
X-9842857Y-8571428D01*
X-9900000Y-8542857D01*
X-9928571Y-8514285D01*
X-9957142Y-8457142D01*
X-9985714Y-8342857D01*
X-9985714Y-8200000D01*
X-9957142Y-8085714D01*
X-9928571Y-8028571D01*
X-9900000Y-8000000D01*
X-9842857Y-7971428D01*
X-9000000Y-8571428D02*
X-9200000Y-8285714D01*
X-9342857Y-8571428D02*
X-9342857Y-7971428D01*
X-9114285Y-7971428D01*
X-9057142Y-8000000D01*
X-9028571Y-8028571D01*
X-9000000Y-8085714D01*
X-9000000Y-8171428D01*
X-9028571Y-8228571D01*
X-9057142Y-8257142D01*
X-9114285Y-8285714D01*
X-9342857Y-8285714D01*
X-8714285Y-8571428D02*
X-8600000Y-8571428D01*
X-8542857Y-8542857D01*
X-8514285Y-8514285D01*
X-8457142Y-8428571D01*
X-8428571Y-8314285D01*
X-8428571Y-8085714D01*
X-8457142Y-8028571D01*
X-8485714Y-8000000D01*
X-8542857Y-7971428D01*
X-8657142Y-7971428D01*
X-8714285Y-8000000D01*
X-8742857Y-8028571D01*
X-8771428Y-8085714D01*
X-8771428Y-8228571D01*
X-8742857Y-8285714D01*
X-8714285Y-8314285D01*
X-8657142Y-8342857D01*
X-8542857Y-8342857D01*
X-8485714Y-8314285D01*
X-8457142Y-8285714D01*
X-8428571Y-8228571D01*
X-7500000Y-8571428D02*
X-7700000Y-8285714D01*
X-7842857Y-8571428D02*
X-7842857Y-7971428D01*
X-7614285Y-7971428D01*
X-7557142Y-8000000D01*
X-7528571Y-8028571D01*
X-7500000Y-8085714D01*
X-7500000Y-8171428D01*
X-7528571Y-8228571D01*
X-7557142Y-8257142D01*
X-7614285Y-8285714D01*
X-7842857Y-8285714D01*
X-7157142Y-8228571D02*
X-7214285Y-8200000D01*
X-7242857Y-8171428D01*
X-7271428Y-8114285D01*
X-7271428Y-8085714D01*
X-7242857Y-8028571D01*
X-7214285Y-8000000D01*
X-7157142Y-7971428D01*
X-7042857Y-7971428D01*
X-6985714Y-8000000D01*
X-6957142Y-8028571D01*
X-6928571Y-8085714D01*
X-6928571Y-8114285D01*
X-6957142Y-8171428D01*
X-6985714Y-8200000D01*
X-7042857Y-8228571D01*
X-7157142Y-8228571D01*
X-7214285Y-8257142D01*
X-7242857Y-8285714D01*
X-7271428Y-8342857D01*
X-7271428Y-8457142D01*
X-7242857Y-8514285D01*
X-7214285Y-8542857D01*
X-7157142Y-8571428D01*
X-7042857Y-8571428D01*
X-6985714Y-8542857D01*
X-6957142Y-8514285D01*
X-6928571Y-8457142D01*
X-6928571Y-8342857D01*
X-6957142Y-8285714D01*
X-6985714Y-8257142D01*
X-7042857Y-8228571D01*
X-6000000Y-8571428D02*
X-6200000Y-8285714D01*
X-6342857Y-8571428D02*
X-6342857Y-7971428D01*
X-6114285Y-7971428D01*
X-6057142Y-8000000D01*
X-6028571Y-8028571D01*
X-6000000Y-8085714D01*
X-6000000Y-8171428D01*
X-6028571Y-8228571D01*
X-6057142Y-8257142D01*
X-6114285Y-8285714D01*
X-6342857Y-8285714D01*
X-5800000Y-7971428D02*
X-5400000Y-7971428D01*
X-5657142Y-8571428D01*
X10864285Y9328571D02*
X10578571Y9328571D01*
X10578571Y9928571D01*
X11035714Y9357142D02*
X11121428Y9328571D01*
X11264285Y9328571D01*
X11321428Y9357142D01*
X11350000Y9385714D01*
X11378571Y9442857D01*
X11378571Y9500000D01*
X11350000Y9557142D01*
X11321428Y9585714D01*
X11264285Y9614285D01*
X11150000Y9642857D01*
X11092857Y9671428D01*
X11064285Y9700000D01*
X11035714Y9757142D01*
X11035714Y9814285D01*
X11064285Y9871428D01*
X11092857Y9900000D01*
X11150000Y9928571D01*
X11292857Y9928571D01*
X11378571Y9900000D01*
X11950000Y9328571D02*
X11607142Y9328571D01*
X11778571Y9328571D02*
X11778571Y9928571D01*
X11721428Y9842857D01*
X11664285Y9785714D01*
X11607142Y9757142D01*
X-12885714Y-1285714D02*
X-12885714Y-1571428D01*
X-13085714Y-971428D02*
X-12885714Y-1285714D01*
X-12685714Y-971428D01*
X-12171428Y-1571428D02*
X-12514285Y-1571428D01*
X-12342857Y-1571428D02*
X-12342857Y-971428D01*
X-12400000Y-1057142D01*
X-12457142Y-1114285D01*
X-12514285Y-1142857D01*
X-4707142Y6278571D02*
X-4707142Y5792857D01*
X-4678571Y5735714D01*
X-4650000Y5707142D01*
X-4592857Y5678571D01*
X-4478571Y5678571D01*
X-4421428Y5707142D01*
X-4392857Y5735714D01*
X-4364285Y5792857D01*
X-4364285Y6278571D01*
X-3764285Y5678571D02*
X-4107142Y5678571D01*
X-3935714Y5678571D02*
X-3935714Y6278571D01*
X-3992857Y6192857D01*
X-4050000Y6135714D01*
X-4107142Y6107142D01*
X9500000Y-4771428D02*
X9300000Y-4485714D01*
X9157142Y-4771428D02*
X9157142Y-4171428D01*
X9385714Y-4171428D01*
X9442857Y-4200000D01*
X9471428Y-4228571D01*
X9500000Y-4285714D01*
X9500000Y-4371428D01*
X9471428Y-4428571D01*
X9442857Y-4457142D01*
X9385714Y-4485714D01*
X9157142Y-4485714D01*
X10014285Y-4171428D02*
X9900000Y-4171428D01*
X9842857Y-4200000D01*
X9814285Y-4228571D01*
X9757142Y-4314285D01*
X9728571Y-4428571D01*
X9728571Y-4657142D01*
X9757142Y-4714285D01*
X9785714Y-4742857D01*
X9842857Y-4771428D01*
X9957142Y-4771428D01*
X10014285Y-4742857D01*
X10042857Y-4714285D01*
X10071428Y-4657142D01*
X10071428Y-4514285D01*
X10042857Y-4457142D01*
X10014285Y-4428571D01*
X9957142Y-4400000D01*
X9842857Y-4400000D01*
X9785714Y-4428571D01*
X9757142Y-4457142D01*
X9728571Y-4514285D01*
X8000000Y-4771428D02*
X7800000Y-4485714D01*
X7657142Y-4771428D02*
X7657142Y-4171428D01*
X7885714Y-4171428D01*
X7942857Y-4200000D01*
X7971428Y-4228571D01*
X8000000Y-4285714D01*
X8000000Y-4371428D01*
X7971428Y-4428571D01*
X7942857Y-4457142D01*
X7885714Y-4485714D01*
X7657142Y-4485714D01*
X8542857Y-4171428D02*
X8257142Y-4171428D01*
X8228571Y-4457142D01*
X8257142Y-4428571D01*
X8314285Y-4400000D01*
X8457142Y-4400000D01*
X8514285Y-4428571D01*
X8542857Y-4457142D01*
X8571428Y-4514285D01*
X8571428Y-4657142D01*
X8542857Y-4714285D01*
X8514285Y-4742857D01*
X8457142Y-4771428D01*
X8314285Y-4771428D01*
X8257142Y-4742857D01*
X8228571Y-4714285D01*
X6500000Y-4771428D02*
X6300000Y-4485714D01*
X6157142Y-4771428D02*
X6157142Y-4171428D01*
X6385714Y-4171428D01*
X6442857Y-4200000D01*
X6471428Y-4228571D01*
X6500000Y-4285714D01*
X6500000Y-4371428D01*
X6471428Y-4428571D01*
X6442857Y-4457142D01*
X6385714Y-4485714D01*
X6157142Y-4485714D01*
X7014285Y-4371428D02*
X7014285Y-4771428D01*
X6871428Y-4142857D02*
X6728571Y-4571428D01*
X7100000Y-4571428D01*
X3000000Y5628571D02*
X2800000Y5914285D01*
X2657142Y5628571D02*
X2657142Y6228571D01*
X2885714Y6228571D01*
X2942857Y6200000D01*
X2971428Y6171428D01*
X3000000Y6114285D01*
X3000000Y6028571D01*
X2971428Y5971428D01*
X2942857Y5942857D01*
X2885714Y5914285D01*
X2657142Y5914285D01*
X3200000Y6228571D02*
X3571428Y6228571D01*
X3371428Y6000000D01*
X3457142Y6000000D01*
X3514285Y5971428D01*
X3542857Y5942857D01*
X3571428Y5885714D01*
X3571428Y5742857D01*
X3542857Y5685714D01*
X3514285Y5657142D01*
X3457142Y5628571D01*
X3285714Y5628571D01*
X3228571Y5657142D01*
X3200000Y5685714D01*
X-10500000Y5278571D02*
X-10700000Y5564285D01*
X-10842857Y5278571D02*
X-10842857Y5878571D01*
X-10614285Y5878571D01*
X-10557142Y5850000D01*
X-10528571Y5821428D01*
X-10500000Y5764285D01*
X-10500000Y5678571D01*
X-10528571Y5621428D01*
X-10557142Y5592857D01*
X-10614285Y5564285D01*
X-10842857Y5564285D01*
X-10271428Y5821428D02*
X-10242857Y5850000D01*
X-10185714Y5878571D01*
X-10042857Y5878571D01*
X-9985714Y5850000D01*
X-9957142Y5821428D01*
X-9928571Y5764285D01*
X-9928571Y5707142D01*
X-9957142Y5621428D01*
X-10300000Y5278571D01*
X-9928571Y5278571D01*
X-10500000Y428571D02*
X-10700000Y714285D01*
X-10842857Y428571D02*
X-10842857Y1028571D01*
X-10614285Y1028571D01*
X-10557142Y1000000D01*
X-10528571Y971428D01*
X-10500000Y914285D01*
X-10500000Y828571D01*
X-10528571Y771428D01*
X-10557142Y742857D01*
X-10614285Y714285D01*
X-10842857Y714285D01*
X-9928571Y428571D02*
X-10271428Y428571D01*
X-10100000Y428571D02*
X-10100000Y1028571D01*
X-10157142Y942857D01*
X-10214285Y885714D01*
X-10271428Y857142D01*
X4292857Y-8328571D02*
X4235714Y-8300000D01*
X4178571Y-8242857D01*
X4092857Y-8157142D01*
X4035714Y-8128571D01*
X3978571Y-8128571D01*
X4007142Y-8271428D02*
X3950000Y-8242857D01*
X3892857Y-8185714D01*
X3864285Y-8071428D01*
X3864285Y-7871428D01*
X3892857Y-7757142D01*
X3950000Y-7700000D01*
X4007142Y-7671428D01*
X4121428Y-7671428D01*
X4178571Y-7700000D01*
X4235714Y-7757142D01*
X4264285Y-7871428D01*
X4264285Y-8071428D01*
X4235714Y-8185714D01*
X4178571Y-8242857D01*
X4121428Y-8271428D01*
X4007142Y-8271428D01*
X4835714Y-8271428D02*
X4492857Y-8271428D01*
X4664285Y-8271428D02*
X4664285Y-7671428D01*
X4607142Y-7757142D01*
X4550000Y-7814285D01*
X4492857Y-7842857D01*
X-9000000Y5278571D02*
X-9285714Y5278571D01*
X-9285714Y5878571D01*
X-8485714Y5278571D02*
X-8828571Y5278571D01*
X-8657142Y5278571D02*
X-8657142Y5878571D01*
X-8714285Y5792857D01*
X-8771428Y5735714D01*
X-8828571Y5707142D01*
X-4200000Y528571D02*
X-4200000Y100000D01*
X-4228571Y14285D01*
X-4285714Y-42857D01*
X-4371428Y-71428D01*
X-4428571Y-71428D01*
X-3971428Y528571D02*
X-3600000Y528571D01*
X-3800000Y300000D01*
X-3714285Y300000D01*
X-3657142Y271428D01*
X-3628571Y242857D01*
X-3600000Y185714D01*
X-3600000Y42857D01*
X-3628571Y-14285D01*
X-3657142Y-42857D01*
X-3714285Y-71428D01*
X-3885714Y-71428D01*
X-3942857Y-42857D01*
X-3971428Y-14285D01*
X-7600000Y5592857D02*
X-7800000Y5592857D01*
X-7800000Y5278571D02*
X-7800000Y5878571D01*
X-7514285Y5878571D01*
X-6971428Y5278571D02*
X-7314285Y5278571D01*
X-7142857Y5278571D02*
X-7142857Y5878571D01*
X-7200000Y5792857D01*
X-7257142Y5735714D01*
X-7314285Y5707142D01*
X-12342857Y5278571D02*
X-12342857Y5878571D01*
X-12200000Y5878571D01*
X-12114285Y5850000D01*
X-12057142Y5792857D01*
X-12028571Y5735714D01*
X-12000000Y5621428D01*
X-12000000Y5535714D01*
X-12028571Y5421428D01*
X-12057142Y5364285D01*
X-12114285Y5307142D01*
X-12200000Y5278571D01*
X-12342857Y5278571D01*
X-11428571Y5278571D02*
X-11771428Y5278571D01*
X-11600000Y5278571D02*
X-11600000Y5878571D01*
X-11657142Y5792857D01*
X-11714285Y5735714D01*
X-11771428Y5707142D01*
X-12000000Y485714D02*
X-12028571Y457142D01*
X-12114285Y428571D01*
X-12171428Y428571D01*
X-12257142Y457142D01*
X-12314285Y514285D01*
X-12342857Y571428D01*
X-12371428Y685714D01*
X-12371428Y771428D01*
X-12342857Y885714D01*
X-12314285Y942857D01*
X-12257142Y1000000D01*
X-12171428Y1028571D01*
X-12114285Y1028571D01*
X-12028571Y1000000D01*
X-12000000Y971428D01*
X-11800000Y1028571D02*
X-11400000Y1028571D01*
X-11657142Y428571D01*
X-3899999Y-11514285D02*
X-3928571Y-11542857D01*
X-4014285Y-11571428D01*
X-4071428Y-11571428D01*
X-4157142Y-11542857D01*
X-4214285Y-11485714D01*
X-4242857Y-11428571D01*
X-4271428Y-11314285D01*
X-4271428Y-11228571D01*
X-4242857Y-11114285D01*
X-4214285Y-11057142D01*
X-4157142Y-11000000D01*
X-4071428Y-10971428D01*
X-4014285Y-10971428D01*
X-3928571Y-11000000D01*
X-3899999Y-11028571D01*
X-3357142Y-10971428D02*
X-3642857Y-10971428D01*
X-3671428Y-11257142D01*
X-3642857Y-11228571D01*
X-3585714Y-11200000D01*
X-3442857Y-11200000D01*
X-3385714Y-11228571D01*
X-3357142Y-11257142D01*
X-3328571Y-11314285D01*
X-3328571Y-11457142D01*
X-3357142Y-11514285D01*
X-3385714Y-11542857D01*
X-3442857Y-11571428D01*
X-3585714Y-11571428D01*
X-3642857Y-11542857D01*
X-3671428Y-11514285D01*
X1500000Y5685714D02*
X1471428Y5657142D01*
X1385714Y5628571D01*
X1328571Y5628571D01*
X1242857Y5657142D01*
X1185714Y5714285D01*
X1157142Y5771428D01*
X1128571Y5885714D01*
X1128571Y5971428D01*
X1157142Y6085714D01*
X1185714Y6142857D01*
X1242857Y6200000D01*
X1328571Y6228571D01*
X1385714Y6228571D01*
X1471428Y6200000D01*
X1500000Y6171428D01*
X2014285Y6028571D02*
X2014285Y5628571D01*
X1871428Y6257142D02*
X1728571Y5828571D01*
X2100000Y5828571D01*
X-6000000Y485714D02*
X-6028571Y457142D01*
X-6114285Y428571D01*
X-6171428Y428571D01*
X-6257142Y457142D01*
X-6314285Y514285D01*
X-6342857Y571428D01*
X-6371428Y685714D01*
X-6371428Y771428D01*
X-6342857Y885714D01*
X-6314285Y942857D01*
X-6257142Y1000000D01*
X-6171428Y1028571D01*
X-6114285Y1028571D01*
X-6028571Y1000000D01*
X-6000000Y971428D01*
X-5800000Y1028571D02*
X-5428571Y1028571D01*
X-5628571Y800000D01*
X-5542857Y800000D01*
X-5485714Y771428D01*
X-5457142Y742857D01*
X-5428571Y685714D01*
X-5428571Y542857D01*
X-5457142Y485714D01*
X-5485714Y457142D01*
X-5542857Y428571D01*
X-5714285Y428571D01*
X-5771428Y457142D01*
X-5800000Y485714D01*
X-7100000Y-3114285D02*
X-7128571Y-3142857D01*
X-7214285Y-3171428D01*
X-7271428Y-3171428D01*
X-7357142Y-3142857D01*
X-7414285Y-3085714D01*
X-7442857Y-3028571D01*
X-7471428Y-2914285D01*
X-7471428Y-2828571D01*
X-7442857Y-2714285D01*
X-7414285Y-2657142D01*
X-7357142Y-2600000D01*
X-7271428Y-2571428D01*
X-7214285Y-2571428D01*
X-7128571Y-2600000D01*
X-7100000Y-2628571D01*
X-6871428Y-2628571D02*
X-6842857Y-2600000D01*
X-6785714Y-2571428D01*
X-6642857Y-2571428D01*
X-6585714Y-2600000D01*
X-6557142Y-2628571D01*
X-6528571Y-2685714D01*
X-6528571Y-2742857D01*
X-6557142Y-2828571D01*
X-6900000Y-3171428D01*
X-6528571Y-3171428D01*
X-12700000Y-3114285D02*
X-12728571Y-3142857D01*
X-12814285Y-3171428D01*
X-12871428Y-3171428D01*
X-12957142Y-3142857D01*
X-13014285Y-3085714D01*
X-13042857Y-3028571D01*
X-13071428Y-2914285D01*
X-13071428Y-2828571D01*
X-13042857Y-2714285D01*
X-13014285Y-2657142D01*
X-12957142Y-2600000D01*
X-12871428Y-2571428D01*
X-12814285Y-2571428D01*
X-12728571Y-2600000D01*
X-12700000Y-2628571D01*
X-12128571Y-3171428D02*
X-12471428Y-3171428D01*
X-12300000Y-3171428D02*
X-12300000Y-2571428D01*
X-12357142Y-2657142D01*
X-12414285Y-2714285D01*
X-12471428Y-2742857D01*
M02*
