G04 #@! TF.GenerationSoftware,KiCad,Pcbnew,(5.1.9-0-10_14)*
G04 #@! TF.CreationDate,2021-06-20T22:16:49+09:00*
G04 #@! TF.ProjectId,RL78Display,524c3738-4469-4737-906c-61792e6b6963,V2.0*
G04 #@! TF.SameCoordinates,Original*
G04 #@! TF.FileFunction,Copper,L1,Top*
G04 #@! TF.FilePolarity,Positive*
%FSLAX46Y46*%
G04 Gerber Fmt 4.6, Leading zero omitted, Abs format (unit mm)*
G04 Created by KiCad (PCBNEW (5.1.9-0-10_14)) date 2021-06-20 22:16:49*
%MOMM*%
%LPD*%
G01*
G04 APERTURE LIST*
G04 #@! TA.AperFunction,ComponentPad*
%ADD10O,1.700000X1.700000*%
G04 #@! TD*
G04 #@! TA.AperFunction,ComponentPad*
%ADD11R,1.700000X1.700000*%
G04 #@! TD*
G04 #@! TA.AperFunction,SMDPad,CuDef*
%ADD12R,1.060000X0.500000*%
G04 #@! TD*
G04 #@! TA.AperFunction,SMDPad,CuDef*
%ADD13R,2.000000X3.000000*%
G04 #@! TD*
G04 #@! TA.AperFunction,SMDPad,CuDef*
%ADD14R,0.400000X1.400000*%
G04 #@! TD*
G04 #@! TA.AperFunction,SMDPad,CuDef*
%ADD15R,0.650000X0.900000*%
G04 #@! TD*
G04 #@! TA.AperFunction,SMDPad,CuDef*
%ADD16R,0.350000X0.900000*%
G04 #@! TD*
G04 #@! TA.AperFunction,SMDPad,CuDef*
%ADD17R,1.000000X2.000000*%
G04 #@! TD*
G04 #@! TA.AperFunction,SMDPad,CuDef*
%ADD18R,3.200000X1.400000*%
G04 #@! TD*
G04 #@! TA.AperFunction,SMDPad,CuDef*
%ADD19R,1.800000X1.200000*%
G04 #@! TD*
G04 #@! TA.AperFunction,SMDPad,CuDef*
%ADD20R,1.500000X0.700000*%
G04 #@! TD*
G04 #@! TA.AperFunction,SMDPad,CuDef*
%ADD21C,0.100000*%
G04 #@! TD*
G04 #@! TA.AperFunction,ComponentPad*
%ADD22C,1.400000*%
G04 #@! TD*
G04 #@! TA.AperFunction,SMDPad,CuDef*
%ADD23R,0.900000X0.800000*%
G04 #@! TD*
G04 #@! TA.AperFunction,SMDPad,CuDef*
%ADD24R,1.800000X2.200000*%
G04 #@! TD*
G04 #@! TA.AperFunction,SMDPad,CuDef*
%ADD25R,0.150000X1.300000*%
G04 #@! TD*
G04 #@! TA.AperFunction,ViaPad*
%ADD26C,0.609600*%
G04 #@! TD*
G04 #@! TA.AperFunction,Conductor*
%ADD27C,0.203200*%
G04 #@! TD*
G04 APERTURE END LIST*
D10*
X-8890000Y-10050000D03*
X-6350000Y-10050000D03*
X-3810000Y-10050000D03*
X-1270000Y-10050000D03*
X1270000Y-10050000D03*
X3810000Y-10050000D03*
X6350000Y-10050000D03*
D11*
X8890000Y-10050000D03*
D12*
X-8650000Y-12450000D03*
X-8650000Y-14350000D03*
X-10850000Y-14350000D03*
X-10850000Y-13400000D03*
X-10850000Y-12450000D03*
X5900000Y12500000D03*
X5900000Y11550000D03*
X5900000Y13450000D03*
X8100000Y13450000D03*
X8100000Y12500000D03*
X8100000Y11550000D03*
X-8100000Y13450000D03*
X-8100000Y12500000D03*
X-8100000Y11550000D03*
X-5900000Y11550000D03*
X-5900000Y13450000D03*
X-5900000Y12500000D03*
D13*
X-4000000Y10400000D03*
X4000000Y10400000D03*
D14*
X-1600000Y7900000D03*
X-800000Y7900000D03*
X0Y7900000D03*
X800000Y7900000D03*
X1600000Y7900000D03*
D15*
X-250000Y-14350000D03*
D16*
X-1100000Y-14350000D03*
X-1800000Y-14350000D03*
X-2500000Y-14350000D03*
D15*
X-3350000Y-14350000D03*
X-3350000Y-12350000D03*
D16*
X-2500000Y-12350000D03*
X-1800000Y-12350000D03*
X-1100000Y-12350000D03*
D15*
X-250000Y-12350000D03*
G04 #@! TA.AperFunction,SMDPad,CuDef*
G36*
G01*
X12000000Y11975000D02*
X12000000Y11525000D01*
G75*
G02*
X11775000Y11300000I-225000J0D01*
G01*
X11225000Y11300000D01*
G75*
G02*
X11000000Y11525000I0J225000D01*
G01*
X11000000Y11975000D01*
G75*
G02*
X11225000Y12200000I225000J0D01*
G01*
X11775000Y12200000D01*
G75*
G02*
X12000000Y11975000I0J-225000D01*
G01*
G37*
G04 #@! TD.AperFunction*
G04 #@! TA.AperFunction,SMDPad,CuDef*
G36*
G01*
X10300000Y11975000D02*
X10300000Y11525000D01*
G75*
G02*
X10075000Y11300000I-225000J0D01*
G01*
X9525000Y11300000D01*
G75*
G02*
X9300000Y11525000I0J225000D01*
G01*
X9300000Y11975000D01*
G75*
G02*
X9525000Y12200000I225000J0D01*
G01*
X10075000Y12200000D01*
G75*
G02*
X10300000Y11975000I0J-225000D01*
G01*
G37*
G04 #@! TD.AperFunction*
G04 #@! TA.AperFunction,SMDPad,CuDef*
G36*
G01*
X-12000000Y11525000D02*
X-12000000Y11975000D01*
G75*
G02*
X-11775000Y12200000I225000J0D01*
G01*
X-11225000Y12200000D01*
G75*
G02*
X-11000000Y11975000I0J-225000D01*
G01*
X-11000000Y11525000D01*
G75*
G02*
X-11225000Y11300000I-225000J0D01*
G01*
X-11775000Y11300000D01*
G75*
G02*
X-12000000Y11525000I0J225000D01*
G01*
G37*
G04 #@! TD.AperFunction*
G04 #@! TA.AperFunction,SMDPad,CuDef*
G36*
G01*
X-10300000Y11525000D02*
X-10300000Y11975000D01*
G75*
G02*
X-10075000Y12200000I225000J0D01*
G01*
X-9525000Y12200000D01*
G75*
G02*
X-9300000Y11975000I0J-225000D01*
G01*
X-9300000Y11525000D01*
G75*
G02*
X-9525000Y11300000I-225000J0D01*
G01*
X-10075000Y11300000D01*
G75*
G02*
X-10300000Y11525000I0J225000D01*
G01*
G37*
G04 #@! TD.AperFunction*
G04 #@! TA.AperFunction,SMDPad,CuDef*
G36*
G01*
X4425000Y-12050000D02*
X4875000Y-12050000D01*
G75*
G02*
X5100000Y-12275000I0J-225000D01*
G01*
X5100000Y-12825000D01*
G75*
G02*
X4875000Y-13050000I-225000J0D01*
G01*
X4425000Y-13050000D01*
G75*
G02*
X4200000Y-12825000I0J225000D01*
G01*
X4200000Y-12275000D01*
G75*
G02*
X4425000Y-12050000I225000J0D01*
G01*
G37*
G04 #@! TD.AperFunction*
G04 #@! TA.AperFunction,SMDPad,CuDef*
G36*
G01*
X4425000Y-13750000D02*
X4875000Y-13750000D01*
G75*
G02*
X5100000Y-13975000I0J-225000D01*
G01*
X5100000Y-14525000D01*
G75*
G02*
X4875000Y-14750000I-225000J0D01*
G01*
X4425000Y-14750000D01*
G75*
G02*
X4200000Y-14525000I0J225000D01*
G01*
X4200000Y-13975000D01*
G75*
G02*
X4425000Y-13750000I225000J0D01*
G01*
G37*
G04 #@! TD.AperFunction*
G04 #@! TA.AperFunction,SMDPad,CuDef*
G36*
G01*
X12000000Y13475000D02*
X12000000Y13025000D01*
G75*
G02*
X11775000Y12800000I-225000J0D01*
G01*
X11225000Y12800000D01*
G75*
G02*
X11000000Y13025000I0J225000D01*
G01*
X11000000Y13475000D01*
G75*
G02*
X11225000Y13700000I225000J0D01*
G01*
X11775000Y13700000D01*
G75*
G02*
X12000000Y13475000I0J-225000D01*
G01*
G37*
G04 #@! TD.AperFunction*
G04 #@! TA.AperFunction,SMDPad,CuDef*
G36*
G01*
X10300000Y13475000D02*
X10300000Y13025000D01*
G75*
G02*
X10075000Y12800000I-225000J0D01*
G01*
X9525000Y12800000D01*
G75*
G02*
X9300000Y13025000I0J225000D01*
G01*
X9300000Y13475000D01*
G75*
G02*
X9525000Y13700000I225000J0D01*
G01*
X10075000Y13700000D01*
G75*
G02*
X10300000Y13475000I0J-225000D01*
G01*
G37*
G04 #@! TD.AperFunction*
G04 #@! TA.AperFunction,SMDPad,CuDef*
G36*
G01*
X-12000000Y13025000D02*
X-12000000Y13475000D01*
G75*
G02*
X-11775000Y13700000I225000J0D01*
G01*
X-11225000Y13700000D01*
G75*
G02*
X-11000000Y13475000I0J-225000D01*
G01*
X-11000000Y13025000D01*
G75*
G02*
X-11225000Y12800000I-225000J0D01*
G01*
X-11775000Y12800000D01*
G75*
G02*
X-12000000Y13025000I0J225000D01*
G01*
G37*
G04 #@! TD.AperFunction*
G04 #@! TA.AperFunction,SMDPad,CuDef*
G36*
G01*
X-10300000Y13025000D02*
X-10300000Y13475000D01*
G75*
G02*
X-10075000Y13700000I225000J0D01*
G01*
X-9525000Y13700000D01*
G75*
G02*
X-9300000Y13475000I0J-225000D01*
G01*
X-9300000Y13025000D01*
G75*
G02*
X-9525000Y12800000I-225000J0D01*
G01*
X-10075000Y12800000D01*
G75*
G02*
X-10300000Y13025000I0J225000D01*
G01*
G37*
G04 #@! TD.AperFunction*
G04 #@! TA.AperFunction,SMDPad,CuDef*
G36*
G01*
X-6975000Y-12050000D02*
X-6525000Y-12050000D01*
G75*
G02*
X-6300000Y-12275000I0J-225000D01*
G01*
X-6300000Y-12825000D01*
G75*
G02*
X-6525000Y-13050000I-225000J0D01*
G01*
X-6975000Y-13050000D01*
G75*
G02*
X-7200000Y-12825000I0J225000D01*
G01*
X-7200000Y-12275000D01*
G75*
G02*
X-6975000Y-12050000I225000J0D01*
G01*
G37*
G04 #@! TD.AperFunction*
G04 #@! TA.AperFunction,SMDPad,CuDef*
G36*
G01*
X-6975000Y-13750000D02*
X-6525000Y-13750000D01*
G75*
G02*
X-6300000Y-13975000I0J-225000D01*
G01*
X-6300000Y-14525000D01*
G75*
G02*
X-6525000Y-14750000I-225000J0D01*
G01*
X-6975000Y-14750000D01*
G75*
G02*
X-7200000Y-14525000I0J225000D01*
G01*
X-7200000Y-13975000D01*
G75*
G02*
X-6975000Y-13750000I225000J0D01*
G01*
G37*
G04 #@! TD.AperFunction*
G04 #@! TA.AperFunction,SMDPad,CuDef*
G36*
G01*
X-10200000Y-10775000D02*
X-10200000Y-11225000D01*
G75*
G02*
X-10425000Y-11450000I-225000J0D01*
G01*
X-10975000Y-11450000D01*
G75*
G02*
X-11200000Y-11225000I0J225000D01*
G01*
X-11200000Y-10775000D01*
G75*
G02*
X-10975000Y-10550000I225000J0D01*
G01*
X-10425000Y-10550000D01*
G75*
G02*
X-10200000Y-10775000I0J-225000D01*
G01*
G37*
G04 #@! TD.AperFunction*
G04 #@! TA.AperFunction,SMDPad,CuDef*
G36*
G01*
X-11900000Y-10775000D02*
X-11900000Y-11225000D01*
G75*
G02*
X-12125000Y-11450000I-225000J0D01*
G01*
X-12675000Y-11450000D01*
G75*
G02*
X-12900000Y-11225000I0J225000D01*
G01*
X-12900000Y-10775000D01*
G75*
G02*
X-12675000Y-10550000I225000J0D01*
G01*
X-12125000Y-10550000D01*
G75*
G02*
X-11900000Y-10775000I0J-225000D01*
G01*
G37*
G04 #@! TD.AperFunction*
G04 #@! TA.AperFunction,SMDPad,CuDef*
G36*
G01*
X1875000Y-14750000D02*
X1425000Y-14750000D01*
G75*
G02*
X1200000Y-14525000I0J225000D01*
G01*
X1200000Y-13975000D01*
G75*
G02*
X1425000Y-13750000I225000J0D01*
G01*
X1875000Y-13750000D01*
G75*
G02*
X2100000Y-13975000I0J-225000D01*
G01*
X2100000Y-14525000D01*
G75*
G02*
X1875000Y-14750000I-225000J0D01*
G01*
G37*
G04 #@! TD.AperFunction*
G04 #@! TA.AperFunction,SMDPad,CuDef*
G36*
G01*
X1875000Y-13050000D02*
X1425000Y-13050000D01*
G75*
G02*
X1200000Y-12825000I0J225000D01*
G01*
X1200000Y-12275000D01*
G75*
G02*
X1425000Y-12050000I225000J0D01*
G01*
X1875000Y-12050000D01*
G75*
G02*
X2100000Y-12275000I0J-225000D01*
G01*
X2100000Y-12825000D01*
G75*
G02*
X1875000Y-13050000I-225000J0D01*
G01*
G37*
G04 #@! TD.AperFunction*
G04 #@! TA.AperFunction,SMDPad,CuDef*
G36*
G01*
X2925000Y-12050000D02*
X3375000Y-12050000D01*
G75*
G02*
X3600000Y-12275000I0J-225000D01*
G01*
X3600000Y-12825000D01*
G75*
G02*
X3375000Y-13050000I-225000J0D01*
G01*
X2925000Y-13050000D01*
G75*
G02*
X2700000Y-12825000I0J225000D01*
G01*
X2700000Y-12275000D01*
G75*
G02*
X2925000Y-12050000I225000J0D01*
G01*
G37*
G04 #@! TD.AperFunction*
G04 #@! TA.AperFunction,SMDPad,CuDef*
G36*
G01*
X2925000Y-13750000D02*
X3375000Y-13750000D01*
G75*
G02*
X3600000Y-13975000I0J-225000D01*
G01*
X3600000Y-14525000D01*
G75*
G02*
X3375000Y-14750000I-225000J0D01*
G01*
X2925000Y-14750000D01*
G75*
G02*
X2700000Y-14525000I0J225000D01*
G01*
X2700000Y-13975000D01*
G75*
G02*
X2925000Y-13750000I225000J0D01*
G01*
G37*
G04 #@! TD.AperFunction*
D17*
X9800000Y-6500000D03*
X8300000Y-6500000D03*
G04 #@! TA.AperFunction,SMDPad,CuDef*
G36*
G01*
X-12125000Y-7450000D02*
X-11675000Y-7450000D01*
G75*
G02*
X-11450000Y-7675000I0J-225000D01*
G01*
X-11450000Y-8225000D01*
G75*
G02*
X-11675000Y-8450000I-225000J0D01*
G01*
X-12125000Y-8450000D01*
G75*
G02*
X-12350000Y-8225000I0J225000D01*
G01*
X-12350000Y-7675000D01*
G75*
G02*
X-12125000Y-7450000I225000J0D01*
G01*
G37*
G04 #@! TD.AperFunction*
G04 #@! TA.AperFunction,SMDPad,CuDef*
G36*
G01*
X-12125000Y-5750000D02*
X-11675000Y-5750000D01*
G75*
G02*
X-11450000Y-5975000I0J-225000D01*
G01*
X-11450000Y-6525000D01*
G75*
G02*
X-11675000Y-6750000I-225000J0D01*
G01*
X-12125000Y-6750000D01*
G75*
G02*
X-12350000Y-6525000I0J225000D01*
G01*
X-12350000Y-5975000D01*
G75*
G02*
X-12125000Y-5750000I225000J0D01*
G01*
G37*
G04 #@! TD.AperFunction*
G04 #@! TA.AperFunction,SMDPad,CuDef*
G36*
G01*
X-10625000Y-7450000D02*
X-10175000Y-7450000D01*
G75*
G02*
X-9950000Y-7675000I0J-225000D01*
G01*
X-9950000Y-8225000D01*
G75*
G02*
X-10175000Y-8450000I-225000J0D01*
G01*
X-10625000Y-8450000D01*
G75*
G02*
X-10850000Y-8225000I0J225000D01*
G01*
X-10850000Y-7675000D01*
G75*
G02*
X-10625000Y-7450000I225000J0D01*
G01*
G37*
G04 #@! TD.AperFunction*
G04 #@! TA.AperFunction,SMDPad,CuDef*
G36*
G01*
X-10625000Y-5750000D02*
X-10175000Y-5750000D01*
G75*
G02*
X-9950000Y-5975000I0J-225000D01*
G01*
X-9950000Y-6525000D01*
G75*
G02*
X-10175000Y-6750000I-225000J0D01*
G01*
X-10625000Y-6750000D01*
G75*
G02*
X-10850000Y-6525000I0J225000D01*
G01*
X-10850000Y-5975000D01*
G75*
G02*
X-10625000Y-5750000I225000J0D01*
G01*
G37*
G04 #@! TD.AperFunction*
G04 #@! TA.AperFunction,SMDPad,CuDef*
G36*
G01*
X-9125000Y-7450000D02*
X-8675000Y-7450000D01*
G75*
G02*
X-8450000Y-7675000I0J-225000D01*
G01*
X-8450000Y-8225000D01*
G75*
G02*
X-8675000Y-8450000I-225000J0D01*
G01*
X-9125000Y-8450000D01*
G75*
G02*
X-9350000Y-8225000I0J225000D01*
G01*
X-9350000Y-7675000D01*
G75*
G02*
X-9125000Y-7450000I225000J0D01*
G01*
G37*
G04 #@! TD.AperFunction*
G04 #@! TA.AperFunction,SMDPad,CuDef*
G36*
G01*
X-9125000Y-5750000D02*
X-8675000Y-5750000D01*
G75*
G02*
X-8450000Y-5975000I0J-225000D01*
G01*
X-8450000Y-6525000D01*
G75*
G02*
X-8675000Y-6750000I-225000J0D01*
G01*
X-9125000Y-6750000D01*
G75*
G02*
X-9350000Y-6525000I0J225000D01*
G01*
X-9350000Y-5975000D01*
G75*
G02*
X-9125000Y-5750000I225000J0D01*
G01*
G37*
G04 #@! TD.AperFunction*
G04 #@! TA.AperFunction,SMDPad,CuDef*
G36*
G01*
X-7625000Y-7450000D02*
X-7175000Y-7450000D01*
G75*
G02*
X-6950000Y-7675000I0J-225000D01*
G01*
X-6950000Y-8225000D01*
G75*
G02*
X-7175000Y-8450000I-225000J0D01*
G01*
X-7625000Y-8450000D01*
G75*
G02*
X-7850000Y-8225000I0J225000D01*
G01*
X-7850000Y-7675000D01*
G75*
G02*
X-7625000Y-7450000I225000J0D01*
G01*
G37*
G04 #@! TD.AperFunction*
G04 #@! TA.AperFunction,SMDPad,CuDef*
G36*
G01*
X-7625000Y-5750000D02*
X-7175000Y-5750000D01*
G75*
G02*
X-6950000Y-5975000I0J-225000D01*
G01*
X-6950000Y-6525000D01*
G75*
G02*
X-7175000Y-6750000I-225000J0D01*
G01*
X-7625000Y-6750000D01*
G75*
G02*
X-7850000Y-6525000I0J225000D01*
G01*
X-7850000Y-5975000D01*
G75*
G02*
X-7625000Y-5750000I225000J0D01*
G01*
G37*
G04 #@! TD.AperFunction*
G04 #@! TA.AperFunction,SMDPad,CuDef*
G36*
G01*
X-6125000Y-7450000D02*
X-5675000Y-7450000D01*
G75*
G02*
X-5450000Y-7675000I0J-225000D01*
G01*
X-5450000Y-8225000D01*
G75*
G02*
X-5675000Y-8450000I-225000J0D01*
G01*
X-6125000Y-8450000D01*
G75*
G02*
X-6350000Y-8225000I0J225000D01*
G01*
X-6350000Y-7675000D01*
G75*
G02*
X-6125000Y-7450000I225000J0D01*
G01*
G37*
G04 #@! TD.AperFunction*
G04 #@! TA.AperFunction,SMDPad,CuDef*
G36*
G01*
X-6125000Y-5750000D02*
X-5675000Y-5750000D01*
G75*
G02*
X-5450000Y-5975000I0J-225000D01*
G01*
X-5450000Y-6525000D01*
G75*
G02*
X-5675000Y-6750000I-225000J0D01*
G01*
X-6125000Y-6750000D01*
G75*
G02*
X-6350000Y-6525000I0J225000D01*
G01*
X-6350000Y-5975000D01*
G75*
G02*
X-6125000Y-5750000I225000J0D01*
G01*
G37*
G04 #@! TD.AperFunction*
D18*
X8400000Y8700000D03*
X8400000Y300000D03*
D19*
X-9700000Y-2900000D03*
X-9700000Y-300000D03*
D20*
X-350000Y5000000D03*
X-350000Y2000000D03*
X-4050000Y5000000D03*
X-4050000Y2000000D03*
G04 #@! TA.AperFunction,SMDPad,CuDef*
D21*
G36*
X-1300000Y4000000D02*
G01*
X400000Y4000000D01*
X400000Y3000000D01*
X-1300000Y3000000D01*
X-1800000Y2500000D01*
X-2600000Y2500000D01*
X-2600000Y3000000D01*
X-4800000Y3000000D01*
X-4800000Y4000000D01*
X-2600000Y4000000D01*
X-2600000Y4500000D01*
X-1800000Y4500000D01*
X-1300000Y4000000D01*
G37*
G04 #@! TD.AperFunction*
D22*
X12000000Y-5000000D03*
X12000000Y-3000000D03*
X12000000Y-1000000D03*
G04 #@! TA.AperFunction,SMDPad,CuDef*
G36*
G01*
X9375000Y-950000D02*
X9825000Y-950000D01*
G75*
G02*
X10050000Y-1175000I0J-225000D01*
G01*
X10050000Y-1725000D01*
G75*
G02*
X9825000Y-1950000I-225000J0D01*
G01*
X9375000Y-1950000D01*
G75*
G02*
X9150000Y-1725000I0J225000D01*
G01*
X9150000Y-1175000D01*
G75*
G02*
X9375000Y-950000I225000J0D01*
G01*
G37*
G04 #@! TD.AperFunction*
G04 #@! TA.AperFunction,SMDPad,CuDef*
G36*
G01*
X9375000Y-2650000D02*
X9825000Y-2650000D01*
G75*
G02*
X10050000Y-2875000I0J-225000D01*
G01*
X10050000Y-3425000D01*
G75*
G02*
X9825000Y-3650000I-225000J0D01*
G01*
X9375000Y-3650000D01*
G75*
G02*
X9150000Y-3425000I0J225000D01*
G01*
X9150000Y-2875000D01*
G75*
G02*
X9375000Y-2650000I225000J0D01*
G01*
G37*
G04 #@! TD.AperFunction*
G04 #@! TA.AperFunction,SMDPad,CuDef*
G36*
G01*
X8325000Y-3650000D02*
X7875000Y-3650000D01*
G75*
G02*
X7650000Y-3425000I0J225000D01*
G01*
X7650000Y-2875000D01*
G75*
G02*
X7875000Y-2650000I225000J0D01*
G01*
X8325000Y-2650000D01*
G75*
G02*
X8550000Y-2875000I0J-225000D01*
G01*
X8550000Y-3425000D01*
G75*
G02*
X8325000Y-3650000I-225000J0D01*
G01*
G37*
G04 #@! TD.AperFunction*
G04 #@! TA.AperFunction,SMDPad,CuDef*
G36*
G01*
X8325000Y-1950000D02*
X7875000Y-1950000D01*
G75*
G02*
X7650000Y-1725000I0J225000D01*
G01*
X7650000Y-1175000D01*
G75*
G02*
X7875000Y-950000I225000J0D01*
G01*
X8325000Y-950000D01*
G75*
G02*
X8550000Y-1175000I0J-225000D01*
G01*
X8550000Y-1725000D01*
G75*
G02*
X8325000Y-1950000I-225000J0D01*
G01*
G37*
G04 #@! TD.AperFunction*
G04 #@! TA.AperFunction,SMDPad,CuDef*
G36*
G01*
X6825000Y-3650000D02*
X6375000Y-3650000D01*
G75*
G02*
X6150000Y-3425000I0J225000D01*
G01*
X6150000Y-2875000D01*
G75*
G02*
X6375000Y-2650000I225000J0D01*
G01*
X6825000Y-2650000D01*
G75*
G02*
X7050000Y-2875000I0J-225000D01*
G01*
X7050000Y-3425000D01*
G75*
G02*
X6825000Y-3650000I-225000J0D01*
G01*
G37*
G04 #@! TD.AperFunction*
G04 #@! TA.AperFunction,SMDPad,CuDef*
G36*
G01*
X6825000Y-1950000D02*
X6375000Y-1950000D01*
G75*
G02*
X6150000Y-1725000I0J225000D01*
G01*
X6150000Y-1175000D01*
G75*
G02*
X6375000Y-950000I225000J0D01*
G01*
X6825000Y-950000D01*
G75*
G02*
X7050000Y-1175000I0J-225000D01*
G01*
X7050000Y-1725000D01*
G75*
G02*
X6825000Y-1950000I-225000J0D01*
G01*
G37*
G04 #@! TD.AperFunction*
G04 #@! TA.AperFunction,SMDPad,CuDef*
G36*
G01*
X3325000Y2350000D02*
X2875000Y2350000D01*
G75*
G02*
X2650000Y2575000I0J225000D01*
G01*
X2650000Y3125000D01*
G75*
G02*
X2875000Y3350000I225000J0D01*
G01*
X3325000Y3350000D01*
G75*
G02*
X3550000Y3125000I0J-225000D01*
G01*
X3550000Y2575000D01*
G75*
G02*
X3325000Y2350000I-225000J0D01*
G01*
G37*
G04 #@! TD.AperFunction*
G04 #@! TA.AperFunction,SMDPad,CuDef*
G36*
G01*
X3325000Y4050000D02*
X2875000Y4050000D01*
G75*
G02*
X2650000Y4275000I0J225000D01*
G01*
X2650000Y4825000D01*
G75*
G02*
X2875000Y5050000I225000J0D01*
G01*
X3325000Y5050000D01*
G75*
G02*
X3550000Y4825000I0J-225000D01*
G01*
X3550000Y4275000D01*
G75*
G02*
X3325000Y4050000I-225000J0D01*
G01*
G37*
G04 #@! TD.AperFunction*
G04 #@! TA.AperFunction,SMDPad,CuDef*
G36*
G01*
X-10175000Y7400000D02*
X-10625000Y7400000D01*
G75*
G02*
X-10850000Y7625000I0J225000D01*
G01*
X-10850000Y8175000D01*
G75*
G02*
X-10625000Y8400000I225000J0D01*
G01*
X-10175000Y8400000D01*
G75*
G02*
X-9950000Y8175000I0J-225000D01*
G01*
X-9950000Y7625000D01*
G75*
G02*
X-10175000Y7400000I-225000J0D01*
G01*
G37*
G04 #@! TD.AperFunction*
G04 #@! TA.AperFunction,SMDPad,CuDef*
G36*
G01*
X-10175000Y9100000D02*
X-10625000Y9100000D01*
G75*
G02*
X-10850000Y9325000I0J225000D01*
G01*
X-10850000Y9875000D01*
G75*
G02*
X-10625000Y10100000I225000J0D01*
G01*
X-10175000Y10100000D01*
G75*
G02*
X-9950000Y9875000I0J-225000D01*
G01*
X-9950000Y9325000D01*
G75*
G02*
X-10175000Y9100000I-225000J0D01*
G01*
G37*
G04 #@! TD.AperFunction*
G04 #@! TA.AperFunction,SMDPad,CuDef*
G36*
G01*
X-8675000Y2350000D02*
X-9125000Y2350000D01*
G75*
G02*
X-9350000Y2575000I0J225000D01*
G01*
X-9350000Y3125000D01*
G75*
G02*
X-9125000Y3350000I225000J0D01*
G01*
X-8675000Y3350000D01*
G75*
G02*
X-8450000Y3125000I0J-225000D01*
G01*
X-8450000Y2575000D01*
G75*
G02*
X-8675000Y2350000I-225000J0D01*
G01*
G37*
G04 #@! TD.AperFunction*
G04 #@! TA.AperFunction,SMDPad,CuDef*
G36*
G01*
X-8675000Y4050000D02*
X-9125000Y4050000D01*
G75*
G02*
X-9350000Y4275000I0J225000D01*
G01*
X-9350000Y4825000D01*
G75*
G02*
X-9125000Y5050000I225000J0D01*
G01*
X-8675000Y5050000D01*
G75*
G02*
X-8450000Y4825000I0J-225000D01*
G01*
X-8450000Y4275000D01*
G75*
G02*
X-8675000Y4050000I-225000J0D01*
G01*
G37*
G04 #@! TD.AperFunction*
D23*
X6800000Y-7900000D03*
X6800000Y-6000000D03*
X4800000Y-6950000D03*
G04 #@! TA.AperFunction,SMDPad,CuDef*
G36*
G01*
X-8675000Y7400000D02*
X-9125000Y7400000D01*
G75*
G02*
X-9350000Y7625000I0J225000D01*
G01*
X-9350000Y8175000D01*
G75*
G02*
X-9125000Y8400000I225000J0D01*
G01*
X-8675000Y8400000D01*
G75*
G02*
X-8450000Y8175000I0J-225000D01*
G01*
X-8450000Y7625000D01*
G75*
G02*
X-8675000Y7400000I-225000J0D01*
G01*
G37*
G04 #@! TD.AperFunction*
G04 #@! TA.AperFunction,SMDPad,CuDef*
G36*
G01*
X-8675000Y9100000D02*
X-9125000Y9100000D01*
G75*
G02*
X-9350000Y9325000I0J225000D01*
G01*
X-9350000Y9875000D01*
G75*
G02*
X-9125000Y10100000I225000J0D01*
G01*
X-8675000Y10100000D01*
G75*
G02*
X-8450000Y9875000I0J-225000D01*
G01*
X-8450000Y9325000D01*
G75*
G02*
X-8675000Y9100000I-225000J0D01*
G01*
G37*
G04 #@! TD.AperFunction*
D24*
X4650000Y-3100000D03*
X-4650000Y-3100000D03*
D25*
X-2750000Y150000D03*
X-2250000Y150000D03*
X-1750000Y150000D03*
X-1250000Y150000D03*
X-750000Y150000D03*
X-250000Y150000D03*
X250000Y150000D03*
X750000Y150000D03*
X1250000Y150000D03*
X1750000Y150000D03*
X2250000Y150000D03*
X2750000Y150000D03*
G04 #@! TA.AperFunction,SMDPad,CuDef*
G36*
G01*
X-7625000Y10100000D02*
X-7175000Y10100000D01*
G75*
G02*
X-6950000Y9875000I0J-225000D01*
G01*
X-6950000Y9325000D01*
G75*
G02*
X-7175000Y9100000I-225000J0D01*
G01*
X-7625000Y9100000D01*
G75*
G02*
X-7850000Y9325000I0J225000D01*
G01*
X-7850000Y9875000D01*
G75*
G02*
X-7625000Y10100000I225000J0D01*
G01*
G37*
G04 #@! TD.AperFunction*
G04 #@! TA.AperFunction,SMDPad,CuDef*
G36*
G01*
X-7625000Y8400000D02*
X-7175000Y8400000D01*
G75*
G02*
X-6950000Y8175000I0J-225000D01*
G01*
X-6950000Y7625000D01*
G75*
G02*
X-7175000Y7400000I-225000J0D01*
G01*
X-7625000Y7400000D01*
G75*
G02*
X-7850000Y7625000I0J225000D01*
G01*
X-7850000Y8175000D01*
G75*
G02*
X-7625000Y8400000I225000J0D01*
G01*
G37*
G04 #@! TD.AperFunction*
G04 #@! TA.AperFunction,SMDPad,CuDef*
G36*
G01*
X-11675000Y7400000D02*
X-12125000Y7400000D01*
G75*
G02*
X-12350000Y7625000I0J225000D01*
G01*
X-12350000Y8175000D01*
G75*
G02*
X-12125000Y8400000I225000J0D01*
G01*
X-11675000Y8400000D01*
G75*
G02*
X-11450000Y8175000I0J-225000D01*
G01*
X-11450000Y7625000D01*
G75*
G02*
X-11675000Y7400000I-225000J0D01*
G01*
G37*
G04 #@! TD.AperFunction*
G04 #@! TA.AperFunction,SMDPad,CuDef*
G36*
G01*
X-11675000Y9100000D02*
X-12125000Y9100000D01*
G75*
G02*
X-12350000Y9325000I0J225000D01*
G01*
X-12350000Y9875000D01*
G75*
G02*
X-12125000Y10100000I225000J0D01*
G01*
X-11675000Y10100000D01*
G75*
G02*
X-11450000Y9875000I0J-225000D01*
G01*
X-11450000Y9325000D01*
G75*
G02*
X-11675000Y9100000I-225000J0D01*
G01*
G37*
G04 #@! TD.AperFunction*
G04 #@! TA.AperFunction,SMDPad,CuDef*
G36*
G01*
X-10175000Y2350000D02*
X-10625000Y2350000D01*
G75*
G02*
X-10850000Y2575000I0J225000D01*
G01*
X-10850000Y3125000D01*
G75*
G02*
X-10625000Y3350000I225000J0D01*
G01*
X-10175000Y3350000D01*
G75*
G02*
X-9950000Y3125000I0J-225000D01*
G01*
X-9950000Y2575000D01*
G75*
G02*
X-10175000Y2350000I-225000J0D01*
G01*
G37*
G04 #@! TD.AperFunction*
G04 #@! TA.AperFunction,SMDPad,CuDef*
G36*
G01*
X-10175000Y4050000D02*
X-10625000Y4050000D01*
G75*
G02*
X-10850000Y4275000I0J225000D01*
G01*
X-10850000Y4825000D01*
G75*
G02*
X-10625000Y5050000I225000J0D01*
G01*
X-10175000Y5050000D01*
G75*
G02*
X-9950000Y4825000I0J-225000D01*
G01*
X-9950000Y4275000D01*
G75*
G02*
X-10175000Y4050000I-225000J0D01*
G01*
G37*
G04 #@! TD.AperFunction*
G04 #@! TA.AperFunction,SMDPad,CuDef*
G36*
G01*
X-11675000Y2350000D02*
X-12125000Y2350000D01*
G75*
G02*
X-12350000Y2575000I0J225000D01*
G01*
X-12350000Y3125000D01*
G75*
G02*
X-12125000Y3350000I225000J0D01*
G01*
X-11675000Y3350000D01*
G75*
G02*
X-11450000Y3125000I0J-225000D01*
G01*
X-11450000Y2575000D01*
G75*
G02*
X-11675000Y2350000I-225000J0D01*
G01*
G37*
G04 #@! TD.AperFunction*
G04 #@! TA.AperFunction,SMDPad,CuDef*
G36*
G01*
X-11675000Y4050000D02*
X-12125000Y4050000D01*
G75*
G02*
X-12350000Y4275000I0J225000D01*
G01*
X-12350000Y4825000D01*
G75*
G02*
X-12125000Y5050000I225000J0D01*
G01*
X-11675000Y5050000D01*
G75*
G02*
X-11450000Y4825000I0J-225000D01*
G01*
X-11450000Y4275000D01*
G75*
G02*
X-11675000Y4050000I-225000J0D01*
G01*
G37*
G04 #@! TD.AperFunction*
G04 #@! TA.AperFunction,SMDPad,CuDef*
G36*
G01*
X-5475000Y-12050000D02*
X-5025000Y-12050000D01*
G75*
G02*
X-4800000Y-12275000I0J-225000D01*
G01*
X-4800000Y-12825000D01*
G75*
G02*
X-5025000Y-13050000I-225000J0D01*
G01*
X-5475000Y-13050000D01*
G75*
G02*
X-5700000Y-12825000I0J225000D01*
G01*
X-5700000Y-12275000D01*
G75*
G02*
X-5475000Y-12050000I225000J0D01*
G01*
G37*
G04 #@! TD.AperFunction*
G04 #@! TA.AperFunction,SMDPad,CuDef*
G36*
G01*
X-5475000Y-13750000D02*
X-5025000Y-13750000D01*
G75*
G02*
X-4800000Y-13975000I0J-225000D01*
G01*
X-4800000Y-14525000D01*
G75*
G02*
X-5025000Y-14750000I-225000J0D01*
G01*
X-5475000Y-14750000D01*
G75*
G02*
X-5700000Y-14525000I0J225000D01*
G01*
X-5700000Y-13975000D01*
G75*
G02*
X-5475000Y-13750000I225000J0D01*
G01*
G37*
G04 #@! TD.AperFunction*
G04 #@! TA.AperFunction,SMDPad,CuDef*
G36*
G01*
X1825000Y2350000D02*
X1375000Y2350000D01*
G75*
G02*
X1150000Y2575000I0J225000D01*
G01*
X1150000Y3125000D01*
G75*
G02*
X1375000Y3350000I225000J0D01*
G01*
X1825000Y3350000D01*
G75*
G02*
X2050000Y3125000I0J-225000D01*
G01*
X2050000Y2575000D01*
G75*
G02*
X1825000Y2350000I-225000J0D01*
G01*
G37*
G04 #@! TD.AperFunction*
G04 #@! TA.AperFunction,SMDPad,CuDef*
G36*
G01*
X1825000Y4050000D02*
X1375000Y4050000D01*
G75*
G02*
X1150000Y4275000I0J225000D01*
G01*
X1150000Y4825000D01*
G75*
G02*
X1375000Y5050000I225000J0D01*
G01*
X1825000Y5050000D01*
G75*
G02*
X2050000Y4825000I0J-225000D01*
G01*
X2050000Y4275000D01*
G75*
G02*
X1825000Y4050000I-225000J0D01*
G01*
G37*
G04 #@! TD.AperFunction*
G04 #@! TA.AperFunction,SMDPad,CuDef*
G36*
G01*
X-6225000Y5050000D02*
X-5775000Y5050000D01*
G75*
G02*
X-5550000Y4825000I0J-225000D01*
G01*
X-5550000Y4275000D01*
G75*
G02*
X-5775000Y4050000I-225000J0D01*
G01*
X-6225000Y4050000D01*
G75*
G02*
X-6450000Y4275000I0J225000D01*
G01*
X-6450000Y4825000D01*
G75*
G02*
X-6225000Y5050000I225000J0D01*
G01*
G37*
G04 #@! TD.AperFunction*
G04 #@! TA.AperFunction,SMDPad,CuDef*
G36*
G01*
X-6225000Y3350000D02*
X-5775000Y3350000D01*
G75*
G02*
X-5550000Y3125000I0J-225000D01*
G01*
X-5550000Y2575000D01*
G75*
G02*
X-5775000Y2350000I-225000J0D01*
G01*
X-6225000Y2350000D01*
G75*
G02*
X-6450000Y2575000I0J225000D01*
G01*
X-6450000Y3125000D01*
G75*
G02*
X-6225000Y3350000I225000J0D01*
G01*
G37*
G04 #@! TD.AperFunction*
G04 #@! TA.AperFunction,SMDPad,CuDef*
G36*
G01*
X-11150000Y-3500000D02*
X-11450000Y-3500000D01*
G75*
G02*
X-11600000Y-3350000I0J150000D01*
G01*
X-11600000Y-3050000D01*
G75*
G02*
X-11450000Y-2900000I150000J0D01*
G01*
X-11150000Y-2900000D01*
G75*
G02*
X-11000000Y-3050000I0J-150000D01*
G01*
X-11000000Y-3350000D01*
G75*
G02*
X-11150000Y-3500000I-150000J0D01*
G01*
G37*
G04 #@! TD.AperFunction*
G04 #@! TA.AperFunction,SMDPad,CuDef*
G36*
G01*
X-11150000Y-2500000D02*
X-11450000Y-2500000D01*
G75*
G02*
X-11600000Y-2350000I0J150000D01*
G01*
X-11600000Y-2050000D01*
G75*
G02*
X-11450000Y-1900000I150000J0D01*
G01*
X-11150000Y-1900000D01*
G75*
G02*
X-11000000Y-2050000I0J-150000D01*
G01*
X-11000000Y-2350000D01*
G75*
G02*
X-11150000Y-2500000I-150000J0D01*
G01*
G37*
G04 #@! TD.AperFunction*
G04 #@! TA.AperFunction,SMDPad,CuDef*
G36*
G01*
X-11450000Y300000D02*
X-11150000Y300000D01*
G75*
G02*
X-11000000Y150000I0J-150000D01*
G01*
X-11000000Y-150000D01*
G75*
G02*
X-11150000Y-300000I-150000J0D01*
G01*
X-11450000Y-300000D01*
G75*
G02*
X-11600000Y-150000I0J150000D01*
G01*
X-11600000Y150000D01*
G75*
G02*
X-11450000Y300000I150000J0D01*
G01*
G37*
G04 #@! TD.AperFunction*
G04 #@! TA.AperFunction,SMDPad,CuDef*
G36*
G01*
X-11450000Y-700000D02*
X-11150000Y-700000D01*
G75*
G02*
X-11000000Y-850000I0J-150000D01*
G01*
X-11000000Y-1150000D01*
G75*
G02*
X-11150000Y-1300000I-150000J0D01*
G01*
X-11450000Y-1300000D01*
G75*
G02*
X-11600000Y-1150000I0J150000D01*
G01*
X-11600000Y-850000D01*
G75*
G02*
X-11450000Y-700000I150000J0D01*
G01*
G37*
G04 #@! TD.AperFunction*
D26*
X-8279300Y50700D03*
X-8110100Y-1073900D03*
X-7525500Y5591900D03*
X-2674600Y5210200D03*
X-4976900Y8386200D03*
X-2741300Y8439400D03*
X-606300Y11111400D03*
X-6816400Y6148400D03*
X-8338700Y5564900D03*
X-2174400Y1428800D03*
X-2211300Y-1596200D03*
X-1402000Y-2344300D03*
X-396600Y-1592800D03*
X292100Y-1118000D03*
X5300000Y150000D03*
X-2178300Y-8448200D03*
X5005800Y-10820700D03*
X9710300Y-4285200D03*
X11204200Y1217400D03*
X5491500Y5034200D03*
X-2679400Y-11384100D03*
X-1775000Y11340000D03*
X4433800Y-11448000D03*
X-8294000Y1891300D03*
X-7662500Y-11908200D03*
X-4287300Y-13088400D03*
X440000Y11119200D03*
X-1614000Y5534700D03*
X4781400Y8009700D03*
X2862500Y-3333300D03*
X-4204200Y-12039700D03*
X-4196600Y-14074200D03*
X-7150000Y11550000D03*
X7150000Y13450000D03*
D27*
X-9700000Y-300000D02*
X-10905100Y-300000D01*
X-11300000Y0D02*
X-11205100Y0D01*
X-11205100Y0D02*
X-10905100Y-300000D01*
X-8494900Y-300000D02*
X-8494900Y-164900D01*
X-8494900Y-164900D02*
X-8279300Y50700D01*
X-9700000Y-300000D02*
X-8494900Y-300000D01*
X-9700000Y-2900000D02*
X-10905100Y-2900000D01*
X-11300000Y-3200000D02*
X-11205100Y-3200000D01*
X-11205100Y-3200000D02*
X-10905100Y-2900000D01*
X-8494900Y-2900000D02*
X-8494900Y-1458700D01*
X-8494900Y-1458700D02*
X-8110100Y-1073900D01*
X-9700000Y-2900000D02*
X-8494900Y-2900000D01*
X-7525500Y5591900D02*
X-7525500Y6525500D01*
X-7525500Y6525500D02*
X-8900000Y7900000D01*
X-2674600Y5210200D02*
X-2367000Y4902600D01*
X-2367000Y4902600D02*
X-447400Y4902600D01*
X-447400Y4902600D02*
X-350000Y5000000D01*
X-2994900Y5000000D02*
X-2884800Y5000000D01*
X-2884800Y5000000D02*
X-2674600Y5210200D01*
X-4050000Y5000000D02*
X-2994900Y5000000D01*
X-4577500Y5000000D02*
X-4050000Y5000000D01*
X2536200Y11871100D02*
X3165100Y12500000D01*
X3165100Y12500000D02*
X5900000Y12500000D01*
X705100Y5000000D02*
X2536200Y6831100D01*
X2536200Y6831100D02*
X2536200Y11871100D01*
X-5900000Y12500000D02*
X1907300Y12500000D01*
X1907300Y12500000D02*
X2536200Y11871100D01*
X-350000Y5000000D02*
X705100Y5000000D01*
X-4577500Y5000000D02*
X-5105100Y5000000D01*
X-11900000Y2850000D02*
X-11073100Y3676900D01*
X-11073100Y3676900D02*
X-9726900Y3676900D01*
X-9726900Y3676900D02*
X-8900000Y2850000D01*
X-6000000Y4550000D02*
X-7700000Y2850000D01*
X-7700000Y2850000D02*
X-8900000Y2850000D01*
X-5105100Y5000000D02*
X-5550000Y5000000D01*
X-5550000Y5000000D02*
X-6000000Y4550000D01*
X-10850000Y-14350000D02*
X-10014900Y-14350000D01*
X-10014900Y-12450000D02*
X-10014900Y-14350000D01*
X-10014900Y-11685100D02*
X-10014900Y-12450000D01*
X-10700000Y-11000000D02*
X-10014900Y-11685100D01*
X-7505100Y-10050000D02*
X-7505100Y-10338800D01*
X-7505100Y-10338800D02*
X-8851400Y-11685100D01*
X-8851400Y-11685100D02*
X-10014900Y-11685100D01*
X-10850000Y-12450000D02*
X-10014900Y-12450000D01*
X-10400000Y7900000D02*
X-8900000Y7900000D01*
X-6350000Y-10050000D02*
X-7505100Y-10050000D01*
X-11900000Y7900000D02*
X-11060900Y8739100D01*
X-11060900Y8739100D02*
X-5329800Y8739100D01*
X-5329800Y8739100D02*
X-4976900Y8386200D01*
X-11900000Y9600000D02*
X-10400000Y9600000D01*
X-7400000Y9600000D02*
X-8900000Y9600000D01*
X-2741300Y8439400D02*
X-3435000Y7745700D01*
X-3435000Y7745700D02*
X-7245700Y7745700D01*
X-7245700Y7745700D02*
X-7400000Y7900000D01*
X1600000Y8905100D02*
X-606300Y11111400D01*
X1600000Y7900000D02*
X1600000Y8905100D01*
X0Y6894900D02*
X-6069900Y6894900D01*
X-6069900Y6894900D02*
X-6816400Y6148400D01*
X0Y7900000D02*
X0Y6894900D01*
X-8338700Y4960700D02*
X-7075500Y4960700D01*
X-7075500Y4960700D02*
X-5550100Y6486100D01*
X-5550100Y6486100D02*
X391200Y6486100D01*
X391200Y6486100D02*
X800000Y6894900D01*
X-8900000Y4550000D02*
X-8489300Y4960700D01*
X-8489300Y4960700D02*
X-8338700Y4960700D01*
X-8338700Y4960700D02*
X-8338700Y5564900D01*
X800000Y7900000D02*
X800000Y6894900D01*
X-2250000Y-805100D02*
X-5555700Y-805100D01*
X-5555700Y-805100D02*
X-9460300Y-4709700D01*
X-9460300Y-4709700D02*
X-10359700Y-4709700D01*
X-10359700Y-4709700D02*
X-11900000Y-6250000D01*
X-2250000Y150000D02*
X-2250000Y-805100D01*
X-2174400Y1428800D02*
X-2250000Y1353200D01*
X-2250000Y1353200D02*
X-2250000Y150000D01*
X-2300500Y-1507000D02*
X-2211300Y-1596200D01*
X-2300500Y-1507000D02*
X-5657000Y-1507000D01*
X-5657000Y-1507000D02*
X-10400000Y-6250000D01*
X-1750000Y150000D02*
X-1750000Y-956500D01*
X-1750000Y-956500D02*
X-2300500Y-1507000D01*
X-1402000Y-2344300D02*
X-3639100Y-4581400D01*
X-3639100Y-4581400D02*
X-7231400Y-4581400D01*
X-7231400Y-4581400D02*
X-8900000Y-6250000D01*
X-1402000Y-2344300D02*
X-1250000Y-2192300D01*
X-1250000Y-2192300D02*
X-1250000Y-805100D01*
X-1250000Y150000D02*
X-1250000Y-805100D01*
X-750000Y-1592800D02*
X-750000Y-2608500D01*
X-750000Y-2608500D02*
X-3213600Y-5072100D01*
X-3213600Y-5072100D02*
X-6222100Y-5072100D01*
X-6222100Y-5072100D02*
X-7400000Y-6250000D01*
X-750000Y150000D02*
X-750000Y-1592800D01*
X-396600Y-1592800D02*
X-750000Y-1592800D01*
X213300Y-1118000D02*
X292100Y-1118000D01*
X213300Y-1118000D02*
X213300Y-2236900D01*
X213300Y-2236900D02*
X-3799800Y-6250000D01*
X-3799800Y-6250000D02*
X-5900000Y-6250000D01*
X-250000Y-805100D02*
X62900Y-1118000D01*
X62900Y-1118000D02*
X213300Y-1118000D01*
X-250000Y150000D02*
X-250000Y-805100D01*
X1750000Y150000D02*
X1750000Y1500000D01*
X1750000Y1500000D02*
X3100000Y2850000D01*
X4800000Y-6950000D02*
X4800000Y-6244900D01*
X2250000Y150000D02*
X2250000Y-805100D01*
X2250000Y-805100D02*
X2250000Y-3694900D01*
X2250000Y-3694900D02*
X4800000Y-6244900D01*
X9600000Y-1450000D02*
X9600000Y-900000D01*
X9600000Y-900000D02*
X8400000Y300000D01*
X6600000Y-3150000D02*
X8100000Y-3150000D01*
X6800000Y-7194900D02*
X6711900Y-7194900D01*
X6711900Y-7194900D02*
X6044800Y-6527800D01*
X6044800Y-6527800D02*
X6044800Y-3705200D01*
X6044800Y-3705200D02*
X6600000Y-3150000D01*
X6800000Y-7900000D02*
X6800000Y-7194900D01*
X6600000Y-1450000D02*
X5300000Y-150000D01*
X5300000Y-150000D02*
X5300000Y150000D01*
X5005800Y-10820700D02*
X5005800Y-9590100D01*
X5005800Y-9590100D02*
X3863900Y-8448200D01*
X3863900Y-8448200D02*
X-2178300Y-8448200D01*
X9600000Y-3150000D02*
X9600000Y-4174900D01*
X9600000Y-4174900D02*
X9710300Y-4285200D01*
X-7264900Y13450000D02*
X-6617800Y14097100D01*
X-6617800Y14097100D02*
X11931900Y14097100D01*
X11931900Y14097100D02*
X12779300Y13249700D01*
X12779300Y13249700D02*
X12779300Y2792500D01*
X12779300Y2792500D02*
X11204200Y1217400D01*
X-8100000Y13450000D02*
X-7264900Y13450000D01*
X-8935100Y13450000D02*
X-8935100Y12614900D01*
X-8935100Y12614900D02*
X-9800000Y11750000D01*
X-8100000Y13450000D02*
X-8935100Y13450000D01*
X8100000Y11550000D02*
X7264900Y11550000D01*
X5491500Y5034200D02*
X5491500Y8941500D01*
X5491500Y8941500D02*
X7264900Y10714900D01*
X7264900Y10714900D02*
X7264900Y11550000D01*
X8100000Y11550000D02*
X8935100Y11550000D01*
X9800000Y11750000D02*
X9135100Y11750000D01*
X9135100Y11750000D02*
X8935100Y11550000D01*
X3150000Y-14250000D02*
X1650000Y-14250000D01*
X4433800Y-11448000D02*
X4851400Y-11448000D01*
X4851400Y-11448000D02*
X5428100Y-12024700D01*
X5428100Y-12024700D02*
X5428100Y-13023300D01*
X5428100Y-13023300D02*
X5095300Y-13356100D01*
X5095300Y-13356100D02*
X4043900Y-13356100D01*
X4043900Y-13356100D02*
X3150000Y-14250000D01*
X-11912700Y1265200D02*
X-12700500Y2053000D01*
X-12700500Y2053000D02*
X-12700500Y3749500D01*
X-12700500Y3749500D02*
X-11900000Y4550000D01*
X-6000000Y2850000D02*
X-7584800Y1265200D01*
X-7584800Y1265200D02*
X-11912700Y1265200D01*
X-11300000Y-1000000D02*
X-11912700Y-387300D01*
X-11912700Y-387300D02*
X-11912700Y1265200D01*
X-2850000Y2850000D02*
X-6000000Y2850000D01*
X-11300000Y-1000000D02*
X-11300000Y-2200000D01*
X-11900000Y4550000D02*
X-12680700Y5330700D01*
X-12680700Y5330700D02*
X-12680700Y10624500D01*
X-12680700Y10624500D02*
X-12311700Y10993500D01*
X-2850000Y2038800D02*
X-2850000Y1205100D01*
X-2850000Y1205100D02*
X-2750000Y1105100D01*
X-2850000Y2850000D02*
X-2850000Y2038800D01*
X250000Y1105100D02*
X-987900Y1105100D01*
X-987900Y1105100D02*
X-1921600Y2038800D01*
X-1921600Y2038800D02*
X-2850000Y2038800D01*
X250000Y1105100D02*
X750000Y1105100D01*
X250000Y1063700D02*
X250000Y1105100D01*
X-2850000Y2850000D02*
X-2200000Y3500000D01*
X-2750000Y150000D02*
X-2750000Y1105100D01*
X-4459100Y-11384100D02*
X-5250000Y-12175000D01*
X-5250000Y-12175000D02*
X-5250000Y-12550000D01*
X-2679400Y-11384100D02*
X-4459100Y-11384100D01*
X-9467500Y-10050000D02*
X-8302700Y-8885200D01*
X-8302700Y-8885200D02*
X-5825400Y-8885200D01*
X-5825400Y-8885200D02*
X-5080000Y-9630600D01*
X-5080000Y-9630600D02*
X-5080000Y-10763200D01*
X-5080000Y-10763200D02*
X-4459100Y-11384100D01*
X-5250000Y-12550000D02*
X-5250000Y-12750000D01*
X-5250000Y-12750000D02*
X-6750000Y-14250000D01*
X-2679400Y-11384100D02*
X-2679400Y-11415500D01*
X-2679400Y-11415500D02*
X-2500000Y-11594900D01*
X-2500000Y-12350000D02*
X-2500000Y-11594900D01*
X-2904900Y10210100D02*
X-3094900Y10400000D01*
X-3094900Y10400000D02*
X-4000000Y10400000D01*
X-1600000Y8905100D02*
X-2904900Y10210100D01*
X-1775000Y11340000D02*
X-2904900Y10210100D01*
X-1600000Y7900000D02*
X-1600000Y8905100D01*
X-4000000Y10400000D02*
X-4006100Y10406100D01*
X-4006100Y10406100D02*
X-8187500Y10406100D01*
X-8187500Y10406100D02*
X-8935200Y11153800D01*
X-9467500Y-10050000D02*
X-10045100Y-10050000D01*
X-8890000Y-10050000D02*
X-9467500Y-10050000D01*
X1650000Y-14250000D02*
X578200Y-13178200D01*
X578200Y-13178200D02*
X-250000Y-13178200D01*
X-11450000Y-10050000D02*
X-10045100Y-10050000D01*
X-12400000Y-11000000D02*
X-11450000Y-10050000D01*
X-11300000Y-2200000D02*
X-12702500Y-3602500D01*
X-12702500Y-3602500D02*
X-12702500Y-8797500D01*
X-12702500Y-8797500D02*
X-11450000Y-10050000D01*
X-250000Y-13178200D02*
X-666700Y-13594900D01*
X-666700Y-13594900D02*
X-1100000Y-13594900D01*
X-250000Y-13178200D02*
X-250000Y-13105100D01*
X-12311700Y10993500D02*
X-9095500Y10993500D01*
X-9095500Y10993500D02*
X-8935200Y11153800D01*
X-11500000Y13250000D02*
X-12311700Y12438300D01*
X-12311700Y12438300D02*
X-12311700Y10993500D01*
X-8935200Y11153800D02*
X-8935200Y11967900D01*
X-8935200Y11967900D02*
X-8403100Y12500000D01*
X-8403100Y12500000D02*
X-8100000Y12500000D01*
X-10850000Y-13400000D02*
X-11685100Y-13400000D01*
X-12400000Y-11000000D02*
X-12400000Y-12685100D01*
X-12400000Y-12685100D02*
X-11685100Y-13400000D01*
X12000000Y-1000000D02*
X10520200Y479800D01*
X10520200Y479800D02*
X10520200Y6887800D01*
X10520200Y6887800D02*
X9210500Y8197500D01*
X9210500Y8197500D02*
X12355600Y11342600D01*
X12355600Y11342600D02*
X12355600Y12394400D01*
X12355600Y12394400D02*
X11500000Y13250000D01*
X8400000Y8197500D02*
X9210500Y8197500D01*
X10356000Y-2644000D02*
X12000000Y-1000000D01*
X10356000Y-2644000D02*
X10056000Y-2344000D01*
X10056000Y-2344000D02*
X8994000Y-2344000D01*
X8994000Y-2344000D02*
X8100000Y-1450000D01*
X9800000Y-5194900D02*
X10356000Y-4638900D01*
X10356000Y-4638900D02*
X10356000Y-2644000D01*
X8400000Y8700000D02*
X8400000Y8197500D01*
X1600000Y4550000D02*
X550000Y3500000D01*
X550000Y3500000D02*
X-2200000Y3500000D01*
X3921900Y5360600D02*
X2410600Y5360600D01*
X2410600Y5360600D02*
X1600000Y4550000D01*
X250000Y150000D02*
X250000Y1063700D01*
X750000Y150000D02*
X750000Y1105100D01*
X-1100000Y-14350000D02*
X-1100000Y-13594900D01*
X-250000Y-12350000D02*
X-250000Y-13105100D01*
X6800000Y-6000000D02*
X6800000Y-5294900D01*
X3921900Y5360600D02*
X4000000Y5438700D01*
X4000000Y5438700D02*
X4000000Y8594900D01*
X2750000Y1105100D02*
X3921900Y2277000D01*
X3921900Y2277000D02*
X3921900Y5360600D01*
X8100000Y12500000D02*
X7264900Y12500000D01*
X7264900Y12500000D02*
X6837900Y12073000D01*
X6837900Y12073000D02*
X6837900Y11266800D01*
X6837900Y11266800D02*
X5971100Y10400000D01*
X5971100Y10400000D02*
X4000000Y10400000D01*
X2750000Y150000D02*
X2750000Y1105100D01*
X4000000Y10400000D02*
X4000000Y8594900D01*
X6800000Y-5294900D02*
X6900000Y-5194900D01*
X6900000Y-5194900D02*
X9800000Y-5194900D01*
X-11900000Y4550000D02*
X-10400000Y4550000D01*
X9800000Y-6500000D02*
X9800000Y-5194900D01*
X-5900000Y-7950000D02*
X-4813400Y-7950000D01*
X-4813400Y-7950000D02*
X1250000Y-1886600D01*
X1250000Y-1886600D02*
X1250000Y-805100D01*
X-8900000Y-7950000D02*
X-10400000Y-7950000D01*
X-7400000Y-7950000D02*
X-8900000Y-7950000D01*
X1250000Y150000D02*
X1250000Y-805100D01*
X-7400000Y-7950000D02*
X-5900000Y-7950000D01*
X1250000Y2000000D02*
X1250000Y150000D01*
X-10400000Y-7950000D02*
X-11900000Y-7950000D01*
X1250000Y2000000D02*
X1250000Y2500000D01*
X1250000Y2500000D02*
X1600000Y2850000D01*
X1250000Y2000000D02*
X705100Y2000000D01*
X-350000Y2000000D02*
X705100Y2000000D01*
X1600000Y2850000D02*
X1600000Y3050000D01*
X1600000Y3050000D02*
X3100000Y4550000D01*
X-10400000Y2850000D02*
X-9441300Y1891300D01*
X-9441300Y1891300D02*
X-8294000Y1891300D01*
X8300000Y-6500000D02*
X8300000Y-7805100D01*
X8300000Y-7805100D02*
X7734800Y-8370300D01*
X7734800Y-8370300D02*
X7734800Y-11300900D01*
X7734800Y-11300900D02*
X4785700Y-14250000D01*
X4785700Y-14250000D02*
X4650000Y-14250000D01*
X-1800000Y-12350000D02*
X-1800000Y-11169900D01*
X-1800000Y-11169900D02*
X-2449200Y-10520700D01*
X-2449200Y-10520700D02*
X-2449200Y-9595500D01*
X-2449200Y-9595500D02*
X-1748500Y-8894800D01*
X-1748500Y-8894800D02*
X1751100Y-8894800D01*
X1751100Y-8894800D02*
X2540000Y-9683700D01*
X2540000Y-9683700D02*
X2540000Y-11940000D01*
X2540000Y-11940000D02*
X3150000Y-12550000D01*
X4650000Y-12550000D02*
X3150000Y-12550000D01*
X-4287300Y-13105100D02*
X-4287300Y-13088400D01*
X-5250000Y-14250000D02*
X-4287300Y-13287300D01*
X-4287300Y-13287300D02*
X-4287300Y-13105100D01*
X-4287300Y-13105100D02*
X-1100000Y-13105100D01*
X-7814900Y-12450000D02*
X-7814900Y-12060600D01*
X-7814900Y-12060600D02*
X-7662500Y-11908200D01*
X-8650000Y-12450000D02*
X-7814900Y-12450000D01*
X-1100000Y-12350000D02*
X-1100000Y-13105100D01*
X-1100000Y-12350000D02*
X-1100000Y-11594900D01*
X-1100000Y-11594900D02*
X694900Y-11594900D01*
X694900Y-11594900D02*
X1650000Y-12550000D01*
X-8650000Y-14350000D02*
X-7814900Y-14350000D01*
X-6750000Y-12550000D02*
X-7814900Y-13614900D01*
X-7814900Y-13614900D02*
X-7814900Y-14350000D01*
X-9800000Y13250000D02*
X-10000000Y13250000D01*
X-10000000Y13250000D02*
X-11500000Y11750000D01*
X9800000Y13250000D02*
X10000000Y13250000D01*
X10000000Y13250000D02*
X11500000Y11750000D01*
X440000Y11119200D02*
X2119500Y9439700D01*
X2119500Y9439700D02*
X2119500Y7088000D01*
X2119500Y7088000D02*
X754900Y5723400D01*
X754900Y5723400D02*
X-1425300Y5723400D01*
X-1425300Y5723400D02*
X-1614000Y5534700D01*
X4781400Y8009700D02*
X4781400Y1940700D01*
X4781400Y1940700D02*
X3156800Y316100D01*
X3156800Y316100D02*
X3156800Y-3039000D01*
X3156800Y-3039000D02*
X2862500Y-3333300D01*
X-3350000Y-12350000D02*
X-3980100Y-12350000D01*
X-4204200Y-12039700D02*
X-3980100Y-12263800D01*
X-3980100Y-12263800D02*
X-3980100Y-12350000D01*
X-2500000Y-14350000D02*
X-2500000Y-13594900D01*
X-4196600Y-14074200D02*
X-4196600Y-13948900D01*
X-4196600Y-13948900D02*
X-3842600Y-13594900D01*
X-3842600Y-13594900D02*
X-2500000Y-13594900D01*
X-8100000Y11550000D02*
X-7150000Y11550000D01*
X8100000Y13450000D02*
X7150000Y13450000D01*
M02*
