G04 #@! TF.GenerationSoftware,KiCad,Pcbnew,(5.1.9-0-10_14)*
G04 #@! TF.CreationDate,2021-07-10T20:48:45+09:00*
G04 #@! TF.ProjectId,RL78Display,524c3738-4469-4737-906c-61792e6b6963,V2.1*
G04 #@! TF.SameCoordinates,Original*
G04 #@! TF.FileFunction,Legend,Bot*
G04 #@! TF.FilePolarity,Positive*
%FSLAX46Y46*%
G04 Gerber Fmt 4.6, Leading zero omitted, Abs format (unit mm)*
G04 Created by KiCad (PCBNEW (5.1.9-0-10_14)) date 2021-07-10 20:48:45*
%MOMM*%
%LPD*%
G01*
G04 APERTURE LIST*
%ADD10C,0.200000*%
%ADD11C,0.150000*%
%ADD12C,0.120000*%
G04 APERTURE END LIST*
D10*
X7954761Y-13588095D02*
X8388095Y-12969047D01*
X8697619Y-13588095D02*
X8697619Y-12288095D01*
X8202380Y-12288095D01*
X8078571Y-12350000D01*
X8016666Y-12411904D01*
X7954761Y-12535714D01*
X7954761Y-12721428D01*
X8016666Y-12845238D01*
X8078571Y-12907142D01*
X8202380Y-12969047D01*
X8697619Y-12969047D01*
X6778571Y-13588095D02*
X7397619Y-13588095D01*
X7397619Y-12288095D01*
X6469047Y-12288095D02*
X5602380Y-12288095D01*
X6159523Y-13588095D01*
X4921428Y-12845238D02*
X5045238Y-12783333D01*
X5107142Y-12721428D01*
X5169047Y-12597619D01*
X5169047Y-12535714D01*
X5107142Y-12411904D01*
X5045238Y-12350000D01*
X4921428Y-12288095D01*
X4673809Y-12288095D01*
X4550000Y-12350000D01*
X4488095Y-12411904D01*
X4426190Y-12535714D01*
X4426190Y-12597619D01*
X4488095Y-12721428D01*
X4550000Y-12783333D01*
X4673809Y-12845238D01*
X4921428Y-12845238D01*
X5045238Y-12907142D01*
X5107142Y-12969047D01*
X5169047Y-13092857D01*
X5169047Y-13340476D01*
X5107142Y-13464285D01*
X5045238Y-13526190D01*
X4921428Y-13588095D01*
X4673809Y-13588095D01*
X4550000Y-13526190D01*
X4488095Y-13464285D01*
X4426190Y-13340476D01*
X4426190Y-13092857D01*
X4488095Y-12969047D01*
X4550000Y-12907142D01*
X4673809Y-12845238D01*
X2878571Y-13588095D02*
X2878571Y-12288095D01*
X2569047Y-12288095D01*
X2383333Y-12350000D01*
X2259523Y-12473809D01*
X2197619Y-12597619D01*
X2135714Y-12845238D01*
X2135714Y-13030952D01*
X2197619Y-13278571D01*
X2259523Y-13402380D01*
X2383333Y-13526190D01*
X2569047Y-13588095D01*
X2878571Y-13588095D01*
X1578571Y-13588095D02*
X1578571Y-12721428D01*
X1578571Y-12288095D02*
X1640476Y-12350000D01*
X1578571Y-12411904D01*
X1516666Y-12350000D01*
X1578571Y-12288095D01*
X1578571Y-12411904D01*
X1021428Y-13526190D02*
X897619Y-13588095D01*
X650000Y-13588095D01*
X526190Y-13526190D01*
X464285Y-13402380D01*
X464285Y-13340476D01*
X526190Y-13216666D01*
X650000Y-13154761D01*
X835714Y-13154761D01*
X959523Y-13092857D01*
X1021428Y-12969047D01*
X1021428Y-12907142D01*
X959523Y-12783333D01*
X835714Y-12721428D01*
X650000Y-12721428D01*
X526190Y-12783333D01*
X-92857Y-12721428D02*
X-92857Y-14021428D01*
X-92857Y-12783333D02*
X-216666Y-12721428D01*
X-464285Y-12721428D01*
X-588095Y-12783333D01*
X-649999Y-12845238D01*
X-711904Y-12969047D01*
X-711904Y-13340476D01*
X-649999Y-13464285D01*
X-588095Y-13526190D01*
X-464285Y-13588095D01*
X-216666Y-13588095D01*
X-92857Y-13526190D01*
X-1454761Y-13588095D02*
X-1330952Y-13526190D01*
X-1269047Y-13402380D01*
X-1269047Y-12288095D01*
X-2507142Y-13588095D02*
X-2507142Y-12907142D01*
X-2445238Y-12783333D01*
X-2321428Y-12721428D01*
X-2073809Y-12721428D01*
X-1949999Y-12783333D01*
X-2507142Y-13526190D02*
X-2383333Y-13588095D01*
X-2073809Y-13588095D01*
X-1949999Y-13526190D01*
X-1888095Y-13402380D01*
X-1888095Y-13278571D01*
X-1949999Y-13154761D01*
X-2073809Y-13092857D01*
X-2383333Y-13092857D01*
X-2507142Y-13030952D01*
X-3002380Y-12721428D02*
X-3311904Y-13588095D01*
X-3621428Y-12721428D02*
X-3311904Y-13588095D01*
X-3188095Y-13897619D01*
X-3126190Y-13959523D01*
X-3002380Y-14021428D01*
X-4921428Y-12288095D02*
X-5354761Y-13588095D01*
X-5788095Y-12288095D01*
X-6159523Y-12411904D02*
X-6221428Y-12350000D01*
X-6345238Y-12288095D01*
X-6654761Y-12288095D01*
X-6778571Y-12350000D01*
X-6840476Y-12411904D01*
X-6902380Y-12535714D01*
X-6902380Y-12659523D01*
X-6840476Y-12845238D01*
X-6097619Y-13588095D01*
X-6902380Y-13588095D01*
X-7459523Y-13464285D02*
X-7521428Y-13526190D01*
X-7459523Y-13588095D01*
X-7397619Y-13526190D01*
X-7459523Y-13464285D01*
X-7459523Y-13588095D01*
X-8759523Y-13588095D02*
X-8016666Y-13588095D01*
X-8388095Y-13588095D02*
X-8388095Y-12288095D01*
X-8264285Y-12473809D01*
X-8140476Y-12597619D01*
X-8016666Y-12659523D01*
D11*
X5500000Y-8802380D02*
X5833333Y-8326190D01*
X6071428Y-8802380D02*
X6071428Y-7802380D01*
X5690476Y-7802380D01*
X5595238Y-7850000D01*
X5547619Y-7897619D01*
X5500000Y-7992857D01*
X5500000Y-8135714D01*
X5547619Y-8230952D01*
X5595238Y-8278571D01*
X5690476Y-8326190D01*
X6071428Y-8326190D01*
X4595238Y-8802380D02*
X5071428Y-8802380D01*
X5071428Y-7802380D01*
X4357142Y-7802380D02*
X3690476Y-7802380D01*
X4119047Y-8802380D01*
X3166666Y-8230952D02*
X3261904Y-8183333D01*
X3309523Y-8135714D01*
X3357142Y-8040476D01*
X3357142Y-7992857D01*
X3309523Y-7897619D01*
X3261904Y-7850000D01*
X3166666Y-7802380D01*
X2976190Y-7802380D01*
X2880952Y-7850000D01*
X2833333Y-7897619D01*
X2785714Y-7992857D01*
X2785714Y-8040476D01*
X2833333Y-8135714D01*
X2880952Y-8183333D01*
X2976190Y-8230952D01*
X3166666Y-8230952D01*
X3261904Y-8278571D01*
X3309523Y-8326190D01*
X3357142Y-8421428D01*
X3357142Y-8611904D01*
X3309523Y-8707142D01*
X3261904Y-8754761D01*
X3166666Y-8802380D01*
X2976190Y-8802380D01*
X2880952Y-8754761D01*
X2833333Y-8707142D01*
X2785714Y-8611904D01*
X2785714Y-8421428D01*
X2833333Y-8326190D01*
X2880952Y-8278571D01*
X2976190Y-8230952D01*
X1642857Y-7754761D02*
X2500000Y-9040476D01*
X785714Y-7850000D02*
X880952Y-7802380D01*
X1023809Y-7802380D01*
X1166666Y-7850000D01*
X1261904Y-7945238D01*
X1309523Y-8040476D01*
X1357142Y-8230952D01*
X1357142Y-8373809D01*
X1309523Y-8564285D01*
X1261904Y-8659523D01*
X1166666Y-8754761D01*
X1023809Y-8802380D01*
X928571Y-8802380D01*
X785714Y-8754761D01*
X738095Y-8707142D01*
X738095Y-8373809D01*
X928571Y-8373809D01*
X-214285Y-8802380D02*
X357142Y-8802380D01*
X71428Y-8802380D02*
X71428Y-7802380D01*
X166666Y-7945238D01*
X261904Y-8040476D01*
X357142Y-8088095D01*
X-547619Y-7802380D02*
X-1166666Y-7802380D01*
X-833333Y-8183333D01*
X-976190Y-8183333D01*
X-1071428Y-8230952D01*
X-1119047Y-8278571D01*
X-1166666Y-8373809D01*
X-1166666Y-8611904D01*
X-1119047Y-8707142D01*
X-1071428Y-8754761D01*
X-976190Y-8802380D01*
X-690476Y-8802380D01*
X-595238Y-8754761D01*
X-547619Y-8707142D01*
X-2785714Y-7802380D02*
X-2595238Y-7802380D01*
X-2499999Y-7850000D01*
X-2452380Y-7897619D01*
X-2357142Y-8040476D01*
X-2309523Y-8230952D01*
X-2309523Y-8611904D01*
X-2357142Y-8707142D01*
X-2404761Y-8754761D01*
X-2499999Y-8802380D01*
X-2690476Y-8802380D01*
X-2785714Y-8754761D01*
X-2833333Y-8707142D01*
X-2880952Y-8611904D01*
X-2880952Y-8373809D01*
X-2833333Y-8278571D01*
X-2785714Y-8230952D01*
X-2690476Y-8183333D01*
X-2499999Y-8183333D01*
X-2404761Y-8230952D01*
X-2357142Y-8278571D01*
X-2309523Y-8373809D01*
X-3738095Y-8135714D02*
X-3738095Y-8802380D01*
X-3499999Y-7754761D02*
X-3261904Y-8469047D01*
X-3880952Y-8469047D01*
X-4261904Y-8135714D02*
X-4261904Y-9135714D01*
X-4261904Y-8183333D02*
X-4357142Y-8135714D01*
X-4547619Y-8135714D01*
X-4642857Y-8183333D01*
X-4690476Y-8230952D01*
X-4738095Y-8326190D01*
X-4738095Y-8611904D01*
X-4690476Y-8707142D01*
X-4642857Y-8754761D01*
X-4547619Y-8802380D01*
X-4357142Y-8802380D01*
X-4261904Y-8754761D01*
X-5166666Y-8802380D02*
X-5166666Y-8135714D01*
X-5166666Y-7802380D02*
X-5119047Y-7850000D01*
X-5166666Y-7897619D01*
X-5214285Y-7850000D01*
X-5166666Y-7802380D01*
X-5166666Y-7897619D01*
X-5642857Y-8135714D02*
X-5642857Y-8802380D01*
X-5642857Y-8230952D02*
X-5690476Y-8183333D01*
X-5785714Y-8135714D01*
X-5928571Y-8135714D01*
X-6023809Y-8183333D01*
X-6071428Y-8278571D01*
X-6071428Y-8802380D01*
X10390595Y-4500000D02*
X10485833Y-4452380D01*
X10628690Y-4452380D01*
X10771547Y-4500000D01*
X10866785Y-4595238D01*
X10914404Y-4690476D01*
X10962023Y-4880952D01*
X10962023Y-5023809D01*
X10914404Y-5214285D01*
X10866785Y-5309523D01*
X10771547Y-5404761D01*
X10628690Y-5452380D01*
X10533452Y-5452380D01*
X10390595Y-5404761D01*
X10342976Y-5357142D01*
X10342976Y-5023809D01*
X10533452Y-5023809D01*
X9914404Y-5452380D02*
X9914404Y-4452380D01*
X9533452Y-4452380D01*
X9438214Y-4500000D01*
X9390595Y-4547619D01*
X9342976Y-4642857D01*
X9342976Y-4785714D01*
X9390595Y-4880952D01*
X9438214Y-4928571D01*
X9533452Y-4976190D01*
X9914404Y-4976190D01*
X8914404Y-5452380D02*
X8914404Y-4452380D01*
X8247738Y-4452380D02*
X8057261Y-4452380D01*
X7962023Y-4500000D01*
X7866785Y-4595238D01*
X7819166Y-4785714D01*
X7819166Y-5119047D01*
X7866785Y-5309523D01*
X7962023Y-5404761D01*
X8057261Y-5452380D01*
X8247738Y-5452380D01*
X8342976Y-5404761D01*
X8438214Y-5309523D01*
X8485833Y-5119047D01*
X8485833Y-4785714D01*
X8438214Y-4595238D01*
X8342976Y-4500000D01*
X8247738Y-4452380D01*
X10390595Y-500000D02*
X10485833Y-452380D01*
X10628690Y-452380D01*
X10771547Y-500000D01*
X10866785Y-595238D01*
X10914404Y-690476D01*
X10962023Y-880952D01*
X10962023Y-1023809D01*
X10914404Y-1214285D01*
X10866785Y-1309523D01*
X10771547Y-1404761D01*
X10628690Y-1452380D01*
X10533452Y-1452380D01*
X10390595Y-1404761D01*
X10342976Y-1357142D01*
X10342976Y-1023809D01*
X10533452Y-1023809D01*
X9914404Y-1452380D02*
X9914404Y-452380D01*
X9342976Y-1452380D01*
X9342976Y-452380D01*
X8866785Y-1452380D02*
X8866785Y-452380D01*
X8628690Y-452380D01*
X8485833Y-500000D01*
X8390595Y-595238D01*
X8342976Y-690476D01*
X8295357Y-880952D01*
X8295357Y-1023809D01*
X8342976Y-1214285D01*
X8390595Y-1309523D01*
X8485833Y-1404761D01*
X8628690Y-1452380D01*
X8866785Y-1452380D01*
X10438214Y-2452380D02*
X10914404Y-2452380D01*
X10962023Y-2928571D01*
X10914404Y-2880952D01*
X10819166Y-2833333D01*
X10581071Y-2833333D01*
X10485833Y-2880952D01*
X10438214Y-2928571D01*
X10390595Y-3023809D01*
X10390595Y-3261904D01*
X10438214Y-3357142D01*
X10485833Y-3404761D01*
X10581071Y-3452380D01*
X10819166Y-3452380D01*
X10914404Y-3404761D01*
X10962023Y-3357142D01*
X10104880Y-2452380D02*
X9771547Y-3452380D01*
X9438214Y-2452380D01*
D10*
X-8100000Y-4875000D02*
G75*
G03*
X-8100000Y-4875000I-100000J0D01*
G01*
D12*
X6100000Y-6100000D02*
X5300000Y-6100000D01*
X6100000Y-5300000D02*
X6100000Y-6100000D01*
X6100000Y6100000D02*
X6100000Y5300000D01*
X5300000Y6100000D02*
X6100000Y6100000D01*
X-6100000Y6100000D02*
X-5300000Y6100000D01*
X-6100000Y5300000D02*
X-6100000Y6100000D01*
X-6100000Y-6100000D02*
X-6100000Y-5300000D01*
X-5300000Y-6100000D02*
X-6100000Y-6100000D01*
M02*
