G04 #@! TF.GenerationSoftware,KiCad,Pcbnew,(5.1.9-0-10_14)*
G04 #@! TF.CreationDate,2021-05-08T08:27:26+09:00*
G04 #@! TF.ProjectId,RL78Display,524c3738-4469-4737-906c-61792e6b6963,V1.1*
G04 #@! TF.SameCoordinates,Original*
G04 #@! TF.FileFunction,Legend,Top*
G04 #@! TF.FilePolarity,Positive*
%FSLAX46Y46*%
G04 Gerber Fmt 4.6, Leading zero omitted, Abs format (unit mm)*
G04 Created by KiCad (PCBNEW (5.1.9-0-10_14)) date 2021-05-08 08:27:26*
%MOMM*%
%LPD*%
G01*
G04 APERTURE LIST*
%ADD10C,0.120000*%
%ADD11C,0.100000*%
%ADD12C,0.150000*%
G04 APERTURE END LIST*
D10*
X-12650000Y-5450000D02*
X-12650000Y-8750000D01*
X-11150000Y-5450000D02*
X-11150000Y-8750000D01*
X-11150000Y-8750000D02*
X-12650000Y-8750000D01*
X-11150000Y-5450000D02*
X-12650000Y-5450000D01*
X-11150000Y-5450000D02*
X-11150000Y-8750000D01*
X-9650000Y-5450000D02*
X-9650000Y-8750000D01*
X-9650000Y-8750000D02*
X-11150000Y-8750000D01*
X-9650000Y-5450000D02*
X-11150000Y-5450000D01*
X-9650000Y-5450000D02*
X-9650000Y-8750000D01*
X-8150000Y-5450000D02*
X-8150000Y-8750000D01*
X-8150000Y-8750000D02*
X-9650000Y-8750000D01*
X-8150000Y-5450000D02*
X-9650000Y-5450000D01*
X-8150000Y-5450000D02*
X-8150000Y-8750000D01*
X-6650000Y-5450000D02*
X-6650000Y-8750000D01*
X-6650000Y-8750000D02*
X-8150000Y-8750000D01*
X-6650000Y-5450000D02*
X-8150000Y-5450000D01*
X-6650000Y-5450000D02*
X-6650000Y-8750000D01*
X-5150000Y-5450000D02*
X-5150000Y-8750000D01*
X-5150000Y-8750000D02*
X-6650000Y-8750000D01*
X-5150000Y-5450000D02*
X-6650000Y-5450000D01*
X12600000Y300000D02*
X10400000Y300000D01*
X12600000Y8700000D02*
X12600000Y300000D01*
X10400000Y8700000D02*
X12600000Y8700000D01*
X4200000Y8700000D02*
X6500000Y8700000D01*
X4200000Y300000D02*
X4200000Y8700000D01*
X6500000Y300000D02*
X4200000Y300000D01*
X5700000Y11200000D02*
X5700000Y14400000D01*
X12700000Y11200000D02*
X5700000Y11200000D01*
X12700000Y14300000D02*
X12700000Y11200000D01*
X-12700000Y11200000D02*
X-12700000Y14400000D01*
X-5700000Y11200000D02*
X-12700000Y11200000D01*
X-5700000Y14300000D02*
X-5700000Y11200000D01*
X-7900000Y500000D02*
X-7900000Y-3700000D01*
X-7900000Y-3700000D02*
X-10100000Y-3700000D01*
X-10100000Y-3700000D02*
X-10100000Y500000D01*
X-10100000Y500000D02*
X-7900000Y500000D01*
X-3500000Y5600000D02*
X-3500000Y5800000D01*
X-3500000Y5800000D02*
X-900000Y5800000D01*
X-900000Y5800000D02*
X-900000Y5600000D01*
X-3500000Y1400000D02*
X-3500000Y1200000D01*
X-3500000Y1200000D02*
X-900000Y1200000D01*
X-900000Y1200000D02*
X-900000Y1400000D01*
X8850000Y-650000D02*
X8850000Y-3950000D01*
X10350000Y-650000D02*
X10350000Y-3950000D01*
X10350000Y-3950000D02*
X8850000Y-3950000D01*
X10350000Y-650000D02*
X8850000Y-650000D01*
X8850000Y-3950000D02*
X8850000Y-650000D01*
X7350000Y-3950000D02*
X7350000Y-650000D01*
X7350000Y-650000D02*
X8850000Y-650000D01*
X7350000Y-3950000D02*
X8850000Y-3950000D01*
X7350000Y-3950000D02*
X7350000Y-650000D01*
X5850000Y-3950000D02*
X5850000Y-650000D01*
X5850000Y-650000D02*
X7350000Y-650000D01*
X5850000Y-3950000D02*
X7350000Y-3950000D01*
X3850000Y2050000D02*
X3850000Y5350000D01*
X2350000Y2050000D02*
X2350000Y5350000D01*
X2350000Y5350000D02*
X3850000Y5350000D01*
X2350000Y2050000D02*
X3850000Y2050000D01*
X-9650000Y7350000D02*
X-9650000Y10650000D01*
X-11150000Y7350000D02*
X-11150000Y10650000D01*
X-11150000Y10650000D02*
X-9650000Y10650000D01*
X-11150000Y7350000D02*
X-9650000Y7350000D01*
X-8150000Y2050000D02*
X-8150000Y5350000D01*
X-9650000Y2050000D02*
X-9650000Y5350000D01*
X-9650000Y5350000D02*
X-8150000Y5350000D01*
X-9650000Y2050000D02*
X-8150000Y2050000D01*
X9860000Y-8680000D02*
X8400000Y-8680000D01*
X9860000Y-5520000D02*
X8400000Y-5520000D01*
X9860000Y-5520000D02*
X9860000Y-6450000D01*
X9860000Y-8680000D02*
X9860000Y-7750000D01*
X-8150000Y7350000D02*
X-8150000Y10650000D01*
X-9650000Y7350000D02*
X-9650000Y10650000D01*
X-9650000Y10650000D02*
X-8150000Y10650000D01*
X-9650000Y7350000D02*
X-8150000Y7350000D01*
X4650000Y-6200000D02*
X4650000Y-4460000D01*
X-4650000Y-6200000D02*
X4650000Y-6200000D01*
X-4650000Y-4460000D02*
X-4650000Y-6200000D01*
X4650000Y-400000D02*
X4650000Y-1740000D01*
X3160000Y-400000D02*
X4650000Y-400000D01*
X-4650000Y-400000D02*
X-4650000Y-1740000D01*
X-3160000Y-400000D02*
X-4650000Y-400000D01*
X-10220000Y-9370000D02*
X-10220000Y-12030000D01*
X7620000Y-9370000D02*
X-10220000Y-9370000D01*
X7620000Y-12030000D02*
X-10220000Y-12030000D01*
X7620000Y-9370000D02*
X7620000Y-12030000D01*
X8890000Y-9370000D02*
X10220000Y-9370000D01*
X10220000Y-9370000D02*
X10220000Y-10700000D01*
X-8150000Y10650000D02*
X-8150000Y7350000D01*
X-6650000Y10650000D02*
X-6650000Y7350000D01*
X-6650000Y7350000D02*
X-8150000Y7350000D01*
X-6650000Y10650000D02*
X-8150000Y10650000D01*
X-11150000Y7350000D02*
X-11150000Y10650000D01*
X-12650000Y7350000D02*
X-12650000Y10650000D01*
X-12650000Y10650000D02*
X-11150000Y10650000D01*
X-12650000Y7350000D02*
X-11150000Y7350000D01*
X-9650000Y2050000D02*
X-9650000Y5350000D01*
X-11150000Y2050000D02*
X-11150000Y5350000D01*
X-11150000Y5350000D02*
X-9650000Y5350000D01*
X-11150000Y2050000D02*
X-9650000Y2050000D01*
X-11150000Y2050000D02*
X-11150000Y5350000D01*
X-12650000Y2050000D02*
X-12650000Y5350000D01*
X-12650000Y5350000D02*
X-11150000Y5350000D01*
X-12650000Y2050000D02*
X-11150000Y2050000D01*
X7350000Y-8750000D02*
X7350000Y-5450000D01*
X5850000Y-8750000D02*
X5850000Y-5450000D01*
X5850000Y-5450000D02*
X7350000Y-5450000D01*
X5850000Y-8750000D02*
X7350000Y-8750000D01*
X2350000Y2050000D02*
X2350000Y5350000D01*
X850000Y2050000D02*
X850000Y5350000D01*
X850000Y5350000D02*
X2350000Y5350000D01*
X850000Y2050000D02*
X2350000Y2050000D01*
X-6750000Y5350000D02*
X-6750000Y2050000D01*
X-5250000Y5350000D02*
X-5250000Y2050000D01*
X-5250000Y2050000D02*
X-6750000Y2050000D01*
X-5250000Y5350000D02*
X-6750000Y5350000D01*
X-10100000Y-1700000D02*
X-11100000Y-1700000D01*
X-10100000Y-3700000D02*
X-11100000Y-3700000D01*
X-10100000Y-3700000D02*
X-10100000Y-1700000D01*
X-11100000Y-3700000D02*
X-11100000Y-1700000D01*
X-11100000Y-1500000D02*
X-10100000Y-1500000D01*
X-11100000Y500000D02*
X-10100000Y500000D01*
X-11100000Y500000D02*
X-11100000Y-1500000D01*
X-10100000Y500000D02*
X-10100000Y-1500000D01*
D11*
X-12285714Y-5271428D02*
X-12485714Y-4985714D01*
X-12628571Y-5271428D02*
X-12628571Y-4671428D01*
X-12400000Y-4671428D01*
X-12342857Y-4700000D01*
X-12314285Y-4728571D01*
X-12285714Y-4785714D01*
X-12285714Y-4871428D01*
X-12314285Y-4928571D01*
X-12342857Y-4957142D01*
X-12400000Y-4985714D01*
X-12628571Y-4985714D01*
X-11714285Y-5271428D02*
X-12057142Y-5271428D01*
X-11885714Y-5271428D02*
X-11885714Y-4671428D01*
X-11942857Y-4757142D01*
X-12000000Y-4814285D01*
X-12057142Y-4842857D01*
X-11142857Y-5271428D02*
X-11485714Y-5271428D01*
X-11314285Y-5271428D02*
X-11314285Y-4671428D01*
X-11371428Y-4757142D01*
X-11428571Y-4814285D01*
X-11485714Y-4842857D01*
X-10785714Y-5271428D02*
X-10985714Y-4985714D01*
X-11128571Y-5271428D02*
X-11128571Y-4671428D01*
X-10900000Y-4671428D01*
X-10842857Y-4700000D01*
X-10814285Y-4728571D01*
X-10785714Y-4785714D01*
X-10785714Y-4871428D01*
X-10814285Y-4928571D01*
X-10842857Y-4957142D01*
X-10900000Y-4985714D01*
X-11128571Y-4985714D01*
X-10214285Y-5271428D02*
X-10557142Y-5271428D01*
X-10385714Y-5271428D02*
X-10385714Y-4671428D01*
X-10442857Y-4757142D01*
X-10500000Y-4814285D01*
X-10557142Y-4842857D01*
X-9842857Y-4671428D02*
X-9785714Y-4671428D01*
X-9728571Y-4700000D01*
X-9700000Y-4728571D01*
X-9671428Y-4785714D01*
X-9642857Y-4900000D01*
X-9642857Y-5042857D01*
X-9671428Y-5157142D01*
X-9700000Y-5214285D01*
X-9728571Y-5242857D01*
X-9785714Y-5271428D01*
X-9842857Y-5271428D01*
X-9900000Y-5242857D01*
X-9928571Y-5214285D01*
X-9957142Y-5157142D01*
X-9985714Y-5042857D01*
X-9985714Y-4900000D01*
X-9957142Y-4785714D01*
X-9928571Y-4728571D01*
X-9900000Y-4700000D01*
X-9842857Y-4671428D01*
X-9000000Y-5271428D02*
X-9200000Y-4985714D01*
X-9342857Y-5271428D02*
X-9342857Y-4671428D01*
X-9114285Y-4671428D01*
X-9057142Y-4700000D01*
X-9028571Y-4728571D01*
X-9000000Y-4785714D01*
X-9000000Y-4871428D01*
X-9028571Y-4928571D01*
X-9057142Y-4957142D01*
X-9114285Y-4985714D01*
X-9342857Y-4985714D01*
X-8714285Y-5271428D02*
X-8600000Y-5271428D01*
X-8542857Y-5242857D01*
X-8514285Y-5214285D01*
X-8457142Y-5128571D01*
X-8428571Y-5014285D01*
X-8428571Y-4785714D01*
X-8457142Y-4728571D01*
X-8485714Y-4700000D01*
X-8542857Y-4671428D01*
X-8657142Y-4671428D01*
X-8714285Y-4700000D01*
X-8742857Y-4728571D01*
X-8771428Y-4785714D01*
X-8771428Y-4928571D01*
X-8742857Y-4985714D01*
X-8714285Y-5014285D01*
X-8657142Y-5042857D01*
X-8542857Y-5042857D01*
X-8485714Y-5014285D01*
X-8457142Y-4985714D01*
X-8428571Y-4928571D01*
X-7500000Y-5271428D02*
X-7700000Y-4985714D01*
X-7842857Y-5271428D02*
X-7842857Y-4671428D01*
X-7614285Y-4671428D01*
X-7557142Y-4700000D01*
X-7528571Y-4728571D01*
X-7500000Y-4785714D01*
X-7500000Y-4871428D01*
X-7528571Y-4928571D01*
X-7557142Y-4957142D01*
X-7614285Y-4985714D01*
X-7842857Y-4985714D01*
X-7157142Y-4928571D02*
X-7214285Y-4900000D01*
X-7242857Y-4871428D01*
X-7271428Y-4814285D01*
X-7271428Y-4785714D01*
X-7242857Y-4728571D01*
X-7214285Y-4700000D01*
X-7157142Y-4671428D01*
X-7042857Y-4671428D01*
X-6985714Y-4700000D01*
X-6957142Y-4728571D01*
X-6928571Y-4785714D01*
X-6928571Y-4814285D01*
X-6957142Y-4871428D01*
X-6985714Y-4900000D01*
X-7042857Y-4928571D01*
X-7157142Y-4928571D01*
X-7214285Y-4957142D01*
X-7242857Y-4985714D01*
X-7271428Y-5042857D01*
X-7271428Y-5157142D01*
X-7242857Y-5214285D01*
X-7214285Y-5242857D01*
X-7157142Y-5271428D01*
X-7042857Y-5271428D01*
X-6985714Y-5242857D01*
X-6957142Y-5214285D01*
X-6928571Y-5157142D01*
X-6928571Y-5042857D01*
X-6957142Y-4985714D01*
X-6985714Y-4957142D01*
X-7042857Y-4928571D01*
X-6000000Y-5271428D02*
X-6200000Y-4985714D01*
X-6342857Y-5271428D02*
X-6342857Y-4671428D01*
X-6114285Y-4671428D01*
X-6057142Y-4700000D01*
X-6028571Y-4728571D01*
X-6000000Y-4785714D01*
X-6000000Y-4871428D01*
X-6028571Y-4928571D01*
X-6057142Y-4957142D01*
X-6114285Y-4985714D01*
X-6342857Y-4985714D01*
X-5800000Y-4671428D02*
X-5400000Y-4671428D01*
X-5657142Y-5271428D01*
D12*
X7757142Y9747619D02*
X7280952Y9747619D01*
X7280952Y10747619D01*
X8042857Y9795238D02*
X8185714Y9747619D01*
X8423809Y9747619D01*
X8519047Y9795238D01*
X8566666Y9842857D01*
X8614285Y9938095D01*
X8614285Y10033333D01*
X8566666Y10128571D01*
X8519047Y10176190D01*
X8423809Y10223809D01*
X8233333Y10271428D01*
X8138095Y10319047D01*
X8090476Y10366666D01*
X8042857Y10461904D01*
X8042857Y10557142D01*
X8090476Y10652380D01*
X8138095Y10700000D01*
X8233333Y10747619D01*
X8471428Y10747619D01*
X8614285Y10700000D01*
X9566666Y9747619D02*
X8995238Y9747619D01*
X9280952Y9747619D02*
X9280952Y10747619D01*
X9185714Y10604761D01*
X9090476Y10509523D01*
X8995238Y10461904D01*
X7866666Y12195238D02*
X8009523Y12147619D01*
X8247619Y12147619D01*
X8342857Y12195238D01*
X8390476Y12242857D01*
X8438095Y12338095D01*
X8438095Y12433333D01*
X8390476Y12528571D01*
X8342857Y12576190D01*
X8247619Y12623809D01*
X8057142Y12671428D01*
X7961904Y12719047D01*
X7914285Y12766666D01*
X7866666Y12861904D01*
X7866666Y12957142D01*
X7914285Y13052380D01*
X7961904Y13100000D01*
X8057142Y13147619D01*
X8295238Y13147619D01*
X8438095Y13100000D01*
X8771428Y13147619D02*
X9009523Y12147619D01*
X9200000Y12861904D01*
X9390476Y12147619D01*
X9628571Y13147619D01*
X9961904Y13052380D02*
X10009523Y13100000D01*
X10104761Y13147619D01*
X10342857Y13147619D01*
X10438095Y13100000D01*
X10485714Y13052380D01*
X10533333Y12957142D01*
X10533333Y12861904D01*
X10485714Y12719047D01*
X9914285Y12147619D01*
X10533333Y12147619D01*
X-10433333Y12195238D02*
X-10290476Y12147619D01*
X-10052380Y12147619D01*
X-9957142Y12195238D01*
X-9909523Y12242857D01*
X-9861904Y12338095D01*
X-9861904Y12433333D01*
X-9909523Y12528571D01*
X-9957142Y12576190D01*
X-10052380Y12623809D01*
X-10242857Y12671428D01*
X-10338095Y12719047D01*
X-10385714Y12766666D01*
X-10433333Y12861904D01*
X-10433333Y12957142D01*
X-10385714Y13052380D01*
X-10338095Y13100000D01*
X-10242857Y13147619D01*
X-10004761Y13147619D01*
X-9861904Y13100000D01*
X-9528571Y13147619D02*
X-9290476Y12147619D01*
X-9100000Y12861904D01*
X-8909523Y12147619D01*
X-8671428Y13147619D01*
X-7766666Y12147619D02*
X-8338095Y12147619D01*
X-8052380Y12147619D02*
X-8052380Y13147619D01*
X-8147619Y13004761D01*
X-8242857Y12909523D01*
X-8338095Y12861904D01*
X-7276190Y-1576190D02*
X-7276190Y-2052380D01*
X-7609523Y-1052380D02*
X-7276190Y-1576190D01*
X-6942857Y-1052380D01*
X-6085714Y-2052380D02*
X-6657142Y-2052380D01*
X-6371428Y-2052380D02*
X-6371428Y-1052380D01*
X-6466666Y-1195238D01*
X-6561904Y-1290476D01*
X-6657142Y-1338095D01*
X-4861904Y7047619D02*
X-4861904Y6238095D01*
X-4814285Y6142857D01*
X-4766666Y6095238D01*
X-4671428Y6047619D01*
X-4480952Y6047619D01*
X-4385714Y6095238D01*
X-4338095Y6142857D01*
X-4290476Y6238095D01*
X-4290476Y7047619D01*
X-3290476Y6047619D02*
X-3861904Y6047619D01*
X-3576190Y6047619D02*
X-3576190Y7047619D01*
X-3671428Y6904761D01*
X-3766666Y6809523D01*
X-3861904Y6761904D01*
D11*
X9500000Y-4771428D02*
X9300000Y-4485714D01*
X9157142Y-4771428D02*
X9157142Y-4171428D01*
X9385714Y-4171428D01*
X9442857Y-4200000D01*
X9471428Y-4228571D01*
X9500000Y-4285714D01*
X9500000Y-4371428D01*
X9471428Y-4428571D01*
X9442857Y-4457142D01*
X9385714Y-4485714D01*
X9157142Y-4485714D01*
X10014285Y-4171428D02*
X9900000Y-4171428D01*
X9842857Y-4200000D01*
X9814285Y-4228571D01*
X9757142Y-4314285D01*
X9728571Y-4428571D01*
X9728571Y-4657142D01*
X9757142Y-4714285D01*
X9785714Y-4742857D01*
X9842857Y-4771428D01*
X9957142Y-4771428D01*
X10014285Y-4742857D01*
X10042857Y-4714285D01*
X10071428Y-4657142D01*
X10071428Y-4514285D01*
X10042857Y-4457142D01*
X10014285Y-4428571D01*
X9957142Y-4400000D01*
X9842857Y-4400000D01*
X9785714Y-4428571D01*
X9757142Y-4457142D01*
X9728571Y-4514285D01*
X8000000Y-4771428D02*
X7800000Y-4485714D01*
X7657142Y-4771428D02*
X7657142Y-4171428D01*
X7885714Y-4171428D01*
X7942857Y-4200000D01*
X7971428Y-4228571D01*
X8000000Y-4285714D01*
X8000000Y-4371428D01*
X7971428Y-4428571D01*
X7942857Y-4457142D01*
X7885714Y-4485714D01*
X7657142Y-4485714D01*
X8542857Y-4171428D02*
X8257142Y-4171428D01*
X8228571Y-4457142D01*
X8257142Y-4428571D01*
X8314285Y-4400000D01*
X8457142Y-4400000D01*
X8514285Y-4428571D01*
X8542857Y-4457142D01*
X8571428Y-4514285D01*
X8571428Y-4657142D01*
X8542857Y-4714285D01*
X8514285Y-4742857D01*
X8457142Y-4771428D01*
X8314285Y-4771428D01*
X8257142Y-4742857D01*
X8228571Y-4714285D01*
X6500000Y-4771428D02*
X6300000Y-4485714D01*
X6157142Y-4771428D02*
X6157142Y-4171428D01*
X6385714Y-4171428D01*
X6442857Y-4200000D01*
X6471428Y-4228571D01*
X6500000Y-4285714D01*
X6500000Y-4371428D01*
X6471428Y-4428571D01*
X6442857Y-4457142D01*
X6385714Y-4485714D01*
X6157142Y-4485714D01*
X7014285Y-4371428D02*
X7014285Y-4771428D01*
X6871428Y-4142857D02*
X6728571Y-4571428D01*
X7100000Y-4571428D01*
X3000000Y5628571D02*
X2800000Y5914285D01*
X2657142Y5628571D02*
X2657142Y6228571D01*
X2885714Y6228571D01*
X2942857Y6200000D01*
X2971428Y6171428D01*
X3000000Y6114285D01*
X3000000Y6028571D01*
X2971428Y5971428D01*
X2942857Y5942857D01*
X2885714Y5914285D01*
X2657142Y5914285D01*
X3200000Y6228571D02*
X3571428Y6228571D01*
X3371428Y6000000D01*
X3457142Y6000000D01*
X3514285Y5971428D01*
X3542857Y5942857D01*
X3571428Y5885714D01*
X3571428Y5742857D01*
X3542857Y5685714D01*
X3514285Y5657142D01*
X3457142Y5628571D01*
X3285714Y5628571D01*
X3228571Y5657142D01*
X3200000Y5685714D01*
X-10500000Y6528571D02*
X-10700000Y6814285D01*
X-10842857Y6528571D02*
X-10842857Y7128571D01*
X-10614285Y7128571D01*
X-10557142Y7100000D01*
X-10528571Y7071428D01*
X-10500000Y7014285D01*
X-10500000Y6928571D01*
X-10528571Y6871428D01*
X-10557142Y6842857D01*
X-10614285Y6814285D01*
X-10842857Y6814285D01*
X-10271428Y7071428D02*
X-10242857Y7100000D01*
X-10185714Y7128571D01*
X-10042857Y7128571D01*
X-9985714Y7100000D01*
X-9957142Y7071428D01*
X-9928571Y7014285D01*
X-9928571Y6957142D01*
X-9957142Y6871428D01*
X-10300000Y6528571D01*
X-9928571Y6528571D01*
X-9000000Y1228571D02*
X-9200000Y1514285D01*
X-9342857Y1228571D02*
X-9342857Y1828571D01*
X-9114285Y1828571D01*
X-9057142Y1800000D01*
X-9028571Y1771428D01*
X-9000000Y1714285D01*
X-9000000Y1628571D01*
X-9028571Y1571428D01*
X-9057142Y1542857D01*
X-9114285Y1514285D01*
X-9342857Y1514285D01*
X-8428571Y1228571D02*
X-8771428Y1228571D01*
X-8600000Y1228571D02*
X-8600000Y1828571D01*
X-8657142Y1742857D01*
X-8714285Y1685714D01*
X-8771428Y1657142D01*
D12*
X11604761Y-7647619D02*
X11509523Y-7600000D01*
X11414285Y-7504761D01*
X11271428Y-7361904D01*
X11176190Y-7314285D01*
X11080952Y-7314285D01*
X11128571Y-7552380D02*
X11033333Y-7504761D01*
X10938095Y-7409523D01*
X10890476Y-7219047D01*
X10890476Y-6885714D01*
X10938095Y-6695238D01*
X11033333Y-6600000D01*
X11128571Y-6552380D01*
X11319047Y-6552380D01*
X11414285Y-6600000D01*
X11509523Y-6695238D01*
X11557142Y-6885714D01*
X11557142Y-7219047D01*
X11509523Y-7409523D01*
X11414285Y-7504761D01*
X11319047Y-7552380D01*
X11128571Y-7552380D01*
X12509523Y-7552380D02*
X11938095Y-7552380D01*
X12223809Y-7552380D02*
X12223809Y-6552380D01*
X12128571Y-6695238D01*
X12033333Y-6790476D01*
X11938095Y-6838095D01*
D11*
X-9000000Y6528571D02*
X-9285714Y6528571D01*
X-9285714Y7128571D01*
X-8485714Y6528571D02*
X-8828571Y6528571D01*
X-8657142Y6528571D02*
X-8657142Y7128571D01*
X-8714285Y7042857D01*
X-8771428Y6985714D01*
X-8828571Y6957142D01*
D12*
X-333333Y-6452380D02*
X-333333Y-7166666D01*
X-380952Y-7309523D01*
X-476190Y-7404761D01*
X-619047Y-7452380D01*
X-714285Y-7452380D01*
X47619Y-6452380D02*
X666666Y-6452380D01*
X333333Y-6833333D01*
X476190Y-6833333D01*
X571428Y-6880952D01*
X619047Y-6928571D01*
X666666Y-7023809D01*
X666666Y-7261904D01*
X619047Y-7357142D01*
X571428Y-7404761D01*
X476190Y-7452380D01*
X190476Y-7452380D01*
X95238Y-7404761D01*
X47619Y-7357142D01*
X-333333Y-8152380D02*
X-333333Y-8866666D01*
X-380952Y-9009523D01*
X-476190Y-9104761D01*
X-619047Y-9152380D01*
X-714285Y-9152380D01*
X95238Y-8247619D02*
X142857Y-8200000D01*
X238095Y-8152380D01*
X476190Y-8152380D01*
X571428Y-8200000D01*
X619047Y-8247619D01*
X666666Y-8342857D01*
X666666Y-8438095D01*
X619047Y-8580952D01*
X47619Y-9152380D01*
X666666Y-9152380D01*
X-5033333Y8547619D02*
X-5033333Y7833333D01*
X-5080952Y7690476D01*
X-5176190Y7595238D01*
X-5319047Y7547619D01*
X-5414285Y7547619D01*
X-4033333Y7547619D02*
X-4604761Y7547619D01*
X-4319047Y7547619D02*
X-4319047Y8547619D01*
X-4414285Y8404761D01*
X-4509523Y8309523D01*
X-4604761Y8261904D01*
D11*
X-7600000Y6842857D02*
X-7800000Y6842857D01*
X-7800000Y6528571D02*
X-7800000Y7128571D01*
X-7514285Y7128571D01*
X-6971428Y6528571D02*
X-7314285Y6528571D01*
X-7142857Y6528571D02*
X-7142857Y7128571D01*
X-7200000Y7042857D01*
X-7257142Y6985714D01*
X-7314285Y6957142D01*
X-12342857Y6528571D02*
X-12342857Y7128571D01*
X-12200000Y7128571D01*
X-12114285Y7100000D01*
X-12057142Y7042857D01*
X-12028571Y6985714D01*
X-12000000Y6871428D01*
X-12000000Y6785714D01*
X-12028571Y6671428D01*
X-12057142Y6614285D01*
X-12114285Y6557142D01*
X-12200000Y6528571D01*
X-12342857Y6528571D01*
X-11428571Y6528571D02*
X-11771428Y6528571D01*
X-11600000Y6528571D02*
X-11600000Y7128571D01*
X-11657142Y7042857D01*
X-11714285Y6985714D01*
X-11771428Y6957142D01*
X-10500000Y1285714D02*
X-10528571Y1257142D01*
X-10614285Y1228571D01*
X-10671428Y1228571D01*
X-10757142Y1257142D01*
X-10814285Y1314285D01*
X-10842857Y1371428D01*
X-10871428Y1485714D01*
X-10871428Y1571428D01*
X-10842857Y1685714D01*
X-10814285Y1742857D01*
X-10757142Y1800000D01*
X-10671428Y1828571D01*
X-10614285Y1828571D01*
X-10528571Y1800000D01*
X-10500000Y1771428D01*
X-10300000Y1828571D02*
X-9900000Y1828571D01*
X-10157142Y1228571D01*
X-12000000Y1285714D02*
X-12028571Y1257142D01*
X-12114285Y1228571D01*
X-12171428Y1228571D01*
X-12257142Y1257142D01*
X-12314285Y1314285D01*
X-12342857Y1371428D01*
X-12371428Y1485714D01*
X-12371428Y1571428D01*
X-12342857Y1685714D01*
X-12314285Y1742857D01*
X-12257142Y1800000D01*
X-12171428Y1828571D01*
X-12114285Y1828571D01*
X-12028571Y1800000D01*
X-12000000Y1771428D01*
X-11485714Y1828571D02*
X-11600000Y1828571D01*
X-11657142Y1800000D01*
X-11685714Y1771428D01*
X-11742857Y1685714D01*
X-11771428Y1571428D01*
X-11771428Y1342857D01*
X-11742857Y1285714D01*
X-11714285Y1257142D01*
X-11657142Y1228571D01*
X-11542857Y1228571D01*
X-11485714Y1257142D01*
X-11457142Y1285714D01*
X-11428571Y1342857D01*
X-11428571Y1485714D01*
X-11457142Y1542857D01*
X-11485714Y1571428D01*
X-11542857Y1600000D01*
X-11657142Y1600000D01*
X-11714285Y1571428D01*
X-11742857Y1542857D01*
X-11771428Y1485714D01*
X5000000Y-7514285D02*
X4971428Y-7542857D01*
X4885714Y-7571428D01*
X4828571Y-7571428D01*
X4742857Y-7542857D01*
X4685714Y-7485714D01*
X4657142Y-7428571D01*
X4628571Y-7314285D01*
X4628571Y-7228571D01*
X4657142Y-7114285D01*
X4685714Y-7057142D01*
X4742857Y-7000000D01*
X4828571Y-6971428D01*
X4885714Y-6971428D01*
X4971428Y-7000000D01*
X5000000Y-7028571D01*
X5542857Y-6971428D02*
X5257142Y-6971428D01*
X5228571Y-7257142D01*
X5257142Y-7228571D01*
X5314285Y-7200000D01*
X5457142Y-7200000D01*
X5514285Y-7228571D01*
X5542857Y-7257142D01*
X5571428Y-7314285D01*
X5571428Y-7457142D01*
X5542857Y-7514285D01*
X5514285Y-7542857D01*
X5457142Y-7571428D01*
X5314285Y-7571428D01*
X5257142Y-7542857D01*
X5228571Y-7514285D01*
X1500000Y5685714D02*
X1471428Y5657142D01*
X1385714Y5628571D01*
X1328571Y5628571D01*
X1242857Y5657142D01*
X1185714Y5714285D01*
X1157142Y5771428D01*
X1128571Y5885714D01*
X1128571Y5971428D01*
X1157142Y6085714D01*
X1185714Y6142857D01*
X1242857Y6200000D01*
X1328571Y6228571D01*
X1385714Y6228571D01*
X1471428Y6200000D01*
X1500000Y6171428D01*
X2014285Y6028571D02*
X2014285Y5628571D01*
X1871428Y6257142D02*
X1728571Y5828571D01*
X2100000Y5828571D01*
X-6100000Y5685714D02*
X-6128571Y5657142D01*
X-6214285Y5628571D01*
X-6271428Y5628571D01*
X-6357142Y5657142D01*
X-6414285Y5714285D01*
X-6442857Y5771428D01*
X-6471428Y5885714D01*
X-6471428Y5971428D01*
X-6442857Y6085714D01*
X-6414285Y6142857D01*
X-6357142Y6200000D01*
X-6271428Y6228571D01*
X-6214285Y6228571D01*
X-6128571Y6200000D01*
X-6100000Y6171428D01*
X-5900000Y6228571D02*
X-5528571Y6228571D01*
X-5728571Y6000000D01*
X-5642857Y6000000D01*
X-5585714Y5971428D01*
X-5557142Y5942857D01*
X-5528571Y5885714D01*
X-5528571Y5742857D01*
X-5557142Y5685714D01*
X-5585714Y5657142D01*
X-5642857Y5628571D01*
X-5814285Y5628571D01*
X-5871428Y5657142D01*
X-5900000Y5685714D01*
X-12000000Y-2914285D02*
X-12028571Y-2942857D01*
X-12114285Y-2971428D01*
X-12171428Y-2971428D01*
X-12257142Y-2942857D01*
X-12314285Y-2885714D01*
X-12342857Y-2828571D01*
X-12371428Y-2714285D01*
X-12371428Y-2628571D01*
X-12342857Y-2514285D01*
X-12314285Y-2457142D01*
X-12257142Y-2400000D01*
X-12171428Y-2371428D01*
X-12114285Y-2371428D01*
X-12028571Y-2400000D01*
X-12000000Y-2428571D01*
X-11771428Y-2428571D02*
X-11742857Y-2400000D01*
X-11685714Y-2371428D01*
X-11542857Y-2371428D01*
X-11485714Y-2400000D01*
X-11457142Y-2428571D01*
X-11428571Y-2485714D01*
X-11428571Y-2542857D01*
X-11457142Y-2628571D01*
X-11800000Y-2971428D01*
X-11428571Y-2971428D01*
X-11900000Y-714285D02*
X-11928571Y-742857D01*
X-12014285Y-771428D01*
X-12071428Y-771428D01*
X-12157142Y-742857D01*
X-12214285Y-685714D01*
X-12242857Y-628571D01*
X-12271428Y-514285D01*
X-12271428Y-428571D01*
X-12242857Y-314285D01*
X-12214285Y-257142D01*
X-12157142Y-200000D01*
X-12071428Y-171428D01*
X-12014285Y-171428D01*
X-11928571Y-200000D01*
X-11900000Y-228571D01*
X-11328571Y-771428D02*
X-11671428Y-771428D01*
X-11500000Y-771428D02*
X-11500000Y-171428D01*
X-11557142Y-257142D01*
X-11614285Y-314285D01*
X-11671428Y-342857D01*
M02*
