G04 #@! TF.GenerationSoftware,KiCad,Pcbnew,(5.1.9-0-10_14)*
G04 #@! TF.CreationDate,2021-04-11T20:05:45+09:00*
G04 #@! TF.ProjectId,RL78Display,524c3738-4469-4737-906c-61792e6b6963,V1.0*
G04 #@! TF.SameCoordinates,Original*
G04 #@! TF.FileFunction,Copper,L2,Bot*
G04 #@! TF.FilePolarity,Positive*
%FSLAX46Y46*%
G04 Gerber Fmt 4.6, Leading zero omitted, Abs format (unit mm)*
G04 Created by KiCad (PCBNEW (5.1.9-0-10_14)) date 2021-04-11 20:05:45*
%MOMM*%
%LPD*%
G01*
G04 APERTURE LIST*
G04 #@! TA.AperFunction,ComponentPad*
%ADD10C,1.500000*%
G04 #@! TD*
G04 #@! TA.AperFunction,SMDPad,CuDef*
%ADD11R,1.400000X0.300000*%
G04 #@! TD*
G04 #@! TA.AperFunction,SMDPad,CuDef*
%ADD12R,0.300000X1.400000*%
G04 #@! TD*
G04 #@! TA.AperFunction,ComponentPad*
%ADD13C,1.400000*%
G04 #@! TD*
G04 #@! TA.AperFunction,ComponentPad*
%ADD14O,1.700000X1.700000*%
G04 #@! TD*
G04 #@! TA.AperFunction,ComponentPad*
%ADD15R,1.700000X1.700000*%
G04 #@! TD*
G04 #@! TA.AperFunction,SMDPad,CuDef*
%ADD16R,1.800000X1.900000*%
G04 #@! TD*
G04 #@! TA.AperFunction,SMDPad,CuDef*
%ADD17R,2.100000X1.600000*%
G04 #@! TD*
G04 #@! TA.AperFunction,SMDPad,CuDef*
%ADD18R,0.300000X1.750000*%
G04 #@! TD*
G04 #@! TA.AperFunction,ViaPad*
%ADD19C,0.609600*%
G04 #@! TD*
G04 #@! TA.AperFunction,Conductor*
%ADD20C,0.203200*%
G04 #@! TD*
G04 #@! TA.AperFunction,Conductor*
%ADD21C,0.254000*%
G04 #@! TD*
G04 #@! TA.AperFunction,Conductor*
%ADD22C,0.100000*%
G04 #@! TD*
G04 APERTURE END LIST*
D10*
X11700000Y12200000D03*
X6700000Y12200000D03*
X-6700000Y12200000D03*
X-11700000Y12200000D03*
D11*
X-6800000Y-4875000D03*
X-6800000Y-4225000D03*
X-6800000Y-3575000D03*
X-6800000Y-2925000D03*
X-6800000Y-2275000D03*
X-6800000Y-1625000D03*
X-6800000Y-975000D03*
X-6800000Y-325000D03*
X-6800000Y325000D03*
X-6800000Y975000D03*
X-6800000Y1625000D03*
X-6800000Y2275000D03*
X-6800000Y2925000D03*
X-6850000Y3575000D03*
X-6800000Y4225000D03*
X-6800000Y4875000D03*
D12*
X-4875000Y6800000D03*
X-4225000Y6800000D03*
X-3575000Y6800000D03*
X-2925000Y6800000D03*
X-2275000Y6800000D03*
X-1625000Y6800000D03*
X-975000Y6800000D03*
X-325000Y6800000D03*
X325000Y6800000D03*
X975000Y6800000D03*
X1625000Y6800000D03*
X2275000Y6800000D03*
X2925000Y6800000D03*
X3575000Y6800000D03*
X4225000Y6800000D03*
X4875000Y6800000D03*
D11*
X6800000Y4875000D03*
X6800000Y4225000D03*
X6800000Y3575000D03*
X6800000Y2925000D03*
X6800000Y2275000D03*
X6800000Y1625000D03*
X6800000Y975000D03*
X6800000Y325000D03*
X6800000Y-325000D03*
X6800000Y-975000D03*
X6800000Y-1625000D03*
X6800000Y-2275000D03*
X6800000Y-2925000D03*
X6800000Y-3575000D03*
X6800000Y-4225000D03*
X6800000Y-4875000D03*
D12*
X4875000Y-6800000D03*
X4225000Y-6800000D03*
X3575000Y-6800000D03*
X2925000Y-6800000D03*
X2275000Y-6800000D03*
X1625000Y-6800000D03*
X975000Y-6800000D03*
X325000Y-6800000D03*
X-325000Y-6800000D03*
X-975000Y-6800000D03*
X-1625000Y-6800000D03*
X-2275000Y-6800000D03*
X-2925000Y-6800000D03*
X-3575000Y-6800000D03*
X-4225000Y-6800000D03*
X-4875000Y-6800000D03*
D13*
X11500000Y-5000000D03*
X11500000Y-3000000D03*
X11500000Y-1000000D03*
D14*
X-8890000Y-10700000D03*
X-6350000Y-10700000D03*
X-3810000Y-10700000D03*
X-1270000Y-10700000D03*
X1270000Y-10700000D03*
X3810000Y-10700000D03*
X6350000Y-10700000D03*
D15*
X8890000Y-10700000D03*
D16*
X4000000Y12750000D03*
X-4000000Y12750000D03*
D17*
X3100000Y10200000D03*
X-3100000Y10200000D03*
D18*
X1300000Y9900000D03*
X-1300000Y9875000D03*
D19*
X-9000000Y218800D03*
X-8780000Y-4780000D03*
X-11068800Y7268200D03*
X-422100Y10360300D03*
X-5328700Y5606600D03*
X-5636000Y3575000D03*
X681700Y-5584800D03*
X-1473600Y1314600D03*
X-1886600Y-1084800D03*
X103800Y-3039600D03*
X634800Y-1790200D03*
X181400Y-1013200D03*
X5216700Y237500D03*
X9025500Y-4795400D03*
X-628900Y9130200D03*
X-11175600Y3674400D03*
X-10400000Y5600000D03*
X-9388900Y1838900D03*
D20*
X-7805100Y-325000D02*
X-8348900Y218800D01*
X-8348900Y218800D02*
X-9000000Y218800D01*
X-6800000Y-325000D02*
X-7805100Y-325000D01*
X-7805100Y-975000D02*
X-6800000Y-975000D01*
X-7805100Y-3805100D02*
X-7805100Y-975000D01*
X-8780000Y-4780000D02*
X-7805100Y-3805100D01*
X-2275000Y6800000D02*
X-2275000Y5794900D01*
X-2275000Y5794900D02*
X-1810300Y5330200D01*
X-1810300Y5330200D02*
X7626400Y5330200D01*
X7626400Y5330200D02*
X9550100Y3406500D01*
X9550100Y3406500D02*
X9550100Y-3050100D01*
X9550100Y-3050100D02*
X11500000Y-5000000D01*
X-2275000Y7302600D02*
X-2275000Y6800000D01*
X-2275000Y7302600D02*
X-2275000Y7805100D01*
X-2275000Y7805100D02*
X-10531900Y7805100D01*
X-10531900Y7805100D02*
X-11068800Y7268200D01*
X-1300000Y9875000D02*
X-1300000Y11055100D01*
X-1300000Y11055100D02*
X-958600Y11055100D01*
X-958600Y11055100D02*
X-422200Y10518700D01*
X-422200Y10518700D02*
X-422200Y10360300D01*
X-422200Y10360300D02*
X-422100Y10360300D01*
X-6800000Y-2275000D02*
X-5794900Y-2275000D01*
X-5328700Y5606600D02*
X-5020400Y5298300D01*
X-5020400Y5298300D02*
X-5020400Y-1500500D01*
X-5020400Y-1500500D02*
X-5794900Y-2275000D01*
X-6800000Y-1625000D02*
X-5794900Y-1625000D01*
X-5636000Y3575000D02*
X-5636000Y-1466100D01*
X-5636000Y-1466100D02*
X-5794900Y-1625000D01*
X975000Y-6800000D02*
X975000Y-5794900D01*
X975000Y-5794900D02*
X891800Y-5794900D01*
X891800Y-5794900D02*
X681700Y-5584800D01*
X325000Y-7805100D02*
X2560000Y-7805100D01*
X2560000Y-7805100D02*
X4982500Y-10227600D01*
X4982500Y-10227600D02*
X4982500Y-11196500D01*
X4982500Y-11196500D02*
X3879100Y-12299900D01*
X3879100Y-12299900D02*
X329900Y-12299900D01*
X329900Y-12299900D02*
X-1270000Y-10700000D01*
X325000Y-6800000D02*
X325000Y-7805100D01*
X-1625000Y-6800000D02*
X-1625000Y-7805100D01*
X1270000Y-10700000D02*
X1270000Y-9544900D01*
X1270000Y-9544900D02*
X114800Y-9544900D01*
X114800Y-9544900D02*
X-1625000Y-7805100D01*
X-2275000Y-7805100D02*
X0Y-10080100D01*
X0Y-10080100D02*
X0Y-11084500D01*
X0Y-11084500D02*
X800900Y-11885400D01*
X800900Y-11885400D02*
X1758300Y-11885400D01*
X1758300Y-11885400D02*
X2654900Y-10988800D01*
X2654900Y-10988800D02*
X2654900Y-10700000D01*
X-2275000Y-6800000D02*
X-2275000Y-7805100D01*
X3810000Y-10700000D02*
X2654900Y-10700000D01*
X-2925000Y-5794900D02*
X-2098200Y-4968100D01*
X-2098200Y-4968100D02*
X4357600Y-4968100D01*
X4357600Y-4968100D02*
X6350000Y-6960500D01*
X6350000Y-6960500D02*
X6350000Y-10700000D01*
X-2925000Y-6800000D02*
X-2925000Y-5794900D01*
X8890000Y-10700000D02*
X7734900Y-10700000D01*
X7734900Y-10700000D02*
X7734900Y-10988800D01*
X7734900Y-10988800D02*
X5984300Y-12739400D01*
X5984300Y-12739400D02*
X-929600Y-12739400D01*
X-929600Y-12739400D02*
X-2573300Y-11095700D01*
X-2573300Y-11095700D02*
X-2573300Y-9511800D01*
X-2573300Y-9511800D02*
X-3575000Y-8510100D01*
X-3575000Y-8510100D02*
X-3575000Y-6800000D01*
X5794900Y-325000D02*
X5697500Y-422400D01*
X5697500Y-422400D02*
X850000Y-422400D01*
X850000Y-422400D02*
X-887000Y1314600D01*
X-887000Y1314600D02*
X-1473600Y1314600D01*
X6800000Y-325000D02*
X5794900Y-325000D01*
X6800000Y-2275000D02*
X5794900Y-2275000D01*
X5794900Y-2275000D02*
X5600100Y-2469800D01*
X5600100Y-2469800D02*
X396700Y-2469800D01*
X396700Y-2469800D02*
X-988200Y-1084900D01*
X-988200Y-1084900D02*
X-1886600Y-1084900D01*
X-1886600Y-1084900D02*
X-1886600Y-1084800D01*
X5794900Y-3575000D02*
X5259500Y-3039600D01*
X5259500Y-3039600D02*
X103800Y-3039600D01*
X6800000Y-3575000D02*
X5794900Y-3575000D01*
X6800000Y-1625000D02*
X5794900Y-1625000D01*
X634800Y-1790200D02*
X5629700Y-1790200D01*
X5629700Y-1790200D02*
X5794900Y-1625000D01*
X6800000Y-975000D02*
X219600Y-975000D01*
X219600Y-975000D02*
X181400Y-1013200D01*
X6800000Y325000D02*
X5794900Y325000D01*
X5216700Y237500D02*
X5707400Y237500D01*
X5707400Y237500D02*
X5794900Y325000D01*
X-4875000Y-6800000D02*
X-4875000Y-5794900D01*
X9025500Y-4795400D02*
X8490700Y-5330200D01*
X8490700Y-5330200D02*
X5794800Y-5330200D01*
X5794800Y-5330200D02*
X5025900Y-4561300D01*
X5025900Y-4561300D02*
X-3641400Y-4561300D01*
X-3641400Y-4561300D02*
X-4875000Y-5794900D01*
X4225000Y6800000D02*
X4225000Y7805100D01*
X4225000Y7805100D02*
X3818200Y8211900D01*
X3818200Y8211900D02*
X-3413100Y8211900D01*
X-3413100Y8211900D02*
X-6700000Y11498800D01*
X-6700000Y11498800D02*
X-6700000Y12200000D01*
X3575000Y6800000D02*
X3575000Y5794900D01*
X3575000Y5794900D02*
X5294900Y5794900D01*
X5294900Y5794900D02*
X11700000Y12200000D01*
X-6800000Y2925000D02*
X-7805100Y2925000D01*
X-7855100Y3036800D02*
X-7805100Y2986800D01*
X-7805100Y2986800D02*
X-7805100Y2925000D01*
X-10032500Y3036800D02*
X-7855100Y3036800D01*
X-7855100Y3036800D02*
X-7855100Y3575000D01*
X-11700000Y12200000D02*
X-11799400Y12100600D01*
X-6850000Y3575000D02*
X-7855100Y3575000D01*
X-577600Y9078900D02*
X-628900Y9130200D01*
X1300000Y8719900D02*
X-218600Y8719900D01*
X-218600Y8719900D02*
X-577600Y9078900D01*
X-577600Y9078900D02*
X-981500Y8675000D01*
X-981500Y8675000D02*
X-2680100Y8675000D01*
X-2680100Y8675000D02*
X-3100000Y9094900D01*
X-3100000Y10200000D02*
X-3100000Y9094900D01*
X-3100000Y10200000D02*
X-3100000Y11305100D01*
X1300000Y9900000D02*
X1300000Y8719900D01*
X1300000Y9928600D02*
X1300000Y9900000D01*
X4000000Y12750000D02*
X4000000Y11494900D01*
X3717400Y11494900D02*
X4000000Y11494900D01*
X4000000Y12750000D02*
X-4000000Y12750000D01*
X3100000Y10200000D02*
X3100000Y11400000D01*
X3622500Y11400000D02*
X3717400Y11494900D01*
X3100000Y11400000D02*
X3622500Y11400000D01*
X-4000000Y12750000D02*
X-4000000Y11400000D01*
X-3905100Y11305100D02*
X-3100000Y11305100D01*
X-4000000Y11400000D02*
X-3905100Y11305100D01*
X-11700000Y12200000D02*
X-10700000Y11200000D01*
X-10700000Y11200000D02*
X-10700000Y10000000D01*
X-4000000Y12750000D02*
X-5150000Y12750000D01*
X-5150000Y12750000D02*
X-6300000Y13900000D01*
X-10000000Y13900000D02*
X-11700000Y12200000D01*
X-6300000Y13900000D02*
X-10000000Y13900000D01*
X-10700000Y10000000D02*
X-12200000Y8500000D01*
X-12200000Y8500000D02*
X-12200000Y2600000D01*
X-10469300Y2600000D02*
X-10032500Y3036800D01*
X-12200000Y2600000D02*
X-10469300Y2600000D01*
X-8890000Y-9210000D02*
X-10469300Y-7630700D01*
X-10469300Y-7630700D02*
X-10469300Y2600000D01*
X-8890000Y-10700000D02*
X-8890000Y-9210000D01*
X-10400000Y4225000D02*
X-10950600Y3674400D01*
X-10950600Y3674400D02*
X-11175600Y3674400D01*
X-10400000Y4225000D02*
X-10400000Y5600000D01*
X-7805100Y4225000D02*
X-10400000Y4225000D01*
X-6800000Y4225000D02*
X-7805100Y4225000D01*
X-7302500Y4875000D02*
X-7496500Y4875000D01*
X-7496500Y4875000D02*
X-7805100Y4566400D01*
X-7805100Y4566400D02*
X-7805100Y4225000D01*
X-6800000Y4875000D02*
X-7302500Y4875000D01*
X-6800000Y2275000D02*
X-8952800Y2275000D01*
X-8952800Y2275000D02*
X-9388900Y1838900D01*
D21*
X-5430537Y14054494D02*
X-5489502Y13944180D01*
X-5525812Y13824482D01*
X-5538072Y13700000D01*
X-5535000Y13035750D01*
X-5376252Y12877002D01*
X-5486633Y12877002D01*
X-5624201Y13082886D01*
X-5817114Y13275799D01*
X-6043957Y13427371D01*
X-6296011Y13531775D01*
X-6563589Y13585000D01*
X-6836411Y13585000D01*
X-7103989Y13531775D01*
X-7356043Y13427371D01*
X-7582886Y13275799D01*
X-7775799Y13082886D01*
X-7927371Y12856043D01*
X-8031775Y12603989D01*
X-8085000Y12336411D01*
X-8085000Y12063589D01*
X-8031775Y11796011D01*
X-7927371Y11543957D01*
X-7775799Y11317114D01*
X-7582886Y11124201D01*
X-7356043Y10972629D01*
X-7116186Y10873277D01*
X-4784610Y8541700D01*
X-10495725Y8541700D01*
X-10531901Y8545263D01*
X-10568077Y8541700D01*
X-10568086Y8541700D01*
X-10676299Y8531042D01*
X-10815149Y8488922D01*
X-10943113Y8420524D01*
X-10943115Y8420523D01*
X-10943114Y8420523D01*
X-11021371Y8356299D01*
X-11055275Y8328475D01*
X-11078341Y8300368D01*
X-11173031Y8205679D01*
X-11342929Y8171884D01*
X-11513962Y8101040D01*
X-11667887Y7998190D01*
X-11798790Y7867287D01*
X-11901640Y7713362D01*
X-11972484Y7542329D01*
X-12008600Y7360762D01*
X-12008600Y7175638D01*
X-11972484Y6994071D01*
X-11901640Y6823038D01*
X-11798790Y6669113D01*
X-11667887Y6538210D01*
X-11513962Y6435360D01*
X-11342929Y6364516D01*
X-11161362Y6328400D01*
X-11000677Y6328400D01*
X-11129990Y6199087D01*
X-11232840Y6045162D01*
X-11303684Y5874129D01*
X-11339800Y5692562D01*
X-11339800Y5507438D01*
X-11303684Y5325871D01*
X-11232840Y5154838D01*
X-11136599Y5010805D01*
X-11136600Y4614200D01*
X-11268162Y4614200D01*
X-11449729Y4578084D01*
X-11620762Y4507240D01*
X-11774687Y4404390D01*
X-11905590Y4273487D01*
X-12008440Y4119562D01*
X-12079284Y3948529D01*
X-12115400Y3766962D01*
X-12115400Y3581838D01*
X-12079284Y3400271D01*
X-12008440Y3229238D01*
X-11905590Y3075313D01*
X-11774687Y2944410D01*
X-11620762Y2841560D01*
X-11449729Y2770716D01*
X-11268162Y2734600D01*
X-11083038Y2734600D01*
X-10901471Y2770716D01*
X-10730438Y2841560D01*
X-10576513Y2944410D01*
X-10445610Y3075313D01*
X-10342760Y3229238D01*
X-10334775Y3248516D01*
X-10094890Y3488400D01*
X-8185000Y3488400D01*
X-8185000Y3447998D01*
X-8130252Y3447998D01*
X-8185000Y3393250D01*
X-8173794Y3290771D01*
X-8135621Y3171654D01*
X-8129174Y3160032D01*
X-8135000Y3106750D01*
X-8080252Y3052002D01*
X-8135000Y3052002D01*
X-8135000Y3011600D01*
X-8916614Y3011600D01*
X-8952800Y3015164D01*
X-8988986Y3011600D01*
X-9097199Y3000942D01*
X-9236049Y2958822D01*
X-9364013Y2890424D01*
X-9476175Y2798375D01*
X-9494441Y2776118D01*
X-9663029Y2742584D01*
X-9834062Y2671740D01*
X-9987987Y2568890D01*
X-10118890Y2437987D01*
X-10221740Y2284062D01*
X-10292584Y2113029D01*
X-10328700Y1931462D01*
X-10328700Y1746338D01*
X-10292584Y1564771D01*
X-10221740Y1393738D01*
X-10118890Y1239813D01*
X-9987987Y1108910D01*
X-9834062Y1006060D01*
X-9663029Y935216D01*
X-9621018Y926859D01*
X-9729990Y817887D01*
X-9832840Y663962D01*
X-9903684Y492929D01*
X-9939800Y311362D01*
X-9939800Y126238D01*
X-9903684Y-55329D01*
X-9896364Y-73000D01*
X-10000000Y-73000D01*
X-10024776Y-75440D01*
X-10048601Y-82667D01*
X-10070557Y-94403D01*
X-10089803Y-110197D01*
X-10105597Y-129443D01*
X-10117333Y-151399D01*
X-10124560Y-175224D01*
X-10127000Y-200000D01*
X-10127000Y-4200000D01*
X-10124560Y-4224776D01*
X-10117333Y-4248601D01*
X-10105597Y-4270557D01*
X-10089803Y-4289803D01*
X-10070557Y-4305597D01*
X-10048601Y-4317333D01*
X-10024776Y-4324560D01*
X-10000000Y-4327000D01*
X-9607603Y-4327000D01*
X-9612840Y-4334838D01*
X-9683684Y-4505871D01*
X-9719800Y-4687438D01*
X-9719800Y-4872562D01*
X-9683684Y-5054129D01*
X-9612840Y-5225162D01*
X-9509990Y-5379087D01*
X-9379087Y-5509990D01*
X-9225162Y-5612840D01*
X-9054129Y-5683684D01*
X-8872562Y-5719800D01*
X-8687438Y-5719800D01*
X-8505871Y-5683684D01*
X-8334838Y-5612840D01*
X-8180913Y-5509990D01*
X-8050010Y-5379087D01*
X-8039312Y-5363077D01*
X-8030537Y-5379494D01*
X-7951185Y-5476185D01*
X-7854494Y-5555537D01*
X-7744180Y-5614502D01*
X-7624482Y-5650812D01*
X-7500000Y-5663072D01*
X-6100000Y-5663072D01*
X-5975518Y-5650812D01*
X-5855820Y-5614502D01*
X-5745506Y-5555537D01*
X-5648815Y-5476185D01*
X-5569463Y-5379494D01*
X-5510498Y-5269180D01*
X-5474188Y-5149482D01*
X-5461928Y-5025000D01*
X-5461928Y-4725000D01*
X-5474188Y-4600518D01*
X-5489512Y-4550000D01*
X-5474188Y-4499482D01*
X-5461928Y-4375000D01*
X-5461928Y-4075000D01*
X-5474188Y-3950518D01*
X-5489512Y-3900000D01*
X-5474188Y-3849482D01*
X-5461928Y-3725000D01*
X-5461928Y-3425000D01*
X-5474188Y-3300518D01*
X-5489512Y-3250000D01*
X-5474188Y-3199482D01*
X-5461928Y-3075000D01*
X-5461928Y-2932245D01*
X-5383687Y-2890424D01*
X-5271525Y-2798375D01*
X-5248454Y-2770263D01*
X-4525137Y-2046946D01*
X-4497025Y-2023875D01*
X-4404976Y-1911713D01*
X-4336578Y-1783749D01*
X-4294458Y-1644899D01*
X-4283800Y-1536686D01*
X-4283800Y-1536677D01*
X-4280237Y-1500501D01*
X-4283800Y-1464325D01*
X-4283800Y5262125D01*
X-4280237Y5298301D01*
X-4283800Y5334477D01*
X-4283800Y5334486D01*
X-4294458Y5442699D01*
X-4300291Y5461928D01*
X-4075000Y5461928D01*
X-3950518Y5474188D01*
X-3900000Y5489512D01*
X-3849482Y5474188D01*
X-3725000Y5461928D01*
X-3425000Y5461928D01*
X-3300518Y5474188D01*
X-3250000Y5489512D01*
X-3199482Y5474188D01*
X-3075000Y5461928D01*
X-2932244Y5461928D01*
X-2890424Y5383688D01*
X-2846527Y5330200D01*
X-2798374Y5271525D01*
X-2770268Y5248459D01*
X-2356746Y4834937D01*
X-2333675Y4806825D01*
X-2221513Y4714776D01*
X-2093549Y4646378D01*
X-1954699Y4604258D01*
X-1846486Y4593600D01*
X-1846477Y4593600D01*
X-1810301Y4590037D01*
X-1774125Y4593600D01*
X5476287Y4593600D01*
X5489512Y4550000D01*
X5474188Y4499482D01*
X5461928Y4375000D01*
X5461928Y4075000D01*
X5474188Y3950518D01*
X5489512Y3900000D01*
X5474188Y3849482D01*
X5461928Y3725000D01*
X5461928Y3425000D01*
X5474188Y3300518D01*
X5489512Y3250000D01*
X5474188Y3199482D01*
X5461928Y3075000D01*
X5461928Y2775000D01*
X5474188Y2650518D01*
X5489512Y2600000D01*
X5474188Y2549482D01*
X5461928Y2425000D01*
X5461928Y2125000D01*
X5474188Y2000518D01*
X5489512Y1950000D01*
X5474188Y1899482D01*
X5461928Y1775000D01*
X5461928Y1475000D01*
X5474188Y1350518D01*
X5489512Y1300000D01*
X5474188Y1249482D01*
X5464047Y1146511D01*
X5309262Y1177300D01*
X5124138Y1177300D01*
X4942571Y1141184D01*
X4771538Y1070340D01*
X4617613Y967490D01*
X4486710Y836587D01*
X4383860Y682662D01*
X4313016Y511629D01*
X4276900Y330062D01*
X4276900Y314200D01*
X1155110Y314200D01*
X-340555Y1809864D01*
X-363625Y1837975D01*
X-475787Y1930024D01*
X-603751Y1998422D01*
X-742601Y2040542D01*
X-850814Y2051200D01*
X-850817Y2051200D01*
X-887000Y2054764D01*
X-889387Y2054529D01*
X-1028438Y2147440D01*
X-1199471Y2218284D01*
X-1381038Y2254400D01*
X-1566162Y2254400D01*
X-1747729Y2218284D01*
X-1918762Y2147440D01*
X-2072687Y2044590D01*
X-2203590Y1913687D01*
X-2306440Y1759762D01*
X-2377284Y1588729D01*
X-2413400Y1407162D01*
X-2413400Y1222038D01*
X-2377284Y1040471D01*
X-2306440Y869438D01*
X-2203590Y715513D01*
X-2072687Y584610D01*
X-1918762Y481760D01*
X-1747729Y410916D01*
X-1566162Y374800D01*
X-1381038Y374800D01*
X-1199471Y410916D01*
X-1076119Y462010D01*
X-365662Y-248448D01*
X-417687Y-283210D01*
X-548590Y-414113D01*
X-583321Y-466091D01*
X-704951Y-401078D01*
X-843801Y-358958D01*
X-952014Y-348300D01*
X-952017Y-348300D01*
X-988200Y-344736D01*
X-1024383Y-348300D01*
X-1297256Y-348300D01*
X-1441438Y-251960D01*
X-1612471Y-181116D01*
X-1794038Y-145000D01*
X-1979162Y-145000D01*
X-2160729Y-181116D01*
X-2331762Y-251960D01*
X-2485687Y-354810D01*
X-2616590Y-485713D01*
X-2719440Y-639638D01*
X-2790284Y-810671D01*
X-2826400Y-992238D01*
X-2826400Y-1177362D01*
X-2790284Y-1358929D01*
X-2719440Y-1529962D01*
X-2616590Y-1683887D01*
X-2485687Y-1814790D01*
X-2331762Y-1917640D01*
X-2160729Y-1988484D01*
X-1979162Y-2024600D01*
X-1794038Y-2024600D01*
X-1612471Y-1988484D01*
X-1441438Y-1917640D01*
X-1297555Y-1821500D01*
X-1293309Y-1821500D01*
X-645459Y-2469350D01*
X-729040Y-2594438D01*
X-799884Y-2765471D01*
X-836000Y-2947038D01*
X-836000Y-3132162D01*
X-799884Y-3313729D01*
X-729040Y-3484762D01*
X-626190Y-3638687D01*
X-495287Y-3769590D01*
X-412810Y-3824700D01*
X-3605214Y-3824700D01*
X-3641400Y-3821136D01*
X-3677586Y-3824700D01*
X-3785799Y-3835358D01*
X-3924649Y-3877478D01*
X-4052613Y-3945876D01*
X-4164775Y-4037925D01*
X-4187841Y-4066031D01*
X-5370268Y-5248459D01*
X-5398374Y-5271525D01*
X-5421440Y-5299631D01*
X-5421442Y-5299633D01*
X-5490424Y-5383688D01*
X-5558822Y-5511653D01*
X-5562377Y-5523374D01*
X-5600940Y-5650500D01*
X-5600941Y-5650502D01*
X-5615164Y-5794900D01*
X-5611599Y-5831093D01*
X-5611599Y-5850389D01*
X-5614502Y-5855820D01*
X-5650812Y-5975518D01*
X-5663072Y-6100000D01*
X-5663072Y-7500000D01*
X-5650812Y-7624482D01*
X-5614502Y-7744180D01*
X-5555537Y-7854494D01*
X-5476185Y-7951185D01*
X-5379494Y-8030537D01*
X-5269180Y-8089502D01*
X-5149482Y-8125812D01*
X-5025000Y-8138072D01*
X-4725000Y-8138072D01*
X-4600518Y-8125812D01*
X-4550000Y-8110488D01*
X-4499482Y-8125812D01*
X-4375000Y-8138072D01*
X-4311600Y-8138072D01*
X-4311600Y-8473916D01*
X-4315164Y-8510100D01*
X-4311600Y-8546283D01*
X-4311600Y-8546285D01*
X-4300942Y-8654498D01*
X-4258822Y-8793348D01*
X-4190424Y-8921312D01*
X-4098375Y-9033474D01*
X-4070268Y-9056541D01*
X-3911809Y-9215000D01*
X-3956260Y-9215000D01*
X-4243158Y-9272068D01*
X-4513411Y-9384010D01*
X-4756632Y-9546525D01*
X-4963475Y-9753368D01*
X-5080000Y-9927760D01*
X-5196525Y-9753368D01*
X-5403368Y-9546525D01*
X-5646589Y-9384010D01*
X-5916842Y-9272068D01*
X-6203740Y-9215000D01*
X-6496260Y-9215000D01*
X-6783158Y-9272068D01*
X-7053411Y-9384010D01*
X-7296632Y-9546525D01*
X-7503475Y-9753368D01*
X-7625195Y-9935534D01*
X-7694822Y-9818645D01*
X-7889731Y-9602412D01*
X-8123080Y-9428359D01*
X-8385901Y-9303175D01*
X-8533110Y-9258524D01*
X-8763000Y-9379845D01*
X-8763000Y-10573000D01*
X-8743000Y-10573000D01*
X-8743000Y-10827000D01*
X-8763000Y-10827000D01*
X-8763000Y-12020155D01*
X-8533110Y-12141476D01*
X-8385901Y-12096825D01*
X-8123080Y-11971641D01*
X-7889731Y-11797588D01*
X-7694822Y-11581355D01*
X-7625195Y-11464466D01*
X-7503475Y-11646632D01*
X-7296632Y-11853475D01*
X-7053411Y-12015990D01*
X-6783158Y-12127932D01*
X-6496260Y-12185000D01*
X-6203740Y-12185000D01*
X-5916842Y-12127932D01*
X-5646589Y-12015990D01*
X-5403368Y-11853475D01*
X-5196525Y-11646632D01*
X-5080000Y-11472240D01*
X-4963475Y-11646632D01*
X-4756632Y-11853475D01*
X-4513411Y-12015990D01*
X-4243158Y-12127932D01*
X-3956260Y-12185000D01*
X-3663740Y-12185000D01*
X-3376842Y-12127932D01*
X-3106589Y-12015990D01*
X-2863368Y-11853475D01*
X-2860301Y-11850408D01*
X-1476041Y-13234669D01*
X-1452975Y-13262775D01*
X-1340813Y-13354824D01*
X-1212849Y-13423222D01*
X-1074002Y-13465341D01*
X-1073999Y-13465342D01*
X-929600Y-13479564D01*
X-893414Y-13476000D01*
X5948117Y-13476000D01*
X5984300Y-13479564D01*
X6020483Y-13476000D01*
X6020486Y-13476000D01*
X6128699Y-13465342D01*
X6267549Y-13423222D01*
X6395513Y-13354824D01*
X6507675Y-13262775D01*
X6530745Y-13234664D01*
X7685158Y-12080252D01*
X7685506Y-12080537D01*
X7795820Y-12139502D01*
X7915518Y-12175812D01*
X8040000Y-12188072D01*
X9740000Y-12188072D01*
X9864482Y-12175812D01*
X9984180Y-12139502D01*
X10094494Y-12080537D01*
X10191185Y-12001185D01*
X10270537Y-11904494D01*
X10329502Y-11794180D01*
X10365812Y-11674482D01*
X10378072Y-11550000D01*
X10378072Y-9850000D01*
X10365812Y-9725518D01*
X10329502Y-9605820D01*
X10270537Y-9495506D01*
X10191185Y-9398815D01*
X10094494Y-9319463D01*
X9984180Y-9260498D01*
X9864482Y-9224188D01*
X9740000Y-9211928D01*
X8040000Y-9211928D01*
X7915518Y-9224188D01*
X7795820Y-9260498D01*
X7685506Y-9319463D01*
X7588815Y-9398815D01*
X7509463Y-9495506D01*
X7450498Y-9605820D01*
X7428487Y-9678380D01*
X7296632Y-9546525D01*
X7086600Y-9406186D01*
X7086600Y-6996675D01*
X7090163Y-6960499D01*
X7086600Y-6924323D01*
X7086600Y-6924314D01*
X7075942Y-6816101D01*
X7033822Y-6677251D01*
X6965424Y-6549287D01*
X6915524Y-6488484D01*
X6896442Y-6465232D01*
X6896437Y-6465227D01*
X6873374Y-6437125D01*
X6845273Y-6414063D01*
X6498010Y-6066800D01*
X8454517Y-6066800D01*
X8490700Y-6070364D01*
X8526883Y-6066800D01*
X8526886Y-6066800D01*
X8635099Y-6056142D01*
X8773949Y-6014022D01*
X8901913Y-5945624D01*
X9014075Y-5853575D01*
X9037146Y-5825463D01*
X9129730Y-5732879D01*
X9299629Y-5699084D01*
X9470662Y-5628240D01*
X9624587Y-5525390D01*
X9755490Y-5394487D01*
X9858340Y-5240562D01*
X9929184Y-5069529D01*
X9965300Y-4887962D01*
X9965300Y-4702838D01*
X9929184Y-4521271D01*
X9893562Y-4435271D01*
X10191845Y-4733555D01*
X10165000Y-4868514D01*
X10165000Y-5131486D01*
X10216304Y-5389405D01*
X10316939Y-5632359D01*
X10463038Y-5851013D01*
X10648987Y-6036962D01*
X10867641Y-6183061D01*
X11110595Y-6283696D01*
X11368514Y-6335000D01*
X11631486Y-6335000D01*
X11889405Y-6283696D01*
X12132359Y-6183061D01*
X12240001Y-6111138D01*
X12240001Y-14090000D01*
X-12240000Y-14090000D01*
X-12240000Y-11056891D01*
X-10331481Y-11056891D01*
X-10234157Y-11331252D01*
X-10085178Y-11581355D01*
X-9890269Y-11797588D01*
X-9656920Y-11971641D01*
X-9394099Y-12096825D01*
X-9246890Y-12141476D01*
X-9017000Y-12020155D01*
X-9017000Y-10827000D01*
X-10210814Y-10827000D01*
X-10331481Y-11056891D01*
X-12240000Y-11056891D01*
X-12240000Y-10343109D01*
X-10331481Y-10343109D01*
X-10210814Y-10573000D01*
X-9017000Y-10573000D01*
X-9017000Y-9379845D01*
X-9246890Y-9258524D01*
X-9394099Y-9303175D01*
X-9656920Y-9428359D01*
X-9890269Y-9602412D01*
X-10085178Y-9818645D01*
X-10234157Y-10068748D01*
X-10331481Y-10343109D01*
X-12240000Y-10343109D01*
X-12240000Y10923490D01*
X-12164884Y10888240D01*
X-11900040Y10822750D01*
X-11627508Y10810188D01*
X-11357762Y10851035D01*
X-11101168Y10943723D01*
X-10988137Y11004140D01*
X-10922612Y11243007D01*
X-11700000Y12020395D01*
X-11714143Y12006253D01*
X-11893748Y12185858D01*
X-11879605Y12200000D01*
X-11520395Y12200000D01*
X-10743007Y11422612D01*
X-10504140Y11488137D01*
X-10388240Y11735116D01*
X-10322750Y11999960D01*
X-10310188Y12272492D01*
X-10351035Y12542238D01*
X-10443723Y12798832D01*
X-10504140Y12911863D01*
X-10743007Y12977388D01*
X-11520395Y12200000D01*
X-11879605Y12200000D01*
X-11893748Y12214143D01*
X-11714143Y12393748D01*
X-11700000Y12379605D01*
X-10922612Y13156993D01*
X-10988137Y13395860D01*
X-11235116Y13511760D01*
X-11499960Y13577250D01*
X-11772492Y13589812D01*
X-12042238Y13548965D01*
X-12240000Y13477529D01*
X-12240000Y14090000D01*
X-5401398Y14090000D01*
X-5430537Y14054494D01*
G04 #@! TA.AperFunction,Conductor*
D22*
G36*
X-5430537Y14054494D02*
G01*
X-5489502Y13944180D01*
X-5525812Y13824482D01*
X-5538072Y13700000D01*
X-5535000Y13035750D01*
X-5376252Y12877002D01*
X-5486633Y12877002D01*
X-5624201Y13082886D01*
X-5817114Y13275799D01*
X-6043957Y13427371D01*
X-6296011Y13531775D01*
X-6563589Y13585000D01*
X-6836411Y13585000D01*
X-7103989Y13531775D01*
X-7356043Y13427371D01*
X-7582886Y13275799D01*
X-7775799Y13082886D01*
X-7927371Y12856043D01*
X-8031775Y12603989D01*
X-8085000Y12336411D01*
X-8085000Y12063589D01*
X-8031775Y11796011D01*
X-7927371Y11543957D01*
X-7775799Y11317114D01*
X-7582886Y11124201D01*
X-7356043Y10972629D01*
X-7116186Y10873277D01*
X-4784610Y8541700D01*
X-10495725Y8541700D01*
X-10531901Y8545263D01*
X-10568077Y8541700D01*
X-10568086Y8541700D01*
X-10676299Y8531042D01*
X-10815149Y8488922D01*
X-10943113Y8420524D01*
X-10943115Y8420523D01*
X-10943114Y8420523D01*
X-11021371Y8356299D01*
X-11055275Y8328475D01*
X-11078341Y8300368D01*
X-11173031Y8205679D01*
X-11342929Y8171884D01*
X-11513962Y8101040D01*
X-11667887Y7998190D01*
X-11798790Y7867287D01*
X-11901640Y7713362D01*
X-11972484Y7542329D01*
X-12008600Y7360762D01*
X-12008600Y7175638D01*
X-11972484Y6994071D01*
X-11901640Y6823038D01*
X-11798790Y6669113D01*
X-11667887Y6538210D01*
X-11513962Y6435360D01*
X-11342929Y6364516D01*
X-11161362Y6328400D01*
X-11000677Y6328400D01*
X-11129990Y6199087D01*
X-11232840Y6045162D01*
X-11303684Y5874129D01*
X-11339800Y5692562D01*
X-11339800Y5507438D01*
X-11303684Y5325871D01*
X-11232840Y5154838D01*
X-11136599Y5010805D01*
X-11136600Y4614200D01*
X-11268162Y4614200D01*
X-11449729Y4578084D01*
X-11620762Y4507240D01*
X-11774687Y4404390D01*
X-11905590Y4273487D01*
X-12008440Y4119562D01*
X-12079284Y3948529D01*
X-12115400Y3766962D01*
X-12115400Y3581838D01*
X-12079284Y3400271D01*
X-12008440Y3229238D01*
X-11905590Y3075313D01*
X-11774687Y2944410D01*
X-11620762Y2841560D01*
X-11449729Y2770716D01*
X-11268162Y2734600D01*
X-11083038Y2734600D01*
X-10901471Y2770716D01*
X-10730438Y2841560D01*
X-10576513Y2944410D01*
X-10445610Y3075313D01*
X-10342760Y3229238D01*
X-10334775Y3248516D01*
X-10094890Y3488400D01*
X-8185000Y3488400D01*
X-8185000Y3447998D01*
X-8130252Y3447998D01*
X-8185000Y3393250D01*
X-8173794Y3290771D01*
X-8135621Y3171654D01*
X-8129174Y3160032D01*
X-8135000Y3106750D01*
X-8080252Y3052002D01*
X-8135000Y3052002D01*
X-8135000Y3011600D01*
X-8916614Y3011600D01*
X-8952800Y3015164D01*
X-8988986Y3011600D01*
X-9097199Y3000942D01*
X-9236049Y2958822D01*
X-9364013Y2890424D01*
X-9476175Y2798375D01*
X-9494441Y2776118D01*
X-9663029Y2742584D01*
X-9834062Y2671740D01*
X-9987987Y2568890D01*
X-10118890Y2437987D01*
X-10221740Y2284062D01*
X-10292584Y2113029D01*
X-10328700Y1931462D01*
X-10328700Y1746338D01*
X-10292584Y1564771D01*
X-10221740Y1393738D01*
X-10118890Y1239813D01*
X-9987987Y1108910D01*
X-9834062Y1006060D01*
X-9663029Y935216D01*
X-9621018Y926859D01*
X-9729990Y817887D01*
X-9832840Y663962D01*
X-9903684Y492929D01*
X-9939800Y311362D01*
X-9939800Y126238D01*
X-9903684Y-55329D01*
X-9896364Y-73000D01*
X-10000000Y-73000D01*
X-10024776Y-75440D01*
X-10048601Y-82667D01*
X-10070557Y-94403D01*
X-10089803Y-110197D01*
X-10105597Y-129443D01*
X-10117333Y-151399D01*
X-10124560Y-175224D01*
X-10127000Y-200000D01*
X-10127000Y-4200000D01*
X-10124560Y-4224776D01*
X-10117333Y-4248601D01*
X-10105597Y-4270557D01*
X-10089803Y-4289803D01*
X-10070557Y-4305597D01*
X-10048601Y-4317333D01*
X-10024776Y-4324560D01*
X-10000000Y-4327000D01*
X-9607603Y-4327000D01*
X-9612840Y-4334838D01*
X-9683684Y-4505871D01*
X-9719800Y-4687438D01*
X-9719800Y-4872562D01*
X-9683684Y-5054129D01*
X-9612840Y-5225162D01*
X-9509990Y-5379087D01*
X-9379087Y-5509990D01*
X-9225162Y-5612840D01*
X-9054129Y-5683684D01*
X-8872562Y-5719800D01*
X-8687438Y-5719800D01*
X-8505871Y-5683684D01*
X-8334838Y-5612840D01*
X-8180913Y-5509990D01*
X-8050010Y-5379087D01*
X-8039312Y-5363077D01*
X-8030537Y-5379494D01*
X-7951185Y-5476185D01*
X-7854494Y-5555537D01*
X-7744180Y-5614502D01*
X-7624482Y-5650812D01*
X-7500000Y-5663072D01*
X-6100000Y-5663072D01*
X-5975518Y-5650812D01*
X-5855820Y-5614502D01*
X-5745506Y-5555537D01*
X-5648815Y-5476185D01*
X-5569463Y-5379494D01*
X-5510498Y-5269180D01*
X-5474188Y-5149482D01*
X-5461928Y-5025000D01*
X-5461928Y-4725000D01*
X-5474188Y-4600518D01*
X-5489512Y-4550000D01*
X-5474188Y-4499482D01*
X-5461928Y-4375000D01*
X-5461928Y-4075000D01*
X-5474188Y-3950518D01*
X-5489512Y-3900000D01*
X-5474188Y-3849482D01*
X-5461928Y-3725000D01*
X-5461928Y-3425000D01*
X-5474188Y-3300518D01*
X-5489512Y-3250000D01*
X-5474188Y-3199482D01*
X-5461928Y-3075000D01*
X-5461928Y-2932245D01*
X-5383687Y-2890424D01*
X-5271525Y-2798375D01*
X-5248454Y-2770263D01*
X-4525137Y-2046946D01*
X-4497025Y-2023875D01*
X-4404976Y-1911713D01*
X-4336578Y-1783749D01*
X-4294458Y-1644899D01*
X-4283800Y-1536686D01*
X-4283800Y-1536677D01*
X-4280237Y-1500501D01*
X-4283800Y-1464325D01*
X-4283800Y5262125D01*
X-4280237Y5298301D01*
X-4283800Y5334477D01*
X-4283800Y5334486D01*
X-4294458Y5442699D01*
X-4300291Y5461928D01*
X-4075000Y5461928D01*
X-3950518Y5474188D01*
X-3900000Y5489512D01*
X-3849482Y5474188D01*
X-3725000Y5461928D01*
X-3425000Y5461928D01*
X-3300518Y5474188D01*
X-3250000Y5489512D01*
X-3199482Y5474188D01*
X-3075000Y5461928D01*
X-2932244Y5461928D01*
X-2890424Y5383688D01*
X-2846527Y5330200D01*
X-2798374Y5271525D01*
X-2770268Y5248459D01*
X-2356746Y4834937D01*
X-2333675Y4806825D01*
X-2221513Y4714776D01*
X-2093549Y4646378D01*
X-1954699Y4604258D01*
X-1846486Y4593600D01*
X-1846477Y4593600D01*
X-1810301Y4590037D01*
X-1774125Y4593600D01*
X5476287Y4593600D01*
X5489512Y4550000D01*
X5474188Y4499482D01*
X5461928Y4375000D01*
X5461928Y4075000D01*
X5474188Y3950518D01*
X5489512Y3900000D01*
X5474188Y3849482D01*
X5461928Y3725000D01*
X5461928Y3425000D01*
X5474188Y3300518D01*
X5489512Y3250000D01*
X5474188Y3199482D01*
X5461928Y3075000D01*
X5461928Y2775000D01*
X5474188Y2650518D01*
X5489512Y2600000D01*
X5474188Y2549482D01*
X5461928Y2425000D01*
X5461928Y2125000D01*
X5474188Y2000518D01*
X5489512Y1950000D01*
X5474188Y1899482D01*
X5461928Y1775000D01*
X5461928Y1475000D01*
X5474188Y1350518D01*
X5489512Y1300000D01*
X5474188Y1249482D01*
X5464047Y1146511D01*
X5309262Y1177300D01*
X5124138Y1177300D01*
X4942571Y1141184D01*
X4771538Y1070340D01*
X4617613Y967490D01*
X4486710Y836587D01*
X4383860Y682662D01*
X4313016Y511629D01*
X4276900Y330062D01*
X4276900Y314200D01*
X1155110Y314200D01*
X-340555Y1809864D01*
X-363625Y1837975D01*
X-475787Y1930024D01*
X-603751Y1998422D01*
X-742601Y2040542D01*
X-850814Y2051200D01*
X-850817Y2051200D01*
X-887000Y2054764D01*
X-889387Y2054529D01*
X-1028438Y2147440D01*
X-1199471Y2218284D01*
X-1381038Y2254400D01*
X-1566162Y2254400D01*
X-1747729Y2218284D01*
X-1918762Y2147440D01*
X-2072687Y2044590D01*
X-2203590Y1913687D01*
X-2306440Y1759762D01*
X-2377284Y1588729D01*
X-2413400Y1407162D01*
X-2413400Y1222038D01*
X-2377284Y1040471D01*
X-2306440Y869438D01*
X-2203590Y715513D01*
X-2072687Y584610D01*
X-1918762Y481760D01*
X-1747729Y410916D01*
X-1566162Y374800D01*
X-1381038Y374800D01*
X-1199471Y410916D01*
X-1076119Y462010D01*
X-365662Y-248448D01*
X-417687Y-283210D01*
X-548590Y-414113D01*
X-583321Y-466091D01*
X-704951Y-401078D01*
X-843801Y-358958D01*
X-952014Y-348300D01*
X-952017Y-348300D01*
X-988200Y-344736D01*
X-1024383Y-348300D01*
X-1297256Y-348300D01*
X-1441438Y-251960D01*
X-1612471Y-181116D01*
X-1794038Y-145000D01*
X-1979162Y-145000D01*
X-2160729Y-181116D01*
X-2331762Y-251960D01*
X-2485687Y-354810D01*
X-2616590Y-485713D01*
X-2719440Y-639638D01*
X-2790284Y-810671D01*
X-2826400Y-992238D01*
X-2826400Y-1177362D01*
X-2790284Y-1358929D01*
X-2719440Y-1529962D01*
X-2616590Y-1683887D01*
X-2485687Y-1814790D01*
X-2331762Y-1917640D01*
X-2160729Y-1988484D01*
X-1979162Y-2024600D01*
X-1794038Y-2024600D01*
X-1612471Y-1988484D01*
X-1441438Y-1917640D01*
X-1297555Y-1821500D01*
X-1293309Y-1821500D01*
X-645459Y-2469350D01*
X-729040Y-2594438D01*
X-799884Y-2765471D01*
X-836000Y-2947038D01*
X-836000Y-3132162D01*
X-799884Y-3313729D01*
X-729040Y-3484762D01*
X-626190Y-3638687D01*
X-495287Y-3769590D01*
X-412810Y-3824700D01*
X-3605214Y-3824700D01*
X-3641400Y-3821136D01*
X-3677586Y-3824700D01*
X-3785799Y-3835358D01*
X-3924649Y-3877478D01*
X-4052613Y-3945876D01*
X-4164775Y-4037925D01*
X-4187841Y-4066031D01*
X-5370268Y-5248459D01*
X-5398374Y-5271525D01*
X-5421440Y-5299631D01*
X-5421442Y-5299633D01*
X-5490424Y-5383688D01*
X-5558822Y-5511653D01*
X-5562377Y-5523374D01*
X-5600940Y-5650500D01*
X-5600941Y-5650502D01*
X-5615164Y-5794900D01*
X-5611599Y-5831093D01*
X-5611599Y-5850389D01*
X-5614502Y-5855820D01*
X-5650812Y-5975518D01*
X-5663072Y-6100000D01*
X-5663072Y-7500000D01*
X-5650812Y-7624482D01*
X-5614502Y-7744180D01*
X-5555537Y-7854494D01*
X-5476185Y-7951185D01*
X-5379494Y-8030537D01*
X-5269180Y-8089502D01*
X-5149482Y-8125812D01*
X-5025000Y-8138072D01*
X-4725000Y-8138072D01*
X-4600518Y-8125812D01*
X-4550000Y-8110488D01*
X-4499482Y-8125812D01*
X-4375000Y-8138072D01*
X-4311600Y-8138072D01*
X-4311600Y-8473916D01*
X-4315164Y-8510100D01*
X-4311600Y-8546283D01*
X-4311600Y-8546285D01*
X-4300942Y-8654498D01*
X-4258822Y-8793348D01*
X-4190424Y-8921312D01*
X-4098375Y-9033474D01*
X-4070268Y-9056541D01*
X-3911809Y-9215000D01*
X-3956260Y-9215000D01*
X-4243158Y-9272068D01*
X-4513411Y-9384010D01*
X-4756632Y-9546525D01*
X-4963475Y-9753368D01*
X-5080000Y-9927760D01*
X-5196525Y-9753368D01*
X-5403368Y-9546525D01*
X-5646589Y-9384010D01*
X-5916842Y-9272068D01*
X-6203740Y-9215000D01*
X-6496260Y-9215000D01*
X-6783158Y-9272068D01*
X-7053411Y-9384010D01*
X-7296632Y-9546525D01*
X-7503475Y-9753368D01*
X-7625195Y-9935534D01*
X-7694822Y-9818645D01*
X-7889731Y-9602412D01*
X-8123080Y-9428359D01*
X-8385901Y-9303175D01*
X-8533110Y-9258524D01*
X-8763000Y-9379845D01*
X-8763000Y-10573000D01*
X-8743000Y-10573000D01*
X-8743000Y-10827000D01*
X-8763000Y-10827000D01*
X-8763000Y-12020155D01*
X-8533110Y-12141476D01*
X-8385901Y-12096825D01*
X-8123080Y-11971641D01*
X-7889731Y-11797588D01*
X-7694822Y-11581355D01*
X-7625195Y-11464466D01*
X-7503475Y-11646632D01*
X-7296632Y-11853475D01*
X-7053411Y-12015990D01*
X-6783158Y-12127932D01*
X-6496260Y-12185000D01*
X-6203740Y-12185000D01*
X-5916842Y-12127932D01*
X-5646589Y-12015990D01*
X-5403368Y-11853475D01*
X-5196525Y-11646632D01*
X-5080000Y-11472240D01*
X-4963475Y-11646632D01*
X-4756632Y-11853475D01*
X-4513411Y-12015990D01*
X-4243158Y-12127932D01*
X-3956260Y-12185000D01*
X-3663740Y-12185000D01*
X-3376842Y-12127932D01*
X-3106589Y-12015990D01*
X-2863368Y-11853475D01*
X-2860301Y-11850408D01*
X-1476041Y-13234669D01*
X-1452975Y-13262775D01*
X-1340813Y-13354824D01*
X-1212849Y-13423222D01*
X-1074002Y-13465341D01*
X-1073999Y-13465342D01*
X-929600Y-13479564D01*
X-893414Y-13476000D01*
X5948117Y-13476000D01*
X5984300Y-13479564D01*
X6020483Y-13476000D01*
X6020486Y-13476000D01*
X6128699Y-13465342D01*
X6267549Y-13423222D01*
X6395513Y-13354824D01*
X6507675Y-13262775D01*
X6530745Y-13234664D01*
X7685158Y-12080252D01*
X7685506Y-12080537D01*
X7795820Y-12139502D01*
X7915518Y-12175812D01*
X8040000Y-12188072D01*
X9740000Y-12188072D01*
X9864482Y-12175812D01*
X9984180Y-12139502D01*
X10094494Y-12080537D01*
X10191185Y-12001185D01*
X10270537Y-11904494D01*
X10329502Y-11794180D01*
X10365812Y-11674482D01*
X10378072Y-11550000D01*
X10378072Y-9850000D01*
X10365812Y-9725518D01*
X10329502Y-9605820D01*
X10270537Y-9495506D01*
X10191185Y-9398815D01*
X10094494Y-9319463D01*
X9984180Y-9260498D01*
X9864482Y-9224188D01*
X9740000Y-9211928D01*
X8040000Y-9211928D01*
X7915518Y-9224188D01*
X7795820Y-9260498D01*
X7685506Y-9319463D01*
X7588815Y-9398815D01*
X7509463Y-9495506D01*
X7450498Y-9605820D01*
X7428487Y-9678380D01*
X7296632Y-9546525D01*
X7086600Y-9406186D01*
X7086600Y-6996675D01*
X7090163Y-6960499D01*
X7086600Y-6924323D01*
X7086600Y-6924314D01*
X7075942Y-6816101D01*
X7033822Y-6677251D01*
X6965424Y-6549287D01*
X6915524Y-6488484D01*
X6896442Y-6465232D01*
X6896437Y-6465227D01*
X6873374Y-6437125D01*
X6845273Y-6414063D01*
X6498010Y-6066800D01*
X8454517Y-6066800D01*
X8490700Y-6070364D01*
X8526883Y-6066800D01*
X8526886Y-6066800D01*
X8635099Y-6056142D01*
X8773949Y-6014022D01*
X8901913Y-5945624D01*
X9014075Y-5853575D01*
X9037146Y-5825463D01*
X9129730Y-5732879D01*
X9299629Y-5699084D01*
X9470662Y-5628240D01*
X9624587Y-5525390D01*
X9755490Y-5394487D01*
X9858340Y-5240562D01*
X9929184Y-5069529D01*
X9965300Y-4887962D01*
X9965300Y-4702838D01*
X9929184Y-4521271D01*
X9893562Y-4435271D01*
X10191845Y-4733555D01*
X10165000Y-4868514D01*
X10165000Y-5131486D01*
X10216304Y-5389405D01*
X10316939Y-5632359D01*
X10463038Y-5851013D01*
X10648987Y-6036962D01*
X10867641Y-6183061D01*
X11110595Y-6283696D01*
X11368514Y-6335000D01*
X11631486Y-6335000D01*
X11889405Y-6283696D01*
X12132359Y-6183061D01*
X12240001Y-6111138D01*
X12240001Y-14090000D01*
X-12240000Y-14090000D01*
X-12240000Y-11056891D01*
X-10331481Y-11056891D01*
X-10234157Y-11331252D01*
X-10085178Y-11581355D01*
X-9890269Y-11797588D01*
X-9656920Y-11971641D01*
X-9394099Y-12096825D01*
X-9246890Y-12141476D01*
X-9017000Y-12020155D01*
X-9017000Y-10827000D01*
X-10210814Y-10827000D01*
X-10331481Y-11056891D01*
X-12240000Y-11056891D01*
X-12240000Y-10343109D01*
X-10331481Y-10343109D01*
X-10210814Y-10573000D01*
X-9017000Y-10573000D01*
X-9017000Y-9379845D01*
X-9246890Y-9258524D01*
X-9394099Y-9303175D01*
X-9656920Y-9428359D01*
X-9890269Y-9602412D01*
X-10085178Y-9818645D01*
X-10234157Y-10068748D01*
X-10331481Y-10343109D01*
X-12240000Y-10343109D01*
X-12240000Y10923490D01*
X-12164884Y10888240D01*
X-11900040Y10822750D01*
X-11627508Y10810188D01*
X-11357762Y10851035D01*
X-11101168Y10943723D01*
X-10988137Y11004140D01*
X-10922612Y11243007D01*
X-11700000Y12020395D01*
X-11714143Y12006253D01*
X-11893748Y12185858D01*
X-11879605Y12200000D01*
X-11520395Y12200000D01*
X-10743007Y11422612D01*
X-10504140Y11488137D01*
X-10388240Y11735116D01*
X-10322750Y11999960D01*
X-10310188Y12272492D01*
X-10351035Y12542238D01*
X-10443723Y12798832D01*
X-10504140Y12911863D01*
X-10743007Y12977388D01*
X-11520395Y12200000D01*
X-11879605Y12200000D01*
X-11893748Y12214143D01*
X-11714143Y12393748D01*
X-11700000Y12379605D01*
X-10922612Y13156993D01*
X-10988137Y13395860D01*
X-11235116Y13511760D01*
X-11499960Y13577250D01*
X-11772492Y13589812D01*
X-12042238Y13548965D01*
X-12240000Y13477529D01*
X-12240000Y14090000D01*
X-5401398Y14090000D01*
X-5430537Y14054494D01*
G37*
G04 #@! TD.AperFunction*
D21*
X12240001Y-72191D02*
X12182203Y155037D01*
X11943758Y265934D01*
X11688260Y328183D01*
X11425527Y339390D01*
X11165656Y299125D01*
X10918634Y208935D01*
X10817797Y155037D01*
X10758336Y-78731D01*
X11500000Y-820395D01*
X11514143Y-806253D01*
X11693748Y-985858D01*
X11679605Y-1000000D01*
X11693748Y-1014143D01*
X11514143Y-1193748D01*
X11500000Y-1179605D01*
X10852648Y-1826957D01*
X10648987Y-1963038D01*
X10463038Y-2148987D01*
X10316939Y-2367641D01*
X10286700Y-2440644D01*
X10286700Y-1569411D01*
X10291065Y-1581366D01*
X10344963Y-1682203D01*
X10578731Y-1741664D01*
X11320395Y-1000000D01*
X10578731Y-258336D01*
X10344963Y-317797D01*
X10286700Y-443071D01*
X10286700Y3370314D01*
X10290264Y3406500D01*
X10276042Y3550899D01*
X10258242Y3609576D01*
X10233922Y3689749D01*
X10165524Y3817713D01*
X10146857Y3840459D01*
X10096542Y3901768D01*
X10096537Y3901773D01*
X10073474Y3929875D01*
X10045373Y3952937D01*
X8172845Y5825464D01*
X8149775Y5853575D01*
X8037613Y5945624D01*
X7909649Y6014022D01*
X7770799Y6056142D01*
X7662586Y6066800D01*
X7662583Y6066800D01*
X7626400Y6070364D01*
X7590217Y6066800D01*
X6608509Y6066800D01*
X11391034Y10849324D01*
X11563589Y10815000D01*
X11836411Y10815000D01*
X12103989Y10868225D01*
X12240000Y10924563D01*
X12240001Y-72191D01*
G04 #@! TA.AperFunction,Conductor*
D22*
G36*
X12240001Y-72191D02*
G01*
X12182203Y155037D01*
X11943758Y265934D01*
X11688260Y328183D01*
X11425527Y339390D01*
X11165656Y299125D01*
X10918634Y208935D01*
X10817797Y155037D01*
X10758336Y-78731D01*
X11500000Y-820395D01*
X11514143Y-806253D01*
X11693748Y-985858D01*
X11679605Y-1000000D01*
X11693748Y-1014143D01*
X11514143Y-1193748D01*
X11500000Y-1179605D01*
X10852648Y-1826957D01*
X10648987Y-1963038D01*
X10463038Y-2148987D01*
X10316939Y-2367641D01*
X10286700Y-2440644D01*
X10286700Y-1569411D01*
X10291065Y-1581366D01*
X10344963Y-1682203D01*
X10578731Y-1741664D01*
X11320395Y-1000000D01*
X10578731Y-258336D01*
X10344963Y-317797D01*
X10286700Y-443071D01*
X10286700Y3370314D01*
X10290264Y3406500D01*
X10276042Y3550899D01*
X10258242Y3609576D01*
X10233922Y3689749D01*
X10165524Y3817713D01*
X10146857Y3840459D01*
X10096542Y3901768D01*
X10096537Y3901773D01*
X10073474Y3929875D01*
X10045373Y3952937D01*
X8172845Y5825464D01*
X8149775Y5853575D01*
X8037613Y5945624D01*
X7909649Y6014022D01*
X7770799Y6056142D01*
X7662586Y6066800D01*
X7662583Y6066800D01*
X7626400Y6070364D01*
X7590217Y6066800D01*
X6608509Y6066800D01*
X11391034Y10849324D01*
X11563589Y10815000D01*
X11836411Y10815000D01*
X12103989Y10868225D01*
X12240000Y10924563D01*
X12240001Y-72191D01*
G37*
G04 #@! TD.AperFunction*
D21*
X12240000Y13475437D02*
X12103989Y13531775D01*
X11836411Y13585000D01*
X11563589Y13585000D01*
X11296011Y13531775D01*
X11043957Y13427371D01*
X10817114Y13275799D01*
X10624201Y13082886D01*
X10472629Y12856043D01*
X10368225Y12603989D01*
X10315000Y12336411D01*
X10315000Y12063589D01*
X10349324Y11891034D01*
X5663072Y7204781D01*
X5663072Y7500000D01*
X5650812Y7624482D01*
X5614502Y7744180D01*
X5555537Y7854494D01*
X5476185Y7951185D01*
X5379494Y8030537D01*
X5269180Y8089502D01*
X5149482Y8125812D01*
X5025000Y8138072D01*
X4882245Y8138072D01*
X4840424Y8216313D01*
X4748375Y8328475D01*
X4720263Y8351546D01*
X4364646Y8707163D01*
X4341575Y8735275D01*
X4288849Y8778546D01*
X4394180Y8810498D01*
X4504494Y8869463D01*
X4601185Y8948815D01*
X4680537Y9045506D01*
X4739502Y9155820D01*
X4775812Y9275518D01*
X4788072Y9400000D01*
X4785000Y9914250D01*
X4626250Y10073000D01*
X3227000Y10073000D01*
X3227000Y10053000D01*
X2973000Y10053000D01*
X2973000Y10073000D01*
X2953000Y10073000D01*
X2953000Y10327000D01*
X2973000Y10327000D01*
X2973000Y10347000D01*
X3227000Y10347000D01*
X3227000Y10327000D01*
X4626250Y10327000D01*
X4785000Y10485750D01*
X4788072Y11000000D01*
X4775812Y11124482D01*
X4764247Y11162607D01*
X4900000Y11161928D01*
X5024482Y11174188D01*
X5144180Y11210498D01*
X5204999Y11243007D01*
X5922612Y11243007D01*
X5988137Y11004140D01*
X6235116Y10888240D01*
X6499960Y10822750D01*
X6772492Y10810188D01*
X7042238Y10851035D01*
X7298832Y10943723D01*
X7411863Y11004140D01*
X7477388Y11243007D01*
X6700000Y12020395D01*
X5922612Y11243007D01*
X5204999Y11243007D01*
X5254494Y11269463D01*
X5351185Y11348815D01*
X5430537Y11445506D01*
X5478732Y11535671D01*
X5504140Y11488137D01*
X5743007Y11422612D01*
X6520395Y12200000D01*
X6879605Y12200000D01*
X7656993Y11422612D01*
X7895860Y11488137D01*
X8011760Y11735116D01*
X8077250Y11999960D01*
X8089812Y12272492D01*
X8048965Y12542238D01*
X7956277Y12798832D01*
X7895860Y12911863D01*
X7656993Y12977388D01*
X6879605Y12200000D01*
X6520395Y12200000D01*
X5743007Y12977388D01*
X5504140Y12911863D01*
X5487781Y12877002D01*
X5376252Y12877002D01*
X5535000Y13035750D01*
X5535560Y13156993D01*
X5922612Y13156993D01*
X6700000Y12379605D01*
X7477388Y13156993D01*
X7411863Y13395860D01*
X7164884Y13511760D01*
X6900040Y13577250D01*
X6627508Y13589812D01*
X6357762Y13548965D01*
X6101168Y13456277D01*
X5988137Y13395860D01*
X5922612Y13156993D01*
X5535560Y13156993D01*
X5538072Y13700000D01*
X5525812Y13824482D01*
X5489502Y13944180D01*
X5430537Y14054494D01*
X5401398Y14090000D01*
X12240000Y14090000D01*
X12240000Y13475437D01*
G04 #@! TA.AperFunction,Conductor*
D22*
G36*
X12240000Y13475437D02*
G01*
X12103989Y13531775D01*
X11836411Y13585000D01*
X11563589Y13585000D01*
X11296011Y13531775D01*
X11043957Y13427371D01*
X10817114Y13275799D01*
X10624201Y13082886D01*
X10472629Y12856043D01*
X10368225Y12603989D01*
X10315000Y12336411D01*
X10315000Y12063589D01*
X10349324Y11891034D01*
X5663072Y7204781D01*
X5663072Y7500000D01*
X5650812Y7624482D01*
X5614502Y7744180D01*
X5555537Y7854494D01*
X5476185Y7951185D01*
X5379494Y8030537D01*
X5269180Y8089502D01*
X5149482Y8125812D01*
X5025000Y8138072D01*
X4882245Y8138072D01*
X4840424Y8216313D01*
X4748375Y8328475D01*
X4720263Y8351546D01*
X4364646Y8707163D01*
X4341575Y8735275D01*
X4288849Y8778546D01*
X4394180Y8810498D01*
X4504494Y8869463D01*
X4601185Y8948815D01*
X4680537Y9045506D01*
X4739502Y9155820D01*
X4775812Y9275518D01*
X4788072Y9400000D01*
X4785000Y9914250D01*
X4626250Y10073000D01*
X3227000Y10073000D01*
X3227000Y10053000D01*
X2973000Y10053000D01*
X2973000Y10073000D01*
X2953000Y10073000D01*
X2953000Y10327000D01*
X2973000Y10327000D01*
X2973000Y10347000D01*
X3227000Y10347000D01*
X3227000Y10327000D01*
X4626250Y10327000D01*
X4785000Y10485750D01*
X4788072Y11000000D01*
X4775812Y11124482D01*
X4764247Y11162607D01*
X4900000Y11161928D01*
X5024482Y11174188D01*
X5144180Y11210498D01*
X5204999Y11243007D01*
X5922612Y11243007D01*
X5988137Y11004140D01*
X6235116Y10888240D01*
X6499960Y10822750D01*
X6772492Y10810188D01*
X7042238Y10851035D01*
X7298832Y10943723D01*
X7411863Y11004140D01*
X7477388Y11243007D01*
X6700000Y12020395D01*
X5922612Y11243007D01*
X5204999Y11243007D01*
X5254494Y11269463D01*
X5351185Y11348815D01*
X5430537Y11445506D01*
X5478732Y11535671D01*
X5504140Y11488137D01*
X5743007Y11422612D01*
X6520395Y12200000D01*
X6879605Y12200000D01*
X7656993Y11422612D01*
X7895860Y11488137D01*
X8011760Y11735116D01*
X8077250Y11999960D01*
X8089812Y12272492D01*
X8048965Y12542238D01*
X7956277Y12798832D01*
X7895860Y12911863D01*
X7656993Y12977388D01*
X6879605Y12200000D01*
X6520395Y12200000D01*
X5743007Y12977388D01*
X5504140Y12911863D01*
X5487781Y12877002D01*
X5376252Y12877002D01*
X5535000Y13035750D01*
X5535560Y13156993D01*
X5922612Y13156993D01*
X6700000Y12379605D01*
X7477388Y13156993D01*
X7411863Y13395860D01*
X7164884Y13511760D01*
X6900040Y13577250D01*
X6627508Y13589812D01*
X6357762Y13548965D01*
X6101168Y13456277D01*
X5988137Y13395860D01*
X5922612Y13156993D01*
X5535560Y13156993D01*
X5538072Y13700000D01*
X5525812Y13824482D01*
X5489502Y13944180D01*
X5430537Y14054494D01*
X5401398Y14090000D01*
X12240000Y14090000D01*
X12240000Y13475437D01*
G37*
G04 #@! TD.AperFunction*
D21*
X-2973000Y10327000D02*
X-2953000Y10327000D01*
X-2953000Y10073000D01*
X-2973000Y10073000D01*
X-2973000Y10053000D01*
X-3227000Y10053000D01*
X-3227000Y10073000D01*
X-3247000Y10073000D01*
X-3247000Y10327000D01*
X-3227000Y10327000D01*
X-3227000Y10347000D01*
X-2973000Y10347000D01*
X-2973000Y10327000D01*
G04 #@! TA.AperFunction,Conductor*
D22*
G36*
X-2973000Y10327000D02*
G01*
X-2953000Y10327000D01*
X-2953000Y10073000D01*
X-2973000Y10073000D01*
X-2973000Y10053000D01*
X-3227000Y10053000D01*
X-3227000Y10073000D01*
X-3247000Y10073000D01*
X-3247000Y10327000D01*
X-3227000Y10327000D01*
X-3227000Y10347000D01*
X-2973000Y10347000D01*
X-2973000Y10327000D01*
G37*
G04 #@! TD.AperFunction*
D21*
X2569463Y14054494D02*
X2510498Y13944180D01*
X2474188Y13824482D01*
X2461928Y13700000D01*
X2465000Y13035750D01*
X2623750Y12877000D01*
X3873000Y12877000D01*
X3873000Y12897000D01*
X4127000Y12897000D01*
X4127000Y12877000D01*
X4147000Y12877000D01*
X4147000Y12623000D01*
X4127000Y12623000D01*
X4127000Y12603000D01*
X3873000Y12603000D01*
X3873000Y12623000D01*
X2623750Y12623000D01*
X2465000Y12464250D01*
X2461928Y11800000D01*
X2474188Y11675518D01*
X2486079Y11636319D01*
X2050000Y11638072D01*
X1925518Y11625812D01*
X1805820Y11589502D01*
X1695506Y11530537D01*
X1598815Y11451185D01*
X1578967Y11427000D01*
X-288791Y11427000D01*
X-412155Y11550364D01*
X-435225Y11578475D01*
X-547387Y11670524D01*
X-675351Y11738922D01*
X-814201Y11781042D01*
X-922414Y11791700D01*
X-922417Y11791700D01*
X-958600Y11795264D01*
X-994783Y11791700D01*
X-1263814Y11791700D01*
X-1300000Y11795264D01*
X-1336186Y11791700D01*
X-1444399Y11781042D01*
X-1583249Y11738922D01*
X-1711213Y11670524D01*
X-1808827Y11590414D01*
X-1925518Y11625812D01*
X-2050000Y11638072D01*
X-2486079Y11636319D01*
X-2474188Y11675518D01*
X-2461928Y11800000D01*
X-2465000Y12464250D01*
X-2623750Y12623000D01*
X-3873000Y12623000D01*
X-3873000Y12603000D01*
X-4127000Y12603000D01*
X-4127000Y12623000D01*
X-4147000Y12623000D01*
X-4147000Y12877000D01*
X-4127000Y12877000D01*
X-4127000Y12897000D01*
X-3873000Y12897000D01*
X-3873000Y12877000D01*
X-2623750Y12877000D01*
X-2465000Y13035750D01*
X-2461928Y13700000D01*
X-2474188Y13824482D01*
X-2510498Y13944180D01*
X-2569463Y14054494D01*
X-2598602Y14090000D01*
X2598602Y14090000D01*
X2569463Y14054494D01*
G04 #@! TA.AperFunction,Conductor*
D22*
G36*
X2569463Y14054494D02*
G01*
X2510498Y13944180D01*
X2474188Y13824482D01*
X2461928Y13700000D01*
X2465000Y13035750D01*
X2623750Y12877000D01*
X3873000Y12877000D01*
X3873000Y12897000D01*
X4127000Y12897000D01*
X4127000Y12877000D01*
X4147000Y12877000D01*
X4147000Y12623000D01*
X4127000Y12623000D01*
X4127000Y12603000D01*
X3873000Y12603000D01*
X3873000Y12623000D01*
X2623750Y12623000D01*
X2465000Y12464250D01*
X2461928Y11800000D01*
X2474188Y11675518D01*
X2486079Y11636319D01*
X2050000Y11638072D01*
X1925518Y11625812D01*
X1805820Y11589502D01*
X1695506Y11530537D01*
X1598815Y11451185D01*
X1578967Y11427000D01*
X-288791Y11427000D01*
X-412155Y11550364D01*
X-435225Y11578475D01*
X-547387Y11670524D01*
X-675351Y11738922D01*
X-814201Y11781042D01*
X-922414Y11791700D01*
X-922417Y11791700D01*
X-958600Y11795264D01*
X-994783Y11791700D01*
X-1263814Y11791700D01*
X-1300000Y11795264D01*
X-1336186Y11791700D01*
X-1444399Y11781042D01*
X-1583249Y11738922D01*
X-1711213Y11670524D01*
X-1808827Y11590414D01*
X-1925518Y11625812D01*
X-2050000Y11638072D01*
X-2486079Y11636319D01*
X-2474188Y11675518D01*
X-2461928Y11800000D01*
X-2465000Y12464250D01*
X-2623750Y12623000D01*
X-3873000Y12623000D01*
X-3873000Y12603000D01*
X-4127000Y12603000D01*
X-4127000Y12623000D01*
X-4147000Y12623000D01*
X-4147000Y12877000D01*
X-4127000Y12877000D01*
X-4127000Y12897000D01*
X-3873000Y12897000D01*
X-3873000Y12877000D01*
X-2623750Y12877000D01*
X-2465000Y13035750D01*
X-2461928Y13700000D01*
X-2474188Y13824482D01*
X-2510498Y13944180D01*
X-2569463Y14054494D01*
X-2598602Y14090000D01*
X2598602Y14090000D01*
X2569463Y14054494D01*
G37*
G04 #@! TD.AperFunction*
M02*
