G04 #@! TF.GenerationSoftware,KiCad,Pcbnew,(5.1.9-0-10_14)*
G04 #@! TF.CreationDate,2021-07-10T20:48:45+09:00*
G04 #@! TF.ProjectId,RL78Display,524c3738-4469-4737-906c-61792e6b6963,V2.1*
G04 #@! TF.SameCoordinates,Original*
G04 #@! TF.FileFunction,Copper,L1,Top*
G04 #@! TF.FilePolarity,Positive*
%FSLAX46Y46*%
G04 Gerber Fmt 4.6, Leading zero omitted, Abs format (unit mm)*
G04 Created by KiCad (PCBNEW (5.1.9-0-10_14)) date 2021-07-10 20:48:45*
%MOMM*%
%LPD*%
G01*
G04 APERTURE LIST*
G04 #@! TA.AperFunction,ComponentPad*
%ADD10O,1.500000X1.500000*%
G04 #@! TD*
G04 #@! TA.AperFunction,ComponentPad*
%ADD11R,1.500000X1.500000*%
G04 #@! TD*
G04 #@! TA.AperFunction,SMDPad,CuDef*
%ADD12R,0.650000X1.000000*%
G04 #@! TD*
G04 #@! TA.AperFunction,SMDPad,CuDef*
%ADD13R,0.350000X1.000000*%
G04 #@! TD*
G04 #@! TA.AperFunction,SMDPad,CuDef*
%ADD14R,1.060000X0.500000*%
G04 #@! TD*
G04 #@! TA.AperFunction,SMDPad,CuDef*
%ADD15R,2.000000X3.000000*%
G04 #@! TD*
G04 #@! TA.AperFunction,SMDPad,CuDef*
%ADD16R,0.400000X1.400000*%
G04 #@! TD*
G04 #@! TA.AperFunction,SMDPad,CuDef*
%ADD17R,1.000000X2.000000*%
G04 #@! TD*
G04 #@! TA.AperFunction,SMDPad,CuDef*
%ADD18R,3.200000X1.400000*%
G04 #@! TD*
G04 #@! TA.AperFunction,SMDPad,CuDef*
%ADD19R,1.200000X1.800000*%
G04 #@! TD*
G04 #@! TA.AperFunction,SMDPad,CuDef*
%ADD20R,1.500000X0.700000*%
G04 #@! TD*
G04 #@! TA.AperFunction,SMDPad,CuDef*
%ADD21C,0.100000*%
G04 #@! TD*
G04 #@! TA.AperFunction,ComponentPad*
%ADD22C,1.400000*%
G04 #@! TD*
G04 #@! TA.AperFunction,SMDPad,CuDef*
%ADD23R,0.900000X0.800000*%
G04 #@! TD*
G04 #@! TA.AperFunction,SMDPad,CuDef*
%ADD24R,1.800000X2.200000*%
G04 #@! TD*
G04 #@! TA.AperFunction,SMDPad,CuDef*
%ADD25R,0.150000X1.300000*%
G04 #@! TD*
G04 #@! TA.AperFunction,ViaPad*
%ADD26C,0.609600*%
G04 #@! TD*
G04 #@! TA.AperFunction,Conductor*
%ADD27C,0.203200*%
G04 #@! TD*
G04 APERTURE END LIST*
D10*
X-8890000Y-10050000D03*
X-6350000Y-10050000D03*
X-3810000Y-10050000D03*
X-1270000Y-10050000D03*
X1270000Y-10050000D03*
X3810000Y-10050000D03*
X6350000Y-10050000D03*
D11*
X8890000Y-10050000D03*
D12*
X1050000Y-14250000D03*
D13*
X200000Y-14250000D03*
X-500000Y-14250000D03*
X-1200000Y-14250000D03*
D12*
X-2050000Y-14250000D03*
X-2050000Y-12150000D03*
D13*
X-1200000Y-12150000D03*
X-500000Y-12150000D03*
X200000Y-12150000D03*
D12*
X1050000Y-12150000D03*
G04 #@! TA.AperFunction,SMDPad,CuDef*
G36*
G01*
X-7175000Y1550000D02*
X-7625000Y1550000D01*
G75*
G02*
X-7850000Y1775000I0J225000D01*
G01*
X-7850000Y2325000D01*
G75*
G02*
X-7625000Y2550000I225000J0D01*
G01*
X-7175000Y2550000D01*
G75*
G02*
X-6950000Y2325000I0J-225000D01*
G01*
X-6950000Y1775000D01*
G75*
G02*
X-7175000Y1550000I-225000J0D01*
G01*
G37*
G04 #@! TD.AperFunction*
G04 #@! TA.AperFunction,SMDPad,CuDef*
G36*
G01*
X-7175000Y3250000D02*
X-7625000Y3250000D01*
G75*
G02*
X-7850000Y3475000I0J225000D01*
G01*
X-7850000Y4025000D01*
G75*
G02*
X-7625000Y4250000I225000J0D01*
G01*
X-7175000Y4250000D01*
G75*
G02*
X-6950000Y4025000I0J-225000D01*
G01*
X-6950000Y3475000D01*
G75*
G02*
X-7175000Y3250000I-225000J0D01*
G01*
G37*
G04 #@! TD.AperFunction*
G04 #@! TA.AperFunction,SMDPad,CuDef*
G36*
G01*
X-8675000Y1550000D02*
X-9125000Y1550000D01*
G75*
G02*
X-9350000Y1775000I0J225000D01*
G01*
X-9350000Y2325000D01*
G75*
G02*
X-9125000Y2550000I225000J0D01*
G01*
X-8675000Y2550000D01*
G75*
G02*
X-8450000Y2325000I0J-225000D01*
G01*
X-8450000Y1775000D01*
G75*
G02*
X-8675000Y1550000I-225000J0D01*
G01*
G37*
G04 #@! TD.AperFunction*
G04 #@! TA.AperFunction,SMDPad,CuDef*
G36*
G01*
X-8675000Y3250000D02*
X-9125000Y3250000D01*
G75*
G02*
X-9350000Y3475000I0J225000D01*
G01*
X-9350000Y4025000D01*
G75*
G02*
X-9125000Y4250000I225000J0D01*
G01*
X-8675000Y4250000D01*
G75*
G02*
X-8450000Y4025000I0J-225000D01*
G01*
X-8450000Y3475000D01*
G75*
G02*
X-8675000Y3250000I-225000J0D01*
G01*
G37*
G04 #@! TD.AperFunction*
D14*
X-7500000Y-12450000D03*
X-7500000Y-14350000D03*
X-9700000Y-14350000D03*
X-9700000Y-13400000D03*
X-9700000Y-12450000D03*
X5900000Y12500000D03*
X5900000Y11550000D03*
X5900000Y13450000D03*
X8100000Y13450000D03*
X8100000Y12500000D03*
X8100000Y11550000D03*
X-8100000Y13450000D03*
X-8100000Y12500000D03*
X-8100000Y11550000D03*
X-5900000Y11550000D03*
X-5900000Y13450000D03*
X-5900000Y12500000D03*
D15*
X-4000000Y10400000D03*
X4000000Y10400000D03*
D16*
X-1600000Y7900000D03*
X-800000Y7900000D03*
X0Y7900000D03*
X800000Y7900000D03*
X1600000Y7900000D03*
G04 #@! TA.AperFunction,SMDPad,CuDef*
G36*
G01*
X12000000Y11975000D02*
X12000000Y11525000D01*
G75*
G02*
X11775000Y11300000I-225000J0D01*
G01*
X11225000Y11300000D01*
G75*
G02*
X11000000Y11525000I0J225000D01*
G01*
X11000000Y11975000D01*
G75*
G02*
X11225000Y12200000I225000J0D01*
G01*
X11775000Y12200000D01*
G75*
G02*
X12000000Y11975000I0J-225000D01*
G01*
G37*
G04 #@! TD.AperFunction*
G04 #@! TA.AperFunction,SMDPad,CuDef*
G36*
G01*
X10300000Y11975000D02*
X10300000Y11525000D01*
G75*
G02*
X10075000Y11300000I-225000J0D01*
G01*
X9525000Y11300000D01*
G75*
G02*
X9300000Y11525000I0J225000D01*
G01*
X9300000Y11975000D01*
G75*
G02*
X9525000Y12200000I225000J0D01*
G01*
X10075000Y12200000D01*
G75*
G02*
X10300000Y11975000I0J-225000D01*
G01*
G37*
G04 #@! TD.AperFunction*
G04 #@! TA.AperFunction,SMDPad,CuDef*
G36*
G01*
X-12000000Y11525000D02*
X-12000000Y11975000D01*
G75*
G02*
X-11775000Y12200000I225000J0D01*
G01*
X-11225000Y12200000D01*
G75*
G02*
X-11000000Y11975000I0J-225000D01*
G01*
X-11000000Y11525000D01*
G75*
G02*
X-11225000Y11300000I-225000J0D01*
G01*
X-11775000Y11300000D01*
G75*
G02*
X-12000000Y11525000I0J225000D01*
G01*
G37*
G04 #@! TD.AperFunction*
G04 #@! TA.AperFunction,SMDPad,CuDef*
G36*
G01*
X-10300000Y11525000D02*
X-10300000Y11975000D01*
G75*
G02*
X-10075000Y12200000I225000J0D01*
G01*
X-9525000Y12200000D01*
G75*
G02*
X-9300000Y11975000I0J-225000D01*
G01*
X-9300000Y11525000D01*
G75*
G02*
X-9525000Y11300000I-225000J0D01*
G01*
X-10075000Y11300000D01*
G75*
G02*
X-10300000Y11525000I0J225000D01*
G01*
G37*
G04 #@! TD.AperFunction*
G04 #@! TA.AperFunction,SMDPad,CuDef*
G36*
G01*
X4725000Y-14700000D02*
X4275000Y-14700000D01*
G75*
G02*
X4050000Y-14475000I0J225000D01*
G01*
X4050000Y-13925000D01*
G75*
G02*
X4275000Y-13700000I225000J0D01*
G01*
X4725000Y-13700000D01*
G75*
G02*
X4950000Y-13925000I0J-225000D01*
G01*
X4950000Y-14475000D01*
G75*
G02*
X4725000Y-14700000I-225000J0D01*
G01*
G37*
G04 #@! TD.AperFunction*
G04 #@! TA.AperFunction,SMDPad,CuDef*
G36*
G01*
X4725000Y-13000000D02*
X4275000Y-13000000D01*
G75*
G02*
X4050000Y-12775000I0J225000D01*
G01*
X4050000Y-12225000D01*
G75*
G02*
X4275000Y-12000000I225000J0D01*
G01*
X4725000Y-12000000D01*
G75*
G02*
X4950000Y-12225000I0J-225000D01*
G01*
X4950000Y-12775000D01*
G75*
G02*
X4725000Y-13000000I-225000J0D01*
G01*
G37*
G04 #@! TD.AperFunction*
G04 #@! TA.AperFunction,SMDPad,CuDef*
G36*
G01*
X12000000Y13475000D02*
X12000000Y13025000D01*
G75*
G02*
X11775000Y12800000I-225000J0D01*
G01*
X11225000Y12800000D01*
G75*
G02*
X11000000Y13025000I0J225000D01*
G01*
X11000000Y13475000D01*
G75*
G02*
X11225000Y13700000I225000J0D01*
G01*
X11775000Y13700000D01*
G75*
G02*
X12000000Y13475000I0J-225000D01*
G01*
G37*
G04 #@! TD.AperFunction*
G04 #@! TA.AperFunction,SMDPad,CuDef*
G36*
G01*
X10300000Y13475000D02*
X10300000Y13025000D01*
G75*
G02*
X10075000Y12800000I-225000J0D01*
G01*
X9525000Y12800000D01*
G75*
G02*
X9300000Y13025000I0J225000D01*
G01*
X9300000Y13475000D01*
G75*
G02*
X9525000Y13700000I225000J0D01*
G01*
X10075000Y13700000D01*
G75*
G02*
X10300000Y13475000I0J-225000D01*
G01*
G37*
G04 #@! TD.AperFunction*
G04 #@! TA.AperFunction,SMDPad,CuDef*
G36*
G01*
X-12000000Y13025000D02*
X-12000000Y13475000D01*
G75*
G02*
X-11775000Y13700000I225000J0D01*
G01*
X-11225000Y13700000D01*
G75*
G02*
X-11000000Y13475000I0J-225000D01*
G01*
X-11000000Y13025000D01*
G75*
G02*
X-11225000Y12800000I-225000J0D01*
G01*
X-11775000Y12800000D01*
G75*
G02*
X-12000000Y13025000I0J225000D01*
G01*
G37*
G04 #@! TD.AperFunction*
G04 #@! TA.AperFunction,SMDPad,CuDef*
G36*
G01*
X-10300000Y13025000D02*
X-10300000Y13475000D01*
G75*
G02*
X-10075000Y13700000I225000J0D01*
G01*
X-9525000Y13700000D01*
G75*
G02*
X-9300000Y13475000I0J-225000D01*
G01*
X-9300000Y13025000D01*
G75*
G02*
X-9525000Y12800000I-225000J0D01*
G01*
X-10075000Y12800000D01*
G75*
G02*
X-10300000Y13025000I0J225000D01*
G01*
G37*
G04 #@! TD.AperFunction*
G04 #@! TA.AperFunction,SMDPad,CuDef*
G36*
G01*
X-5525000Y-12000000D02*
X-5075000Y-12000000D01*
G75*
G02*
X-4850000Y-12225000I0J-225000D01*
G01*
X-4850000Y-12775000D01*
G75*
G02*
X-5075000Y-13000000I-225000J0D01*
G01*
X-5525000Y-13000000D01*
G75*
G02*
X-5750000Y-12775000I0J225000D01*
G01*
X-5750000Y-12225000D01*
G75*
G02*
X-5525000Y-12000000I225000J0D01*
G01*
G37*
G04 #@! TD.AperFunction*
G04 #@! TA.AperFunction,SMDPad,CuDef*
G36*
G01*
X-5525000Y-13700000D02*
X-5075000Y-13700000D01*
G75*
G02*
X-4850000Y-13925000I0J-225000D01*
G01*
X-4850000Y-14475000D01*
G75*
G02*
X-5075000Y-14700000I-225000J0D01*
G01*
X-5525000Y-14700000D01*
G75*
G02*
X-5750000Y-14475000I0J225000D01*
G01*
X-5750000Y-13925000D01*
G75*
G02*
X-5525000Y-13700000I225000J0D01*
G01*
G37*
G04 #@! TD.AperFunction*
G04 #@! TA.AperFunction,SMDPad,CuDef*
G36*
G01*
X-12125000Y-12000000D02*
X-11675000Y-12000000D01*
G75*
G02*
X-11450000Y-12225000I0J-225000D01*
G01*
X-11450000Y-12775000D01*
G75*
G02*
X-11675000Y-13000000I-225000J0D01*
G01*
X-12125000Y-13000000D01*
G75*
G02*
X-12350000Y-12775000I0J225000D01*
G01*
X-12350000Y-12225000D01*
G75*
G02*
X-12125000Y-12000000I225000J0D01*
G01*
G37*
G04 #@! TD.AperFunction*
G04 #@! TA.AperFunction,SMDPad,CuDef*
G36*
G01*
X-12125000Y-13700000D02*
X-11675000Y-13700000D01*
G75*
G02*
X-11450000Y-13925000I0J-225000D01*
G01*
X-11450000Y-14475000D01*
G75*
G02*
X-11675000Y-14700000I-225000J0D01*
G01*
X-12125000Y-14700000D01*
G75*
G02*
X-12350000Y-14475000I0J225000D01*
G01*
X-12350000Y-13925000D01*
G75*
G02*
X-12125000Y-13700000I225000J0D01*
G01*
G37*
G04 #@! TD.AperFunction*
G04 #@! TA.AperFunction,SMDPad,CuDef*
G36*
G01*
X3225000Y-14700000D02*
X2775000Y-14700000D01*
G75*
G02*
X2550000Y-14475000I0J225000D01*
G01*
X2550000Y-13925000D01*
G75*
G02*
X2775000Y-13700000I225000J0D01*
G01*
X3225000Y-13700000D01*
G75*
G02*
X3450000Y-13925000I0J-225000D01*
G01*
X3450000Y-14475000D01*
G75*
G02*
X3225000Y-14700000I-225000J0D01*
G01*
G37*
G04 #@! TD.AperFunction*
G04 #@! TA.AperFunction,SMDPad,CuDef*
G36*
G01*
X3225000Y-13000000D02*
X2775000Y-13000000D01*
G75*
G02*
X2550000Y-12775000I0J225000D01*
G01*
X2550000Y-12225000D01*
G75*
G02*
X2775000Y-12000000I225000J0D01*
G01*
X3225000Y-12000000D01*
G75*
G02*
X3450000Y-12225000I0J-225000D01*
G01*
X3450000Y-12775000D01*
G75*
G02*
X3225000Y-13000000I-225000J0D01*
G01*
G37*
G04 #@! TD.AperFunction*
D17*
X9800000Y-6500000D03*
X8300000Y-6500000D03*
G04 #@! TA.AperFunction,SMDPad,CuDef*
G36*
G01*
X-12125000Y-6500000D02*
X-11675000Y-6500000D01*
G75*
G02*
X-11450000Y-6725000I0J-225000D01*
G01*
X-11450000Y-7275000D01*
G75*
G02*
X-11675000Y-7500000I-225000J0D01*
G01*
X-12125000Y-7500000D01*
G75*
G02*
X-12350000Y-7275000I0J225000D01*
G01*
X-12350000Y-6725000D01*
G75*
G02*
X-12125000Y-6500000I225000J0D01*
G01*
G37*
G04 #@! TD.AperFunction*
G04 #@! TA.AperFunction,SMDPad,CuDef*
G36*
G01*
X-12125000Y-4800000D02*
X-11675000Y-4800000D01*
G75*
G02*
X-11450000Y-5025000I0J-225000D01*
G01*
X-11450000Y-5575000D01*
G75*
G02*
X-11675000Y-5800000I-225000J0D01*
G01*
X-12125000Y-5800000D01*
G75*
G02*
X-12350000Y-5575000I0J225000D01*
G01*
X-12350000Y-5025000D01*
G75*
G02*
X-12125000Y-4800000I225000J0D01*
G01*
G37*
G04 #@! TD.AperFunction*
G04 #@! TA.AperFunction,SMDPad,CuDef*
G36*
G01*
X-10625000Y-6500000D02*
X-10175000Y-6500000D01*
G75*
G02*
X-9950000Y-6725000I0J-225000D01*
G01*
X-9950000Y-7275000D01*
G75*
G02*
X-10175000Y-7500000I-225000J0D01*
G01*
X-10625000Y-7500000D01*
G75*
G02*
X-10850000Y-7275000I0J225000D01*
G01*
X-10850000Y-6725000D01*
G75*
G02*
X-10625000Y-6500000I225000J0D01*
G01*
G37*
G04 #@! TD.AperFunction*
G04 #@! TA.AperFunction,SMDPad,CuDef*
G36*
G01*
X-10625000Y-4800000D02*
X-10175000Y-4800000D01*
G75*
G02*
X-9950000Y-5025000I0J-225000D01*
G01*
X-9950000Y-5575000D01*
G75*
G02*
X-10175000Y-5800000I-225000J0D01*
G01*
X-10625000Y-5800000D01*
G75*
G02*
X-10850000Y-5575000I0J225000D01*
G01*
X-10850000Y-5025000D01*
G75*
G02*
X-10625000Y-4800000I225000J0D01*
G01*
G37*
G04 #@! TD.AperFunction*
G04 #@! TA.AperFunction,SMDPad,CuDef*
G36*
G01*
X-9125000Y-6500000D02*
X-8675000Y-6500000D01*
G75*
G02*
X-8450000Y-6725000I0J-225000D01*
G01*
X-8450000Y-7275000D01*
G75*
G02*
X-8675000Y-7500000I-225000J0D01*
G01*
X-9125000Y-7500000D01*
G75*
G02*
X-9350000Y-7275000I0J225000D01*
G01*
X-9350000Y-6725000D01*
G75*
G02*
X-9125000Y-6500000I225000J0D01*
G01*
G37*
G04 #@! TD.AperFunction*
G04 #@! TA.AperFunction,SMDPad,CuDef*
G36*
G01*
X-9125000Y-4800000D02*
X-8675000Y-4800000D01*
G75*
G02*
X-8450000Y-5025000I0J-225000D01*
G01*
X-8450000Y-5575000D01*
G75*
G02*
X-8675000Y-5800000I-225000J0D01*
G01*
X-9125000Y-5800000D01*
G75*
G02*
X-9350000Y-5575000I0J225000D01*
G01*
X-9350000Y-5025000D01*
G75*
G02*
X-9125000Y-4800000I225000J0D01*
G01*
G37*
G04 #@! TD.AperFunction*
G04 #@! TA.AperFunction,SMDPad,CuDef*
G36*
G01*
X-7625000Y-6500000D02*
X-7175000Y-6500000D01*
G75*
G02*
X-6950000Y-6725000I0J-225000D01*
G01*
X-6950000Y-7275000D01*
G75*
G02*
X-7175000Y-7500000I-225000J0D01*
G01*
X-7625000Y-7500000D01*
G75*
G02*
X-7850000Y-7275000I0J225000D01*
G01*
X-7850000Y-6725000D01*
G75*
G02*
X-7625000Y-6500000I225000J0D01*
G01*
G37*
G04 #@! TD.AperFunction*
G04 #@! TA.AperFunction,SMDPad,CuDef*
G36*
G01*
X-7625000Y-4800000D02*
X-7175000Y-4800000D01*
G75*
G02*
X-6950000Y-5025000I0J-225000D01*
G01*
X-6950000Y-5575000D01*
G75*
G02*
X-7175000Y-5800000I-225000J0D01*
G01*
X-7625000Y-5800000D01*
G75*
G02*
X-7850000Y-5575000I0J225000D01*
G01*
X-7850000Y-5025000D01*
G75*
G02*
X-7625000Y-4800000I225000J0D01*
G01*
G37*
G04 #@! TD.AperFunction*
G04 #@! TA.AperFunction,SMDPad,CuDef*
G36*
G01*
X-6125000Y-6500000D02*
X-5675000Y-6500000D01*
G75*
G02*
X-5450000Y-6725000I0J-225000D01*
G01*
X-5450000Y-7275000D01*
G75*
G02*
X-5675000Y-7500000I-225000J0D01*
G01*
X-6125000Y-7500000D01*
G75*
G02*
X-6350000Y-7275000I0J225000D01*
G01*
X-6350000Y-6725000D01*
G75*
G02*
X-6125000Y-6500000I225000J0D01*
G01*
G37*
G04 #@! TD.AperFunction*
G04 #@! TA.AperFunction,SMDPad,CuDef*
G36*
G01*
X-6125000Y-4800000D02*
X-5675000Y-4800000D01*
G75*
G02*
X-5450000Y-5025000I0J-225000D01*
G01*
X-5450000Y-5575000D01*
G75*
G02*
X-5675000Y-5800000I-225000J0D01*
G01*
X-6125000Y-5800000D01*
G75*
G02*
X-6350000Y-5575000I0J225000D01*
G01*
X-6350000Y-5025000D01*
G75*
G02*
X-6125000Y-4800000I225000J0D01*
G01*
G37*
G04 #@! TD.AperFunction*
D18*
X8400000Y8700000D03*
X8400000Y300000D03*
D19*
X-8500000Y-1300000D03*
X-11100000Y-1300000D03*
D20*
X-350000Y5000000D03*
X-350000Y2000000D03*
X-4050000Y5000000D03*
X-4050000Y2000000D03*
G04 #@! TA.AperFunction,SMDPad,CuDef*
D21*
G36*
X-1300000Y4000000D02*
G01*
X400000Y4000000D01*
X400000Y3000000D01*
X-1300000Y3000000D01*
X-1800000Y2500000D01*
X-2600000Y2500000D01*
X-2600000Y3000000D01*
X-4800000Y3000000D01*
X-4800000Y4000000D01*
X-2600000Y4000000D01*
X-2600000Y4500000D01*
X-1800000Y4500000D01*
X-1300000Y4000000D01*
G37*
G04 #@! TD.AperFunction*
D22*
X12000000Y-5000000D03*
X12000000Y-3000000D03*
X12000000Y-1000000D03*
G04 #@! TA.AperFunction,SMDPad,CuDef*
G36*
G01*
X9375000Y-950000D02*
X9825000Y-950000D01*
G75*
G02*
X10050000Y-1175000I0J-225000D01*
G01*
X10050000Y-1725000D01*
G75*
G02*
X9825000Y-1950000I-225000J0D01*
G01*
X9375000Y-1950000D01*
G75*
G02*
X9150000Y-1725000I0J225000D01*
G01*
X9150000Y-1175000D01*
G75*
G02*
X9375000Y-950000I225000J0D01*
G01*
G37*
G04 #@! TD.AperFunction*
G04 #@! TA.AperFunction,SMDPad,CuDef*
G36*
G01*
X9375000Y-2650000D02*
X9825000Y-2650000D01*
G75*
G02*
X10050000Y-2875000I0J-225000D01*
G01*
X10050000Y-3425000D01*
G75*
G02*
X9825000Y-3650000I-225000J0D01*
G01*
X9375000Y-3650000D01*
G75*
G02*
X9150000Y-3425000I0J225000D01*
G01*
X9150000Y-2875000D01*
G75*
G02*
X9375000Y-2650000I225000J0D01*
G01*
G37*
G04 #@! TD.AperFunction*
G04 #@! TA.AperFunction,SMDPad,CuDef*
G36*
G01*
X8325000Y-3650000D02*
X7875000Y-3650000D01*
G75*
G02*
X7650000Y-3425000I0J225000D01*
G01*
X7650000Y-2875000D01*
G75*
G02*
X7875000Y-2650000I225000J0D01*
G01*
X8325000Y-2650000D01*
G75*
G02*
X8550000Y-2875000I0J-225000D01*
G01*
X8550000Y-3425000D01*
G75*
G02*
X8325000Y-3650000I-225000J0D01*
G01*
G37*
G04 #@! TD.AperFunction*
G04 #@! TA.AperFunction,SMDPad,CuDef*
G36*
G01*
X8325000Y-1950000D02*
X7875000Y-1950000D01*
G75*
G02*
X7650000Y-1725000I0J225000D01*
G01*
X7650000Y-1175000D01*
G75*
G02*
X7875000Y-950000I225000J0D01*
G01*
X8325000Y-950000D01*
G75*
G02*
X8550000Y-1175000I0J-225000D01*
G01*
X8550000Y-1725000D01*
G75*
G02*
X8325000Y-1950000I-225000J0D01*
G01*
G37*
G04 #@! TD.AperFunction*
G04 #@! TA.AperFunction,SMDPad,CuDef*
G36*
G01*
X6825000Y-3650000D02*
X6375000Y-3650000D01*
G75*
G02*
X6150000Y-3425000I0J225000D01*
G01*
X6150000Y-2875000D01*
G75*
G02*
X6375000Y-2650000I225000J0D01*
G01*
X6825000Y-2650000D01*
G75*
G02*
X7050000Y-2875000I0J-225000D01*
G01*
X7050000Y-3425000D01*
G75*
G02*
X6825000Y-3650000I-225000J0D01*
G01*
G37*
G04 #@! TD.AperFunction*
G04 #@! TA.AperFunction,SMDPad,CuDef*
G36*
G01*
X6825000Y-1950000D02*
X6375000Y-1950000D01*
G75*
G02*
X6150000Y-1725000I0J225000D01*
G01*
X6150000Y-1175000D01*
G75*
G02*
X6375000Y-950000I225000J0D01*
G01*
X6825000Y-950000D01*
G75*
G02*
X7050000Y-1175000I0J-225000D01*
G01*
X7050000Y-1725000D01*
G75*
G02*
X6825000Y-1950000I-225000J0D01*
G01*
G37*
G04 #@! TD.AperFunction*
G04 #@! TA.AperFunction,SMDPad,CuDef*
G36*
G01*
X3325000Y2350000D02*
X2875000Y2350000D01*
G75*
G02*
X2650000Y2575000I0J225000D01*
G01*
X2650000Y3125000D01*
G75*
G02*
X2875000Y3350000I225000J0D01*
G01*
X3325000Y3350000D01*
G75*
G02*
X3550000Y3125000I0J-225000D01*
G01*
X3550000Y2575000D01*
G75*
G02*
X3325000Y2350000I-225000J0D01*
G01*
G37*
G04 #@! TD.AperFunction*
G04 #@! TA.AperFunction,SMDPad,CuDef*
G36*
G01*
X3325000Y4050000D02*
X2875000Y4050000D01*
G75*
G02*
X2650000Y4275000I0J225000D01*
G01*
X2650000Y4825000D01*
G75*
G02*
X2875000Y5050000I225000J0D01*
G01*
X3325000Y5050000D01*
G75*
G02*
X3550000Y4825000I0J-225000D01*
G01*
X3550000Y4275000D01*
G75*
G02*
X3325000Y4050000I-225000J0D01*
G01*
G37*
G04 #@! TD.AperFunction*
G04 #@! TA.AperFunction,SMDPad,CuDef*
G36*
G01*
X-10175000Y6400000D02*
X-10625000Y6400000D01*
G75*
G02*
X-10850000Y6625000I0J225000D01*
G01*
X-10850000Y7175000D01*
G75*
G02*
X-10625000Y7400000I225000J0D01*
G01*
X-10175000Y7400000D01*
G75*
G02*
X-9950000Y7175000I0J-225000D01*
G01*
X-9950000Y6625000D01*
G75*
G02*
X-10175000Y6400000I-225000J0D01*
G01*
G37*
G04 #@! TD.AperFunction*
G04 #@! TA.AperFunction,SMDPad,CuDef*
G36*
G01*
X-10175000Y8100000D02*
X-10625000Y8100000D01*
G75*
G02*
X-10850000Y8325000I0J225000D01*
G01*
X-10850000Y8875000D01*
G75*
G02*
X-10625000Y9100000I225000J0D01*
G01*
X-10175000Y9100000D01*
G75*
G02*
X-9950000Y8875000I0J-225000D01*
G01*
X-9950000Y8325000D01*
G75*
G02*
X-10175000Y8100000I-225000J0D01*
G01*
G37*
G04 #@! TD.AperFunction*
G04 #@! TA.AperFunction,SMDPad,CuDef*
G36*
G01*
X-10175000Y1550000D02*
X-10625000Y1550000D01*
G75*
G02*
X-10850000Y1775000I0J225000D01*
G01*
X-10850000Y2325000D01*
G75*
G02*
X-10625000Y2550000I225000J0D01*
G01*
X-10175000Y2550000D01*
G75*
G02*
X-9950000Y2325000I0J-225000D01*
G01*
X-9950000Y1775000D01*
G75*
G02*
X-10175000Y1550000I-225000J0D01*
G01*
G37*
G04 #@! TD.AperFunction*
G04 #@! TA.AperFunction,SMDPad,CuDef*
G36*
G01*
X-10175000Y3250000D02*
X-10625000Y3250000D01*
G75*
G02*
X-10850000Y3475000I0J225000D01*
G01*
X-10850000Y4025000D01*
G75*
G02*
X-10625000Y4250000I225000J0D01*
G01*
X-10175000Y4250000D01*
G75*
G02*
X-9950000Y4025000I0J-225000D01*
G01*
X-9950000Y3475000D01*
G75*
G02*
X-10175000Y3250000I-225000J0D01*
G01*
G37*
G04 #@! TD.AperFunction*
D23*
X6800000Y-7900000D03*
X6800000Y-6000000D03*
X4800000Y-6950000D03*
G04 #@! TA.AperFunction,SMDPad,CuDef*
G36*
G01*
X-8675000Y6400000D02*
X-9125000Y6400000D01*
G75*
G02*
X-9350000Y6625000I0J225000D01*
G01*
X-9350000Y7175000D01*
G75*
G02*
X-9125000Y7400000I225000J0D01*
G01*
X-8675000Y7400000D01*
G75*
G02*
X-8450000Y7175000I0J-225000D01*
G01*
X-8450000Y6625000D01*
G75*
G02*
X-8675000Y6400000I-225000J0D01*
G01*
G37*
G04 #@! TD.AperFunction*
G04 #@! TA.AperFunction,SMDPad,CuDef*
G36*
G01*
X-8675000Y8100000D02*
X-9125000Y8100000D01*
G75*
G02*
X-9350000Y8325000I0J225000D01*
G01*
X-9350000Y8875000D01*
G75*
G02*
X-9125000Y9100000I225000J0D01*
G01*
X-8675000Y9100000D01*
G75*
G02*
X-8450000Y8875000I0J-225000D01*
G01*
X-8450000Y8325000D01*
G75*
G02*
X-8675000Y8100000I-225000J0D01*
G01*
G37*
G04 #@! TD.AperFunction*
D24*
X4650000Y-3100000D03*
X-4650000Y-3100000D03*
D25*
X-2750000Y150000D03*
X-2250000Y150000D03*
X-1750000Y150000D03*
X-1250000Y150000D03*
X-750000Y150000D03*
X-250000Y150000D03*
X250000Y150000D03*
X750000Y150000D03*
X1250000Y150000D03*
X1750000Y150000D03*
X2250000Y150000D03*
X2750000Y150000D03*
G04 #@! TA.AperFunction,SMDPad,CuDef*
G36*
G01*
X-7625000Y9100000D02*
X-7175000Y9100000D01*
G75*
G02*
X-6950000Y8875000I0J-225000D01*
G01*
X-6950000Y8325000D01*
G75*
G02*
X-7175000Y8100000I-225000J0D01*
G01*
X-7625000Y8100000D01*
G75*
G02*
X-7850000Y8325000I0J225000D01*
G01*
X-7850000Y8875000D01*
G75*
G02*
X-7625000Y9100000I225000J0D01*
G01*
G37*
G04 #@! TD.AperFunction*
G04 #@! TA.AperFunction,SMDPad,CuDef*
G36*
G01*
X-7625000Y7400000D02*
X-7175000Y7400000D01*
G75*
G02*
X-6950000Y7175000I0J-225000D01*
G01*
X-6950000Y6625000D01*
G75*
G02*
X-7175000Y6400000I-225000J0D01*
G01*
X-7625000Y6400000D01*
G75*
G02*
X-7850000Y6625000I0J225000D01*
G01*
X-7850000Y7175000D01*
G75*
G02*
X-7625000Y7400000I225000J0D01*
G01*
G37*
G04 #@! TD.AperFunction*
G04 #@! TA.AperFunction,SMDPad,CuDef*
G36*
G01*
X-11675000Y6400000D02*
X-12125000Y6400000D01*
G75*
G02*
X-12350000Y6625000I0J225000D01*
G01*
X-12350000Y7175000D01*
G75*
G02*
X-12125000Y7400000I225000J0D01*
G01*
X-11675000Y7400000D01*
G75*
G02*
X-11450000Y7175000I0J-225000D01*
G01*
X-11450000Y6625000D01*
G75*
G02*
X-11675000Y6400000I-225000J0D01*
G01*
G37*
G04 #@! TD.AperFunction*
G04 #@! TA.AperFunction,SMDPad,CuDef*
G36*
G01*
X-11675000Y8100000D02*
X-12125000Y8100000D01*
G75*
G02*
X-12350000Y8325000I0J225000D01*
G01*
X-12350000Y8875000D01*
G75*
G02*
X-12125000Y9100000I225000J0D01*
G01*
X-11675000Y9100000D01*
G75*
G02*
X-11450000Y8875000I0J-225000D01*
G01*
X-11450000Y8325000D01*
G75*
G02*
X-11675000Y8100000I-225000J0D01*
G01*
G37*
G04 #@! TD.AperFunction*
G04 #@! TA.AperFunction,SMDPad,CuDef*
G36*
G01*
X-11675000Y1550000D02*
X-12125000Y1550000D01*
G75*
G02*
X-12350000Y1775000I0J225000D01*
G01*
X-12350000Y2325000D01*
G75*
G02*
X-12125000Y2550000I225000J0D01*
G01*
X-11675000Y2550000D01*
G75*
G02*
X-11450000Y2325000I0J-225000D01*
G01*
X-11450000Y1775000D01*
G75*
G02*
X-11675000Y1550000I-225000J0D01*
G01*
G37*
G04 #@! TD.AperFunction*
G04 #@! TA.AperFunction,SMDPad,CuDef*
G36*
G01*
X-11675000Y3250000D02*
X-12125000Y3250000D01*
G75*
G02*
X-12350000Y3475000I0J225000D01*
G01*
X-12350000Y4025000D01*
G75*
G02*
X-12125000Y4250000I225000J0D01*
G01*
X-11675000Y4250000D01*
G75*
G02*
X-11450000Y4025000I0J-225000D01*
G01*
X-11450000Y3475000D01*
G75*
G02*
X-11675000Y3250000I-225000J0D01*
G01*
G37*
G04 #@! TD.AperFunction*
G04 #@! TA.AperFunction,SMDPad,CuDef*
G36*
G01*
X-3575000Y-14700000D02*
X-4025000Y-14700000D01*
G75*
G02*
X-4250000Y-14475000I0J225000D01*
G01*
X-4250000Y-13925000D01*
G75*
G02*
X-4025000Y-13700000I225000J0D01*
G01*
X-3575000Y-13700000D01*
G75*
G02*
X-3350000Y-13925000I0J-225000D01*
G01*
X-3350000Y-14475000D01*
G75*
G02*
X-3575000Y-14700000I-225000J0D01*
G01*
G37*
G04 #@! TD.AperFunction*
G04 #@! TA.AperFunction,SMDPad,CuDef*
G36*
G01*
X-3575000Y-13000000D02*
X-4025000Y-13000000D01*
G75*
G02*
X-4250000Y-12775000I0J225000D01*
G01*
X-4250000Y-12225000D01*
G75*
G02*
X-4025000Y-12000000I225000J0D01*
G01*
X-3575000Y-12000000D01*
G75*
G02*
X-3350000Y-12225000I0J-225000D01*
G01*
X-3350000Y-12775000D01*
G75*
G02*
X-3575000Y-13000000I-225000J0D01*
G01*
G37*
G04 #@! TD.AperFunction*
G04 #@! TA.AperFunction,SMDPad,CuDef*
G36*
G01*
X1825000Y2350000D02*
X1375000Y2350000D01*
G75*
G02*
X1150000Y2575000I0J225000D01*
G01*
X1150000Y3125000D01*
G75*
G02*
X1375000Y3350000I225000J0D01*
G01*
X1825000Y3350000D01*
G75*
G02*
X2050000Y3125000I0J-225000D01*
G01*
X2050000Y2575000D01*
G75*
G02*
X1825000Y2350000I-225000J0D01*
G01*
G37*
G04 #@! TD.AperFunction*
G04 #@! TA.AperFunction,SMDPad,CuDef*
G36*
G01*
X1825000Y4050000D02*
X1375000Y4050000D01*
G75*
G02*
X1150000Y4275000I0J225000D01*
G01*
X1150000Y4825000D01*
G75*
G02*
X1375000Y5050000I225000J0D01*
G01*
X1825000Y5050000D01*
G75*
G02*
X2050000Y4825000I0J-225000D01*
G01*
X2050000Y4275000D01*
G75*
G02*
X1825000Y4050000I-225000J0D01*
G01*
G37*
G04 #@! TD.AperFunction*
G04 #@! TA.AperFunction,SMDPad,CuDef*
G36*
G01*
X-6125000Y4250000D02*
X-5675000Y4250000D01*
G75*
G02*
X-5450000Y4025000I0J-225000D01*
G01*
X-5450000Y3475000D01*
G75*
G02*
X-5675000Y3250000I-225000J0D01*
G01*
X-6125000Y3250000D01*
G75*
G02*
X-6350000Y3475000I0J225000D01*
G01*
X-6350000Y4025000D01*
G75*
G02*
X-6125000Y4250000I225000J0D01*
G01*
G37*
G04 #@! TD.AperFunction*
G04 #@! TA.AperFunction,SMDPad,CuDef*
G36*
G01*
X-6125000Y2550000D02*
X-5675000Y2550000D01*
G75*
G02*
X-5450000Y2325000I0J-225000D01*
G01*
X-5450000Y1775000D01*
G75*
G02*
X-5675000Y1550000I-225000J0D01*
G01*
X-6125000Y1550000D01*
G75*
G02*
X-6350000Y1775000I0J225000D01*
G01*
X-6350000Y2325000D01*
G75*
G02*
X-6125000Y2550000I225000J0D01*
G01*
G37*
G04 #@! TD.AperFunction*
G04 #@! TA.AperFunction,SMDPad,CuDef*
G36*
G01*
X-7900000Y-2750000D02*
X-7900000Y-3050000D01*
G75*
G02*
X-8050000Y-3200000I-150000J0D01*
G01*
X-8350000Y-3200000D01*
G75*
G02*
X-8500000Y-3050000I0J150000D01*
G01*
X-8500000Y-2750000D01*
G75*
G02*
X-8350000Y-2600000I150000J0D01*
G01*
X-8050000Y-2600000D01*
G75*
G02*
X-7900000Y-2750000I0J-150000D01*
G01*
G37*
G04 #@! TD.AperFunction*
G04 #@! TA.AperFunction,SMDPad,CuDef*
G36*
G01*
X-8900000Y-2750000D02*
X-8900000Y-3050000D01*
G75*
G02*
X-9050000Y-3200000I-150000J0D01*
G01*
X-9350000Y-3200000D01*
G75*
G02*
X-9500000Y-3050000I0J150000D01*
G01*
X-9500000Y-2750000D01*
G75*
G02*
X-9350000Y-2600000I150000J0D01*
G01*
X-9050000Y-2600000D01*
G75*
G02*
X-8900000Y-2750000I0J-150000D01*
G01*
G37*
G04 #@! TD.AperFunction*
G04 #@! TA.AperFunction,SMDPad,CuDef*
G36*
G01*
X-11700000Y-3050000D02*
X-11700000Y-2750000D01*
G75*
G02*
X-11550000Y-2600000I150000J0D01*
G01*
X-11250000Y-2600000D01*
G75*
G02*
X-11100000Y-2750000I0J-150000D01*
G01*
X-11100000Y-3050000D01*
G75*
G02*
X-11250000Y-3200000I-150000J0D01*
G01*
X-11550000Y-3200000D01*
G75*
G02*
X-11700000Y-3050000I0J150000D01*
G01*
G37*
G04 #@! TD.AperFunction*
G04 #@! TA.AperFunction,SMDPad,CuDef*
G36*
G01*
X-10700000Y-3050000D02*
X-10700000Y-2750000D01*
G75*
G02*
X-10550000Y-2600000I150000J0D01*
G01*
X-10250000Y-2600000D01*
G75*
G02*
X-10100000Y-2750000I0J-150000D01*
G01*
X-10100000Y-3050000D01*
G75*
G02*
X-10250000Y-3200000I-150000J0D01*
G01*
X-10550000Y-3200000D01*
G75*
G02*
X-10700000Y-3050000I0J150000D01*
G01*
G37*
G04 #@! TD.AperFunction*
D26*
X-9853800Y-1025300D03*
X-9618000Y-1838500D03*
X-5574200Y4790600D03*
X-5123800Y8022100D03*
X-1067100Y11111000D03*
X-5536700Y7285100D03*
X-6116300Y6662400D03*
X-10400000Y4769400D03*
X-3499200Y-336300D03*
X-2001400Y-2312700D03*
X-2082800Y-3486400D03*
X-2888600Y-2312500D03*
X-665000Y-1647900D03*
X-3110600Y-3584100D03*
X4000Y-1023100D03*
X5573700Y-5020600D03*
X6295800Y-6913400D03*
X5282600Y430700D03*
X-809100Y-8044800D03*
X8795900Y4875000D03*
X9669400Y4789800D03*
X-9792000Y347000D03*
X-1700000Y11800000D03*
X-8817800Y1038900D03*
X-500000Y-13163300D03*
X5461400Y-14199900D03*
X-5306900Y-11488700D03*
X2040100Y-11987000D03*
X5326200Y8481200D03*
X5326200Y2605700D03*
X6463900Y6948300D03*
X3155100Y-4037700D03*
X-6414100Y-8123500D03*
X-11678400Y4779000D03*
X-8900000Y5366200D03*
X-5096600Y-8784500D03*
X-8014500Y5027600D03*
X-8100000Y10700000D03*
X7000000Y13450000D03*
D27*
X-11100000Y-1300000D02*
X-11100000Y-2505100D01*
X-11400000Y-2900000D02*
X-11400000Y-2805100D01*
X-11400000Y-2805100D02*
X-11100000Y-2505100D01*
X-10194900Y-1300000D02*
X-9920200Y-1025300D01*
X-9920200Y-1025300D02*
X-9853800Y-1025300D01*
X-11100000Y-1300000D02*
X-10194900Y-1300000D01*
X-8500000Y-1850100D02*
X-9606400Y-1850100D01*
X-9606400Y-1850100D02*
X-9618000Y-1838500D01*
X-8500000Y-1850100D02*
X-8500000Y-2505100D01*
X-8500000Y-1300000D02*
X-8500000Y-1850100D01*
X-8200000Y-2900000D02*
X-8200000Y-2805100D01*
X-8200000Y-2805100D02*
X-8500000Y-2505100D01*
X-5900000Y4790600D02*
X-6790600Y4790600D01*
X-6790600Y4790600D02*
X-8900000Y6900000D01*
X-5900000Y3750000D02*
X-5900000Y4790600D01*
X-5900000Y4790600D02*
X-5574200Y4790600D01*
X-5574200Y4790600D02*
X-5364800Y5000000D01*
X-5364800Y5000000D02*
X-4050000Y5000000D01*
X-4050000Y5000000D02*
X-350000Y5000000D01*
X-7405100Y-10050000D02*
X-7405100Y-10572700D01*
X-7405100Y-10572700D02*
X-9282400Y-12450000D01*
X2341100Y11682700D02*
X3158400Y12500000D01*
X3158400Y12500000D02*
X5900000Y12500000D01*
X705100Y5000000D02*
X2341100Y6636000D01*
X2341100Y6636000D02*
X2341100Y11682700D01*
X-8900000Y6900000D02*
X-10400000Y6900000D01*
X-6350000Y-10050000D02*
X-7405100Y-10050000D01*
X-8900000Y2050000D02*
X-7400000Y2050000D01*
X-10400000Y2050000D02*
X-8900000Y2050000D01*
X-9282400Y-12450000D02*
X-8864900Y-12450000D01*
X-9700000Y-12450000D02*
X-9282400Y-12450000D01*
X-9700000Y-14350000D02*
X-8864900Y-14350000D01*
X-8864900Y-14350000D02*
X-8864900Y-12450000D01*
X-9700000Y-12450000D02*
X-11850000Y-12450000D01*
X-11850000Y-12450000D02*
X-11900000Y-12500000D01*
X-350000Y5000000D02*
X705100Y5000000D01*
X-5900000Y3750000D02*
X-5900000Y3550000D01*
X-5900000Y3550000D02*
X-7400000Y2050000D01*
X1523800Y12500000D02*
X2341100Y11682700D01*
X-5900000Y12500000D02*
X1523800Y12500000D01*
X-11900000Y6900000D02*
X-11071300Y7728700D01*
X-11071300Y7728700D02*
X-6009000Y7728700D01*
X-6009000Y7728700D02*
X-5715600Y8022100D01*
X-5715600Y8022100D02*
X-5123800Y8022100D01*
X-11900000Y8600000D02*
X-10400000Y8600000D01*
X-7400000Y8600000D02*
X-8900000Y8600000D01*
X1600000Y7900000D02*
X1600000Y6894900D01*
X-7400000Y6900000D02*
X-6549200Y6049200D01*
X-6549200Y6049200D02*
X754300Y6049200D01*
X754300Y6049200D02*
X1600000Y6894900D01*
X1600000Y8905100D02*
X1138800Y8905100D01*
X1138800Y8905100D02*
X-1067100Y11111000D01*
X1600000Y7900000D02*
X1600000Y8905100D01*
X0Y6894900D02*
X-5146500Y6894900D01*
X-5146500Y6894900D02*
X-5536700Y7285100D01*
X0Y7900000D02*
X0Y6894900D01*
X-6116300Y6662400D02*
X-5942100Y6488200D01*
X-5942100Y6488200D02*
X393300Y6488200D01*
X393300Y6488200D02*
X800000Y6894900D01*
X800000Y7900000D02*
X800000Y6894900D01*
X-10400000Y3750000D02*
X-10400000Y4769400D01*
X-3499200Y-336300D02*
X-5474500Y-336300D01*
X-5474500Y-336300D02*
X-7236700Y-2098500D01*
X-7236700Y-2098500D02*
X-7236700Y-2889400D01*
X-7236700Y-2889400D02*
X-8278200Y-3930900D01*
X-8278200Y-3930900D02*
X-10531000Y-3930900D01*
X-10531000Y-3930900D02*
X-10531000Y-3931000D01*
X-10531000Y-3931000D02*
X-11900000Y-5300000D01*
X-3499200Y-336300D02*
X-3030400Y-805100D01*
X-3030400Y-805100D02*
X-2250000Y-805100D01*
X-2250000Y150000D02*
X-2250000Y-805100D01*
X-2112400Y-1276200D02*
X-5839200Y-1276200D01*
X-5839200Y-1276200D02*
X-6808600Y-2245600D01*
X-6808600Y-2245600D02*
X-6808600Y-3101100D01*
X-6808600Y-3101100D02*
X-8045200Y-4337700D01*
X-8045200Y-4337700D02*
X-9437700Y-4337700D01*
X-9437700Y-4337700D02*
X-10400000Y-5300000D01*
X-1750000Y150000D02*
X-1750000Y-913800D01*
X-1750000Y-913800D02*
X-2112400Y-1276200D01*
X-2112400Y-1276200D02*
X-2112400Y-2201700D01*
X-2112400Y-2201700D02*
X-2001400Y-2312700D01*
X-8900000Y-5300000D02*
X-8073100Y-6126900D01*
X-8073100Y-6126900D02*
X-4604200Y-6126900D01*
X-4604200Y-6126900D02*
X-2082800Y-3605500D01*
X-2082800Y-3605500D02*
X-2082800Y-3486400D01*
X-2082800Y-3486400D02*
X-1298900Y-2702500D01*
X-1298900Y-2702500D02*
X-1298900Y-854000D01*
X-1298900Y-854000D02*
X-1250000Y-805100D01*
X-1250000Y150000D02*
X-1250000Y-805100D01*
X-7400000Y-5300000D02*
X-5984600Y-3884600D01*
X-5984600Y-3884600D02*
X-5984600Y-1996900D01*
X-5984600Y-1996900D02*
X-5682500Y-1694800D01*
X-5682500Y-1694800D02*
X-3506300Y-1694800D01*
X-3506300Y-1694800D02*
X-2888600Y-2312500D01*
X-750000Y150000D02*
X-750000Y-1562900D01*
X-750000Y-1562900D02*
X-665000Y-1647900D01*
X-3110600Y-3584100D02*
X-3110600Y-4011000D01*
X-3110600Y-4011000D02*
X-4399600Y-5300000D01*
X-4399600Y-5300000D02*
X-5900000Y-5300000D01*
X-250000Y-805100D02*
X-214000Y-805100D01*
X-214000Y-805100D02*
X4000Y-1023100D01*
X-250000Y150000D02*
X-250000Y-805100D01*
X1750000Y150000D02*
X1750000Y1500000D01*
X1750000Y1500000D02*
X3100000Y2850000D01*
X2250000Y150000D02*
X2250000Y-3995100D01*
X2250000Y-3995100D02*
X4499800Y-6244900D01*
X4499800Y-6244900D02*
X4800000Y-6244900D01*
X4800000Y-6950000D02*
X4800000Y-6244900D01*
X9600000Y-1450000D02*
X9600000Y-900000D01*
X9600000Y-900000D02*
X8400000Y300000D01*
X6800000Y-7194900D02*
X6577300Y-7194900D01*
X6577300Y-7194900D02*
X6295800Y-6913400D01*
X6600000Y-3150000D02*
X8100000Y-3150000D01*
X6600000Y-3150000D02*
X6600000Y-3994300D01*
X6600000Y-3994300D02*
X5573700Y-5020600D01*
X6800000Y-7900000D02*
X6800000Y-7194900D01*
X6600000Y-1450000D02*
X5282600Y-132600D01*
X5282600Y-132600D02*
X5282600Y430700D01*
X9600000Y-3150000D02*
X8462900Y-4287100D01*
X8462900Y-4287100D02*
X7170800Y-4287100D01*
X7170800Y-4287100D02*
X5685800Y-5772100D01*
X5685800Y-5772100D02*
X5685800Y-7347500D01*
X5685800Y-7347500D02*
X4988500Y-8044800D01*
X4988500Y-8044800D02*
X-809100Y-8044800D01*
X-7264900Y13450000D02*
X-6280100Y14434800D01*
X-6280100Y14434800D02*
X11613400Y14434800D01*
X11613400Y14434800D02*
X12310800Y13737400D01*
X12310800Y13737400D02*
X12310800Y6516300D01*
X12310800Y6516300D02*
X9951600Y4157100D01*
X9951600Y4157100D02*
X9382000Y4157100D01*
X9382000Y4157100D02*
X8795900Y4743200D01*
X8795900Y4743200D02*
X8795900Y4875000D01*
X-8100000Y13450000D02*
X-7264900Y13450000D01*
X-8206200Y13450000D02*
X-8100000Y13450000D01*
X-8206200Y13450000D02*
X-8312400Y13450000D01*
X-8517500Y13450000D02*
X-8935100Y13450000D01*
X-8517500Y13450000D02*
X-8312400Y13450000D01*
X-9800000Y11750000D02*
X-8935100Y12614900D01*
X-8935100Y12614900D02*
X-8935100Y13450000D01*
X9800000Y11550000D02*
X9800000Y11750000D01*
X9669400Y4789800D02*
X10305200Y5425600D01*
X10305200Y5425600D02*
X10305200Y11044800D01*
X10305200Y11044800D02*
X9800000Y11550000D01*
X9800000Y11550000D02*
X8100000Y11550000D01*
X-2738300Y10043400D02*
X-1600000Y8905100D01*
X-2738300Y10400000D02*
X-4000000Y10400000D01*
X-8100000Y12500000D02*
X-7264900Y12500000D01*
X-7264900Y12500000D02*
X-7264900Y11674700D01*
X-7264900Y11674700D02*
X-5990200Y10400000D01*
X-5990200Y10400000D02*
X-4000000Y10400000D01*
X-12312900Y10988300D02*
X-9224300Y10988300D01*
X-9224300Y10988300D02*
X-8993900Y11218700D01*
X-8993900Y11218700D02*
X-8993900Y11954000D01*
X-8993900Y11954000D02*
X-8447900Y12500000D01*
X-8447900Y12500000D02*
X-8100000Y12500000D01*
X-9792000Y347000D02*
X-7603000Y347000D01*
X-7603000Y347000D02*
X-5900000Y2050000D01*
X-11525400Y342000D02*
X-9797000Y342000D01*
X-9797000Y342000D02*
X-9792000Y347000D01*
X-11900000Y3750000D02*
X-12656100Y2993900D01*
X-12656100Y2993900D02*
X-12656100Y1472700D01*
X-12656100Y1472700D02*
X-11525400Y342000D01*
X-11525400Y342000D02*
X-12007700Y-140300D01*
X-12007700Y-140300D02*
X-12007700Y-3276400D01*
X-12007700Y-3276400D02*
X-11768900Y-3515200D01*
X-1600000Y7900000D02*
X-1600000Y8905100D01*
X-12661300Y-10050000D02*
X-12661300Y-13438700D01*
X-12661300Y-13438700D02*
X-11900000Y-14200000D01*
X-11768900Y-3515200D02*
X-12661300Y-4407600D01*
X-12661300Y-4407600D02*
X-12661300Y-10050000D01*
X-12661300Y-10050000D02*
X-8890000Y-10050000D01*
X-11768900Y-3515200D02*
X-11015200Y-3515200D01*
X-11015200Y-3515200D02*
X-10400000Y-2900000D01*
X-9200000Y-2900000D02*
X-10400000Y-2900000D01*
X7264900Y10391200D02*
X7713900Y10391200D01*
X7713900Y10391200D02*
X8400000Y9705100D01*
X4000000Y10391200D02*
X7264900Y10391200D01*
X7264900Y10391200D02*
X7264900Y12500000D01*
X8100000Y12500000D02*
X7264900Y12500000D01*
X8400000Y8700000D02*
X8400000Y9705100D01*
X4000000Y10391200D02*
X4000000Y8594900D01*
X4000000Y10400000D02*
X4000000Y10391200D01*
X-2200000Y1655100D02*
X-2750000Y1105100D01*
X-2200000Y3500000D02*
X-2200000Y1655100D01*
X1600000Y4550000D02*
X550000Y3500000D01*
X550000Y3500000D02*
X-2200000Y3500000D01*
X-5900000Y2050000D02*
X-4955100Y1105100D01*
X-4955100Y1105100D02*
X-2750000Y1105100D01*
X-2750000Y150000D02*
X-2750000Y1105100D01*
X10362500Y-2300000D02*
X8950000Y-2300000D01*
X8950000Y-2300000D02*
X8100000Y-1450000D01*
X12000000Y-1000000D02*
X10700000Y-2300000D01*
X10700000Y-2300000D02*
X10362500Y-2300000D01*
X10362500Y-2300000D02*
X10362500Y-4632400D01*
X10362500Y-4632400D02*
X9800000Y-5194900D01*
X8400000Y8700000D02*
X8400000Y7694900D01*
X8400000Y7694900D02*
X8126300Y7421200D01*
X8126300Y7421200D02*
X8126300Y4032400D01*
X8126300Y4032400D02*
X12000000Y158700D01*
X12000000Y158700D02*
X12000000Y-1000000D01*
X-12312900Y10988300D02*
X-12695600Y10605600D01*
X-12695600Y10605600D02*
X-12695600Y4545600D01*
X-12695600Y4545600D02*
X-11900000Y3750000D01*
X3184100Y5788300D02*
X3856100Y5116300D01*
X3856100Y5116300D02*
X3856100Y2211200D01*
X3856100Y2211200D02*
X2750000Y1105100D01*
X2903100Y-12596900D02*
X3000000Y-12500000D01*
X200000Y-14250000D02*
X200000Y-13444900D01*
X1050000Y-12351200D02*
X1050000Y-12451800D01*
X3000000Y-12500000D02*
X3000000Y-10943400D01*
X3000000Y-10943400D02*
X2540000Y-10483400D01*
X2540000Y-10483400D02*
X2540000Y-9758300D01*
X2540000Y-9758300D02*
X1774300Y-8992600D01*
X1774300Y-8992600D02*
X785300Y-8992600D01*
X785300Y-8992600D02*
X-206800Y-9984700D01*
X-206800Y-9984700D02*
X-206800Y-10509300D01*
X-206800Y-10509300D02*
X-1042400Y-11344900D01*
X-1042400Y-11344900D02*
X-1200000Y-11344900D01*
X9800000Y-7805100D02*
X9157900Y-7805100D01*
X9157900Y-7805100D02*
X7657000Y-9306000D01*
X7657000Y-9306000D02*
X7657000Y-10615600D01*
X7657000Y-10615600D02*
X4922600Y-13350000D01*
X4922600Y-13350000D02*
X3850000Y-13350000D01*
X3850000Y-13350000D02*
X3000000Y-12500000D01*
X-1200000Y-12150000D02*
X-1200000Y-11344900D01*
X1050000Y-12351200D02*
X1050000Y-12150000D01*
X-10732500Y-14200000D02*
X-10732500Y-13597400D01*
X-10732500Y-13597400D02*
X-10535100Y-13400000D01*
X-5300000Y-14200000D02*
X-6005200Y-14905200D01*
X-6005200Y-14905200D02*
X-10421900Y-14905200D01*
X-10421900Y-14905200D02*
X-10732500Y-14594600D01*
X-10732500Y-14594600D02*
X-10732500Y-14200000D01*
X-11900000Y-14200000D02*
X-10732500Y-14200000D01*
X-3800000Y-14200000D02*
X-5300000Y-14200000D01*
X-9700000Y-13400000D02*
X-10535100Y-13400000D01*
X4000000Y8594900D02*
X3184100Y7779000D01*
X3184100Y7779000D02*
X3184100Y5788300D01*
X-11500000Y13250000D02*
X-12312900Y12437100D01*
X-12312900Y12437100D02*
X-12312900Y10988300D01*
X9800000Y-6500000D02*
X9800000Y-7805100D01*
X6800000Y-5294900D02*
X6900000Y-5194900D01*
X6900000Y-5194900D02*
X9800000Y-5194900D01*
X1600000Y4550000D02*
X2838300Y5788300D01*
X2838300Y5788300D02*
X3184100Y5788300D01*
X2750000Y150000D02*
X2750000Y1105100D01*
X8100000Y12500000D02*
X8935100Y12500000D01*
X11500000Y13250000D02*
X10724000Y14026000D01*
X10724000Y14026000D02*
X9273800Y14026000D01*
X9273800Y14026000D02*
X8935100Y13687300D01*
X8935100Y13687300D02*
X8935100Y12500000D01*
X6800000Y-6000000D02*
X6800000Y-5294900D01*
X9800000Y-6500000D02*
X9800000Y-5194900D01*
X0Y1105200D02*
X-1650100Y1105200D01*
X-1650100Y1105200D02*
X-2200000Y1655100D01*
X100Y1105100D02*
X0Y1105200D01*
X750000Y150000D02*
X750000Y1105100D01*
X250000Y1060200D02*
X205100Y1105100D01*
X250000Y150000D02*
X250000Y1060200D01*
X205100Y1105100D02*
X100Y1105100D01*
X750000Y1105100D02*
X205100Y1105100D01*
X-2738300Y10400000D02*
X-2738300Y10043400D01*
X-2738300Y10761700D02*
X-1700000Y11800000D01*
X-2738300Y10400000D02*
X-2738300Y10761700D01*
X1050000Y-12150000D02*
X1050000Y-12950000D01*
X555100Y-13444900D02*
X200000Y-13444900D01*
X1050000Y-12950000D02*
X555100Y-13444900D01*
X2903399Y-12596601D02*
X3000000Y-12500000D01*
X2203399Y-12596601D02*
X2903399Y-12596601D01*
X1850000Y-12950000D02*
X2203399Y-12596601D01*
X1050000Y-12950000D02*
X1850000Y-12950000D01*
X-5900000Y-7000000D02*
X-4695500Y-7000000D01*
X-4695500Y-7000000D02*
X1250000Y-1054500D01*
X1250000Y-1054500D02*
X1250000Y150000D01*
X-5900000Y-7000000D02*
X-7400000Y-7000000D01*
X-7400000Y-7000000D02*
X-8900000Y-7000000D01*
X-10400000Y-7000000D02*
X-11900000Y-7000000D01*
X-8900000Y-7000000D02*
X-10400000Y-7000000D01*
X1250000Y2000000D02*
X1250000Y150000D01*
X1250000Y2000000D02*
X1250000Y2500000D01*
X1250000Y2500000D02*
X1600000Y2850000D01*
X1250000Y2000000D02*
X-350000Y2000000D01*
X1600000Y2850000D02*
X1600000Y3050000D01*
X1600000Y3050000D02*
X3100000Y4550000D01*
X-11900000Y2050000D02*
X-10888900Y1038900D01*
X-10888900Y1038900D02*
X-8817800Y1038900D01*
X8300000Y-6500000D02*
X8300000Y-7805100D01*
X8300000Y-7805100D02*
X7334100Y-8771000D01*
X7334100Y-8771000D02*
X6129900Y-8771000D01*
X6129900Y-8771000D02*
X5080000Y-9820900D01*
X5080000Y-9820900D02*
X5080000Y-11920000D01*
X5080000Y-11920000D02*
X4500000Y-12500000D01*
X4500000Y-14200000D02*
X5461400Y-14200000D01*
X5461400Y-14200000D02*
X5461400Y-14199900D01*
X-500000Y-13163300D02*
X-500000Y-12150000D01*
X3000000Y-14200000D02*
X4500000Y-14200000D01*
X200000Y-11344900D02*
X1501400Y-11344900D01*
X1501400Y-11344900D02*
X2040100Y-11883600D01*
X2040100Y-11883600D02*
X2040100Y-11987000D01*
X200000Y-12150000D02*
X200000Y-11344900D01*
X-5306900Y-11660200D02*
X-5306900Y-11488700D01*
X-5306900Y-11660200D02*
X-4639800Y-11660200D01*
X-4639800Y-11660200D02*
X-3800000Y-12500000D01*
X-6664900Y-12450000D02*
X-5875100Y-11660200D01*
X-5875100Y-11660200D02*
X-5306900Y-11660200D01*
X-7500000Y-12450000D02*
X-6664900Y-12450000D01*
X-7500000Y-14350000D02*
X-6664900Y-14350000D01*
X-6664900Y-14350000D02*
X-6664900Y-13864900D01*
X-6664900Y-13864900D02*
X-5300000Y-12500000D01*
X-9800000Y13250000D02*
X-10000000Y13250000D01*
X-10000000Y13250000D02*
X-11500000Y11750000D01*
X9800000Y13250000D02*
X11300000Y11750000D01*
X11300000Y11750000D02*
X11500000Y11750000D01*
X5326200Y2605700D02*
X5326200Y8481200D01*
X3155100Y-4037700D02*
X3155100Y-809100D01*
X3155100Y-809100D02*
X6463900Y2499700D01*
X6463900Y2499700D02*
X6463900Y6948300D01*
X-8900000Y5366200D02*
X-8951000Y5417200D01*
X-8951000Y5417200D02*
X-11040200Y5417200D01*
X-11040200Y5417200D02*
X-11678400Y4779000D01*
X-8900000Y5366200D02*
X-8900000Y3750000D01*
X-6414100Y-8123500D02*
X-4209100Y-8123500D01*
X-4209100Y-8123500D02*
X-2540000Y-9792600D01*
X-2540000Y-9792600D02*
X-2540000Y-10854900D01*
X-2540000Y-10854900D02*
X-2050000Y-11344900D01*
X-2050000Y-12150000D02*
X-2050000Y-11344900D01*
X-1200000Y-14250000D02*
X-1200000Y-13444900D01*
X-5096600Y-8784500D02*
X-5096600Y-10290800D01*
X-5096600Y-10290800D02*
X-3996200Y-11391200D01*
X-3996200Y-11391200D02*
X-3639000Y-11391200D01*
X-3639000Y-11391200D02*
X-3043900Y-11986300D01*
X-3043900Y-11986300D02*
X-3043900Y-12470800D01*
X-3043900Y-12470800D02*
X-2069800Y-13444900D01*
X-2069800Y-13444900D02*
X-1200000Y-13444900D01*
X-7400000Y3750000D02*
X-7400000Y4413100D01*
X-7400000Y4413100D02*
X-8014500Y5027600D01*
X-8100000Y11550000D02*
X-8100000Y10700000D01*
X8100000Y13450000D02*
X7000000Y13450000D01*
M02*
