M48
; DRILL file {KiCad (5.1.9-0-10_14)} date Saturday, July 10, 2021 at 08:48:49 PM
; FORMAT={-:-/ absolute / metric / decimal}
; #@! TF.CreationDate,2021-07-10T20:48:49+09:00
; #@! TF.GenerationSoftware,Kicad,Pcbnew,(5.1.9-0-10_14)
FMAT,2
METRIC
T1C0.305
T2C0.800
T3C0.900
%
G90
G05
T1
X-11.678Y4.779
X-10.4Y4.769
X-9.854Y-1.025
X-9.792Y0.347
X-9.618Y-1.839
X-8.9Y5.366
X-8.818Y1.039
X-8.1Y10.7
X-8.014Y5.028
X-6.414Y-8.123
X-6.116Y6.662
X-5.574Y4.791
X-5.537Y7.285
X-5.307Y-11.489
X-5.124Y8.022
X-5.097Y-8.784
X-3.499Y-0.336
X-3.111Y-3.584
X-2.889Y-2.312
X-2.083Y-3.486
X-2.001Y-2.313
X-1.7Y11.8
X-1.067Y11.111
X-0.809Y-8.045
X-0.665Y-1.648
X-0.5Y-13.163
X0.004Y-1.023
X2.04Y-11.987
X3.155Y-4.038
X5.283Y0.431
X5.326Y8.481
X5.326Y2.606
X5.461Y-14.2
X5.574Y-5.021
X6.296Y-6.913
X6.464Y6.948
X7.0Y13.45
X8.796Y4.875
X9.669Y4.79
T2
X12.0Y-1.0
X12.0Y-3.0
X12.0Y-5.0
T3
X-8.89Y-10.05
X-6.35Y-10.05
X-3.81Y-10.05
X-1.27Y-10.05
X1.27Y-10.05
X3.81Y-10.05
X6.35Y-10.05
X8.89Y-10.05
T0
M30
